<svg width="565" height="487" viewBox="0 0 565 487" fill="none" xmlns="http://www.w3.org/2000/svg">
  <path d="M153.451 287.313C156.172 284.593 161.255 278.418 164.529 267.75C166.555 261.148 166.98 256.766 167.419 252.243C168.031 245.942 168.669 239.366 173.698 226.13C182.338 203.393 173.301 173.245 172.371 171.009C171.442 168.773 156.989 175.964 150.981 193.167L158.374 171.463C154.968 174.168 151.511 176.88 148.702 179.006C152.844 174.518 156.926 169.954 160.545 165.087L167.248 145.408C163.492 146.409 159.819 147.734 156.175 149.049C147.448 152.198 138.883 155.287 129.729 153.726C129.729 153.726 159.363 150.597 168.91 136.152C170.529 133.702 171.8 131.333 172.832 129.015C174.278 125.77 175.258 122.622 176.078 119.485C176.496 117.89 176.874 116.307 177.254 114.721L177.254 114.719L177.255 114.715L177.255 114.713C178.884 107.901 180.527 101.032 185.296 92.9097C187.789 88.6634 188.717 85.1691 189.577 81.9333C190.655 77.8731 191.625 74.2199 195.444 69.9988C201.359 63.4592 204.452 57.3687 207.36 51.6418C211.285 43.9107 214.875 36.8424 224.619 30.227C223.46 28.6431 240.981 19.5118 258.499 13.1051C262.094 11.7904 265.688 10.5905 269.122 9.59402C270.705 9.66318 272.199 9.83647 273.612 10.1058C273.612 10.1058 330.096 -6.98912 361.876 16.5441C390.394 37.6622 401.267 60.9648 417.59 95.9508M153.451 287.313C152.309 288.456 151.583 288.988 151.583 288.988C152.23 288.374 152.852 287.819 153.451 287.313ZM153.451 287.313C155.816 285.318 157.826 284.092 159.616 283C163.004 280.933 165.603 279.348 168.323 273.939C169.436 284.319 169.122 284.783 165.797 289.708L165.796 289.709C164.835 291.132 163.622 292.929 162.119 295.445C164.909 294.521 166.924 294.13 168.698 293.785C172.685 293.01 175.457 292.471 183.092 286.662C179.877 295.034 179.377 299.681 180.57 307.867C187.029 300.451 191.519 297.458 203.14 296.986C208.052 301.696 209.411 304.713 210.107 310.566C215.565 304.474 219.545 301.351 230.396 296.986L239.232 314.965L236.494 333.935C227.968 343.316 222.359 347.402 208.8 349.628C156.185 356.24 128.257 358.949 75.319 373.698C22.3809 388.447 4.44391 483.389 4.44391 483.389H560.557C560.557 483.389 548.543 430.27 524.909 409.726C511.314 397.907 488.859 387.482 488.859 387.482C451.935 368.7 429.71 362.195 391.235 360.101C386.951 356.735 384.23 354.09 381.982 351.12C379.855 348.308 378.151 345.205 375.949 340.922C375.199 338.374 374.68 334.929 374.322 331.382C373.517 323.429 373.517 314.965 373.517 314.965L378.551 303.821C384.469 304.406 386.319 306.827 388.881 312.198C394.1 307.622 394.516 297.455 394.516 297.455C395.786 295.545 407.324 303.673 409.541 312.198C407.915 305.252 408.889 301.665 411.733 295.445C413.024 301.395 413.904 304.638 416.428 309.852C416.428 309.852 419.552 293.281 426.018 286.976C427.173 287.394 428.255 287.75 429.269 288.084L429.271 288.085L429.273 288.085L429.275 288.086C435.249 290.054 438.871 291.248 441.231 299.568C442.094 294.831 441.104 292.097 440.284 289.836C439.34 287.232 438.623 285.254 441.231 281.563C443.951 282.644 446.478 282.778 448.83 282.902C452.498 283.096 455.739 283.267 458.623 286.976C456.564 280.22 452.893 274.978 452.893 274.978C452.893 274.978 458.919 273.987 466.119 280.481C466.119 280.481 456.824 270.433 454.738 264.443C451.204 254.295 450.644 249.805 449.726 242.449C449.384 239.702 448.991 236.554 448.375 232.563C446.78 222.236 446.866 215.131 446.952 208.072C447.043 200.543 447.134 193.064 445.184 181.78C442.638 167.04 440.122 154.671 436.576 142.572M418.34 97.5573C419.975 101.061 421.667 104.681 423.439 108.427C426.005 113.85 428.24 119.002 430.217 124.023M418.34 97.5573C418.34 97.5573 439.642 129.485 447.539 156.479C451.447 164.234 454.846 172.979 455.479 180.801C456.713 196.041 448.375 219.227 448.375 219.227C448.375 219.227 453.582 197.763 452.229 183.98C451.968 181.315 451.417 178.491 450.672 175.62C451.282 187.553 450.23 196.828 450.23 196.828C450.23 196.828 450.139 180.714 448.016 167.159C443.333 154.225 436.576 142.572 436.576 142.572M418.34 97.5573L417.59 95.9508M418.34 97.5573C418.089 97.019 417.839 96.4836 417.59 95.9508M430.217 124.023C431.638 127.629 432.924 131.168 434.104 134.69M430.217 124.023C430.217 124.023 436.525 134.347 441.548 145.782C437.476 139.143 434.104 134.69 434.104 134.69M436.576 142.572C435.804 139.939 434.984 137.319 434.104 134.69M164.593 161.979C164.593 161.979 169.743 157.602 171.595 153.726C173.411 149.924 173.759 143.04 173.759 143.04L164.593 161.979ZM191.911 300.079C193.75 304.287 193.224 306.825 191.911 311.394C194.838 304.832 197.15 301.948 203.14 299.001C198.931 298.567 196.523 298.552 191.911 300.079ZM231.115 301.965C228.389 307.44 227.837 311.577 227.088 319.207C226.245 312.031 225.735 308.027 222.809 301.965C225.619 300.363 227.143 299.613 229.605 299.001L231.115 301.965ZM169.448 272.868L175.741 254.279L174.986 272.06L170.707 281.22L169.448 272.868ZM169.448 295.102L170.707 306.545V294.421L169.448 295.102ZM441.231 286.976C443.94 292.535 444.976 295.863 446.448 301.965C445.749 294.724 445.65 290.802 446.448 284.28C444.388 285.054 443.237 284.914 441.231 283.501C440.808 284.858 440.771 285.619 441.231 286.976ZM450.23 272.536L447.049 269.055L445.184 258.898L443.457 245.854L450.23 272.536Z" stroke="black" stroke-width="7"/>
</svg>
