<svg id="grouped-smoke-clouds" width="1150" height="389" viewBox="0 0 1150 389" fill="none" xmlns="http://www.w3.org/2000/svg">
  <g id="smoke-clouds-1">
    <path class="bright-trace" d="M1133.72 349.045L1145.66 350.652C1142.29 350.793 1138.27 350.267 1133.72 349.045L821.54 307.056C905.337 285.008 944.288 241.911 955.72 178.738C958.36 164.149 960.54 104.242 960.54 82.1279C960.54 82.1279 981.779 132.645 990.194 162.217C1024.41 282.456 1096.52 339.051 1133.72 349.045Z" fill="#D7D7D7"/>
    <path class="bright-cloud" d="M513.587 40.7678C395.694 5.29564 298.045 31.477 258.113 78.5566C33.9409 36.884 -37.909 240.782 146.57 221.363C163.079 235.508 325.302 269.748 484.458 233.014C536.457 254.034 768.509 275.937 806.812 258.259C1074.81 290.02 999.821 -104.429 748.555 78.5565C731.461 19.6915 577.386 11.1886 513.587 40.7678Z" fill="#D7D7D7"/>
    <path class="dark-cloud" d="M89.8943 238.68C53.4184 222.542 -5.89021 233.347 0.984354 256.918C6.31471 275.194 53.4184 275.155 53.4184 275.155C50.173 281.424 93.3289 304.695 114.061 293.271C119.138 306.81 235.399 325.391 252.646 310.797C269.155 324.942 443.426 374.754 602.583 338.02C654.581 359.04 802.096 372.805 840.399 355.127C1099.58 379.967 934.699 59.4371 756.919 222.542C739.826 163.677 630.226 142.008 566.427 171.587C448.535 136.115 333.707 154.926 293.774 202.006C233.531 192.246 101.293 211.323 89.8943 238.68Z" fill="#A1A1A1"/>
    <path class="dark-trace" d="M1149.05 351.439H904.754C904.754 351.439 966.458 346.688 971.851 294.064C975.975 253.822 949.348 218.35 946.686 214.918C946.615 214.827 946.544 214.737 946.473 214.646C946.473 214.646 946.547 214.738 946.686 214.918C1013.63 300.231 1072.72 341.485 1149.05 351.439Z" fill="#A1A1A1"/>
  </g>
  <g id="smoke-clouds-2">
    <path class="bright-cloud" d="M422.562 42.9013C371.357 -4.73081 258.113 35.7564 258.113 78.5567C33.941 36.884 34.1172 252.433 218.596 233.015C235.105 247.159 325.302 269.748 484.459 233.015C536.457 254.034 768.509 275.937 806.812 258.259C1074.81 290.02 996.53 -132.147 705.973 42.9015C641.67 -8.30304 486.361 13.3221 422.562 42.9013Z" fill="#D7D7D7"/>
    <path class="dark-cloud" d="M89.8945 238.68C65.2855 195.255 13.1583 219.269 7.20342 243.089C2.07838 263.589 53.4185 275.155 53.4185 275.155C27.8945 295.076 97.7443 326.798 114.061 293.271C107.994 326.798 239.374 307.865 256.622 293.271C273.13 307.416 442.553 347.53 601.71 310.797C611.758 364.329 825.49 378.604 840.399 355.127C1107.14 376.362 934.699 59.4371 756.92 222.542C739.826 163.677 630.227 142.008 566.427 171.587C521.417 101.295 324.956 104.712 293.774 202.006C233.531 192.246 109.703 161.087 89.8945 238.68Z" fill="#A1A1A1"/>
  </g>
  <g id="smoke-clouds-3">
    <path class="bright-cloud" d="M509.65 69.0193C391.757 33.5471 267.022 82.6629 267.022 110.745C240.237 42.3092 160.389 52.02 132.572 84.4733C132.572 48.9292 39.8481 86.0187 86.2101 98.3819C52.9294 89.5071 16.6676 180.288 90.8463 164.834C46.03 194.197 100.119 248.286 146.57 221.363C163.079 235.508 325.302 269.748 484.458 233.014C536.457 254.034 768.509 275.937 806.812 258.259C1074.81 290.02 1000.45 -103.148 749.187 79.8372C712.729 25.4836 573.449 39.4401 509.65 69.0193Z" fill="#D7D7D7"/>
    <path class="dark-cloud" d="M89.8945 238.679C78.45 210.836 26.1989 214.951 19.888 238.679C15.1574 256.466 53.4185 275.155 53.4185 275.155C29.8766 287.376 75.3926 319.373 114.061 293.271C123.3 327.1 209.842 350.281 252.646 310.796C268.567 361.099 452.47 409.007 602.583 338.02C613.191 402.825 824.911 401.28 840.399 355.127C1099.58 379.967 934.699 59.4368 756.919 222.542C763.095 140.107 588.465 147.834 566.427 171.587C539.012 137.017 304.112 116.926 293.774 202.006C269.801 173.302 102.737 168.15 89.8945 238.679Z" fill="#A1A1A1"/>
  </g>
</svg>