<svg id="loader-logo" width="1305" height="681" viewBox="0 0 1305 681" fill="none" xmlns="http://www.w3.org/2000/svg">
  <g id="full-tyre-mask-group">
    <mask id="mask0_356_960" style="mask-type:alpha" maskUnits="userSpaceOnUse" x="0" y="0" width="387" height="491">
      <g id="back-rectangle">
        <path d="M144.473 490.625H0.124115L0.124115 0.186493L386.752 0.186493L144.473 490.625Z" fill="#000747"/>
      </g>
    </mask>
    <g mask="url(#mask0_356_960)">
      <g id="full-tyre">
        <path id="tyre" d="M520.315 260.363C520.315 403.957 403.909 520.363 260.315 520.363C116.721 520.363 0.314941 403.957 0.314941 260.363C0.314941 116.769 116.721 0.362793 260.315 0.362793C403.909 0.362793 520.315 116.769 520.315 260.363ZM38.6406 260.363C38.6406 382.79 137.888 482.037 260.315 482.037C382.742 482.037 481.989 382.79 481.989 260.363C481.989 137.935 382.742 38.6885 260.315 38.6885C137.888 38.6885 38.6406 137.935 38.6406 260.363Z" fill="#4E4E4E"/>
        <g id="rim">
          <path fill-rule="evenodd" clip-rule="evenodd" d="M480.315 260.363C480.315 300.482 469.576 338.093 450.816 370.478C412.761 436.172 341.699 480.363 260.315 480.363C178.931 480.363 107.869 436.172 69.8135 370.478C51.0537 338.093 40.3149 300.482 40.3149 260.363C40.3149 220.405 50.9675 182.935 69.5876 150.639C107.587 84.7285 178.77 40.3628 260.315 40.3628C341.86 40.3628 413.043 84.7285 451.042 150.639C469.662 182.935 480.315 220.405 480.315 260.363ZM124.1 143.322L124.099 143.321L124.097 143.32L124.096 143.32C120.406 142.044 116.703 140.765 113.001 139.513C141.727 104.457 182.694 79.8383 229.365 72.2025C228.57 76.1719 227.802 80.1563 227.037 84.1261L227.036 84.1322L227.036 84.1332L227.036 84.1344C222.16 109.441 217.398 134.15 206.554 150.549C203.334 155.418 198.016 158.487 192.19 158.843C172.482 160.046 148.563 151.778 124.1 143.322ZM239.137 70.863C235.854 71.2267 232.596 71.6739 229.365 72.2025C229.704 70.5092 230.048 68.8185 230.398 67.133C230.831 65.0499 229.029 63.1804 226.939 63.5824C202.828 68.2214 180.526 76.0667 160.616 87.6262C140.649 99.0853 122.701 114.5 106.624 133.059C105.231 134.667 105.948 137.163 107.969 137.83C109.646 138.383 111.323 138.945 113.001 139.513C110.867 142.117 108.801 144.779 106.805 147.496C103.438 146.081 100.867 145.007 99.4068 144.397C98.5781 144.052 97.6625 144.32 97.1123 145.03C95.6788 146.879 94.4552 148.519 93.3121 150.137C129.095 95.9057 190.531 60.1277 260.315 60.1277C330.099 60.1277 391.535 95.9058 427.318 150.138C426.175 148.519 424.951 146.879 423.518 145.03C422.967 144.32 422.052 144.052 421.223 144.398C419.763 145.007 417.192 146.081 413.825 147.496C411.829 144.779 409.763 142.117 407.628 139.513C409.306 138.945 410.984 138.383 412.661 137.83C414.681 137.163 415.399 134.667 414.006 133.059C397.929 114.5 379.981 99.0853 360.014 87.6263C340.104 76.0667 317.802 68.2214 293.69 63.5824C291.601 63.1804 289.798 65.0499 290.232 67.133C290.582 68.8186 290.926 70.5092 291.265 72.2025C288.034 71.6739 284.776 71.2267 281.493 70.863C281.047 67.3207 280.701 64.6166 280.503 63.0717C280.389 62.1811 279.699 61.5218 278.809 61.3995C272.089 60.4762 267.774 60.2028 260.315 60.1393C252.856 60.2028 248.541 60.4761 241.82 61.3995C240.931 61.5218 240.241 62.181 240.127 63.0717C239.929 64.6166 239.583 67.3207 239.137 70.863ZM239.137 70.863C246.091 70.0929 253.157 69.6976 260.315 69.6976C267.473 69.6976 274.539 70.0929 281.493 70.863C284.137 91.8668 290.315 142.34 290.315 155.363C290.315 171.931 276.883 185.363 260.315 185.363C243.746 185.363 230.315 171.931 230.315 155.363C230.315 142.34 236.493 91.8668 239.137 70.863ZM291.265 72.2025C337.935 79.8382 378.903 104.457 407.628 139.513C403.927 140.765 400.225 142.044 396.536 143.32L396.529 143.322C372.067 151.778 348.148 160.046 328.44 158.843C322.614 158.487 317.296 155.418 314.076 150.549C303.232 134.15 298.47 109.441 293.594 84.1344C292.829 80.1619 292.06 76.1747 291.265 72.2025ZM434.978 184.242C418.01 197.09 377.579 227.485 366.33 233.97C351.975 242.244 333.631 237.316 325.356 222.961C317.082 208.607 322.011 190.262 336.365 181.988C347.618 175.501 394.217 155.734 413.825 147.496C422.169 158.851 429.285 171.165 434.978 184.242ZM439.638 171.584C452.875 198.333 460.315 228.467 460.315 260.34C460.315 292.422 452.777 322.741 439.379 349.62C440.178 347.879 440.96 346.058 441.813 343.97C442.153 343.139 441.928 342.212 441.214 341.667C439.955 340.705 437.735 339.012 434.821 336.798C436.121 333.83 437.347 330.822 438.498 327.777C439.831 328.952 441.16 330.13 442.48 331.311C444.066 332.729 446.587 332.106 447.286 330.096C455.349 306.904 459.754 283.659 459.723 260.637C459.809 237.615 455.481 214.372 447.472 191.162C446.778 189.151 444.259 188.521 442.67 189.936C441.353 191.107 440.029 192.276 438.7 193.441C437.537 190.336 436.296 187.268 434.978 184.242C437.9 182.03 440.126 180.338 441.387 179.378C442.102 178.834 442.329 177.907 441.99 177.076C441.167 175.051 440.409 173.277 439.638 171.584ZM413.592 373.501C421.959 362.163 429.101 349.863 434.821 336.798C417.879 323.927 377.484 293.459 366.244 286.955C351.903 278.658 333.55 283.557 325.253 297.898C316.956 312.24 321.855 330.592 336.196 338.889C347.438 345.393 393.992 365.23 413.592 373.501ZM427.005 371.016C431.551 364.169 435.687 357.025 439.379 349.62C437.773 353.113 436.099 356.279 433.642 360.609C431.124 364.878 429.22 367.899 427.005 371.016ZM265.836 460.478C333.13 458.653 392.128 423.551 427.005 371.016C425.886 372.591 424.687 374.19 423.29 375.987C422.738 376.695 421.822 376.962 420.994 376.615C419.534 376.003 416.962 374.923 413.592 373.501C411.645 376.141 409.631 378.728 407.553 381.26C403.852 380.007 400.151 378.727 396.462 377.451L396.46 377.45L396.457 377.449L396.455 377.448L396.453 377.447L396.45 377.447L396.448 377.446L396.446 377.445C371.986 368.983 348.07 360.71 328.362 361.908C322.536 362.262 317.217 365.33 313.996 370.198C303.147 386.594 298.38 411.302 293.498 436.608L293.497 436.613C292.733 440.568 291.967 444.538 291.175 448.493C287.976 449.015 284.749 449.457 281.498 449.817C284.146 428.786 290.315 378.377 290.315 365.363C290.315 348.794 276.883 335.363 260.315 335.363C243.746 335.363 230.315 348.794 230.315 365.363C230.315 378.377 236.484 428.786 239.132 449.817C235.881 449.457 232.654 449.015 229.455 448.493C228.662 444.536 227.896 440.565 227.132 436.608C222.25 411.302 217.482 386.594 206.634 370.198C203.413 365.33 198.094 362.262 192.268 361.908C172.56 360.71 148.643 368.984 124.182 377.446L124.177 377.448L124.17 377.45L124.16 377.453C120.474 378.729 116.775 380.008 113.077 381.26C110.999 378.728 108.985 376.14 107.037 373.501C126.637 365.23 173.192 345.393 184.434 338.889C198.775 330.592 203.674 312.24 195.377 297.898C187.08 283.557 168.727 278.658 154.386 286.955C143.146 293.459 102.751 323.927 85.8088 336.798C84.5091 333.83 83.2828 330.822 82.1322 327.777C85.0592 325.198 88.0105 322.632 90.9516 320.075L90.9571 320.07C110.49 303.088 129.589 286.484 138.379 268.804C140.977 263.577 140.971 257.437 138.357 252.217C129.556 234.637 110.517 218.184 91.0173 201.332C87.9871 198.713 84.9458 196.085 81.9301 193.441C83.0928 190.336 84.3341 187.268 85.6516 184.242C102.619 197.09 143.051 227.485 154.3 233.97C168.655 242.244 186.999 237.316 195.274 222.961C203.548 208.607 198.619 190.262 184.265 181.988C173.011 175.501 126.413 155.734 106.805 147.496C98.4614 158.851 91.3451 171.165 85.6516 184.242C82.7301 182.03 80.5042 180.338 79.2426 179.378C78.5281 178.834 78.3013 177.907 78.6397 177.076C79.4633 175.051 80.2207 173.277 80.9918 171.584C84.6641 164.163 88.7826 157.002 93.3121 150.137C91.141 153.212 89.2605 156.211 86.7842 160.423C84.2967 164.825 82.6139 168.023 80.9918 171.584C67.7552 198.333 60.3149 228.467 60.3149 260.34C60.3149 292.422 67.8525 322.741 81.2515 349.62C82.8565 353.113 84.5308 356.279 86.9875 360.609C89.5057 364.878 91.4092 367.898 93.6245 371.015C128.501 423.551 187.5 458.653 254.794 460.478C256.475 460.536 258.278 460.569 260.315 460.586C262.352 460.569 264.155 460.536 265.836 460.478ZM265.836 460.478C270.31 460.325 273.924 459.997 278.809 459.326C279.699 459.204 280.389 458.545 280.503 457.654C280.702 456.102 281.05 453.382 281.498 449.817C274.543 450.588 267.475 450.983 260.315 450.983C253.155 450.983 246.087 450.588 239.132 449.817C239.58 453.382 239.928 456.102 240.127 457.654C240.241 458.545 240.931 459.204 241.82 459.326C246.705 459.997 250.32 460.325 254.794 460.478C256.628 460.528 258.469 460.553 260.315 460.553C262.161 460.553 264.002 460.528 265.836 460.478ZM93.6245 371.015C89.0787 364.168 84.9426 357.024 81.2515 349.62C80.452 347.88 79.6697 346.058 78.8164 343.97C78.4767 343.139 78.702 342.212 79.4157 341.667C80.6745 340.705 82.8948 339.012 85.8088 336.798C91.529 349.863 98.6705 362.163 107.037 373.501C103.668 374.923 101.096 376.003 99.6357 376.615C98.8076 376.962 97.8915 376.695 97.3402 375.987C95.9424 374.189 94.7437 372.59 93.6245 371.015ZM113.077 381.26C141.817 416.29 182.788 440.881 229.455 448.493C229.797 450.202 230.145 451.908 230.499 453.608C230.932 455.691 229.13 457.561 227.041 457.16C202.929 452.527 180.624 444.687 160.712 433.132C140.741 421.678 122.789 406.267 106.709 387.713C105.315 386.105 106.032 383.609 108.052 382.941C109.726 382.389 111.401 381.827 113.077 381.26ZM291.175 448.493C290.833 450.202 290.485 451.908 290.131 453.608C289.697 455.691 291.5 457.561 293.589 457.16C317.701 452.527 340.006 444.687 359.918 433.132C379.889 421.678 397.84 406.267 413.921 387.713C415.315 386.105 414.598 383.609 412.578 382.941C410.904 382.389 409.228 381.827 407.553 381.26C378.813 416.29 337.842 440.881 291.175 448.493ZM438.7 193.441C435.691 196.078 432.657 198.7 429.634 201.313L429.628 201.318L429.623 201.323L429.615 201.33L429.613 201.332C410.113 218.184 391.074 234.637 382.273 252.217C379.659 257.437 379.653 263.577 382.251 268.804C391.041 286.484 410.14 303.088 429.673 320.07C432.616 322.629 435.569 325.196 438.498 327.777C446.42 306.812 450.755 284.083 450.755 260.34C450.755 236.8 446.493 214.257 438.7 193.441ZM439.638 171.584C435.966 164.163 431.847 157.002 427.318 150.138C429.489 153.212 431.37 156.211 433.846 160.423C436.333 164.825 438.016 168.023 439.638 171.584ZM78.1496 331.311C79.47 330.13 80.7986 328.952 82.1322 327.777C74.2103 306.812 69.8746 284.083 69.8746 260.34C69.8746 236.8 74.1366 214.257 81.9301 193.441C80.6008 192.276 79.2766 191.107 77.9604 189.936C76.3712 188.521 73.8516 189.151 73.1576 191.162C65.1489 214.372 60.8213 237.615 60.9064 260.637C60.8754 283.659 65.2807 306.904 73.344 330.096C74.0427 332.106 76.5638 332.729 78.1496 331.311ZM215.776 235.413C216.426 235.623 217.04 235.893 217.614 236.216C221.114 238.184 223.105 242.094 222.636 246.084C222.636 246.092 222.635 246.099 222.634 246.107C222.558 246.739 222.421 247.373 222.217 248.002C220.52 253.258 214.883 256.142 209.628 254.444C204.372 252.746 201.488 247.11 203.186 241.854C203.44 241.069 203.781 240.336 204.197 239.664C204.747 238.774 205.425 237.99 206.199 237.329C207.74 236.013 209.659 235.184 211.692 234.977C212.318 234.913 212.956 234.908 213.597 234.966C213.602 234.967 213.608 234.967 213.614 234.968C214.334 235.034 215.059 235.181 215.776 235.413ZM260.266 220.363C265.789 220.363 270.266 215.886 270.266 210.363C270.266 204.84 265.789 200.363 260.266 200.363C254.743 200.363 250.266 204.84 250.266 210.363C250.266 212.633 251.022 214.726 252.296 216.404C253.686 218.234 255.69 219.57 258.002 220.105C258.082 220.124 258.163 220.141 258.243 220.158C258.897 220.292 259.573 220.363 260.266 220.363ZM232.799 222.599C231.454 223.566 229.58 223.26 228.612 221.915C227.773 220.748 227.893 219.183 228.817 218.157C228.958 218 229.118 217.856 229.296 217.728C230.631 216.769 232.485 217.062 233.46 218.379L233.484 218.412C234.424 219.72 234.161 221.529 232.908 222.517C232.873 222.545 232.837 222.572 232.799 222.599ZM210.156 276.668C210.355 277.304 210.747 277.825 211.247 278.19C211.99 278.733 212.972 278.927 213.917 278.63C215.498 278.133 216.376 276.449 215.879 274.868L215.867 274.829C215.773 274.544 215.64 274.283 215.477 274.049C215.433 273.987 215.387 273.927 215.339 273.869C214.585 272.948 213.322 272.528 212.117 272.906C210.537 273.404 209.658 275.088 210.156 276.668ZM222.958 294.749C226.212 290.287 232.468 289.309 236.93 292.564C241.392 295.818 242.37 302.074 239.115 306.536C238.127 307.891 236.861 308.925 235.453 309.617C232.291 311.169 228.411 310.996 225.333 308.857C225.27 308.813 225.206 308.767 225.143 308.721C220.681 305.467 219.703 299.211 222.958 294.749ZM260.315 313.115C261.818 313.115 263.063 312.009 263.281 310.566C263.303 310.419 263.315 310.268 263.315 310.115C263.315 309.79 263.263 309.477 263.168 309.184C262.776 307.983 261.647 307.115 260.315 307.115L260.274 307.115C258.956 307.132 257.843 308 257.458 309.195C257.456 309.203 257.454 309.211 257.451 309.218C257.363 309.501 257.315 309.802 257.315 310.115C257.315 310.264 257.326 310.411 257.347 310.554C257.56 312.003 258.807 313.115 260.315 313.115ZM310.489 276.751C310.239 277.515 309.711 278.11 309.054 278.461C309.049 278.465 309.043 278.468 309.037 278.471C308.344 278.836 307.508 278.931 306.704 278.668C305.13 278.152 304.272 276.457 304.788 274.882C305.299 273.321 306.971 272.464 308.534 272.954L308.573 272.966C310.144 273.481 311.002 275.17 310.492 276.742C310.491 276.745 310.49 276.748 310.489 276.751ZM298.406 248.048C299.628 251.815 302.875 254.36 306.551 254.87C306.582 254.874 306.613 254.878 306.644 254.882C307.387 254.978 308.148 254.991 308.913 254.914C309.61 254.843 310.31 254.698 311.004 254.473C316.257 252.768 319.134 247.128 317.429 241.874C315.724 236.621 310.084 233.745 304.831 235.45C299.578 237.154 296.701 242.795 298.406 248.048ZM292.01 221.891C291.325 222.834 290.195 223.261 289.118 223.093C288.663 223.023 288.218 222.846 287.82 222.557C287.286 222.169 286.917 221.639 286.728 221.056C286.443 220.175 286.568 219.174 287.154 218.367C288.119 217.037 289.972 216.733 291.31 217.677L291.344 217.701C292.685 218.674 292.983 220.55 292.01 221.891ZM283.708 292.584C279.24 295.83 278.249 302.084 281.496 306.552C284.742 311.02 290.996 312.01 295.464 308.764C299.932 305.518 300.922 299.264 297.676 294.796C294.429 290.328 288.176 289.338 283.708 292.584ZM280.315 260.363C280.315 271.408 271.361 280.363 260.315 280.363C249.269 280.363 240.315 271.408 240.315 260.363C240.315 249.317 249.269 240.363 260.315 240.363C271.361 240.363 280.315 249.317 280.315 260.363Z" fill="#A1A1A1"/>
          <path fill-rule="evenodd" clip-rule="evenodd" d="M228.817 218.157C227.893 219.183 227.773 220.748 228.612 221.915C229.58 223.26 231.454 223.566 232.799 222.599C232.837 222.572 232.873 222.545 232.908 222.517C232.395 222.93 231.742 223.177 231.031 223.177C229.375 223.177 228.033 221.835 228.033 220.179C228.033 219.4 228.33 218.69 228.817 218.157Z" fill="#A1A1A1"/>
          <path fill-rule="evenodd" clip-rule="evenodd" d="M217.614 236.216C216.413 235.537 215.058 235.099 213.614 234.968C214.334 235.034 215.059 235.181 215.776 235.413C216.426 235.623 217.04 235.893 217.614 236.216ZM212.7 254.943C217.828 254.943 222.054 251.082 222.634 246.107C222.558 246.739 222.421 247.373 222.217 248.002C220.52 253.258 214.883 256.142 209.628 254.444C204.372 252.746 201.488 247.11 203.186 241.854C203.44 241.069 203.781 240.336 204.197 239.664C203.247 241.195 202.699 243.001 202.699 244.935C202.699 250.462 207.177 254.943 212.7 254.943ZM211.692 234.977C209.659 235.184 207.74 236.013 206.199 237.329C207.708 236.037 209.605 235.186 211.692 234.977Z" fill="#A1A1A1"/>
          <path fill-rule="evenodd" clip-rule="evenodd" d="M213.025 278.774C214.681 278.774 216.024 277.432 216.024 275.776C216.024 275.133 215.821 274.537 215.477 274.049C215.64 274.283 215.773 274.544 215.867 274.829L215.879 274.868C216.376 276.449 215.498 278.133 213.917 278.63C212.972 278.927 211.99 278.733 211.247 278.19C211.744 278.557 212.359 278.774 213.025 278.774Z" fill="#A1A1A1"/>
          <path fill-rule="evenodd" clip-rule="evenodd" d="M260.315 313.153C261.821 313.153 263.068 312.03 263.281 310.566C263.063 312.009 261.818 313.115 260.315 313.115C258.807 313.115 257.56 312.003 257.347 310.554C257.555 312.023 258.805 313.153 260.315 313.153ZM260.315 307.087C258.978 307.087 257.845 307.973 257.458 309.195C257.843 308 258.956 307.132 260.274 307.115L260.315 307.115C261.647 307.115 262.776 307.983 263.168 309.184C262.778 307.967 261.648 307.087 260.315 307.087Z" fill="#A1A1A1"/>
          <path fill-rule="evenodd" clip-rule="evenodd" d="M225.333 308.857C226.948 309.989 228.912 310.653 231.031 310.653C232.62 310.653 234.121 310.28 235.453 309.617C232.291 311.169 228.411 310.996 225.333 308.857Z" fill="#A1A1A1"/>
          <path fill-rule="evenodd" clip-rule="evenodd" d="M310.492 276.742C310.59 276.444 310.643 276.126 310.643 275.796C310.643 274.122 309.284 272.765 307.608 272.765C305.931 272.765 304.573 274.122 304.573 275.796C304.573 277.47 305.931 278.827 307.608 278.827C308.125 278.827 308.611 278.698 309.037 278.471C308.344 278.836 307.508 278.931 306.704 278.668C305.13 278.152 304.272 276.457 304.788 274.882C305.299 273.321 306.971 272.464 308.534 272.954L308.573 272.966C310.144 273.481 311.002 275.17 310.492 276.742Z" fill="#A1A1A1"/>
          <path fill-rule="evenodd" clip-rule="evenodd" d="M308.913 254.914C313.976 254.415 317.931 250.148 317.931 244.957C317.931 239.431 313.449 234.951 307.919 234.951C302.389 234.951 297.907 239.431 297.907 244.957C297.907 250.019 301.669 254.203 306.551 254.87C302.875 254.36 299.628 251.815 298.406 248.048C296.701 242.795 299.578 237.154 304.831 235.45C310.084 233.745 315.724 236.621 317.429 241.874C319.134 247.128 316.257 252.768 311.004 254.473C310.31 254.698 309.61 254.843 308.913 254.914Z" fill="#A1A1A1"/>
          <path fill-rule="evenodd" clip-rule="evenodd" d="M289.607 223.133C291.286 223.133 292.646 221.763 292.646 220.073C292.646 218.384 291.286 217.014 289.607 217.014C287.929 217.014 286.568 218.384 286.568 220.073C286.568 220.417 286.624 220.747 286.728 221.056C286.443 220.175 286.568 219.174 287.154 218.367C288.119 217.037 289.972 216.733 291.31 217.677L291.344 217.701C292.685 218.674 292.983 220.55 292.01 221.891C291.325 222.834 290.195 223.261 289.118 223.093C289.277 223.119 289.441 223.133 289.607 223.133Z" fill="#A1A1A1"/>
          <path fill-rule="evenodd" clip-rule="evenodd" d="M252.296 216.404C253.685 218.235 255.69 219.572 258.002 220.105C255.69 219.57 253.686 218.234 252.296 216.404Z" fill="#A1A1A1"/>
        </g>
      </g>
    </g>
  </g>
  <g id="text">
    <path id="dark-L" d="M799.911 199.727H729.703L498.365 671.537H766.605L785.634 629.508H594.493L799.911 199.727Z" fill="#4E4E4E"/>
    <path id="bright-L" d="M478.497 24.458H408.29L176.952 496.268H445.191L464.22 454.239H273.079L478.497 24.458Z" fill="#A1A1A1"/>
    <mask id="mask1_356_960" style="mask-type:alpha" maskUnits="userSpaceOnUse" x="348" y="307" width="957" height="374">
      <g id="text-mask">
        <path d="M1127.17 680.611L348.751 680.611L541.142 307.066L1304.86 307.066L1127.17 680.611Z" fill="black"/>
      </g>
    </mask>
    <g mask="url(#mask1_356_960)">
      <path id="ead" d="M902.667 525.924C915.079 525.924 924.412 529.762 930.666 537.439C937.174 544.955 935.146 559.748 924.582 581.818L917.692 596.212H862.107L868.422 583.018H884.646L891.995 567.665C896.895 557.429 899.362 550.793 899.399 547.754C899.688 544.555 898.175 542.716 894.859 542.237L902.667 525.924ZM885.055 542.716C882.75 542.716 879.959 543.916 876.683 546.315C873.585 548.714 870.696 552.712 868.016 558.309L827.595 642.75C824.992 648.188 824.092 652.106 824.894 654.505C825.873 656.904 827.515 658.103 829.82 658.103L821.552 675.375C807.722 675.375 797.68 671.537 791.426 663.86C785.425 656.024 784.875 646.988 789.774 636.753L824.569 564.066C829.468 553.831 838.631 544.875 852.058 537.199C865.661 529.522 879.378 525.684 893.208 525.684L885.055 542.716ZM838.748 658.343C844.019 657.703 848.459 655.464 852.07 651.626C855.68 647.788 859.552 641.551 863.686 632.915L869.772 620.2H903.283C893.178 641.311 882.171 655.784 870.264 663.62C858.433 671.297 845.249 675.135 830.71 675.135L838.748 658.343ZM950.91 666.739C947.183 667.858 944.457 668.738 942.732 669.378C941.007 670.017 939.067 670.737 936.911 671.537C934.832 672.176 932.386 672.656 929.573 672.976C926.761 673.296 924.024 673.456 921.365 673.456C914.095 673.456 908.25 671.777 903.83 668.418C899.437 664.26 900.418 655.544 906.772 642.27L912.628 630.036C917.375 620.121 921.932 613.564 926.3 610.365C930.845 607.167 939.243 603.328 951.493 598.85C963.92 594.372 976.51 590.294 989.264 586.616L983.752 598.131C976.342 602.129 970.364 605.727 965.819 608.926C962.289 611.485 959.621 613.723 957.816 615.643C953.847 620.6 950.178 626.598 946.81 633.634C942.906 641.791 940.909 647.628 940.821 651.146C940.736 653.545 941.452 655.384 942.967 656.664C944.66 657.943 946.747 658.583 949.229 658.583L955.159 657.863L950.91 666.739ZM1019.69 524.725C1033.52 524.725 1043.47 528.563 1049.55 536.239C1055.8 543.916 1056.48 552.872 1051.58 563.107L999.677 671.537H958.986L1013.65 557.35C1016.33 551.752 1017.18 547.754 1016.2 545.355C1015.39 542.956 1013.84 541.757 1011.54 541.757L1019.69 524.725ZM1001.96 541.757C999.834 541.757 997.22 542.956 994.122 545.355C991.2 547.754 988.4 551.752 985.72 557.35L976.649 576.301H940.478L946.794 563.107C951.694 552.872 960.236 543.916 972.422 536.239C984.784 528.563 997.348 524.725 1010.11 524.725L1001.96 541.757ZM1121.64 671.537H1082.55L1167.64 493.779H1206.73L1121.64 671.537ZM1140.19 531.681C1129.31 527.363 1120.68 525.204 1114.3 525.204C1106.32 525.204 1098.19 527.363 1089.92 531.681C1081.83 535.999 1075.02 543.916 1069.51 555.43L1027.14 643.95C1021.63 655.464 1020.85 663.381 1024.81 667.699C1028.95 672.017 1035.01 674.176 1042.99 674.176C1049.37 674.176 1060.07 672.017 1075.08 667.699L1079.79 657.863C1073.75 658.983 1069.28 658.503 1066.38 656.424C1063.47 654.345 1064.28 648.587 1068.8 639.152L1106.58 560.228C1111.09 550.793 1115.8 545.035 1120.69 542.956C1125.59 540.877 1130.52 540.397 1135.48 541.517L1140.19 531.681Z" fill="#4E4E4E"/>
      <path id="ambo" d="M510.011 491.47C506.284 492.589 503.558 493.469 501.833 494.109C500.108 494.748 498.168 495.468 496.012 496.268C493.933 496.907 491.487 497.387 488.674 497.707C485.862 498.027 483.126 498.187 480.466 498.187C473.196 498.187 467.351 496.508 462.931 493.149C458.538 488.991 459.519 480.275 465.873 467.001L471.729 454.767C476.476 444.851 481.033 438.295 485.401 435.096C489.946 431.897 498.344 428.059 510.594 423.581C523.021 419.103 535.611 415.025 548.365 411.347L542.853 422.862C535.443 426.86 529.465 430.458 524.92 433.657C521.39 436.215 518.722 438.454 516.917 440.374C512.948 445.331 509.28 451.328 505.911 458.365C502.007 466.521 500.01 472.359 499.922 475.877C499.837 478.276 500.553 480.115 502.068 481.395C503.761 482.674 505.848 483.314 508.33 483.314L514.26 482.594L510.011 491.47ZM578.79 349.456C592.62 349.456 602.573 353.294 608.65 360.97C614.905 368.647 615.582 377.603 610.683 387.838L558.778 496.268H518.087L572.747 382.08C575.427 376.483 576.277 372.485 575.297 370.086C574.495 367.687 572.942 366.488 570.637 366.488L578.79 349.456ZM561.062 366.488C558.935 366.488 556.321 367.687 553.223 370.086C550.301 372.485 547.501 376.483 544.822 382.08L535.75 401.032H499.58L505.895 387.838C510.795 377.603 519.337 368.647 531.523 360.97C543.885 353.294 556.449 349.456 569.215 349.456L561.062 366.488ZM613.724 496.268H574.628L643.298 352.814H682.394L613.724 496.268ZM690.246 356.412C705.256 352.094 715.953 349.935 722.336 349.935C730.314 349.935 736.284 352.094 740.246 356.412C744.384 360.73 743.698 368.647 738.186 380.161L682.607 496.268H643.245L696.527 384.959C701.044 375.524 701.85 369.766 698.944 367.687C696.039 365.608 691.57 365.128 685.538 366.248L690.246 356.412ZM756.469 356.412C771.479 352.094 782.176 349.935 788.559 349.935C796.538 349.935 802.508 352.094 806.469 356.412C810.608 360.73 809.921 368.647 804.409 380.161L748.83 496.268H709.468L762.751 384.959C767.268 375.524 768.073 369.766 765.168 367.687C762.262 365.608 757.793 365.128 751.761 366.248L756.469 356.412ZM853.062 318.51H892.158L807.067 496.268H767.971L853.062 318.51ZM883.323 356.412C898.333 352.094 909.03 349.935 915.413 349.935C923.391 349.935 929.362 352.094 933.323 356.412C937.462 360.73 936.775 368.647 931.263 380.161L888.89 468.68C883.378 480.195 876.485 488.112 868.213 492.43C860.117 496.748 852.08 498.907 844.102 498.907C837.719 498.907 829.089 496.748 818.213 492.43L822.921 482.594C827.881 483.714 832.81 483.234 837.706 481.155C842.602 479.076 847.308 473.318 851.825 463.883L889.605 384.959C894.121 375.524 894.927 369.766 892.022 367.687C889.116 365.608 884.647 365.128 878.615 366.248L883.323 356.412ZM1002.98 367.447C1000.68 367.447 997.889 368.647 994.613 371.046C991.515 373.444 988.626 377.443 985.946 383.04L945.525 467.481C942.922 472.919 942.022 476.837 942.824 479.236C943.803 481.634 945.445 482.834 947.75 482.834L939.482 500.106C925.653 500.106 915.611 496.268 909.356 488.591C903.356 480.755 902.805 471.719 907.705 461.484L942.499 388.797C947.398 378.562 956.561 369.606 969.988 361.93C983.592 354.253 997.308 350.415 1011.14 350.415L1002.98 367.447ZM1012.56 367.447C1014.86 367.447 1016.42 368.647 1017.22 371.046C1018.2 373.444 1017.35 377.443 1014.67 383.04L974.249 467.481C971.646 472.919 968.706 476.837 965.43 479.236C962.332 481.634 959.63 482.834 957.325 482.834L949.057 500.106C962.887 500.106 976.515 496.268 989.941 488.591C1003.62 480.755 1012.91 471.719 1017.81 461.484L1052.61 388.797C1057.5 378.562 1056.83 369.606 1050.57 361.93C1044.5 354.253 1034.54 350.415 1020.71 350.415L1012.56 367.447Z" fill="#A1A1A1"/>
    </g>
  </g>
</svg>