<svg width="374" height="170" viewBox="0 0 374 170" fill="none" xmlns="http://www.w3.org/2000/svg" id="signature">
  <g id="Lopez">
    <path fill-rule="evenodd" clip-rule="evenodd" d="M257.217 1.40938C257.217 1.50189 257.146 1.57757 257.058 1.57757C256.97 1.57757 256.899 1.50189 256.899 1.40938C256.899 1.31687 256.97 1.24119 257.058 1.24119C257.146 1.24119 257.217 1.31687 257.217 1.40938ZM274.053 70.4488C273.997 70.8535 273.877 70.879 273.67 70.5302C273.503 70.2468 273.518 70.2014 273.782 70.2014C273.96 70.2014 274.073 70.3043 274.053 70.4488ZM233.304 75.6578C233.304 75.6987 233.232 75.7787 233.145 75.8359C233.057 75.8931 232.985 75.8596 232.985 75.7617C232.985 75.6639 233.057 75.5836 233.145 75.5836C233.232 75.5836 233.304 75.6169 233.304 75.6578Z"/>
    <path fill-rule="evenodd" clip-rule="evenodd" d="M256.341 0.789581C255.814 0.977455 255.34 1.20065 255.286 1.28559C255.188 1.43932 254.714 1.7525 254.109 2.06316C253.691 2.27744 252.295 3.8356 251.755 4.68919C251.522 5.05923 251.003 5.85395 250.602 6.45525C250.201 7.05655 249.516 8.3054 249.078 9.23048C248.274 10.9306 247.425 12.1056 246.696 12.5278C246.476 12.6548 245.831 12.7636 245.261 12.7696C244.691 12.7757 243.722 12.9146 243.109 13.0783C242.495 13.2421 241.598 13.4611 241.116 13.5649C240.634 13.6686 240.159 13.8663 240.06 14.004C239.941 14.1707 239.568 14.2617 238.944 14.2763C238.429 14.2885 237.361 14.4302 236.572 14.5914C235.783 14.7527 234.384 14.9558 233.464 15.0433C232.543 15.1306 231.323 15.2779 230.753 15.3708C230.184 15.4636 228.785 15.577 227.645 15.6229C226.505 15.6687 225.321 15.7477 225.014 15.7983C224.066 15.9549 222.504 16.5497 221.895 16.986C221.283 17.4239 220.175 17.886 219.727 17.89C219.58 17.8914 219.104 18.0818 218.667 18.313C218.231 18.5443 217.763 18.7335 217.627 18.7335C217.492 18.7335 217.333 18.8148 217.275 18.914C217.217 19.0132 216.647 19.3456 216.008 19.6529C215.369 19.96 214.785 20.3257 214.709 20.4653C214.634 20.605 214.188 21.1539 213.718 21.685C212.793 22.7314 211.896 24.5805 211.974 25.2805C212.033 25.8107 212.597 26.1284 213.485 26.1316C213.992 26.1335 214.174 26.0605 214.244 25.8272C214.315 25.5927 214.453 25.5382 214.829 25.5964C215.256 25.6625 215.418 25.5629 216.035 24.8523C216.428 24.4009 216.874 23.8246 217.028 23.5717C217.325 23.0841 218.03 22.4934 218.967 21.9482C219.28 21.7663 219.629 21.4983 219.744 21.3528C219.858 21.2073 220.098 21.0883 220.276 21.0883C220.647 21.0883 222.18 20.3536 222.778 19.8892C223.376 19.4248 224.753 18.9597 226.451 18.6491C227.28 18.4974 228.04 18.3014 228.14 18.2138C228.292 18.0811 231.232 17.7324 232.029 17.753C232.16 17.7563 232.985 17.6329 233.862 17.4786C235.908 17.1185 235.932 17.1151 238.007 16.8819C238.972 16.7734 240.065 16.572 240.437 16.4341C240.846 16.2829 241.308 16.2284 241.602 16.2965C241.952 16.3776 242.517 16.2546 243.596 15.8621C244.425 15.5608 245.15 15.3649 245.209 15.4268C245.267 15.4885 245.167 15.7092 244.987 15.9169C244.581 16.385 243.985 17.6155 243.985 17.9877C243.985 18.1401 243.772 18.5485 243.512 18.8957C243.251 19.2426 242.814 19.9883 242.54 20.5526C242.267 21.1167 241.619 22.0848 241.101 22.7038C240.583 23.3229 240.159 23.8983 240.159 23.9826C240.159 24.067 239.809 24.5287 239.38 25.0089C238.476 26.0213 237.449 28.0396 237.449 28.8024C237.449 29.1632 237.28 29.5276 236.912 29.9601C236.617 30.3072 236.22 30.8941 236.029 31.2641C235.387 32.5133 235.008 33.1107 234.271 34.0393C233.868 34.5481 233.395 35.2547 233.221 35.6096C233.048 35.9645 232.78 36.3266 232.627 36.4144C232.473 36.5022 232.348 36.7003 232.348 36.8546C232.348 37.0088 232.141 37.3656 231.887 37.6475C231.634 37.9295 231.161 38.6869 230.835 39.3308C230.51 39.9746 229.838 40.9908 229.343 41.5891C228.847 42.1874 228.289 42.8613 228.101 43.0867C227.377 43.9586 227.246 44.1348 227.246 44.2409C227.246 44.3014 226.905 44.749 226.489 45.2358C226.072 45.7223 225.57 46.3472 225.373 46.6242C225.004 47.1418 224.89 47.8314 225.174 47.8314C225.43 47.8314 225.358 48.1417 225.017 48.5008C224.844 48.6839 224.513 49.2144 224.283 49.6795C224.052 50.1447 223.8 50.5671 223.722 50.618C223.643 50.6688 223.579 50.8496 223.579 51.0195C223.579 51.1895 223.346 51.547 223.061 51.8137C222.384 52.4478 221.78 53.3214 221.51 54.0546C221.392 54.3784 220.988 55.1045 220.613 55.6681C220.239 56.2319 219.743 57.1147 219.512 57.6301C219.281 58.1454 218.953 58.6988 218.785 58.8598C218.601 59.0355 218.478 59.3734 218.478 59.7053C218.478 60.0092 218.406 60.3047 218.319 60.3619C218.231 60.4191 218.159 60.6531 218.159 60.8817C218.159 61.1104 218.048 61.3425 217.912 61.3975C217.599 61.5245 216.871 62.6423 216.98 62.8288C217.025 62.9059 216.914 62.969 216.734 62.969C216.406 62.969 216.341 63.1119 216.4 63.6993C216.423 63.9366 216.357 63.9845 216.115 63.9036C215.897 63.8305 215.709 63.9176 215.505 64.1869C215.343 64.4008 214.97 64.7544 214.677 64.9725C214.173 65.3469 214.15 65.4096 214.248 66.1033C214.306 66.5071 214.294 66.8375 214.223 66.8376C214.152 66.8376 213.812 67.1025 213.467 67.4263C213.122 67.7499 212.677 68.0148 212.477 68.0148C212.277 68.0148 212.025 68.1151 211.917 68.2375C211.808 68.36 211.554 68.4267 211.351 68.3859C211.148 68.345 210.785 68.398 210.542 68.5038C210.3 68.6096 209.494 68.7606 208.75 68.8393C208.007 68.918 206.976 69.1069 206.461 69.259C205.925 69.4172 205.303 69.4919 205.008 69.4336C204.629 69.3587 204.275 69.4479 203.673 69.7693C203.223 70.0101 202.855 70.2764 202.855 70.361C202.855 70.4457 202.716 70.5616 202.546 70.6185C202.376 70.6753 202.143 70.9455 202.029 71.2184C201.914 71.4916 201.766 71.7151 201.701 71.7151C201.406 71.7151 200.623 73.1424 200.623 73.68C200.623 73.9928 200.515 74.5206 200.384 74.8526C200.252 75.1848 200.145 75.4894 200.145 75.5298C200.145 75.7062 201.578 77.073 201.844 77.1497C203.77 77.7066 205.344 77.5927 205.344 77.5927C205.344 77.5927 206.522 77.3695 206.815 77.3443C207.26 77.3063 207.937 76.8441 208.432 76.2402C208.477 76.1851 208.716 76.0879 208.963 76.0239C209.21 75.9602 209.524 75.7025 209.661 75.4514C209.798 75.2003 210.372 74.6165 210.938 74.154C211.503 73.6914 212.07 73.1049 212.197 72.8504C212.324 72.596 212.516 72.3866 212.623 72.385C212.863 72.3813 213.536 71.6532 213.536 71.3971C213.536 71.2945 213.613 71.2105 213.707 71.2105C213.924 71.2105 214.241 70.8742 214.374 70.5029C214.527 70.0766 215.567 69.4433 216.694 69.0904C217.523 68.8307 217.681 68.7222 217.645 68.4388C217.61 68.1654 217.679 68.109 218 68.1505C218.873 68.2636 219.287 68.1795 219.874 67.7696C220.211 67.5341 220.86 67.248 221.316 67.1336C221.772 67.0194 222.145 66.8682 222.145 66.7976C222.145 66.7271 222.223 66.6693 222.319 66.6693C222.415 66.6693 222.675 66.5179 222.898 66.3329C223.121 66.1479 223.445 65.9965 223.617 65.9965C223.789 65.9965 224.156 65.891 224.432 65.7623C224.708 65.6335 225.257 65.4113 225.652 65.2687C228.588 64.2067 228.948 64.0249 229.211 63.4707C229.341 63.1962 229.639 63.01 230.182 62.864C230.936 62.6612 231.69 61.9897 231.704 61.5085C231.712 61.2505 231.158 61.0673 230.767 61.1984C230.284 61.3602 230.176 60.9367 230.608 60.5779C230.82 60.403 231.123 60.1463 231.283 60.0077C231.583 59.7477 232.255 59.4368 232.517 59.4368C232.599 59.4368 232.666 59.6261 232.666 59.8573C232.666 60.1275 232.756 60.2778 232.917 60.2778C233.055 60.2778 233.273 60.3893 233.402 60.5256C233.745 60.8875 234.803 61.1804 235.296 61.05C235.531 60.9878 235.883 60.7542 236.08 60.5306C236.276 60.3069 236.767 60.0309 237.17 59.9172C237.653 59.781 237.958 59.583 238.064 59.3379C238.153 59.1333 238.481 58.8766 238.794 58.7678C239.106 58.6589 239.362 58.5034 239.362 58.4223C239.362 58.1394 240.176 57.4185 240.496 57.4185C240.943 57.4185 241.435 57.1157 241.435 56.8397C241.435 56.5726 241.961 55.4955 242.373 54.921C242.619 54.5768 242.685 54.5572 242.885 54.7682C243.484 55.4002 244.304 55.545 244.304 55.0187C244.304 54.8957 244.547 54.7023 244.844 54.589C245.141 54.4758 245.697 54.0963 246.08 53.7458C247.556 52.3933 248.03 52.2515 248.703 52.9613C248.922 53.1926 249.175 53.3818 249.265 53.3818C249.578 53.3818 249.321 53.9708 248.986 54.0214C248.724 54.061 248.629 54.2243 248.562 54.7494C248.483 55.3766 248.019 56.1796 247.843 55.9942C247.651 55.7919 246.836 56.5484 246.314 57.4121C245.998 57.9352 245.534 58.5858 245.283 58.8579C245.032 59.1301 244.778 59.5041 244.718 59.6891C244.658 59.8742 244.028 60.5175 243.317 61.1188C241.215 62.896 241.21 62.9024 241.175 63.4115C241.157 63.6769 241.136 63.9843 241.129 64.0947C241.122 64.2052 240.901 64.4296 240.638 64.5936C240.375 64.7576 240.159 64.9861 240.159 65.1017C240.159 65.2172 239.998 65.3985 239.801 65.5047C239.39 65.7253 237.784 67.4759 236.493 69.1099C236.273 69.3873 235.735 69.8566 235.297 70.1526C233.89 71.1027 233.751 71.2346 233.829 71.5476C233.9 71.8359 233.275 72.7243 233.001 72.7243C232.929 72.7243 232.161 73.5686 231.294 74.6007C230.427 75.6327 229.509 76.6841 229.255 76.9373C228.697 77.4933 228.768 77.7649 229.579 78.1784C229.918 78.3511 230.32 78.557 230.472 78.6359C230.624 78.7147 230.838 78.7793 230.947 78.7793C231.138 78.7793 231.897 77.9633 232.906 76.6745C233.169 76.3383 233.64 75.7471 233.953 75.3609C234.266 74.9746 234.68 74.417 234.874 74.1218C235.067 73.8267 235.349 73.5389 235.5 73.4822C235.751 73.3883 237.297 71.4214 237.423 71.0371C237.452 70.9475 237.576 70.8741 237.698 70.8741C238.007 70.8741 238.96 69.7343 238.982 69.3372C239.004 68.9404 239.649 68.183 239.964 68.183C240.31 68.183 241.275 67.0854 241.275 66.692C241.275 66.5011 241.414 66.2666 241.583 66.1709C241.752 66.0754 241.914 65.8343 241.942 65.6354C241.97 65.4362 242.18 65.1262 242.409 64.9464C242.772 64.6615 242.872 64.6486 243.183 64.8453C243.498 65.0445 243.562 65.033 243.723 64.7483C243.824 64.5707 244.294 63.9336 244.769 63.3324C245.245 62.7313 245.736 62.1081 245.861 61.9475C245.986 61.7869 246.368 61.3366 246.711 60.9469C247.053 60.5572 247.333 60.1648 247.333 60.0748C247.333 59.985 247.656 59.5805 248.051 59.1758C248.445 58.7713 248.768 58.3239 248.768 58.1816C248.768 58.0395 248.83 57.9231 248.906 57.9231C249.227 57.9231 251.159 55.6271 251.159 55.2459C251.159 55.1536 251.41 54.8668 251.717 54.6085C252.024 54.3501 252.277 54.0252 252.279 53.8864C252.285 53.5451 253.709 52.0922 254.252 51.8746C254.491 51.7786 254.889 51.6998 255.136 51.6998C255.382 51.6998 255.673 51.5863 255.783 51.4476C255.892 51.3088 256.197 51.1953 256.462 51.1953C256.818 51.1953 257.203 50.9543 257.942 50.2702C258.491 49.7614 259.037 49.3475 259.155 49.3505C259.276 49.3534 259.179 49.5328 258.931 49.7629C258.69 49.9868 258.491 50.2303 258.488 50.3042C258.478 50.5672 257.75 51.2844 257.178 51.5956C256.774 51.8151 256.565 52.0628 256.493 52.4053C256.434 52.6878 256.234 52.9741 256.024 53.0749C255.823 53.1716 255.566 53.4316 255.454 53.6526C255.342 53.8738 255.118 54.0546 254.955 54.0546C254.556 54.0546 253.544 54.7664 253.152 55.3225C252.977 55.5715 252.636 55.9863 252.395 56.244C252.154 56.5017 251.956 56.867 251.956 57.056C251.956 57.4185 252.505 57.9231 252.898 57.9231C253.027 57.9231 253.28 58.0679 253.461 58.2449C253.948 58.7219 254.379 58.7439 254.592 58.3027C254.915 57.6358 255.343 57.2505 255.767 57.2458C256.284 57.24 257.146 56.412 257.927 55.1709C258.25 54.6581 258.635 54.1976 258.782 54.1476C259.24 53.9925 261.362 51.4815 261.362 51.0942C261.363 50.7149 262.482 49.6862 263.275 49.3352C263.758 49.1221 264.414 48.7344 264.733 48.4735C265.358 47.9641 266.145 47.8349 266.145 48.2419C266.145 48.3753 266.087 48.5218 266.017 48.5677C265.946 48.6136 265.929 49.008 265.977 49.4442C266.065 50.2344 266.068 50.2381 266.942 50.5432C268.121 50.9547 268.243 50.9411 268.785 50.3375C269.043 50.0509 269.684 49.5976 270.21 49.3303C270.736 49.0629 271.61 48.4461 272.151 47.9594C272.693 47.4726 273.48 46.8853 273.901 46.654C274.322 46.4227 275.054 45.9686 275.528 45.6448C276.003 45.321 276.507 44.9804 276.648 44.8879C276.79 44.7954 277.366 44.3489 277.929 43.8954C278.492 43.4421 279.568 42.7288 280.321 42.3103C281.073 41.8917 281.891 41.3733 282.139 41.1582C282.387 40.9431 282.71 40.7663 282.857 40.7653C283.003 40.7643 283.661 40.4245 284.319 40.0103C284.977 39.596 285.569 39.2562 285.634 39.2552C285.891 39.2512 285.729 39.5987 285.19 40.2111C284.88 40.5631 284.519 41.0783 284.389 41.3558C284.259 41.6334 283.706 42.3524 283.161 42.9537C282.241 43.9667 281.516 45.0349 281.141 45.9289C281.056 46.1314 280.84 46.3798 280.661 46.4811C280.482 46.5822 280.012 46.9963 279.617 47.4013C279.091 47.9405 278.899 48.2685 278.899 48.6256C278.899 49.1855 279.411 49.8497 279.842 49.8497C280.003 49.8497 280.224 49.9632 280.333 50.102C280.624 50.4715 280.896 50.4127 281.316 49.8894C281.521 49.6337 281.922 49.2501 282.207 49.037C282.492 48.8239 282.725 48.5588 282.725 48.448C282.725 48.157 286.118 44.4674 286.385 44.4674C286.509 44.4674 286.758 44.3255 286.939 44.1521C287.12 43.9787 287.663 43.7106 288.145 43.5562C288.627 43.4018 289.402 43.1483 289.867 42.9927C290.399 42.8149 290.754 42.7707 290.825 42.8738C290.887 42.964 291.224 43.1996 291.574 43.3974C292.028 43.6542 292.225 43.8826 292.261 44.1963C292.288 44.438 292.378 44.6356 292.46 44.6356C292.759 44.6356 292.597 45.0891 292.131 45.5607C291.868 45.8266 291.652 46.1768 291.652 46.3391C291.652 46.5014 291.587 46.6765 291.508 46.7282C291.429 46.7798 291.146 47.2304 290.879 47.7294C290.612 48.2285 289.879 49.3069 289.251 50.1262C288.623 50.9455 288.004 51.8726 287.876 52.1866C287.64 52.766 286.09 54.4805 278.595 62.4524C274.399 66.915 273.738 67.7861 274.149 68.3087C274.306 68.5081 274.285 68.601 274.04 68.7899C273.873 68.9187 273.578 69.024 273.386 69.024C273.013 69.024 271.33 70.669 271.175 71.1843C271.127 71.3438 270.854 71.6192 270.569 71.7965C269.992 72.1553 269.729 72.3654 269.445 72.6939C269.34 72.816 269.092 73.0757 268.895 73.2709C268.524 73.6381 268.416 74.0699 268.696 74.0699C268.783 74.0699 268.855 74.1506 268.855 74.2493C268.855 74.3538 268.719 74.3832 268.529 74.3196C268.207 74.212 267.739 74.4749 267.739 74.7632C267.739 74.8444 267.915 74.9108 268.129 74.9108H268.519L268.114 75.8443C267.863 76.4209 267.744 76.9273 267.802 77.1695C267.862 77.4222 267.786 77.7083 267.587 77.9747L267.279 78.3879L267.853 79.0123C268.678 79.9084 268.934 79.7959 269.719 78.1906C270.506 76.5797 271.234 75.4597 271.575 75.3354C271.789 75.2575 272.534 74.3065 273.083 73.4109C273.344 72.9857 273.949 72.2639 275.267 70.8055C275.943 70.0565 276.702 69.1025 276.953 68.6856C277.483 67.8027 282.114 62.8768 283.283 61.952C283.721 61.6052 285.156 60.1349 286.471 58.6847C287.786 57.2345 289.688 55.1564 290.696 54.0669C292.66 51.9437 293.884 50.4747 293.884 50.2399C293.884 50.1599 294.089 49.8314 294.34 49.5096C294.93 48.7522 295.369 47.826 295.733 46.5699C295.894 46.0148 296.266 45.1715 296.56 44.6957C297.084 43.8488 297.092 43.8103 296.925 42.8602C296.832 42.3265 296.737 41.8745 296.715 41.8559C296.692 41.8372 296.513 41.7333 296.315 41.6249C296.118 41.5166 295.957 41.2793 295.957 41.0977C295.957 40.9158 295.885 40.7671 295.797 40.7671C295.71 40.7671 295.638 40.625 295.638 40.4513C295.638 40.2777 295.53 40.0414 295.399 39.9262C295.267 39.811 295.16 39.5817 295.16 39.4167C295.16 39.1848 294.981 39.0907 294.37 39.0021C293.935 38.9392 293.492 38.9451 293.384 39.0152C293.277 39.0855 293.004 39.1627 292.779 39.1871C291.943 39.2773 291.234 39.5536 290.512 40.07C290.104 40.362 289.537 40.6501 289.252 40.7103C288.669 40.8331 288.663 40.8612 289.508 39.5842C289.785 39.1649 290.058 38.5594 290.114 38.2387C290.426 36.4637 290.425 36.4496 290.037 35.8715C289.411 34.9395 289.244 34.8122 288.602 34.7774C288.133 34.752 287.918 34.8327 287.706 35.1143C287.398 35.5241 285.362 37.0668 285.13 37.0668C285.049 37.0668 284.6 37.2668 284.133 37.5112C283.234 37.9808 282.193 38.9981 282.176 39.4216C282.171 39.5741 282.003 39.6804 281.752 39.6905C280.134 39.7553 279.053 40.2664 277.529 41.687C276.152 42.9705 274.742 44.0606 274.26 44.214C274.05 44.2812 273.662 44.546 273.399 44.802C272.831 45.3548 271.499 46.1494 271.141 46.1494C270.849 46.1494 272.328 44.4787 272.626 44.4718C272.822 44.4671 273.932 43.5656 274.594 42.873C274.814 42.6435 275.222 42.4079 275.503 42.3492C275.783 42.2903 276.135 42.0996 276.285 41.9252C276.434 41.7508 276.696 41.6081 276.866 41.6081C277.041 41.6081 277.211 41.4621 277.258 41.2717C277.304 41.0867 277.396 40.9353 277.462 40.9353C277.528 40.9353 277.942 40.6331 278.381 40.2636C278.903 39.8256 279.207 39.4305 279.255 39.1282C279.296 38.8733 279.358 38.5512 279.393 38.4124C279.437 38.2371 279.311 38.1428 278.978 38.1033C278.715 38.0718 278.428 37.9854 278.341 37.911C278.253 37.8367 277.886 37.7726 277.525 37.7686C276.982 37.7627 276.777 37.8609 276.338 38.3392C276.046 38.657 275.731 38.917 275.639 38.917C275.448 38.917 274.37 39.708 273.311 40.6247C272.921 40.9626 272.171 41.3937 271.645 41.5827C271.119 41.7719 270.386 42.0429 270.017 42.1849C269.647 42.327 269.246 42.4032 269.126 42.3544C269.005 42.3056 268.814 42.3825 268.702 42.5255C268.589 42.6686 268.405 42.7855 268.293 42.7855C268.18 42.7855 267.787 43.0509 267.419 43.3754C267.051 43.6996 266.56 44.0088 266.328 44.0621C265.575 44.2353 265.505 44.2843 265.336 44.7574C265.138 45.3118 264.096 46.4858 263.801 46.4858C263.678 46.4858 263.594 46.2843 263.594 45.9911C263.594 45.719 263.522 45.4497 263.435 45.3925C263.347 45.3353 263.275 45.1121 263.275 44.8967C263.275 44.6811 263.137 44.326 262.967 44.1077C262.7 43.7641 262.614 43.7388 262.331 43.9208C262.151 44.0365 261.86 44.1311 261.683 44.1311C261.362 44.1311 261.26 44.2049 260.281 45.1431C259.993 45.4191 259.666 45.6448 259.555 45.6448C259.306 45.6448 258.34 46.596 258.014 47.1613C257.632 47.8253 256.302 49.1769 256.031 49.1769C255.894 49.1769 255.783 49.0651 255.783 48.9283C255.783 48.7002 256.313 47.3784 256.841 46.2917C257.157 45.6415 257.13 44.0279 256.801 43.8947C256.636 43.8283 256.574 43.6685 256.627 43.4529C256.798 42.7651 254.787 42.24 254.555 42.9116C254.499 43.0734 254.053 43.7501 253.564 44.4153C252.174 46.3036 251.638 47.1258 251.638 47.3663C251.638 47.669 251.204 48.2986 250.864 48.491C250.623 48.6271 250.589 48.576 250.62 48.1143C250.664 47.4364 250.445 47.1586 249.865 47.1586C249.612 47.1586 249.406 47.0829 249.406 46.9904C249.406 46.6725 248.987 46.8227 248.559 47.294C248.323 47.5533 248.13 47.9261 248.13 48.122C248.13 48.318 247.951 48.7033 247.732 48.9781C247.513 49.2529 247.333 49.5589 247.333 49.6581C247.333 49.8687 246.356 51.0271 246.179 51.0271C245.897 51.0271 246.104 50.5862 246.775 49.7569C247.551 48.7993 247.648 48.4483 247.214 48.1812C246.977 48.0355 247.002 48.009 247.386 48.0046C247.985 47.9979 247.864 47.5981 247.241 47.5229C246.985 47.4921 246.651 47.3488 246.499 47.2047C246.246 46.9653 246.167 46.9806 245.595 47.3803C245.25 47.6211 244.789 47.8653 244.571 47.923C244.176 48.0278 243.992 48.4108 243.988 49.1384C243.986 49.3814 243.84 49.5904 243.587 49.7121C243.368 49.8174 243.188 49.9723 243.188 50.0561C243.188 50.14 242.859 50.9285 242.456 51.8083C241.878 53.0705 241.482 53.664 240.583 54.6219C239.359 55.9241 238.046 57.0981 237.613 57.2757C237.467 57.3361 237.22 57.5892 237.066 57.8383C236.873 58.1486 236.688 58.2647 236.479 58.207C236.311 58.1608 236.134 58.1915 236.085 58.2753C236.036 58.359 235.874 58.4265 235.726 58.4251C235.494 58.423 235.49 58.4003 235.695 58.2629C235.827 58.1749 235.948 57.8545 235.963 57.5505C236.005 56.7543 236.384 55.0416 236.614 54.6123C236.723 54.4102 236.811 54.0628 236.811 53.8403C236.811 53.5786 236.944 53.3721 237.187 53.2552C237.406 53.15 237.601 52.875 237.655 52.5973C237.837 51.6489 239.043 50.8614 239.043 51.6913C239.043 52.0867 239.977 52.8772 240.444 52.8772C240.628 52.8772 240.873 52.7349 240.989 52.5608C241.104 52.3869 241.342 52.2155 241.516 52.1802C241.731 52.1365 241.833 51.9812 241.833 51.6992C241.833 51.3677 241.735 51.2651 241.355 51.1961C240.943 51.1218 240.87 51.0277 240.827 50.5218C240.798 50.178 240.643 49.8241 240.454 49.6697C240.133 49.4067 240.133 49.4036 240.544 48.8886C240.771 48.6042 240.956 48.2878 240.956 48.1856C240.956 48.0833 241.028 47.9995 241.116 47.9995C241.204 47.9995 241.275 47.905 241.275 47.7893C241.275 47.5695 242.054 46.8536 242.67 46.5073C243.025 46.3082 243.178 45.6448 242.869 45.6448C242.782 45.6448 242.71 45.5032 242.71 45.3303C242.71 45.0999 242.513 44.9576 241.974 44.7983C241.325 44.6067 241.176 44.6156 240.723 44.873C239.983 45.2933 237.957 47.4472 237.593 48.2002C237.422 48.5524 237.23 48.8405 237.165 48.8405C237.1 48.8405 236.869 49.1433 236.652 49.5133C236.435 49.8833 236.203 50.1861 236.136 50.1861C235.824 50.1861 235.377 50.9038 235.376 51.4055C235.376 51.9202 234.816 52.9586 233.816 54.3C233.622 54.5602 233.383 55.0843 233.284 55.4649C233.185 55.8455 232.966 56.4869 232.797 56.89C232.607 57.3431 232.526 57.7973 232.584 58.0797C232.658 58.4319 232.582 58.6393 232.253 58.9866C232.018 59.2342 231.68 59.4368 231.502 59.4368C231.324 59.4368 230.717 59.7046 230.153 60.0318C229.359 60.4921 229.077 60.5836 228.908 60.4356C228.739 60.2871 228.219 60.4891 226.573 61.3434C225.409 61.9477 223.918 62.7153 223.261 63.0494C221.989 63.6952 221.301 64.0876 220.647 64.5397C220.425 64.6935 220.126 64.8191 219.983 64.8191C219.84 64.8191 219.523 64.9439 219.278 65.0966C219.031 65.2505 218.709 65.3242 218.556 65.2621C218.32 65.1666 218.382 65.0299 218.977 64.328C220.043 63.0702 220.39 62.5349 221.127 61.0145C221.69 59.8543 222.142 59.1425 222.914 58.2031C223.205 57.8484 223.408 57.46 223.365 57.3405C223.321 57.2207 223.537 56.8677 223.845 56.5558C224.153 56.244 224.56 55.6947 224.749 55.3352C225.323 54.2475 225.43 54.0694 225.706 53.7481C225.852 53.5784 225.971 53.3879 225.971 53.325C225.971 53.2619 226.355 52.6624 226.824 51.9925C227.293 51.3228 227.813 50.519 227.979 50.2061C228.544 49.1473 228.64 48.9889 228.942 48.62C229.454 47.9948 229.956 47.1994 229.956 47.0141C229.956 46.9169 230.118 46.6543 230.315 46.4305C230.512 46.2066 230.884 45.6544 231.141 45.2035C231.398 44.7524 231.811 44.1075 232.058 43.7704C232.305 43.4334 232.507 43.0475 232.507 42.9131C232.507 42.7788 232.657 42.4869 232.841 42.2646C233.025 42.0422 233.284 41.6404 233.416 41.3716C233.549 41.1029 233.793 40.729 233.959 40.5411C234.125 40.353 234.261 40.1494 234.261 40.0883C234.261 40.0274 234.413 39.7958 234.599 39.5735C234.785 39.3511 235.328 38.6632 235.805 38.0446C236.282 37.4259 236.724 36.8961 236.787 36.8672C236.943 36.7957 238.406 34.7671 238.406 34.6216C238.406 34.5577 238.76 34.0745 239.192 33.5479C239.625 33.0211 240.025 32.3947 240.082 32.1557C240.139 31.9169 240.394 31.5098 240.65 31.251C240.906 30.9923 241.116 30.6813 241.116 30.5599C241.116 30.4384 241.241 30.1999 241.395 30.0299C241.548 29.8598 241.763 29.5761 241.873 29.3991C242.067 29.0854 242.949 27.573 243.268 27.0064C243.356 26.8505 243.751 26.1905 244.145 25.5397C244.54 24.8891 245.042 23.9809 245.261 23.5214C245.48 23.062 245.695 22.6483 245.739 22.602C245.815 22.5221 246.078 21.9494 246.82 20.2473C247.001 19.831 247.197 19.3012 247.254 19.0699C247.372 18.5964 247.674 17.8488 248.222 16.6731C248.428 16.2336 248.545 15.8718 248.483 15.8688C248.42 15.866 248.484 15.7713 248.624 15.6586C248.764 15.5459 249.051 15.0783 249.261 14.6193C249.873 13.2879 249.95 13.1736 250.17 13.263C250.285 13.3094 250.339 13.2786 250.289 13.1947C250.24 13.1106 250.398 12.8842 250.64 12.6914C250.882 12.4987 251.431 12.0195 251.861 11.6268C252.29 11.2339 252.828 10.8171 253.056 10.7007C253.284 10.5841 253.83 10.2682 254.268 9.99862C254.706 9.729 255.503 9.27521 256.039 8.98995C256.718 8.62883 257.31 8.11887 257.992 7.30952C258.531 6.67037 258.971 6.03913 258.971 5.90676C258.971 5.77422 259.094 5.40839 259.245 5.09353C259.721 4.09714 259.536 1.79724 258.913 0.974088C258.395 0.289196 257.85 0.25001 256.341 0.789581ZM257.058 1.57757C257.146 1.57757 257.217 1.50189 257.217 1.40938C257.217 1.31687 257.146 1.24119 257.058 1.24119C256.97 1.24119 256.899 1.31687 256.899 1.40938C256.899 1.50189 256.97 1.57757 257.058 1.57757ZM256.977 4.72384C257.455 3.96141 257.461 3.89632 257.085 3.53789C256.573 3.04895 255.991 3.18401 255.567 3.89027C255.358 4.23725 254.821 4.85251 254.373 5.25786C253.925 5.66304 253.513 6.15502 253.457 6.35113C253.401 6.54708 253.223 6.86026 253.061 7.04679C252.793 7.35728 251.956 8.89139 251.956 9.07355C251.956 9.11627 252.369 8.93143 252.873 8.66299C254.193 7.9601 256.089 6.13971 256.977 4.72384ZM277.464 39.3375C277.581 39.3375 277.706 39.2429 277.743 39.1272C277.782 39.0021 277.669 38.917 277.464 38.917C277.258 38.917 277.145 39.0021 277.185 39.1272C277.221 39.2429 277.347 39.3375 277.464 39.3375ZM291.78 41.0575C292.172 40.8837 292.234 40.7882 292.109 40.5529C291.903 40.1633 291.697 40.1869 291.568 40.6142C291.497 40.8509 291.367 40.9397 291.171 40.8857C290.97 40.8302 290.905 40.8778 290.964 41.0384C291.069 41.3261 291.169 41.3283 291.78 41.0575ZM293.007 41.1876C293.168 41.1876 293.33 41.0931 293.366 40.9774C293.408 40.8442 293.277 40.7671 293.007 40.7671C292.738 40.7671 292.607 40.8442 292.649 40.9774C292.685 41.0931 292.847 41.1876 293.007 41.1876ZM295.033 41.8089C295.123 41.7146 295.147 41.5551 295.089 41.4546C295.03 41.354 294.876 41.2717 294.746 41.2717C294.556 41.2717 294.545 41.3402 294.69 41.6261C294.813 41.8671 294.922 41.9257 295.033 41.8089ZM295.783 42.9456C296.105 43.1276 296.129 43.0031 295.884 42.407C295.722 42.0116 295.478 42.0333 295.478 42.4432C295.478 42.6249 295.615 42.8511 295.783 42.9456ZM255.623 49.6934C255.623 49.6142 255.51 49.5034 255.371 49.4472C254.921 49.2649 254.667 49.3387 254.667 49.6517C254.667 49.8204 254.273 50.3693 253.791 50.8711C252.912 51.7873 252.544 52.3805 253.335 51.6077C253.567 51.381 253.872 51.1934 254.012 51.1911C254.282 51.1867 255.623 49.9399 255.623 49.6934ZM273.67 70.5302C273.877 70.879 273.997 70.8535 274.053 70.4488C274.073 70.3043 273.96 70.2014 273.782 70.2014C273.518 70.2014 273.503 70.2468 273.67 70.5302ZM210.073 71.3345C210.288 71.1858 210.503 70.9078 210.55 70.7167C210.647 70.3277 210.533 70.3142 209.152 70.5514C208.713 70.6267 207.962 70.7359 207.483 70.7939C206.462 70.9177 206.31 70.9929 206.427 71.3155C206.487 71.4808 206.243 71.6811 205.635 71.9646C204.701 72.4007 204.317 72.9909 204.183 74.1977C204.055 75.3488 205.514 75.3231 206.844 74.1509C207.209 73.8288 207.573 73.5653 207.651 73.5653C207.73 73.5653 208.219 73.1243 208.738 72.5852C209.257 72.0461 209.858 71.4833 210.073 71.3345ZM233.145 75.8359C233.232 75.7787 233.304 75.6987 233.304 75.6578C233.304 75.6169 233.232 75.5836 233.145 75.5836C233.057 75.5836 232.985 75.6639 232.985 75.7617C232.985 75.8596 233.057 75.8931 233.145 75.8359Z"/>
  </g>
  <g id="David">
    <g id="rest">
      <path fill-rule="evenodd" clip-rule="evenodd" d="M165.011 83.4643C164.914 83.7311 164.635 83.8143 164.635 83.5765C164.635 83.3985 164.809 83.212 164.975 83.212C165.045 83.212 165.062 83.3255 165.011 83.4643ZM164.635 84.1272C164.635 84.168 164.563 84.2481 164.475 84.3053C164.388 84.3625 164.316 84.329 164.316 84.2311C164.316 84.1332 164.388 84.053 164.475 84.053C164.563 84.053 164.635 84.0863 164.635 84.1272Z"/>
      <path fill-rule="evenodd" clip-rule="evenodd" d="M206.921 32.2021C206.497 32.2578 206.403 32.3438 206.403 32.6778C206.403 32.9701 206.224 33.2051 205.768 33.5082C205.386 33.763 205.091 34.1102 205.026 34.3823C204.967 34.6304 204.642 35.2171 204.304 35.6857C203.966 36.1543 203.601 36.7458 203.493 37.0003C203.385 37.2548 203.242 37.4628 203.176 37.4628C203.109 37.4628 203.055 37.5435 203.055 37.6423C203.055 37.7408 202.884 38.0626 202.676 38.3571C202.467 38.6516 202.029 39.4223 201.703 40.0698C201.377 40.7174 201.018 41.3607 200.906 41.4995C200.794 41.6383 200.647 41.941 200.581 42.1723C200.515 42.4036 200.259 42.9036 200.013 43.2834C199.766 43.6632 199.393 44.3822 199.183 44.8812C198.973 45.3803 198.623 46.0156 198.405 46.2931C198.038 46.7603 197.823 47.1923 197.062 48.9842C196.905 49.3542 196.535 49.9219 196.24 50.2457C195.946 50.5695 195.422 51.4399 195.076 52.1799C194.73 52.92 194.16 54.0062 193.809 54.5935C193.458 55.181 193.171 55.724 193.171 55.8002C193.171 55.8762 192.986 56.1707 192.759 56.4546C192.533 56.7384 192.134 57.4365 191.873 58.0059C191.494 58.8317 191.418 59.1706 191.5 59.6814C191.587 60.2244 191.524 60.4446 191.089 61.1284C190.806 61.5723 190.342 62.2002 190.059 62.524C189.775 62.8477 189.241 63.5858 188.872 64.1639C188.503 64.7421 188.137 65.2151 188.059 65.2151C187.98 65.2151 187.868 65.4193 187.808 65.669C187.749 65.9187 187.461 66.4535 187.169 66.8577C186.607 67.6339 183.565 70.7654 182.776 71.3796C182.52 71.5789 182.034 72.0492 181.695 72.4246C181.086 73.1001 180.434 73.423 180.108 73.2103C179.837 73.034 179.91 72.8868 180.417 72.5826C180.695 72.4157 180.858 72.2028 180.809 72.0699C180.764 71.9449 180.908 71.6629 181.13 71.443C181.352 71.2232 181.533 70.9553 181.533 70.8476C181.533 70.7401 181.821 70.228 182.173 69.7094C182.525 69.1909 182.855 68.5452 182.906 68.2742C182.993 67.8189 182.958 67.7735 182.447 67.6724C181.678 67.52 181.504 67.6258 180.655 68.7664C180.244 69.3187 179.735 69.8896 179.525 70.0351C179.314 70.1805 179.142 70.3644 179.142 70.4434C179.142 70.8932 178.297 72.4219 177.86 72.7627C177.366 73.1477 177.328 73.1522 176.805 72.8888C175.599 72.2823 175.371 72.5282 173.634 76.316C173.007 77.6814 172.845 77.9709 172.468 78.3935C172.281 78.6041 172.127 78.8712 172.127 78.9871C172.127 79.2806 171.346 80.3322 170.97 80.5446C170.557 80.7776 170.151 80.4171 170.555 80.1766C170.706 80.0861 170.862 79.687 170.928 79.2199C170.991 78.7791 171.114 78.3248 171.204 78.2104C171.293 78.096 171.323 77.8208 171.27 77.5988C171.209 77.3427 171.261 77.1196 171.412 76.9874C171.759 76.683 171.704 76.5051 171.222 76.3774C170.986 76.315 170.551 76.0906 170.255 75.8787C169.959 75.6668 169.617 75.5337 169.495 75.5833C169.183 75.7095 168.656 76.7002 168.533 77.3903C168.477 77.7088 168.252 78.1461 168.033 78.3621C167.815 78.578 167.531 79.0187 167.403 79.3415C167.054 80.2197 166.221 81.5304 166.013 81.5275C165.913 81.526 165.73 81.4581 165.608 81.3763C165.423 81.2529 165.44 81.1329 165.708 80.6642C165.886 80.354 166.078 79.8188 166.136 79.4745C166.232 78.9037 166.206 78.8393 165.837 78.7416C165.614 78.6825 165.432 78.5628 165.432 78.4755C165.432 78.3882 165.055 78.3396 164.595 78.3677C163.848 78.4131 163.752 78.462 163.704 78.8245C163.674 79.0478 163.476 79.5193 163.265 79.8723C163.054 80.2254 162.881 80.585 162.881 80.6714C162.881 80.7579 162.74 81.0055 162.567 81.2214C162.077 81.8336 161.085 83.2315 160.648 83.9272C160.429 84.2742 160.107 84.6047 159.932 84.6615C159.436 84.822 158.577 85.5573 158.577 85.8204C158.577 85.9506 158.326 86.2683 158.019 86.5266C157.712 86.785 157.461 87.0911 157.461 87.2067C157.461 87.3224 157.399 87.4169 157.323 87.4169C157.247 87.4169 156.658 87.9467 156.015 88.5943C155.371 89.2418 154.779 89.7716 154.699 89.7716C154.619 89.7716 154.603 89.5636 154.662 89.3091C154.915 88.2254 154.937 87.9062 154.773 87.6983C154.647 87.5378 154.658 87.3898 154.813 87.1532C154.931 86.9744 155.081 86.6454 155.147 86.4222C155.266 86.0194 155.901 85.0068 157.654 82.4254C158.196 81.6268 159.05 80.6635 159.766 80.0437C161.149 78.8458 161.277 78.4536 160.41 78.0713C160.103 77.9359 159.852 77.7557 159.852 77.6706C159.852 77.4148 159.284 77.3058 158.852 77.4787C158.29 77.7044 157.182 78.9577 156.832 79.764C156.671 80.134 156.318 80.7017 156.048 81.0255C155.778 81.3493 155.447 81.7467 155.313 81.9085C155.179 82.0703 155.069 82.2469 155.069 82.3007C155.069 82.3546 154.818 82.7217 154.511 83.117C154.205 83.5121 153.953 83.929 153.953 84.0438C153.953 84.1583 153.803 84.4533 153.619 84.6992C152.925 85.6256 151.881 87.5039 151.877 87.8323C151.875 88.02 151.664 88.6267 151.408 89.1804C150.993 90.0778 150.968 90.2169 151.179 90.4629C151.31 90.6146 151.401 90.805 151.384 90.8859C151.315 91.1971 151.71 91.9118 152.1 92.1811C152.683 92.5841 154.749 92.5679 155.617 92.1535C155.973 91.9833 156.66 91.6617 157.142 91.4386C157.624 91.2156 158.043 90.9764 158.072 90.907C158.101 90.8375 158.218 90.7808 158.332 90.7808C158.446 90.7808 158.574 90.6421 158.616 90.4723C158.658 90.3026 159.129 89.8674 159.662 89.5052C160.195 89.1429 160.635 88.7594 160.64 88.6531C160.645 88.5468 160.907 88.1872 161.223 87.8542C161.689 87.3626 161.916 87.2487 162.429 87.2487C162.777 87.2487 163.2 87.3268 163.368 87.422C163.592 87.5483 163.795 87.5296 164.115 87.3538C164.586 87.0957 165.416 86.2395 165.196 86.2395C165.123 86.2395 165.193 86.0882 165.352 85.9031C165.511 85.7181 165.765 85.5668 165.917 85.5668C166.351 85.5668 166.804 85.0628 167.352 83.9689C168.057 82.5618 168.13 82.4799 168.444 82.7572C168.585 82.8817 168.885 82.9952 169.11 83.0093C169.336 83.0235 169.761 83.1417 170.054 83.2719C170.5 83.4695 170.695 83.4726 171.238 83.2902C171.596 83.1701 172.081 83.0273 172.317 82.973C172.709 82.8827 174.359 81.284 174.359 80.9945C174.359 80.9266 174.557 80.5244 174.798 80.1009C175.179 79.4303 175.288 79.3447 175.635 79.4397C176.218 79.5993 177.483 79.6584 177.666 79.5346C177.753 79.4757 177.98 79.1023 178.171 78.7045C178.573 77.8689 178.612 77.8461 179.78 77.7751C180.576 77.7265 180.69 77.669 181.023 77.145C181.225 76.8278 181.518 76.5056 181.675 76.4287C181.831 76.352 182.161 75.9258 182.407 75.4817C182.723 74.9104 183.161 74.4638 183.907 73.9537C184.487 73.5573 185.32 72.921 185.758 72.5398C186.196 72.1587 186.758 71.7111 187.007 71.5455C187.255 71.3796 187.563 70.98 187.691 70.6574C187.849 70.2593 188.011 70.0886 188.196 70.1261C188.424 70.1723 188.473 70.4101 188.496 71.6087C188.511 72.3938 188.601 73.2493 188.695 73.5097C188.79 73.77 188.867 74.1749 188.867 74.4093C188.867 75.6496 190.604 77.3904 192.019 77.5689C192.433 77.621 193.384 77.7837 194.13 77.93C195.892 78.2751 196.377 78.2148 196.647 77.6168C196.985 76.8699 196.775 76.5187 195.913 76.3922C195.501 76.3318 194.851 76.1744 194.469 76.0427C194.087 75.9108 193.549 75.8464 193.273 75.8994C192.619 76.0254 191.004 75.048 191.046 74.5513C191.061 74.3747 190.976 74.0306 190.856 73.7863C190.334 72.7217 190.76 67.9232 191.489 66.6448C191.595 66.4597 191.846 65.8115 192.047 65.2043C192.289 64.4733 192.527 64.047 192.752 63.9428C192.939 63.8562 193.093 63.6341 193.095 63.449C193.103 62.8027 193.347 62.3825 193.815 62.2104C194.162 62.0828 194.287 61.9296 194.287 61.6312C194.287 61.408 194.466 60.9464 194.686 60.6057C194.905 60.2649 195.084 59.871 195.084 59.7302C195.084 59.5896 195.484 59.0462 195.972 58.5226C196.466 57.9929 196.9 57.3597 196.95 57.0951C197.019 56.734 197.155 56.5954 197.516 56.5192C198.038 56.409 198.703 55.4414 198.619 54.916C198.586 54.7099 198.674 54.6188 198.907 54.6188C199.162 54.6188 199.355 54.368 199.71 53.5768C200.138 52.6209 200.226 52.017 199.851 52.6053C199.73 52.7959 199.704 52.756 199.74 52.4322C199.767 52.1925 199.89 52.0117 200.026 52.0117C200.342 52.0117 200.705 51.3208 200.591 50.9397C200.536 50.757 200.626 50.518 200.821 50.332C201.16 50.0087 201.252 49.5729 200.983 49.5729C200.687 49.5729 200.82 49.1913 201.357 48.497C201.65 48.1173 201.931 47.6933 201.982 47.5546C202.038 47.3996 202.078 47.3835 202.086 47.5125C202.11 47.9136 202.577 47.7332 202.577 47.3228C202.577 47.1029 202.685 46.8288 202.816 46.7136C202.948 46.5983 203.055 46.4377 203.055 46.3567C203.055 46.1289 202.613 46.1821 202.532 46.4192C202.493 46.535 202.405 46.5748 202.337 46.5079C202.176 46.3494 203.007 45.1998 203.283 45.1998C203.4 45.1998 203.58 44.9539 203.684 44.6532C203.788 44.3524 204.048 43.7548 204.261 43.3249C204.475 42.895 204.649 42.4212 204.649 42.272C204.649 42.1228 204.8 41.869 204.983 41.7081C205.429 41.3175 206.562 39.5224 206.562 39.2068C206.562 39.0691 206.812 38.6119 207.116 38.1908C207.574 37.5585 207.641 37.3671 207.501 37.0906C207.362 36.8169 207.406 36.6728 207.744 36.3012C208.222 35.7748 208.342 34.6035 207.918 34.6035C207.616 34.6035 207.618 34.5207 207.929 34.0207C208.157 33.6533 208.156 33.5807 207.915 33.1938C207.759 32.9419 207.694 32.6299 207.756 32.4252C207.826 32.1919 207.791 32.0893 207.649 32.1075C207.534 32.1223 207.206 32.165 206.921 32.2021ZM170.653 82.2003C170.994 82.1983 171.038 82.1616 170.852 82.0347C170.54 81.8221 170.214 81.8221 170.214 82.0347C170.214 82.1272 170.412 82.2017 170.653 82.2003ZM164.635 83.5765C164.635 83.8143 164.914 83.7311 165.011 83.4643C165.062 83.3255 165.045 83.212 164.975 83.212C164.809 83.212 164.635 83.3985 164.635 83.5765ZM164.475 84.3053C164.563 84.2481 164.635 84.168 164.635 84.1272C164.635 84.0863 164.563 84.053 164.475 84.053C164.388 84.053 164.316 84.1332 164.316 84.2311C164.316 84.329 164.388 84.3625 164.475 84.3053Z"/>
    </g>
    <g id="capital">
      <g id="curve">
        <path fill-rule="evenodd" clip-rule="evenodd" d="M131.794 39.4813C131.794 39.5738 131.722 39.6495 131.634 39.6495C131.547 39.6495 131.475 39.5738 131.475 39.4813C131.475 39.3888 131.547 39.3131 131.634 39.3131C131.722 39.3131 131.794 39.3888 131.794 39.4813Z"/>
        <path fill-rule="evenodd" clip-rule="evenodd" d="M146.685 34.778C146.434 35.0423 146.107 35.1336 145.255 35.177C144.646 35.2079 144.023 35.2431 143.87 35.2549C143.469 35.2858 143.526 35.7186 143.95 35.8691C144.29 35.99 144.284 36.0005 143.847 36.0704C143.594 36.1111 143.343 36.0694 143.289 35.9781C143.099 35.6545 142.038 35.5665 141.533 35.8323C141.268 35.9717 140.754 36.1387 140.391 36.2035C140.028 36.2682 139.595 36.4645 139.429 36.6398C139.263 36.815 138.914 36.9583 138.654 36.9583C138.299 36.9583 138.203 37.0212 138.272 37.2106C138.323 37.3494 138.285 37.4629 138.188 37.4629C138.091 37.4629 138.011 37.3116 138.011 37.1265C138.011 36.7276 137.809 36.6919 137.533 37.0424C137.424 37.1812 137.236 37.2947 137.115 37.2947C136.994 37.2947 136.895 37.3995 136.895 37.5273C136.895 37.8753 136.331 38.0028 134.788 38.0038C133.797 38.0045 133.345 38.072 133.214 38.2385C133.113 38.367 132.907 38.4721 132.757 38.4721C132.607 38.4721 132.431 38.5284 132.366 38.5974C132.3 38.6664 131.886 38.734 131.445 38.7476C130.908 38.7642 130.493 38.8896 130.189 39.1269C129.936 39.3238 129.493 39.4813 129.192 39.4813C128.877 39.4813 128.404 39.6572 128.063 39.9018C127.74 40.133 127.378 40.3223 127.26 40.3223C126.963 40.3223 123.83 41.6431 123.435 41.9349C123.259 42.0656 122.769 42.1724 122.347 42.1724C121.6 42.1724 120.861 42.5061 120.586 42.9673C120.516 43.0852 120.323 43.1816 120.157 43.1816C119.992 43.1816 119.812 43.2573 119.757 43.3498C119.703 43.4423 119.446 43.518 119.185 43.518C118.924 43.518 118.672 43.6246 118.625 43.7548C118.509 44.074 117.906 44.3006 116.569 44.5273C115.336 44.7362 114.815 44.986 114.815 45.3681C114.815 45.5069 114.672 45.6273 114.497 45.6359C114.162 45.652 113.547 45.8998 112.743 46.3418C112.48 46.4865 112.157 46.6568 112.026 46.7204C110.537 47.4403 109.953 47.7736 109.953 47.9038C109.953 47.9893 109.742 48.0593 109.484 48.0593C109.226 48.0593 108.971 48.1349 108.917 48.2274C108.863 48.32 108.692 48.3956 108.539 48.3956C108.385 48.3956 108.056 48.6192 107.808 48.8925C107.56 49.1656 107.098 49.5177 106.782 49.6746C105.955 50.085 104.418 51.2064 104.212 51.5503C104.086 51.7606 104.012 51.7841 103.952 51.6334C103.857 51.3932 103.417 51.3451 103.417 51.5749C103.417 51.6583 103.207 51.8038 102.951 51.898C102.695 51.9922 102.405 52.2268 102.308 52.4191C102.21 52.6113 102.034 52.7687 101.916 52.7687C101.798 52.7687 101.509 53.0336 101.275 53.3574C101.041 53.6812 100.745 53.9461 100.617 53.9461C100.489 53.9461 100.041 54.3057 99.6233 54.745C99.2052 55.1844 98.722 55.5695 98.5493 55.6008C98.168 55.6699 96.5617 56.9196 96.5617 57.1472C96.5617 57.2368 96.472 57.3107 96.3624 57.3115C96.1275 57.3132 95.2939 58.1359 94.4334 59.2153C93.069 60.9266 90.7724 63.1969 90.4056 63.1969C90.3375 63.1969 90.0088 63.3963 89.6753 63.6402C89.1765 64.0049 89.0688 64.184 89.0688 64.6494C89.0688 64.9606 89.1277 65.2152 89.1996 65.2152C89.2715 65.2152 89.6275 65.4835 89.9906 65.8115C90.6411 66.399 90.6583 66.4039 91.1434 66.1391C91.4144 65.9913 91.6791 65.7418 91.7317 65.5849C91.8544 65.2187 92.267 64.7106 92.4414 64.7106C92.5155 64.7106 92.5761 64.8242 92.5761 64.9629C92.5761 65.4123 93.1681 65.2305 93.6707 64.6265C93.9401 64.3028 94.2271 64.0378 94.3084 64.0378C94.4933 64.0378 95.2625 63.0929 95.6848 62.3468C95.8602 62.037 96.0796 61.6527 96.1723 61.4925C96.3217 61.2349 97.7556 59.8033 99.7252 57.9455C100.09 57.601 100.801 57.121 101.305 56.8786C101.809 56.6362 102.425 56.1784 102.674 55.8614C102.923 55.5441 103.335 55.1707 103.59 55.0316C103.845 54.8925 104.36 54.4589 104.734 54.068C105.107 53.6771 105.753 53.1818 106.169 52.9672C106.584 52.7526 106.924 52.5203 106.924 52.4512C106.924 52.3136 110.61 50.3354 111.189 50.1622C111.386 50.1032 111.547 49.9466 111.547 49.814C111.547 49.6606 111.714 49.573 112.006 49.573C112.258 49.573 112.544 49.4717 112.642 49.348C112.739 49.2242 113.093 49.036 113.429 48.93C113.765 48.8239 114.361 48.4732 114.753 48.1509C115.145 47.8285 115.994 47.3348 116.64 47.0538C117.286 46.7727 117.893 46.4745 117.989 46.3909C118.305 46.1161 121.449 44.8391 122.044 44.7444C122.365 44.6935 122.878 44.5097 123.185 44.3361C123.492 44.1625 124.252 43.8404 124.873 43.6202C126.02 43.214 127.33 42.4536 127.33 42.1938C127.33 42.1154 127.707 42.0088 128.167 41.9568C128.627 41.9048 129.327 41.7114 129.721 41.527C130.116 41.3427 130.856 41.1382 131.367 41.0726C131.99 40.9923 132.442 40.8223 132.745 40.5537C132.992 40.3338 133.33 40.1541 133.495 40.1541C133.66 40.1541 133.962 40.0308 134.166 39.8802C134.524 39.6153 134.893 39.49 136.417 39.1156C136.812 39.0186 137.242 38.8467 137.374 38.7333C137.811 38.3569 138.553 38.1591 140.243 37.9685C141.164 37.8647 142.204 37.6949 142.555 37.5913C142.905 37.4876 143.73 37.3842 144.388 37.3613C146.009 37.305 146.969 37.1366 147.271 36.8554C147.47 36.6706 147.893 36.6426 149.264 36.7244C150.221 36.7816 151.183 36.9208 151.403 37.034C151.738 37.2071 152.412 37.227 154.033 37.1116C154.121 37.1053 154.91 37.1511 155.787 37.2133C157.704 37.3492 159.162 37.8767 160.256 38.83C160.666 39.1881 161.102 39.4813 161.223 39.4813C161.762 39.4813 163.025 41.7013 162.815 42.2785C162.771 42.4 162.798 42.7096 162.874 42.9666C162.951 43.2236 163.173 44.1907 163.367 45.1158C163.562 46.0409 163.829 46.9285 163.96 47.0883C164.164 47.3363 164.171 47.5315 164.005 48.4222C163.898 48.9961 163.673 49.8332 163.505 50.2825C163.17 51.1798 163.112 51.7596 163.359 51.7596C163.601 51.7596 163.55 53.0365 163.3 53.2555C163.179 53.3609 163.032 53.9002 162.973 54.4537C162.894 55.1919 162.649 55.8975 162.053 57.1001C161.606 58.0018 161.073 59.0803 160.869 59.4966C160.665 59.9128 160.407 60.3644 160.296 60.5002C160.075 60.7701 159.643 61.5284 159.335 62.1877C159.227 62.419 159.048 62.7082 158.937 62.8304C158.827 62.9526 158.733 63.1418 158.729 63.2508C158.726 63.36 158.511 63.7112 158.251 64.0314C157.992 64.3517 157.779 64.7009 157.779 64.8073C157.779 64.9138 157.379 65.4465 156.888 65.9911C155.7 67.3113 154.166 69.3257 153.849 69.9827C153.708 70.2745 153.289 70.8587 152.918 71.2805C152.547 71.7025 152.118 72.3269 151.964 72.6681C151.811 73.0094 151.621 73.2886 151.544 73.2886C151.466 73.2886 151.403 73.3671 151.403 73.463C151.403 73.5589 150.98 74.0961 150.463 74.6569C149.946 75.2176 149.485 75.8776 149.438 76.1235C149.391 76.3741 148.932 76.9983 148.394 77.5429C147.866 78.0778 147.393 78.6545 147.342 78.8247C147.29 78.995 146.85 79.4129 146.364 79.7537C145.878 80.0945 145.037 80.8727 144.495 81.4829C143.146 83.0046 139.415 86.8455 138.25 87.9127C137.724 88.3946 137.242 88.9345 137.179 89.1123C137.116 89.2899 136.961 89.4354 136.835 89.4354C136.708 89.4354 136.212 89.8517 135.734 90.3605C135.256 90.8692 134.783 91.2855 134.684 91.2855C134.585 91.2855 134.504 91.3506 134.504 91.4302C134.504 91.5883 134.027 92.0759 132.402 93.5792C130.405 95.4257 129.661 95.992 128.734 96.3713C128.094 96.6333 127.808 96.8412 127.808 97.0454C127.808 97.2267 127.687 97.3406 127.495 97.3406C127.322 97.3406 126.967 97.5612 126.706 97.831C126.444 98.1008 126.101 98.3657 125.943 98.4195C125.657 98.5173 125.257 99.2304 125.257 99.6447C125.257 99.7651 125.15 99.8635 125.018 99.8635C124.887 99.8635 124.797 99.958 124.819 100.074C124.841 100.189 124.769 100.265 124.66 100.242C124.55 100.219 124.374 100.181 124.268 100.158C124.163 100.135 124.073 100.225 124.069 100.358C124.065 100.491 123.702 100.756 123.263 100.946C122.381 101.329 121.293 102.085 120.506 102.86C120.224 103.138 119.605 103.597 119.129 103.88C118.653 104.163 118.205 104.496 118.134 104.619C118.062 104.743 117.753 105.005 117.446 105.201C117.139 105.398 116.673 105.799 116.41 106.092C116.147 106.385 115.763 106.694 115.557 106.779C115.352 106.863 115.146 107.082 115.101 107.265C115.048 107.477 114.797 107.661 114.407 107.772C114.071 107.867 113.439 108.266 113.003 108.659C112.567 109.052 111.946 109.474 111.624 109.597C111.301 109.72 110.729 110.04 110.353 110.308C109.976 110.577 109.595 110.796 109.506 110.796C109.417 110.796 108.961 111.12 108.493 111.516C107.504 112.352 107.067 112.655 105.832 113.356C105.337 113.637 104.826 113.971 104.698 114.098C104.497 114.296 104.536 114.328 104.977 114.328C105.335 114.328 105.489 114.407 105.489 114.591C105.489 114.735 105.414 114.804 105.323 114.744C105.231 114.685 104.911 114.834 104.61 115.076C104.31 115.317 103.613 115.729 103.063 115.989C102.512 116.25 101.963 116.588 101.843 116.741C101.723 116.894 101.447 117.019 101.23 117.019C100.989 117.019 100.808 117.134 100.763 117.314C100.723 117.476 100.533 117.689 100.34 117.788C98.3727 118.795 97.5899 119.374 98.1957 119.374C98.4473 119.374 100.019 118.769 100.547 118.469C100.766 118.345 101.292 118.195 101.716 118.137C102.14 118.079 102.662 117.885 102.877 117.708C103.091 117.529 103.544 117.334 103.882 117.274C104.221 117.214 104.658 116.984 104.854 116.764C105.05 116.544 105.417 116.316 105.668 116.258C105.92 116.2 106.222 116.008 106.339 115.832C106.456 115.656 107.161 115.184 107.905 114.783C108.65 114.382 109.512 113.851 109.82 113.603C110.129 113.354 110.494 113.151 110.631 113.151C110.767 113.151 111.18 112.886 111.547 112.562C111.915 112.239 112.308 111.974 112.422 111.974C112.536 111.974 112.841 111.766 113.099 111.511C113.357 111.257 113.687 111.073 113.833 111.103C113.979 111.133 114.142 111.038 114.195 110.893C114.248 110.747 114.422 110.628 114.582 110.628C114.742 110.628 114.967 110.534 115.083 110.418C115.199 110.302 115.75 109.981 116.309 109.705C116.948 109.388 117.374 109.061 117.46 108.822C117.551 108.57 117.729 108.441 117.987 108.441C118.211 108.441 118.653 108.179 119.027 107.825C119.689 107.198 119.863 106.76 119.448 106.76C119.075 106.76 119.029 106.499 119.299 105.928C119.53 105.439 120.177 104.997 120.492 105.114C120.562 105.14 120.505 105.41 120.366 105.713C120.226 106.016 120.14 106.287 120.174 106.314C120.208 106.342 120.577 106.332 120.994 106.292C121.619 106.233 121.891 106.089 122.548 105.465C122.986 105.05 123.344 104.603 123.344 104.473C123.344 104.343 123.447 104.237 123.572 104.237C123.698 104.237 124.074 103.963 124.409 103.628C124.744 103.293 125.413 102.787 125.895 102.505C126.377 102.222 127.144 101.626 127.599 101.179C128.055 100.733 128.487 100.368 128.561 100.368C128.827 100.368 129.893 99.1315 129.814 98.914C129.743 98.7196 131.309 96.8974 131.962 96.4135C132.089 96.3198 132.569 95.9604 133.03 95.6145C133.49 95.2687 133.921 94.9857 133.986 94.9853C134.052 94.9852 134.249 94.7522 134.424 94.468C134.6 94.1837 134.989 93.8243 135.289 93.6695C135.661 93.4781 135.844 93.2617 135.862 92.9941C135.89 92.5674 136.176 92.3014 136.612 92.2972C136.764 92.2959 137.266 91.9094 137.728 91.4386C138.191 90.9676 138.802 90.3911 139.087 90.1571C139.372 89.9233 139.605 89.6273 139.605 89.4995C139.605 89.3718 139.659 89.267 139.725 89.2668C139.959 89.2663 142.317 86.9839 142.878 86.2159C143.577 85.2572 145.14 83.9381 145.67 83.859C145.926 83.8208 146.054 83.6994 146.04 83.508C146.023 83.2844 146.103 83.2379 146.378 83.3107C146.661 83.3854 146.759 83.3211 146.835 83.0147C146.887 82.7995 147.182 82.3271 147.49 81.965C147.92 81.4592 148.009 81.2543 147.873 81.0819C147.743 80.9156 147.753 80.7861 147.913 80.5822C148.215 80.1991 149.13 79.6314 149.888 79.3574C150.669 79.0752 151.377 78.3769 151.541 77.7268C151.633 77.3642 151.783 77.2197 152.131 77.1561C152.44 77.0997 152.615 76.9573 152.647 76.7356C152.673 76.5511 152.921 76.2867 153.197 76.1479C153.679 75.9057 153.935 75.555 154.532 74.3191C154.69 73.9906 155.021 73.6569 155.317 73.5264C155.955 73.2449 156.158 72.7891 155.701 72.6629C155.26 72.5413 155.403 72.1807 155.864 72.252C156.151 72.2964 156.208 72.2478 156.127 72.0265C156.071 71.8714 156.069 71.6687 156.123 71.5762C156.178 71.4837 156.234 71.0785 156.249 70.6757C156.273 70.0412 156.393 69.81 157.148 68.9439C157.627 68.3941 158.072 67.9358 158.138 67.9253C158.351 67.8915 158.265 68.7261 158.042 68.8651C157.842 68.9899 157.461 69.6187 157.461 69.8243C157.461 69.8737 157.568 69.8705 157.7 69.8174C157.831 69.7641 157.939 69.6319 157.939 69.5237C157.939 69.4154 158.154 69.1276 158.417 68.884C158.68 68.6405 158.895 68.2831 158.895 68.0897C158.895 67.8964 158.949 67.7471 159.015 67.758C159.344 67.813 159.533 67.7132 159.533 67.4842C159.533 67.3446 159.673 67.104 159.844 66.9496C160.015 66.7952 160.119 66.6084 160.076 66.5342C159.931 66.2871 160.325 65.744 160.689 65.6895C160.949 65.6505 161.049 65.5218 161.051 65.2219C161.053 64.9251 161.162 64.7813 161.438 64.7128C161.839 64.6127 162.094 64.206 161.755 64.206C161.647 64.206 161.742 64.0273 161.965 63.8086C162.189 63.5901 162.496 63.1548 162.649 62.8415C162.801 62.5281 163.095 62.0578 163.302 61.7963C163.51 61.5331 163.678 61.0996 163.678 60.8251C163.678 60.4509 163.776 60.2899 164.077 60.1693C164.304 60.0783 164.475 59.8755 164.475 59.6982C164.475 59.527 164.654 59.2093 164.874 58.992C165.093 58.7747 165.274 58.4776 165.277 58.332C165.28 58.1861 165.388 57.9199 165.516 57.7404C165.645 57.5608 165.751 57.2833 165.751 57.1237C165.751 56.964 165.84 56.795 165.95 56.7481C166.105 56.6816 166.102 56.628 165.935 56.5044C165.779 56.3885 165.765 56.2608 165.884 56.029C166.061 55.6832 166.262 55.0734 166.228 54.982C166.217 54.9504 166.312 54.8369 166.44 54.7297C166.567 54.6226 166.762 54.1185 166.872 53.6097C166.982 53.1009 167.198 52.5144 167.351 52.3062C167.577 51.9989 167.602 51.7998 167.485 51.2459C167.374 50.7287 167.392 50.508 167.559 50.3324C167.711 50.1716 167.755 49.8399 167.701 49.2491C167.656 48.7549 167.696 48.3041 167.798 48.1753C167.937 47.9982 167.947 46.9534 167.814 46.5455C167.799 46.4992 167.797 46.3405 167.811 46.1928C167.824 46.0451 167.735 45.8365 167.612 45.7292C167.433 45.572 167.424 45.3991 167.566 44.8346C167.696 44.3226 167.696 44.1181 167.567 44.0727C167.084 43.903 166.802 43.5497 166.97 43.3259C167.064 43.2002 167.181 42.8201 167.231 42.4812C167.3 42.0057 167.25 41.7978 167.014 41.5721C166.845 41.411 166.707 41.1338 166.707 40.956C166.707 40.7782 166.495 40.409 166.236 40.1356C165.977 39.8621 165.8 39.5411 165.843 39.4222C166.021 38.9326 164.511 37.6311 163.764 37.6311C163.629 37.6311 163.519 37.5647 163.519 37.4833C163.519 37.402 163.309 37.2439 163.053 37.1319C162.796 37.0199 162.384 36.7101 162.136 36.4435C161.794 36.0752 161.532 35.9559 161.048 35.948C160.265 35.9349 158.61 35.5692 158.178 35.3137C157.84 35.1137 153.268 34.5723 152.947 34.6943C152.843 34.7338 151.772 34.7955 150.568 34.8313C148.85 34.8825 148.339 34.847 148.197 34.666C147.924 34.3193 147.059 34.3836 146.685 34.778ZM151.712 35.6128C151.795 35.6128 151.906 35.5371 151.961 35.4446C152.015 35.3521 151.947 35.2764 151.811 35.2764C151.674 35.2764 151.562 35.3521 151.562 35.4446C151.562 35.5371 151.629 35.6128 151.712 35.6128ZM154.173 35.7123C154.513 35.8498 154.951 35.7344 155.029 35.4866C155.073 35.3494 154.929 35.2764 154.614 35.2764C154.082 35.2764 153.796 35.5594 154.173 35.7123ZM158.91 36.1174C158.499 36.1174 158.094 36.0514 158.011 35.971C157.818 35.7848 156.419 35.5902 156.286 35.7312C155.983 36.0504 156.221 36.2484 156.809 36.1653C157.223 36.1068 157.547 36.1621 157.775 36.331C157.964 36.4706 158.258 36.5464 158.428 36.4993C158.598 36.4524 158.827 36.4891 158.936 36.5809C159.231 36.8292 160.709 37.0293 160.577 36.8031C160.519 36.7035 160.329 36.622 160.156 36.622C159.983 36.622 159.801 36.5084 159.75 36.3697C159.687 36.1951 159.428 36.1174 158.91 36.1174ZM161.598 36.8409C161.427 36.8882 161.287 36.8583 161.287 36.7743C161.287 36.6906 161.179 36.622 161.048 36.622C160.916 36.622 160.808 36.6884 160.808 36.7696C160.808 36.8507 160.916 37.0113 161.048 37.1265C161.179 37.2418 161.287 37.4256 161.287 37.5352C161.287 37.7539 162.352 38.3039 162.775 38.3039C162.921 38.3039 163.04 38.4174 163.04 38.5562C163.04 38.7325 163.209 38.8085 163.598 38.8085C163.988 38.8085 164.156 38.7325 164.156 38.5562C164.156 38.4174 164.056 38.3039 163.934 38.3039C163.812 38.3039 163.674 38.1998 163.628 38.0726C163.582 37.9455 163.222 37.7906 162.829 37.7285C162.237 37.6348 162.097 37.5416 162.012 37.1851C161.935 36.8615 161.833 36.7762 161.598 36.8409ZM131.634 39.6495C131.722 39.6495 131.794 39.5738 131.794 39.4813C131.794 39.3888 131.722 39.3131 131.634 39.3131C131.547 39.3131 131.475 39.3888 131.475 39.4813C131.475 39.5738 131.547 39.6495 131.634 39.6495ZM164.38 40.4904C164.684 40.4904 164.696 40.337 164.42 39.9549C164.183 39.6257 163.242 39.3139 163.425 39.6249C163.487 39.7309 163.632 39.8177 163.748 39.8177C163.865 39.8177 163.997 39.969 164.043 40.1541C164.089 40.3391 164.241 40.4904 164.38 40.4904ZM165.748 42.1618C165.747 42.0289 165.693 41.8444 165.629 41.7519C165.387 41.4046 164.979 41.1523 164.894 41.2975C164.845 41.3804 165.018 41.6631 165.278 41.9258C165.583 42.2341 165.75 42.3177 165.748 42.1618Z"/>
      </g>
      <g id="stick">
        <path fill-rule="evenodd" clip-rule="evenodd" d="M120.794 89.099C120.794 89.1915 120.723 89.2672 120.635 89.2672C120.547 89.2672 120.475 89.1915 120.475 89.099C120.475 89.0065 120.547 88.9308 120.635 88.9308C120.723 88.9308 120.794 89.0065 120.794 89.099ZM120.691 89.6828C120.74 89.8189 120.676 90.0405 120.548 90.1754C120.421 90.3102 120.314 90.5206 120.311 90.6429C120.308 90.765 120.201 91.012 120.072 91.1915C119.843 91.5112 119.838 91.5106 119.838 91.1574C119.838 90.9591 119.904 90.6228 119.984 90.4104C120.065 90.198 120.17 89.8915 120.218 89.7297C120.325 89.3708 120.569 89.3467 120.691 89.6828Z"/>
        <path fill-rule="evenodd" clip-rule="evenodd" d="M119.552 54.8567C119.49 54.9571 119.428 55.7962 119.415 56.7213C119.398 57.8962 119.315 58.5555 119.137 58.9079C118.778 59.6212 118.819 60.2191 119.295 61.2095C119.628 61.9034 119.713 62.3339 119.733 63.4323C119.747 64.1816 119.825 64.8459 119.908 64.9083C120.112 65.0638 120.161 66.3699 119.967 66.4965C119.881 66.5527 119.73 66.5145 119.633 66.4116C119.535 66.3086 119.332 66.2244 119.181 66.2244C118.961 66.2244 118.917 66.3534 118.954 66.8785C118.979 67.2383 119.049 67.6154 119.108 67.7166C119.167 67.8179 119.17 68.1595 119.113 68.4759C119.045 68.8627 119.1 69.2497 119.284 69.6578C119.505 70.1492 119.526 70.3938 119.393 70.9438C119.283 71.4021 119.282 71.8223 119.39 72.2355C119.523 72.7426 119.505 72.8832 119.286 73.0523C118.987 73.2829 118.818 74.2365 119.049 74.3872C119.325 74.5672 119.205 74.8267 118.894 74.7226C118.468 74.58 118.34 75.1051 118.624 75.8265C119.036 76.8708 119.095 78.17 118.789 79.4392C118.634 80.0803 118.521 80.8145 118.538 81.0705C118.554 81.3263 118.45 81.7761 118.306 82.0698C117.937 82.8236 117.778 83.4535 117.605 84.8515C117.522 85.522 117.355 86.241 117.233 86.4494C117.111 86.6578 116.889 87.3753 116.741 88.0437C116.592 88.7121 116.296 89.7136 116.082 90.2689C115.868 90.8243 115.693 91.4226 115.693 91.5982C115.693 91.9279 115.147 93.323 114.498 94.6494C114.295 95.0657 114.005 95.9316 113.853 96.5736L113.579 97.7407L114.038 98.1329C114.637 98.6443 115.145 98.7738 115.632 98.5393C115.849 98.435 116.23 98.3497 116.478 98.3497C117.067 98.3497 117.415 97.9311 117.169 97.5167C116.961 97.1648 117.181 96.836 117.625 96.836C117.972 96.836 119.121 95.682 119.271 95.1823C119.334 94.9747 119.558 94.4861 119.769 94.0964C119.98 93.7069 120.154 93.1421 120.155 92.8413C120.156 92.5406 120.226 92.2947 120.312 92.2947C120.753 92.2947 121.591 89.3215 121.591 87.7581C121.591 87.1516 121.707 86.5554 121.91 86.1112C122.292 85.2783 122.307 85.0004 121.99 84.666C121.731 84.3922 121.687 84.1429 121.726 83.1519C121.749 82.5562 121.782 82.5111 122.132 82.6038C122.465 82.6921 122.524 82.6362 122.597 82.1596C122.642 81.8597 122.827 81.0942 123.008 80.4586C123.221 79.7051 123.286 79.2061 123.194 79.0246C123.107 78.8525 123.143 78.2662 123.289 77.4891C123.654 75.5372 123.708 74.8548 123.524 74.5215C123.385 74.2687 123.354 74.3413 123.35 74.9285C123.346 75.4561 123.281 75.6433 123.101 75.6433C122.745 75.6433 122.657 75.2518 122.781 74.211C122.87 73.4521 122.944 73.2886 123.197 73.2886C123.366 73.2886 123.508 73.2319 123.512 73.1625C123.515 73.093 123.554 72.3173 123.596 71.4384C123.639 70.5596 123.698 69.3673 123.727 68.7887C123.82 66.95 123.515 63.0336 123.234 62.4595C123.009 62.0005 122.706 60.0265 122.493 57.6289C122.456 57.203 122.351 56.7101 122.262 56.5333C122.161 56.3345 122.149 55.9246 122.23 55.4575C122.386 54.5583 122.303 54.4058 121.937 54.9183L121.666 55.2965L121.39 54.9563C121.18 54.6969 120.942 54.6229 120.39 54.6451C119.991 54.6609 119.614 54.7561 119.552 54.8567ZM120.635 89.2672C120.723 89.2672 120.794 89.1915 120.794 89.099C120.794 89.0065 120.723 88.9308 120.635 88.9308C120.547 88.9308 120.475 89.0065 120.475 89.099C120.475 89.1915 120.547 89.2672 120.635 89.2672ZM120.548 90.1754C120.676 90.0405 120.74 89.8189 120.691 89.6828C120.569 89.3467 120.325 89.3708 120.218 89.7297C120.17 89.8915 120.065 90.198 119.984 90.4104C119.904 90.6228 119.838 90.9591 119.838 91.1574C119.838 91.5106 119.843 91.5112 120.072 91.1915C120.201 91.012 120.308 90.765 120.311 90.6429C120.314 90.5206 120.421 90.3102 120.548 90.1754Z"/>
      </g>
    </g>
  </g>
  <g id="Juan">
    <path id="rest_2" fill-rule="evenodd" clip-rule="evenodd" d="M92.0714 104.15C91.5405 104.751 91.0396 105.243 90.9585 105.243C90.8773 105.243 90.4389 105.641 89.9842 106.126C89.5296 106.612 88.6729 107.44 88.0803 107.966C87.4877 108.492 87.0762 108.97 87.1662 109.029C87.2561 109.087 87.2899 109.203 87.2416 109.285C87.0955 109.534 86.3678 109.083 86.3678 108.743C86.3678 108.317 85.9525 108.178 85.4784 108.446C85.1393 108.637 85.0615 108.627 84.8791 108.364C84.5646 107.91 84.0488 108.171 83.7609 108.931C83.3939 109.898 82.8254 110.301 81.995 110.181C81.349 110.087 81.3039 110.11 80.9768 110.695C80.7887 111.031 80.5078 111.364 80.3527 111.434C79.7043 111.727 79.0279 112.242 78.9477 112.504C78.9005 112.658 78.7215 112.973 78.5499 113.203C78.2829 113.561 78.1404 113.61 77.5601 113.543C77.0152 113.479 76.9375 113.501 77.1645 113.653C77.474 113.86 77.396 114.158 77.0322 114.158C76.9058 114.158 76.8025 114.044 76.8025 113.905C76.8025 113.613 76.4374 113.577 75.9949 113.827C75.7463 113.968 75.6856 114.188 75.6814 114.962C75.6784 115.54 75.5829 116.054 75.4423 116.25C75.3137 116.43 75.2083 116.751 75.2083 116.965C75.2083 117.179 75.1399 117.353 75.0564 117.353C74.9728 117.353 74.7868 117.615 74.6431 117.934C74.4993 118.254 74.2808 118.604 74.1574 118.712C74.034 118.82 73.9329 119.015 73.9329 119.146C73.9329 119.277 73.817 119.57 73.6754 119.798C73.5339 120.026 73.4647 120.213 73.5218 120.213C73.6169 120.213 72.3347 121.955 71.778 122.582C71.6481 122.728 71.5416 123 71.5416 123.186C71.5416 123.372 71.3981 123.662 71.2228 123.829C71.0474 123.996 70.9039 124.22 70.9039 124.326C70.9039 124.432 70.8188 124.608 70.7148 124.718C70.6107 124.828 70.5011 125.087 70.4712 125.294C70.4142 125.688 69.7478 126.519 69.2698 126.793C68.7586 127.085 68.9465 126.213 69.5487 125.499C69.8841 125.102 70.1067 124.663 70.1067 124.398C70.1068 124.156 70.2546 123.76 70.4352 123.518C70.616 123.276 70.8052 122.792 70.8559 122.444C70.9701 121.661 71.1737 121.224 71.4276 121.216C71.5341 121.213 71.7449 120.933 71.896 120.594C72.1318 120.064 72.1391 119.94 71.9481 119.716C71.7581 119.494 71.7579 119.394 71.9468 119.035C72.0685 118.804 72.1705 118.558 72.1737 118.489C72.1839 118.261 70.9717 118.357 70.6554 118.609C70.4853 118.745 70.0948 118.861 69.788 118.867C68.9073 118.884 68.7112 119.146 68.7147 120.3C68.7173 121.165 68.6326 121.459 68.1102 122.399C67.7761 123.001 67.452 123.53 67.3899 123.577C67.2363 123.691 66.6008 124.808 66.6002 124.964C66.5998 125.034 66.8463 125.09 67.1481 125.09C67.4499 125.09 67.7413 125.167 67.7958 125.26C67.9403 125.506 67.4078 125.674 67.1946 125.449C66.9327 125.173 66.1712 125.215 66.0631 125.512C66.0124 125.652 65.7895 125.853 65.5678 125.96C65.3462 126.066 65.1647 126.241 65.1647 126.347C65.1647 126.454 65.037 126.687 64.881 126.867C64.3345 127.495 63.7299 128.404 63.7299 128.598C63.7299 129.032 61.0576 131.849 60.3451 132.167C59.8975 132.366 59.1992 132.24 59.531 132.019C59.6279 131.955 59.7473 131.486 59.7966 130.977C59.8457 130.468 59.9714 129.653 60.076 129.166C60.2453 128.377 60.2348 128.243 59.9807 127.946C59.6864 127.603 59.7658 127.537 60.395 127.6C60.561 127.616 60.7209 127.379 60.8624 126.904C60.9809 126.508 61.0609 126.115 61.0404 126.031C61.0198 125.947 61.0606 125.833 61.1309 125.779C61.3755 125.589 61.6677 124.908 61.5738 124.747C61.5218 124.658 61.5534 124.586 61.6439 124.586C61.8826 124.586 62.3342 123.59 62.228 123.298C62.1786 123.162 62.0658 123.098 61.9774 123.155C61.8891 123.213 61.8169 123.149 61.8169 123.014C61.8169 122.855 61.924 122.797 62.1177 122.85C62.2832 122.896 62.4668 122.851 62.5257 122.75C62.5896 122.641 62.5003 122.567 62.3046 122.567C62.1241 122.567 61.9763 122.527 61.9763 122.477C61.9763 122.273 62.5035 121.558 62.6547 121.558C62.9037 121.558 63.241 121.014 63.2466 120.603C63.2495 120.402 63.3708 120.111 63.5162 119.958C63.6617 119.804 63.7958 119.418 63.8141 119.099C63.8325 118.78 63.8927 118.471 63.9482 118.413C64.0035 118.354 64.0488 118.186 64.0488 118.039C64.0488 117.782 63.0983 117.353 62.5289 117.353C62.0815 117.353 61.3386 117.859 61.3386 118.164C61.3386 118.433 60.5265 120.328 59.724 121.931C59.3978 122.583 58.4329 124.177 58.1405 124.547C58.0475 124.665 57.8742 125.007 57.7551 125.308C57.6362 125.608 57.3894 125.997 57.2069 126.171C57.0242 126.345 56.8748 126.559 56.8748 126.645C56.8748 126.732 56.5879 127.235 56.2371 127.762C55.8864 128.29 55.5995 128.806 55.5995 128.91C55.5995 129.014 55.3069 129.389 54.9492 129.744C54.5916 130.098 54.1524 130.691 53.9734 131.061C53.7942 131.431 53.5702 131.893 53.4755 132.087C53.3806 132.281 53.1024 132.561 52.8571 132.71C52.6117 132.858 52.4161 133.04 52.4225 133.114C52.4503 133.436 53.5335 134.17 54.1282 134.27C54.7373 134.373 54.8197 134.336 55.4235 133.686C55.778 133.305 56.1447 132.842 56.2379 132.657C56.4401 132.259 56.7623 132.228 57.0912 132.575C57.2227 132.714 57.4969 132.829 57.7005 132.83C57.9039 132.831 58.1781 132.913 58.3096 133.011C58.4875 133.143 58.3957 133.162 57.9509 133.085C57.3676 132.983 57.3531 132.993 57.3531 133.501C57.3531 134.324 57.7807 135.006 58.5194 135.36C58.8862 135.535 59.3204 135.681 59.4841 135.683C59.824 135.687 61.0198 134.46 61.0198 134.107C61.0198 133.978 61.1932 133.827 61.4053 133.771C61.834 133.657 64.5271 130.888 64.5271 130.561C64.5271 130.447 64.8499 130.003 65.2444 129.574C65.639 129.146 65.9618 128.651 65.9618 128.475C65.9618 128.072 66.3669 127.897 66.7704 128.124C67.1358 128.331 67.1758 128.622 66.8387 128.622C66.5201 128.622 66.5364 128.846 66.8785 129.173C67.1891 129.47 68.5947 130.14 68.8845 130.13C68.9869 130.126 69.4293 129.68 69.8677 129.138C70.3061 128.596 70.9495 128.012 71.2977 127.841C71.9782 127.506 72.817 126.826 72.817 126.61C72.817 126.537 73.0653 126.042 73.3689 125.51C73.6726 124.978 74.0388 124.168 74.1826 123.711C74.4904 122.734 74.6844 122.615 75.3677 122.988C75.9091 123.283 76.3242 123.226 76.3242 122.857C76.3242 122.732 76.4955 122.256 76.7048 121.798C77.154 120.816 77.4623 119.714 77.3444 119.513C77.2983 119.434 77.3727 119.324 77.5098 119.268C77.6468 119.213 77.759 119.055 77.759 118.917C77.759 118.681 78.1284 117.879 78.4678 117.378C78.7565 116.953 78.7162 116.668 78.3927 116.851C78.0273 117.057 77.9184 117.06 77.9184 116.862C77.9184 116.777 78.2727 116.539 78.7055 116.333C79.406 115.999 79.5041 115.886 79.5962 115.311C79.6668 114.87 79.8428 114.557 80.1489 114.327C80.396 114.141 80.6369 113.989 80.6844 113.989C80.7319 113.989 80.7322 114.425 80.6852 114.957C80.5586 116.389 80.5447 116.465 80.3651 116.709C79.81 117.462 80.1027 118.253 81.0028 118.431C81.3061 118.491 81.5961 118.655 81.6472 118.795C81.7795 119.159 82.3822 118.795 82.3822 118.351C82.3822 118.067 82.4317 118.042 82.7011 118.194C82.8764 118.293 83.0199 118.484 83.0199 118.618C83.0199 118.886 83.5738 119.077 84.4238 119.103C84.8525 119.116 84.987 119.047 85.0242 118.797C85.0505 118.619 85.2112 118.276 85.381 118.033L86.1787 115.858C86.3836 115.423 86.4001 115.27 86.2482 115.213C85.9477 115.101 86.0088 114.881 86.3678 114.782C86.6913 114.693 86.8196 114.326 86.5272 114.326C86.4395 114.326 86.3678 114.212 86.3678 114.074C86.3678 113.935 86.469 113.821 86.5927 113.821C86.9047 113.821 87.6481 112.853 87.5478 112.577C87.5 112.446 87.6027 112.314 87.7935 112.261C88.0157 112.2 88.1214 112.033 88.1214 111.744C88.1214 111.509 88.2526 111.218 88.4132 111.098C88.5735 110.977 88.8329 110.67 88.9895 110.415C89.146 110.161 89.3657 109.953 89.4778 109.953C89.6595 109.953 89.8416 109.667 89.8802 109.32C89.8878 109.252 90.0311 109.142 90.1987 109.077C90.3662 109.012 90.7654 108.573 91.0859 108.103C91.4061 107.632 91.7471 107.275 91.8436 107.309C92.0733 107.39 92.271 108.408 92.1608 108.944C92.1132 109.175 91.9244 109.894 91.7414 110.541C91.4125 111.705 91.2847 113.444 91.3089 116.428C91.3173 117.48 91.3795 117.829 91.5938 118.027C91.7444 118.166 92.035 118.653 92.2394 119.11C92.6365 119.999 93.1882 120.71 93.4836 120.714C93.583 120.716 93.7892 120.516 93.9416 120.271C94.2113 119.837 94.2086 119.817 93.8403 119.523C93.55 119.292 93.5057 119.175 93.6497 119.023C93.7731 118.892 93.7896 118.692 93.6983 118.438C93.6218 118.226 93.543 117.611 93.5234 117.072C93.5038 116.533 93.3884 115.838 93.2669 115.528C93.0753 115.04 93.0775 114.939 93.2832 114.772C93.4284 114.653 93.5513 114.177 93.5998 113.543C93.6435 112.974 93.7463 112.368 93.8282 112.198C94.1211 111.587 94.3639 110.694 94.5067 109.7C94.5866 109.145 94.79 107.746 94.9588 106.59C95.1277 105.434 95.2303 104.427 95.1871 104.354C95.1439 104.28 95.1926 104.113 95.2954 103.982C95.5999 103.595 95.327 103.393 94.4983 103.393C94.0702 103.393 93.6757 103.317 93.6215 103.225C93.4067 102.858 92.9949 103.104 92.0714 104.15ZM82.0647 113.316C82.6285 112.892 82.6545 112.673 82.2112 112.078C81.8139 111.545 81.5144 111.499 81.636 111.99C81.6942 112.225 81.595 112.492 81.3433 112.779C80.969 113.205 80.9678 113.216 81.2751 113.443C81.5483 113.645 81.6478 113.629 82.0647 113.316Z"/>
    <path id="capital_2" fill-rule="evenodd" clip-rule="evenodd" d="M73.3322 66.8227C73.275 66.9204 73.0282 67.0005 72.784 67.0005C72.5339 67.0005 72.2072 67.1559 72.0361 67.3562C71.8691 67.5518 71.5676 67.7784 71.3661 67.8596C71.1646 67.941 70.8998 68.2596 70.7778 68.5676C70.5733 69.0843 70.0829 69.5966 68.6237 70.8187C68.3168 71.0759 67.972 71.4193 67.8574 71.5821C67.7429 71.745 67.5449 71.8782 67.4175 71.8782C67.29 71.8782 67.063 72.0295 66.9128 72.2146C66.7626 72.3996 66.5736 72.551 66.4924 72.551C66.4114 72.551 66.0025 72.8727 65.5836 73.2658C64.4555 74.3247 63.942 74.7044 63.4688 74.8297C63.2351 74.8916 63.044 75.0037 63.044 75.0791C63.044 75.1545 62.775 75.3079 62.4461 75.4202C61.865 75.6187 60.4162 76.4036 59.7801 76.8643C59.6073 76.9896 59.3014 77.0922 59.1005 77.0922C58.8996 77.0922 58.6106 77.164 58.4584 77.2517C57.8425 77.6064 55.4415 78.606 55.2054 78.606C55.0662 78.606 54.6747 78.7296 54.3351 78.8806C53.5396 79.2345 51.4548 79.7788 50.8849 79.7813C50.6421 79.7825 49.9964 79.9828 49.4501 80.2267C48.9039 80.4706 48.17 80.6906 47.8192 80.7155C47.4685 80.7404 46.8229 80.8484 46.3844 80.9552C45.946 81.0621 45.0852 81.216 44.4714 81.2973C43.1806 81.4682 41.3276 81.869 41.0789 82.0311C40.985 82.0923 40.2392 82.1823 39.4215 82.2309C38.604 82.2795 37.5047 82.4582 36.9786 82.6281C35.9226 82.969 34.1862 83.3288 31.638 83.7344C30.7173 83.8811 29.7488 84.0686 29.4858 84.1514C29.2227 84.2341 28.6847 84.3919 28.2901 84.5019C26.2865 85.0607 24.8677 85.7985 23.7326 86.8721C23.111 87.46 22.5012 88.0988 22.3775 88.2919C22.2536 88.4848 21.8395 89.1471 21.457 89.7636C21.0746 90.3798 20.7077 90.8843 20.6419 90.8843C20.4236 90.8843 19.6747 91.7733 19.4247 92.3291C19.2004 92.8278 19.2025 92.9135 19.4485 93.3096C19.7418 93.7818 19.8615 93.8223 20.2814 93.5912C20.851 93.2773 21.934 93.0597 22.4333 93.1584C22.8936 93.2496 23.0326 93.1736 23.7069 92.4619C24.1233 92.0228 24.464 91.5947 24.464 91.5108C24.464 91.2918 25.9084 89.5387 26.0888 89.5387C26.2325 89.5387 27.7878 88.2571 27.9842 87.977C28.1721 87.7087 29.35 87.1219 30.1235 86.911C30.5619 86.7915 31.4228 86.5317 32.0365 86.3335C33.9848 85.7047 34.8809 85.4875 35.8378 85.4123C36.3501 85.372 37.34 85.1394 38.0375 84.8951C38.8798 84.6005 39.488 84.4827 39.8494 84.5446C40.1485 84.5958 40.6305 84.5685 40.9204 84.4841C41.2104 84.3996 41.9487 84.3021 42.561 84.2674C43.3244 84.2242 44.0752 84.0373 44.9497 83.673C45.8148 83.3126 46.7377 83.0813 47.8192 82.9542C48.7209 82.848 49.7135 82.6206 50.1042 82.4306C50.6244 82.1776 50.9861 82.1184 51.5687 82.1912C52.2143 82.272 52.5026 82.206 53.3116 81.7925C53.8447 81.52 54.3863 81.2971 54.5152 81.2971C55.1379 81.2971 56.4258 80.8867 57.6342 80.3031C58.0345 80.1098 58.4273 79.9516 58.507 79.9516C58.7154 79.9516 60.8113 79.1195 61.3305 78.8307C61.5719 78.6963 61.8324 78.6277 61.9097 78.6781C62.0653 78.7796 63.3722 78.3258 64.4788 77.786C65.5209 77.2776 65.6129 77.32 65.2558 78.1435C65.0852 78.5365 64.8944 78.9415 64.8317 79.0433C64.7691 79.1452 64.5207 79.541 64.2795 79.9231C64.0383 80.3051 63.8411 80.731 63.8411 80.8694C63.8411 81.0078 63.6605 81.246 63.4397 81.3987C63.1862 81.574 63.0524 81.8078 63.077 82.0333C63.0982 82.2298 62.8946 82.8824 62.6244 83.4837C61.8934 85.1106 61.4498 86.3432 61.4498 86.7468C61.4498 86.9443 61.2704 87.3843 61.0512 87.7247C60.832 88.065 60.6515 88.4421 60.6501 88.5627C60.6488 88.6833 60.2184 89.6828 59.6936 90.784C59.1689 91.8852 58.7396 92.8787 58.7396 92.9919C58.7396 93.1051 58.6436 93.2817 58.5265 93.3845C58.2251 93.6482 57.418 95.8832 57.5454 96.1008C57.6036 96.2001 57.5852 96.3725 57.5047 96.4842C57.4242 96.5957 57.2608 97.1411 57.1417 97.6962C57.0226 98.2512 56.7652 98.9703 56.5697 99.294C56.3741 99.6178 56.1305 100.223 56.028 100.64C55.9257 101.056 55.7406 101.775 55.6167 102.237C55.4928 102.7 55.3165 103.533 55.2247 104.088C55.0329 105.248 54.6702 106.322 54.3385 106.712C54.2122 106.861 53.7832 107.958 53.3849 109.151C52.5925 111.526 52.1898 112.555 51.1432 114.878C50.7618 115.724 50.4497 116.495 50.4497 116.59C50.4497 116.685 50.3572 116.862 50.2444 116.985C49.9269 117.328 48.7833 119.791 48.4615 120.823C48.0686 122.084 48.0939 122.023 47.7359 122.589C47.5605 122.867 47.3735 123.226 47.3206 123.388C47.2675 123.55 47.1626 123.682 47.0873 123.682C46.8989 123.682 46.4315 124.668 46.5356 124.846C46.5821 124.925 46.5133 125.083 46.3827 125.198C46.2521 125.312 46.1453 125.558 46.1453 125.743C46.1453 125.929 45.8153 126.885 45.4118 127.867C44.2469 130.704 44.1862 130.882 44.288 131.162C44.3461 131.321 44.1321 131.81 43.7505 132.39C43.402 132.92 43.1166 133.477 43.1165 133.627C43.1165 133.778 43.0087 133.995 42.8772 134.11C42.7457 134.226 42.638 134.489 42.638 134.695C42.638 134.901 42.2435 135.65 41.7612 136.359C41.279 137.068 40.8844 137.76 40.8844 137.898C40.8844 138.035 40.8127 138.147 40.725 138.147C40.6373 138.147 40.5656 138.261 40.5656 138.399C40.5656 138.538 40.4916 138.652 40.4012 138.652C40.3106 138.652 40.1944 138.768 40.1428 138.91C40.0911 139.052 39.7347 139.673 39.3508 140.29C38.9667 140.907 38.6511 141.49 38.6493 141.587C38.6476 141.684 38.3217 142.103 37.9254 142.519C37.5289 142.934 37.1638 143.445 37.1141 143.654C37.0644 143.863 36.9671 144.034 36.8978 144.034C36.8284 144.034 36.4055 144.412 35.9577 144.875C35.51 145.338 35.0493 145.716 34.934 145.716C34.8187 145.716 34.5685 145.905 34.3779 146.136C34.1873 146.368 33.9469 146.557 33.8436 146.557C33.7404 146.557 33.5426 146.663 33.4042 146.794C33.2657 146.924 32.9798 147.056 32.7689 147.088C32.558 147.12 32.1869 147.354 31.9442 147.608C31.4774 148.097 31.2413 148.178 31.08 147.902C30.929 147.645 30.6358 147.703 30.7334 147.971C30.8418 148.269 30.5856 148.336 28.3698 148.586C25.7411 148.883 22.2321 148.524 22.2321 147.958C22.2321 147.838 22.0347 147.689 21.7937 147.627C21.5527 147.564 20.977 147.297 20.5147 147.035C19.6791 146.56 19.1307 146.449 18.781 146.686C18.6804 146.754 18.4141 147.175 18.1892 147.621L17.7803 148.433L18.1855 149.08C18.6131 149.761 19.015 149.925 20.877 150.178C21.3154 150.238 21.9121 150.404 22.2031 150.549C22.8392 150.864 25.3271 150.754 26.2223 150.371C26.6336 150.194 27.3279 150.15 28.9278 150.198C30.1115 150.233 31.3311 150.19 31.638 150.103C31.9449 150.016 32.734 149.855 33.3916 149.745C35.6211 149.375 39.024 147.969 39.0726 147.398C39.0844 147.259 39.1022 146.946 39.1124 146.703C39.1279 146.329 39.2693 146.2 40.0143 145.881C40.7237 145.578 40.9435 145.388 41.1291 144.919C41.2563 144.598 41.6998 143.796 42.115 143.138C42.5301 142.479 43.0615 141.512 43.296 140.989C43.5305 140.466 43.8056 139.984 43.9073 139.917C44.0092 139.851 44.1597 139.634 44.2417 139.434C44.3238 139.235 44.4526 138.959 44.5281 138.82C44.9447 138.053 45.1888 137.479 45.1888 137.264C45.1888 137.131 45.3323 136.885 45.5076 136.717C45.683 136.55 45.8265 136.298 45.8265 136.158C45.8265 136.017 46.1134 135.314 46.4642 134.595C46.8149 133.877 47.1018 133.169 47.1018 133.023C47.1018 132.876 47.3481 132.379 47.6493 131.917C47.9503 131.456 48.3142 130.644 48.4579 130.113C48.6015 129.583 48.9982 128.657 49.3392 128.055C49.6803 127.454 50.1721 126.281 50.4323 125.448C50.6923 124.616 51.0174 123.708 51.1546 123.43C51.2919 123.153 51.4046 122.84 51.4053 122.736C51.4057 122.631 51.5092 122.456 51.6351 122.346C51.7609 122.236 51.9087 121.905 51.9632 121.61C52.059 121.094 52.2462 120.553 52.5408 119.942C52.6183 119.782 52.6824 119.365 52.6835 119.017C52.6846 118.647 52.8565 118.071 53.0978 117.627C53.3249 117.211 53.5675 116.45 53.6373 115.937C53.7156 115.362 53.9544 114.687 54.2592 114.18C54.7931 113.292 54.8585 112.921 54.5679 112.431C54.4083 112.161 54.4663 112.038 54.9741 111.567C55.4852 111.094 55.5521 110.95 55.4622 110.519C55.405 110.244 55.43 109.857 55.5178 109.66C55.6058 109.463 55.8361 108.885 56.0296 108.377C56.6741 106.682 56.8787 106.277 57.2603 105.938C57.5494 105.681 57.6573 105.382 57.7156 104.676C57.76 104.141 57.8912 103.672 58.0268 103.565C58.1558 103.462 58.2613 103.267 58.2613 103.132C58.2613 102.997 58.4369 102.726 58.6514 102.529C58.866 102.332 59.1173 101.845 59.2096 101.447C59.302 101.049 59.5308 100.27 59.7181 99.7145C59.9053 99.1595 60.1742 98.3526 60.3158 97.9214C60.4572 97.4903 60.8334 96.8708 61.1518 96.545C61.6246 96.0611 61.7625 95.7621 61.9044 94.9125C62.0686 93.9286 62.6944 92.7344 63.0457 92.7344C63.1254 92.7344 63.2739 92.4126 63.3756 92.0196C63.5481 91.3525 63.9139 90.4907 64.5358 89.2864C65.002 88.3837 65.5947 86.9579 65.5947 86.7394C65.5947 86.622 65.8016 86.1558 66.0545 85.7032C66.3075 85.2507 66.5681 84.6985 66.634 84.4763C66.7465 84.0966 67.2706 82.9151 67.7458 81.9699C67.862 81.7386 68.1152 81.4625 68.3082 81.3563C68.6299 81.1794 69.4183 79.4976 69.42 78.9844C69.4205 78.8689 69.4782 78.7742 69.5482 78.7742C69.6183 78.7742 69.7612 78.5242 69.8659 78.2188C69.9707 77.9135 70.3796 77.264 70.7748 76.7755C71.17 76.2871 71.4936 75.7611 71.4939 75.6067C71.4943 75.4525 71.6409 75.0729 71.8198 74.7632C71.9987 74.4536 72.2148 73.8126 72.3 73.3388C72.3851 72.865 72.633 72.206 72.8509 71.8743C73.0687 71.5428 73.2469 71.1475 73.2469 70.996C73.2469 70.8446 73.3187 70.6739 73.4064 70.6167C73.494 70.5595 73.5658 70.3161 73.5658 70.0759C73.5658 69.8358 73.763 69.368 74.0042 69.0363C74.2454 68.7047 74.5295 68.2594 74.6356 68.0467C74.8075 67.7027 74.7853 67.6393 74.4354 67.4709C74.218 67.3665 74.0603 67.1625 74.0829 67.0151C74.13 66.7073 73.4951 66.5447 73.3322 66.8227ZM72.8146 68.8977C72.9366 68.9472 73.0317 68.8507 73.0449 68.664C73.0575 68.4892 72.9825 68.3548 72.8784 68.3656C72.2824 68.427 72.1629 68.5533 72.1629 69.1211C72.1629 69.5794 72.2211 69.697 72.4259 69.6518C72.5949 69.6144 72.6743 69.4543 72.6478 69.2037C72.6203 68.9411 72.6746 68.8411 72.8146 68.8977ZM37.2075 83.9366C37.4824 84.0125 37.56 83.9778 37.5056 83.8036C37.4237 83.5415 37.1576 83.504 36.105 83.6059C35.3868 83.6754 34.9858 83.8868 34.9858 84.1961C34.9858 84.3894 36.4061 84.2066 36.668 83.9795C36.7603 83.8996 37.003 83.8803 37.2075 83.9366Z"/>
  </g>
  <g id="baseline">
    <path id="line3" d="M369.09 26.5795C368.987 26.1615 369.5 25.9138 371.045 25.6348C372.966 25.2881 373.277 25.3359 373.277 25.9772C373.277 26.1908 373.367 26.3975 373.476 26.4364C373.629 26.4907 373.621 26.5765 373.443 26.8047C373.261 27.0377 373.044 27.0856 372.446 27.0251C371.813 26.9608 371.683 26.995 371.683 27.2262C371.683 27.4459 371.354 27.5687 370.129 27.8065C369.274 27.9723 368.409 28.1765 368.208 28.2601C368.007 28.3437 367.582 28.412 367.264 28.412C366.946 28.412 366.573 28.5112 366.435 28.6325C366.296 28.7538 365.573 29.0263 364.828 29.2378C361.363 30.2216 361.128 30.3183 360.373 31.0734C359.686 31.7615 359.591 31.8027 358.61 31.8432C358.04 31.8668 357.323 32.0065 357.016 32.154C355.958 32.6621 355.775 32.6679 355.338 32.2068C354.873 31.7162 354.708 31.6881 354.139 32.0018C353.915 32.1248 353.381 32.2763 352.952 32.3384C352.522 32.4004 352.12 32.539 352.057 32.6463C351.994 32.7535 351.703 32.8591 351.411 32.8808C349.496 33.0228 348.84 33.1201 348.644 33.292C348.522 33.3992 348.343 33.436 348.248 33.374C348.086 33.2683 346.758 33.6516 346.138 33.9828C345.986 34.0641 345.677 34.1307 345.452 34.1307C345.228 34.1307 344.84 34.242 344.59 34.3781C343.888 34.7614 342.841 35.0189 341.791 35.0663C340.411 35.1289 339.029 35.3815 338.204 35.7218C337.81 35.8846 337.093 36.0758 336.61 36.1467C335.667 36.2854 335.055 36.4765 334.299 36.8686C334.036 37.0048 333.246 37.208 332.545 37.32C331.844 37.432 331.114 37.6024 330.924 37.6984C330.734 37.7945 330.339 37.8338 330.047 37.7859C329.422 37.6831 328.024 37.967 327.683 38.2663C327.138 38.7428 324.18 39.6811 323.222 39.6813C322.913 39.6813 322.292 39.8293 321.841 40.0103C321.389 40.1913 320.385 40.5024 319.609 40.7019C318.832 40.9012 318.067 41.1855 317.908 41.3335C317.695 41.5314 317.278 41.6043 316.327 41.609C315.482 41.6132 315.014 41.684 314.973 41.8135C314.937 41.9262 315.103 42.0382 315.358 42.0732L315.806 42.1348L315.407 42.3233C314.592 42.7087 310.848 44.1863 310.421 44.2909C310.178 44.3504 309.836 44.5502 309.66 44.7351C309.485 44.9198 309.025 45.1167 308.638 45.1727C308.25 45.2287 307.895 45.3784 307.849 45.5054C307.803 45.6324 307.597 45.7362 307.392 45.7362C307.187 45.7362 306.88 45.8474 306.709 45.9831C306.539 46.119 306.278 46.2325 306.13 46.2354C305.981 46.2384 305.299 46.5497 304.615 46.9275C302.987 47.8258 300.942 48.2329 300.045 47.8373C299.435 47.5688 299.253 47.0352 299.708 46.8512C299.874 46.7842 299.921 46.6251 299.856 46.3528C299.796 46.1002 299.853 45.8553 300.012 45.6883C300.149 45.5428 300.262 45.3529 300.262 45.2662C300.262 44.8273 300.942 44.245 301.578 44.1397C302.321 44.0167 304.234 43.3991 304.487 43.2006C304.575 43.1318 305.077 42.9223 305.603 42.7347C306.473 42.4247 307.493 41.9947 308.552 41.4913C309.532 41.0259 310.17 40.8106 311.661 40.4434C312.538 40.2273 313.47 39.9713 313.733 39.8742C314.544 39.5753 316.355 39.0443 318.357 38.5186C320.929 37.8429 321.305 37.7161 321.618 37.4165C321.905 37.1431 322.907 36.7717 324.335 36.4104C324.817 36.2883 325.628 36.0659 326.136 35.9164C326.645 35.7669 327.222 35.6444 327.419 35.6444C327.617 35.6444 327.862 35.556 327.965 35.448C328.194 35.2058 329.294 34.795 329.447 34.8946C329.509 34.9346 329.908 34.8509 330.334 34.7084C330.761 34.566 331.792 34.3051 332.625 34.1288C335.009 33.6239 335.373 33.5273 336.052 33.2199C336.49 33.0219 336.896 32.9634 337.347 33.0334C337.801 33.104 338.884 32.9444 340.854 32.5165C342.422 32.1759 344.013 31.8437 344.39 31.7779C344.767 31.7124 345.158 31.5714 345.259 31.4649C345.36 31.3585 345.699 31.2713 346.013 31.2713C346.326 31.2713 347.119 31.0927 347.774 30.8742C350.4 29.9989 353.045 29.2811 354.673 29.002C355.007 28.9449 355.317 28.794 355.363 28.6668C355.495 28.305 356.326 28.063 356.793 28.2504C357.432 28.5064 359.622 28.4391 360.635 28.1321C361.144 27.9781 362.026 27.8216 362.596 27.7845C363.24 27.7424 363.699 27.6259 363.809 27.4763C364.294 26.816 367.666 26.2497 368.444 26.6979C368.949 26.9886 369.181 26.946 369.09 26.5795Z"/>
    <path id="line2" d="M274.197 53.9035C274.464 53.7495 274.826 53.5692 275.001 53.5027C275.369 53.3635 277.579 53.4523 277.984 53.6228C278.134 53.6859 278.303 53.8889 278.358 54.0741C278.483 54.4874 277.756 55.3517 277.158 55.5019C276.936 55.5574 276.67 55.6731 276.566 55.7589C276.463 55.8447 275.961 55.954 275.45 56.002C274.94 56.0499 274.308 56.1878 274.045 56.3086C273.424 56.5932 272.481 56.9022 272.232 56.9022C272.124 56.9022 271.735 57.0589 271.367 57.2505C270.998 57.4421 270.568 57.6276 270.411 57.6627C269.802 57.7988 268.91 58.1276 268.146 58.4973C267.126 58.9906 266.011 59.3797 264.776 59.6723C263.574 59.9573 261.337 60.9155 261.163 61.2198C261.093 61.3427 260.914 61.4423 260.765 61.4409C260.532 61.4388 260.527 61.4155 260.733 61.2753C261.145 60.9942 260.804 61.0894 259.464 61.6293C258.664 61.9514 258.076 62.2994 257.928 62.5374C257.796 62.7497 257.459 63.0126 257.178 63.1216C256.897 63.2307 256.165 63.5353 255.552 63.7986C254.938 64.0616 254.015 64.3272 253.501 64.3886C252.599 64.4961 252.547 64.4808 252.026 63.9479C251.729 63.6443 251.486 63.3009 251.486 63.185C251.486 63.0689 251.391 62.9135 251.275 62.8395C250.807 62.5411 250.799 61.6117 251.265 61.6117C251.387 61.6117 251.755 61.4603 252.083 61.2753C252.41 61.0902 252.911 60.9389 253.196 60.9389C253.617 60.9389 255.533 60.2567 257.465 59.4192C257.64 59.3432 258.25 59.1176 258.82 58.9182C259.39 58.7187 259.928 58.499 260.015 58.43C260.103 58.3611 261.107 58.0234 262.247 57.6796C263.387 57.3359 264.894 56.8355 265.595 56.5679C266.798 56.1089 268.733 55.5159 269.979 55.2244C271.43 54.8851 273.761 54.1552 274.197 53.9035Z"/>
    <path id="line1" d="M230.034 69.7292C230.21 69.561 230.568 69.3019 230.831 69.1534C232.054 68.4632 232.663 69.383 231.698 70.4625C231.396 70.7997 230.901 71.1178 230.487 71.2401C230.102 71.3539 229.752 71.5065 229.709 71.5793C229.667 71.652 229.268 71.8392 228.822 71.9953C228.189 72.2173 227.978 72.3838 227.853 72.7606C227.766 73.0253 227.457 73.3967 227.167 73.5859C226.877 73.7749 226.523 74.1176 226.38 74.3473C226.238 74.5769 225.993 74.7648 225.838 74.7648C225.682 74.7648 225.467 74.8568 225.361 74.9693C225.162 75.1789 224.809 75.3861 222.762 76.4957C221.853 76.9882 221.469 77.1113 221.075 77.0363C220.327 76.8941 218.608 77.3955 216.882 78.259C216.049 78.6758 215.188 79.0973 214.969 79.1957C214.75 79.2943 214.427 79.5 214.251 79.653C214.076 79.8059 213.538 80.067 213.056 80.2328C212.574 80.3988 211.953 80.6365 211.677 80.7613C211.4 80.8859 210.993 80.988 210.771 80.988C210.55 80.988 210.27 81.0827 210.15 81.1983C209.671 81.6595 208.579 82.1654 208.062 82.1654C207.761 82.1654 207.426 82.2789 207.317 82.4177C207.207 82.5564 206.93 82.6693 206.699 82.6685C206.187 82.6668 204.766 83.3535 204.766 83.6033C204.766 83.882 203.241 84.5199 202.572 84.5211C202.244 84.5218 201.761 84.6414 201.498 84.7869C201.235 84.9325 200.668 85.0799 200.238 85.1144C199.808 85.1488 199.381 85.2563 199.289 85.3532C199.197 85.4501 198.75 85.5293 198.295 85.5293C197.706 85.5293 197.44 85.6021 197.375 85.7816C197.324 85.9203 197.11 86.0339 196.899 86.0339C196.688 86.0339 196.426 86.1474 196.317 86.2862C196.207 86.4249 195.995 86.5385 195.844 86.5385C195.692 86.5385 195.439 86.6898 195.28 86.8748C195.122 87.0599 194.832 87.2112 194.637 87.2112C194.443 87.2112 194.19 87.3291 194.077 87.4733C193.964 87.6174 193.615 87.848 193.302 87.986C192.99 88.1237 192.589 88.3795 192.413 88.5545C192.236 88.7294 191.378 89.0681 190.506 89.3071C189.634 89.5461 188.809 89.844 188.673 89.969C188.537 90.094 188.16 90.2862 187.835 90.396C187.511 90.5059 186.977 90.7876 186.65 91.0219C185.796 91.6336 184.758 92.0006 182.911 92.3439C182.632 92.3957 182.254 92.5488 182.071 92.684C181.888 92.8192 181.593 92.9299 181.415 92.9299C180.949 92.9297 177.183 94.8689 176.989 95.2089C176.834 95.4813 175.839 95.6937 174.989 95.636C174.566 95.6074 174.158 95.692 173.918 95.8577C173.705 96.005 173.365 96.1256 173.164 96.1256C172.771 96.1256 171.701 96.6739 171.331 97.065C171.207 97.1957 170.913 97.3514 170.678 97.4111C170.443 97.4708 169.793 97.7781 169.233 98.094C168.674 98.4099 167.813 98.7427 167.32 98.8339C166.407 99.0028 165.841 99.1839 164.99 99.5798C164.727 99.7021 164.099 99.9677 163.595 100.17C163.091 100.372 162.679 100.599 162.679 100.673C162.679 100.747 162.473 100.856 162.22 100.914C161.968 100.973 161.602 101.201 161.406 101.421C161.198 101.654 160.774 101.867 160.39 101.933C160.026 101.994 159.478 102.197 159.171 102.385C158.618 102.722 156.908 103.358 156.554 103.358C156.452 103.358 156.085 103.513 155.738 103.702C155.39 103.892 154.676 104.201 154.15 104.389C153.229 104.718 152.045 105.311 149.703 106.615C149.099 106.951 148.507 107.227 148.388 107.227C148.27 107.227 147.439 107.567 146.542 107.983C145.646 108.4 144.816 108.74 144.699 108.74C144.582 108.74 144.221 108.964 143.897 109.237C143.345 109.704 140.406 110.864 140.235 110.683C140.192 110.638 139.978 110.75 139.759 110.932C139.54 111.114 139.262 111.263 139.142 111.263C139.023 111.263 138.925 111.339 138.925 111.431C138.925 111.524 138.763 111.6 138.566 111.6C138.369 111.601 137.973 111.752 137.686 111.937C137.398 112.121 137.009 112.272 136.821 112.272C136.633 112.272 136.366 112.376 136.227 112.503C136.089 112.63 135.545 112.9 135.019 113.104C134.493 113.308 133.955 113.572 133.823 113.69C133.4 114.07 132.512 114.472 130.555 115.168C129.503 115.542 128.212 116.071 127.686 116.344C126.772 116.819 125.026 117.486 124.7 117.486C124.615 117.486 124.319 117.594 124.043 117.725C123.767 117.856 123.074 118.132 122.504 118.339C121.368 118.751 118.783 119.97 117.698 120.605C117.465 120.741 116.927 120.923 116.502 121.009C115.651 121.181 113.341 122.238 112.897 122.659C112.742 122.806 111.989 123.097 111.223 123.306C110.457 123.515 109.328 123.889 108.715 124.136C108.101 124.383 107.276 124.684 106.881 124.804C106.487 124.924 105.614 125.257 104.942 125.543C104.269 125.83 103.61 126.064 103.476 126.064C103.343 126.064 103.189 126.14 103.135 126.233C103.081 126.325 102.897 126.401 102.727 126.401C102.557 126.401 102.417 126.496 102.417 126.613C102.417 126.73 102.283 126.9 102.119 126.992C101.955 127.083 101.543 127.319 101.203 127.516C100.862 127.713 100.261 127.93 99.8666 127.999C99.4721 128.067 98.8982 128.255 98.5913 128.415C98.2844 128.576 97.3696 128.956 96.5586 129.259C95.7477 129.563 95.084 129.867 95.084 129.935C95.084 130.003 94.8578 130.107 94.5812 130.165C94.3046 130.224 93.7846 130.522 93.4254 130.829C92.8156 131.349 92.2632 131.605 89.1854 132.793C88.5278 133.047 87.3082 133.595 86.4753 134.01C85.6423 134.425 84.7455 134.818 84.4825 134.883C83.1878 135.2 82.2719 135.545 82.0228 135.808C81.8713 135.968 81.3583 136.331 80.8831 136.615C80.0981 137.085 79.9874 137.11 79.6786 136.889C79.4016 136.691 79.2058 136.681 78.6196 136.837C78.0656 136.984 77.8158 136.98 77.5327 136.821C77.2124 136.64 77.136 136.659 76.9383 136.973C76.8137 137.171 76.5812 137.334 76.4217 137.334C76.2622 137.334 76.0873 137.409 76.0331 137.502C75.9789 137.594 75.794 137.67 75.6222 137.67C75.4503 137.67 74.9344 137.883 74.4758 138.143C74.0171 138.403 73.4983 138.698 73.323 138.798C71.9754 139.565 70.5403 140.223 69.2177 140.68C67.3943 141.309 66.1407 141.941 66.0118 142.295C65.9485 142.469 65.692 142.548 65.1888 142.548C64.4576 142.548 63.3218 142.989 61.8446 143.849C61.1901 144.229 59.102 145.214 58.178 145.577C57.6519 145.784 56.3535 146.398 55.2927 146.942C54.2319 147.485 53.3051 147.93 53.2329 147.93C53.1606 147.93 52.6296 148.164 52.0528 148.45C51.476 148.736 50.7529 149.088 50.446 149.232C50.1391 149.375 49.7804 149.554 49.6489 149.629C48.7899 150.12 47.722 150.621 47.5348 150.621C47.4135 150.621 46.6019 150.93 45.7314 151.307C44.861 151.684 43.8303 152.101 43.441 152.234C43.0519 152.366 42.58 152.58 42.3925 152.71C42.205 152.839 41.6986 153.057 41.2669 153.194C40.8353 153.33 40.061 153.674 39.5464 153.957C39.0316 154.24 38.386 154.521 38.1116 154.581C37.8371 154.641 37.4516 154.798 37.2549 154.93C36.676 155.316 34.0423 156.496 32.759 156.943C32.1062 157.17 30.9682 157.695 30.2301 158.109C29.492 158.524 28.6781 158.863 28.4215 158.863C28.1648 158.863 27.6732 159.014 27.3288 159.199C26.9844 159.385 26.3367 159.619 25.8894 159.72C25.442 159.822 25.0389 160.007 24.9934 160.132C24.948 160.257 24.5404 160.486 24.0878 160.642C23.635 160.798 23.1929 160.978 23.1053 161.042C23.0176 161.106 22.6589 161.245 22.3081 161.351C21.9574 161.457 21.2837 161.807 20.811 162.129C20.3383 162.451 19.7309 162.766 19.4612 162.828C19.1915 162.891 18.8608 163.006 18.7264 163.083C18.592 163.161 17.8722 163.424 17.1269 163.667C15.8031 164.101 15.5742 164.192 14.0979 164.88C13.7034 165.064 13.2012 165.269 12.982 165.337C12.7628 165.405 12.4366 165.602 12.2569 165.775C12.0774 165.948 11.5035 166.245 10.9816 166.434C10.4598 166.624 9.61502 167.041 9.10455 167.362C8.59408 167.683 8.10577 167.945 8.01952 167.945C7.93312 167.945 7.31058 168.243 6.6359 168.608C4.15387 169.95 2.89141 170.156 1.84306 169.39C1.51545 169.15 1.16919 168.954 1.07369 168.954C0.887967 168.954 0.706543 168.574 0.706543 168.184C0.706543 168.054 1.04739 167.781 1.4638 167.579C1.88036 167.376 2.42383 167.035 2.67173 166.821C2.91947 166.607 3.25314 166.431 3.41289 166.431C3.72312 166.431 6.57676 165.312 6.84427 165.085C7.41579 164.601 10.0126 163.404 10.4917 163.404C10.7994 163.404 11.6113 163.134 12.2957 162.804C12.9801 162.474 13.8987 162.099 14.3371 161.972C16.0179 161.483 16.3762 161.351 16.8634 161.037C17.1399 160.86 17.5096 160.713 17.6849 160.711C17.8603 160.71 18.4264 160.482 18.9429 160.206C19.4594 159.93 20.0416 159.704 20.2366 159.704C20.4316 159.704 20.7728 159.553 20.9948 159.369C21.2167 159.184 21.7106 158.892 22.0924 158.72C22.4741 158.547 23.1092 158.255 23.5038 158.072C23.8984 157.888 24.4723 157.638 24.7792 157.516C25.0861 157.394 25.8393 157.053 26.4531 156.757C27.0669 156.462 27.9636 156.122 28.4459 156.003C28.9281 155.884 29.7531 155.567 30.2792 155.3C30.8053 155.033 31.5868 154.704 32.0156 154.57C32.4446 154.435 33.0903 154.147 33.4504 153.929C33.8107 153.711 34.6075 153.359 35.2213 153.146C36.3882 152.742 36.8386 152.544 38.8083 151.568C39.4659 151.242 40.255 150.925 40.5619 150.864C40.8688 150.803 41.2633 150.626 41.4387 150.471C41.9281 150.039 45.3345 148.446 48.6841 147.082C51.2221 146.049 52.9198 145.217 53.4889 144.728C53.7156 144.533 54.2178 144.331 54.6048 144.279C54.9918 144.227 55.8105 143.941 56.4243 143.642C57.0381 143.344 58.0066 142.927 58.5765 142.716C59.1464 142.505 59.7543 142.23 59.9273 142.104C60.1001 141.978 60.354 141.875 60.4913 141.875C60.6286 141.875 61.0252 141.72 61.3726 141.53C61.7198 141.34 62.3986 141.037 62.8809 140.855C63.3631 140.674 64.125 140.259 64.5738 139.934C65.1604 139.508 65.6311 139.313 66.2477 139.24C66.7196 139.184 67.2132 139.048 67.3447 138.937C67.4762 138.826 68.0143 138.634 68.5403 138.511C69.0664 138.388 69.6045 138.202 69.736 138.098C70.088 137.82 71.0506 137.379 72.1736 136.983C72.718 136.791 73.2316 136.565 73.315 136.479C73.3982 136.394 73.5859 136.324 73.7319 136.324C73.8779 136.324 74.1684 136.183 74.3776 136.01C74.5867 135.837 75.0009 135.639 75.298 135.571C75.595 135.502 76.216 135.228 76.6777 134.96C77.6395 134.403 78.1608 134.332 78.1278 134.762C78.098 135.149 78.6362 135.25 78.7698 134.883C78.8347 134.704 78.7726 134.515 78.608 134.388C78.2179 134.087 78.6126 133.799 79.3971 133.812C79.9481 133.822 81.6937 133.234 84.954 131.941C85.4765 131.734 86.2508 131.349 86.6748 131.085C87.0989 130.821 87.5177 130.606 87.6055 130.606C87.6934 130.606 88.4256 130.274 89.2326 129.869C90.0396 129.464 91.489 128.775 92.4535 128.338C93.418 127.9 94.6258 127.324 95.1376 127.056C95.6493 126.788 96.176 126.569 96.3082 126.569C96.4402 126.569 96.7307 126.418 96.9535 126.233C97.1766 126.048 97.4685 125.896 97.6024 125.896C97.7363 125.896 98.1509 125.708 98.5238 125.477C98.8967 125.246 99.5846 124.973 100.052 124.869C100.52 124.764 101.025 124.543 101.175 124.378C101.324 124.212 101.676 124.023 101.955 123.958C102.235 123.894 102.794 123.636 103.198 123.386C103.602 123.136 104.649 122.647 105.526 122.298C106.403 121.949 107.658 121.45 108.316 121.189C108.974 120.928 109.906 120.589 110.388 120.436C111.405 120.115 112.143 119.799 112.971 119.332C113.295 119.15 113.658 119 113.778 119C113.898 119 114.78 118.661 115.739 118.247C116.698 117.832 117.577 117.491 117.692 117.49C117.902 117.486 119.309 116.922 119.832 116.631C119.984 116.546 120.256 116.477 120.436 116.477C120.616 116.477 121.03 116.334 121.355 116.159C121.68 115.985 122.308 115.729 122.749 115.591C123.19 115.453 123.835 115.179 124.181 114.983C124.528 114.787 124.908 114.627 125.026 114.627C125.276 114.627 127.464 113.865 128.164 113.534C128.703 113.279 129.529 112.956 131.273 112.32C131.93 112.08 132.631 111.751 132.83 111.589C133.029 111.427 133.71 111.128 134.344 110.926C134.979 110.723 135.587 110.481 135.696 110.386C135.805 110.292 136.038 110.254 136.214 110.303C136.39 110.351 136.501 110.335 136.461 110.266C136.388 110.141 138.636 109.186 139.421 109.008C139.65 108.956 140.269 108.61 140.796 108.238C141.324 107.867 141.925 107.561 142.133 107.559C142.342 107.557 142.942 107.332 143.468 107.058C143.994 106.785 144.509 106.56 144.612 106.557C144.715 106.555 145.002 106.375 145.25 106.157C145.497 105.938 146.023 105.71 146.418 105.648C146.884 105.575 147.38 105.332 147.835 104.952C148.22 104.63 148.641 104.367 148.77 104.367C148.899 104.367 149.266 104.222 149.584 104.045C150.612 103.475 151.614 103.022 151.849 103.02C151.974 103.02 152.292 102.869 152.555 102.685C152.818 102.501 153.162 102.351 153.319 102.35C153.476 102.349 153.884 102.198 154.226 102.014C154.569 101.83 154.949 101.72 155.072 101.77C155.195 101.819 155.514 101.648 155.782 101.39C156.361 100.829 157.924 99.9892 159.251 99.5247C159.777 99.3405 160.817 98.9434 161.563 98.6421C162.308 98.3411 163.456 97.8891 164.113 97.638C164.771 97.3871 165.883 96.8926 166.584 96.5394C167.286 96.1863 167.967 95.8779 168.099 95.854C168.567 95.7689 169.568 95.3302 169.67 95.1654C169.726 95.0732 170.167 94.8628 170.65 94.6976C171.132 94.5326 171.814 94.2443 172.164 94.057C173.094 93.5608 175.29 92.7617 175.724 92.7617C175.93 92.7617 176.54 92.5027 177.08 92.186C177.621 91.8693 178.744 91.3341 179.577 90.9963C180.41 90.6587 181.199 90.3123 181.331 90.2263C182.248 89.6269 183.418 89.1835 184.138 89.1621C184.83 89.1415 185.087 89.0309 185.845 88.4268C186.336 88.0357 186.804 87.7158 186.886 87.7158C186.967 87.7158 187.239 87.6028 187.49 87.4645C187.741 87.3265 188.218 87.2129 188.55 87.2122C189.131 87.2112 189.355 87.1071 190.577 86.2709C191.101 85.9126 191.587 85.7093 194.802 84.5033C195.504 84.2402 196.335 84.0228 196.651 84.0202C196.999 84.0174 197.327 83.8948 197.488 83.7079C197.633 83.5387 198.128 83.2262 198.588 83.0134C199.049 82.8008 199.676 82.4908 199.983 82.3248C200.29 82.1588 200.9 81.9291 201.338 81.8144C201.777 81.6995 202.288 81.5018 202.474 81.3752C202.661 81.2485 203.091 81.1554 203.431 81.1681C204.199 81.1971 205.182 80.9305 205.535 80.5973C205.846 80.3036 208.308 79.208 209.469 78.8469C209.907 78.7105 210.338 78.5438 210.425 78.4763C210.689 78.2737 212.933 77.4895 213.567 77.3785C213.892 77.3217 214.359 77.1649 214.603 77.0302C214.848 76.8955 215.128 76.7848 215.225 76.7841C215.323 76.7836 215.946 76.5182 216.61 76.1944C217.274 75.8707 217.961 75.6058 218.137 75.6058C218.313 75.6058 218.694 75.3758 218.984 75.0949C219.275 74.814 219.683 74.5385 219.891 74.4829C220.099 74.427 220.888 74.0235 221.645 73.5864C222.401 73.1491 223.307 72.696 223.657 72.5794C224.008 72.4629 224.403 72.2718 224.534 72.1547C224.666 72.0378 225.096 71.8864 225.491 71.8183C225.885 71.7502 226.423 71.5035 226.686 71.27C227.256 70.7639 227.898 70.4647 228.943 70.2174C229.368 70.1172 229.859 69.8974 230.034 69.7292Z"/>
  </g>
</svg>