<svg id="smoke-rear" width="1096" height="409" viewBox="0 0 1096 409" fill="none" xmlns="http://www.w3.org/2000/svg">
  <mask id="mask0_451_773" style="mask-type:alpha" maskUnits="userSpaceOnUse" x="0" y="0" width="1096" height="409">
    <path id="Rectangle 17" d="M0.340449 408.579H1095.93L1095.93 303.698L1062.09 254.868C1060.19 275.168 1050.73 303.698 1040.04 303.698L957.745 303.698C917.599 303.698 906.198 122.247 933.59 83.553L942.238 0.0859375H0.34039L0.340449 408.579Z" fill="#B6B6B6"/>
  </mask>
  <g mask="url(#mask0_451_773)">
    <g class="dark-cloud-1" filter="url(#filter0_f_451_773)">
      <path d="M476.179 75.9931C452.277 42.7088 395.487 67.9338 394.333 96.9417C285.196 64.3129 279.473 210.405 370.733 200.852C378.472 210.762 422.227 227.836 501.499 206.053C526.508 221.316 640.053 240.7 659.369 229.468C790.327 256.237 763.206 -31.4181 615.576 81.5371C585.328 45.5755 508.356 57.1938 476.179 75.9931Z" fill="#C8C6C6" fill-opacity="0.7"/>
    </g>
    <g class="dark-cloud-2" filter="url(#filter1_f_451_773)">
      <path d="M679.439 126.288C614.834 101.677 546.478 135.754 546.478 155.237C531.799 107.756 488.043 114.494 472.799 137.01C472.799 112.349 421.985 138.082 447.392 146.66C429.154 140.503 409.282 203.487 449.933 192.765C425.373 213.137 455.014 250.664 480.47 231.985C489.517 241.799 578.416 265.555 665.634 240.069C694.13 254.652 821.296 269.849 842.286 257.583C842.286 262.79 849.361 265.554 854.528 265.557C854.528 265.557 866.085 265.563 866.566 265.557L1019.28 319.749C998.38 310.909 960.894 271.528 942.781 190.949C940.54 180.98 936.64 167.581 933.223 156.439C924.222 106.819 879.599 70.2747 810.707 133.794C790.728 96.0827 714.402 105.766 679.439 126.288Z" fill="#C4C4C4" fill-opacity="0.9"/>
    </g>
    <g class="bright-cloud-1" filter="url(#filter2_f_451_773)">
      <path d="M331.353 234.658C317.936 197.569 290.8 218.524 287.933 239C285.465 256.622 312.581 266.198 312.581 266.198C299.384 283.461 336.453 310.203 344.66 281.329C341.841 310.133 410.695 293 419.6 280.363C428.434 292.387 517.939 325.654 601.197 293.062C607.071 338.92 719.582 349.719 727.16 329.477C867.611 345.889 773.463 75.161 681.811 216.295C672.175 165.91 614.322 148.062 581.112 173.871C556.674 113.871 453.437 118.132 438.121 201.814C406.345 193.849 340.908 167.956 331.353 234.658Z" fill="#E6E6E6" fill-opacity="0.8"/>
    </g>
    <g class="bright-cloud-2" filter="url(#filter3_f_451_773)">
      <path d="M413.721 240.309C417.179 223.846 445.813 220.991 452.085 240.309C459.123 191.375 550.675 194.95 563.812 214.865C569.477 155.836 698.204 169.775 713.228 193.76C725.304 177.28 821.003 171.919 817.618 229.112C859.887 180.016 900.824 194.08 922.03 224.335C962.864 288.07 1033.72 311.005 1079.16 321.101L890.647 321.294C882.714 322.34 873.649 322.349 863.366 321.101C854.878 353.122 738.855 354.194 733.041 309.232C650.778 358.483 549.999 325.244 541.274 290.344C517.817 317.739 470.391 301.656 465.328 278.185C444.138 296.295 419.195 274.095 432.096 265.616C432.096 265.616 411.128 252.649 413.721 240.309Z" fill="#E3E3E3" fill-opacity="0.9"/>
    </g>
  </g>
  <defs>
    <filter id="filter0_f_451_773" x="256.982" y="5.13184" width="536.644" height="277.684" filterUnits="userSpaceOnUse" color-interpolation-filters="sRGB">
      <feFlood flood-opacity="0" result="BackgroundImageFix"/>
      <feBlend mode="normal" in="SourceGraphic" in2="BackgroundImageFix" result="shape"/>
      <feGaussianBlur stdDeviation="25" result="effect1_foregroundBlur_451_773"/>
    </filter>
    <filter id="filter1_f_451_773" x="376.123" y="49.9561" width="701.856" height="321.746" filterUnits="userSpaceOnUse" color-interpolation-filters="sRGB">
      <feFlood flood-opacity="0" result="BackgroundImageFix"/>
      <feBlend mode="normal" in="SourceGraphic" in2="BackgroundImageFix" result="shape"/>
      <feGaussianBlur stdDeviation="25" result="effect1_foregroundBlur_451_773"/>
    </filter>
    <filter id="filter2_f_451_773" x="237.774" y="83.2822" width="610.949" height="305.96" filterUnits="userSpaceOnUse" color-interpolation-filters="sRGB">
      <feFlood flood-opacity="0" result="BackgroundImageFix"/>
      <feBlend mode="normal" in="SourceGraphic" in2="BackgroundImageFix" result="shape"/>
      <feGaussianBlur stdDeviation="25" result="effect1_foregroundBlur_451_773"/>
    </filter>
    <filter id="filter3_f_451_773" x="363.499" y="123.124" width="765.658" height="271.054" filterUnits="userSpaceOnUse" color-interpolation-filters="sRGB">
      <feFlood flood-opacity="0" result="BackgroundImageFix"/>
      <feBlend mode="normal" in="SourceGraphic" in2="BackgroundImageFix" result="shape"/>
      <feGaussianBlur stdDeviation="25" result="effect1_foregroundBlur_451_773"/>
    </filter>
  </defs>
</svg>
