<svg id="smoke-front" width="1441" height="416" viewBox="0 0 1441 416" fill="none" xmlns="http://www.w3.org/2000/svg">
  <g id="grouped-smoke-clouds-front">
    <mask id="mask0_451_779" style="mask-type:alpha" maskUnits="userSpaceOnUse" x="0" y="0" width="1441" height="416">
      <path id="Rectangle 16" d="M0.142212 415.874L1440.09 415.874V356.398L1355.69 358.71C1278.39 361.207 1226.23 236.668 1268.43 115.957L1269.34 0.0800781H0.655805L0.142212 415.874Z" fill="#C4C4C4"/>
    </mask>
    <g mask="url(#mask0_451_779)">
      <g class="dark-cloud-1" filter="url(#filter0_f_451_779)">
        <path d="M563.346 103.437C535.156 62.3807 468.176 93.4956 466.815 129.277C338.098 89.0293 331.348 269.233 438.982 257.451C448.109 269.674 499.714 290.735 593.208 263.866C622.704 282.693 756.621 306.603 779.402 292.748C933.856 325.767 901.869 -29.0549 727.752 110.275C692.078 65.9166 601.296 80.2478 563.346 103.437Z" fill="#C8C6C6" fill-opacity="0.8"/>
      </g>
      <g class="dark-cloud-2" filter="url(#filter1_f_451_779)">
        <path d="M962.707 129.692C886.511 99.3869 805.891 141.348 805.891 165.339C788.579 106.873 736.972 115.169 718.993 142.895C718.993 112.528 659.063 144.215 689.028 154.777C667.517 147.195 644.081 224.752 692.024 211.549C663.058 236.634 698.017 282.844 728.04 259.843C738.71 271.928 843.559 301.18 946.426 269.797C980.034 287.755 1130.02 306.467 1154.77 291.364C1154.77 297.775 1163.12 301.178 1169.21 301.182C1169.21 301.182 1182.84 301.191 1183.41 301.182L1363.52 367.913C1338.87 357.027 1294.66 308.535 1273.3 209.313C1270.65 197.038 1266.05 180.539 1262.02 166.818C1251.41 105.718 1198.78 60.719 1117.53 138.934C1093.96 92.498 1003.94 104.421 962.707 129.692Z" fill="#C4C4C4" fill-opacity="0.85"/>
      </g>
      <g class="bright-cloud-1" filter="url(#filter2_f_451_779)">
        <path d="M431.458 271.489C417.041 235.16 386.847 255.25 383.461 275.178C380.546 292.329 410.389 302.005 410.389 302.005C395.629 318.67 436.278 345.209 445.652 317.161C442.23 345.209 518.452 329.37 528.423 317.161C538.05 328.994 636.537 362.554 728.834 331.823C734.827 376.608 858.962 388.55 867.549 368.91C1022.48 386.675 921.418 121.535 818.685 257.988C808.585 208.742 744.887 190.614 707.934 215.36C681.591 156.553 567.536 159.411 549.722 240.808C514.715 232.643 442.728 206.576 431.458 271.489Z" fill="#E6E6E6" fill-opacity="0.8"/>
      </g>
      <g class="bright-cloud-2" filter="url(#filter3_f_451_779)">
        <path d="M672.239 275.108C676.318 254.801 710.089 251.279 717.486 275.108C725.787 214.749 833.764 219.157 849.259 243.722C855.94 170.911 1007.76 188.104 1025.48 217.69C1039.73 197.362 1152.59 190.749 1148.6 261.297C1198.07 201.202 1245.99 217.823 1271.16 254.545C1306.18 309.549 1364.59 333.549 1434.7 368.297L1230.37 375.503C1222.09 376.261 1212.84 376.07 1202.56 374.765C1192.55 414.263 1055.71 415.585 1048.85 360.124C951.828 420.875 832.967 379.876 822.677 336.826C795.012 370.618 739.077 350.78 733.106 321.828C708.113 344.167 678.695 316.783 693.911 306.324C693.911 306.324 669.182 290.33 672.239 275.108Z" fill="#E9E9E9" fill-opacity="0.9"/>
      </g>
    </g>
  </g>
  <defs>
    <filter id="filter0_f_451_779" x="283.792" y="-2.29541" width="674.983" height="379.173" filterUnits="userSpaceOnUse" color-interpolation-filters="sRGB">
      <feFlood flood-opacity="0" result="BackgroundImageFix"/>
      <feBlend mode="normal" in="SourceGraphic" in2="BackgroundImageFix" result="shape"/>
      <feGaussianBlur stdDeviation="40" result="effect1_foregroundBlur_451_779"/>
    </filter>
    <filter id="filter1_f_451_779" x="613.943" y="47.2676" width="809.837" height="373.049" filterUnits="userSpaceOnUse" color-interpolation-filters="sRGB">
      <feFlood flood-opacity="0" result="BackgroundImageFix"/>
      <feBlend mode="normal" in="SourceGraphic" in2="BackgroundImageFix" result="shape"/>
      <feGaussianBlur stdDeviation="25" result="effect1_foregroundBlur_451_779"/>
    </filter>
    <filter id="filter2_f_451_779" x="323.26" y="114.97" width="684.009" height="323.063" filterUnits="userSpaceOnUse" color-interpolation-filters="sRGB">
      <feFlood flood-opacity="0" result="BackgroundImageFix"/>
      <feBlend mode="normal" in="SourceGraphic" in2="BackgroundImageFix" result="shape"/>
      <feGaussianBlur stdDeviation="30" result="effect1_foregroundBlur_451_779"/>
    </filter>
    <filter id="filter3_f_451_779" x="621.977" y="142.235" width="862.727" height="310.995" filterUnits="userSpaceOnUse" color-interpolation-filters="sRGB">
      <feFlood flood-opacity="0" result="BackgroundImageFix"/>
      <feBlend mode="normal" in="SourceGraphic" in2="BackgroundImageFix" result="shape"/>
      <feGaussianBlur stdDeviation="25" result="effect1_foregroundBlur_451_779"/>
    </filter>
  </defs>
</svg>
