<svg id="smoke-front" width="1095" height="416" viewBox="0 0 1095 416" fill="none" xmlns="http://www.w3.org/2000/svg">
  <mask id="mask0_443_802" style="mask-type:alpha" maskUnits="userSpaceOnUse" x="-66" y="0" width="1161" height="416">
    <path id="Rectangle 16" d="M-65.4139 416H1094.46V356.524L1010.06 358.836C932.756 361.333 880.602 236.794 922.805 116.083L923.712 0.206055L-64.9003 0.206414L-65.4139 416Z" fill="#C4C4C4"/>
  </mask>
  <g mask="url(#mask0_443_802)">
    <g class="dark-cloud-1" filter="url(#filter0_f_443_802)">
      <path d="M217.717 103.563C189.527 62.5066 122.547 93.6216 121.186 129.403C-7.53075 89.1553 -14.281 269.359 93.3526 257.576C102.48 269.8 154.085 290.861 247.579 263.991C277.075 282.819 410.992 306.729 433.773 292.874C588.227 325.893 556.24 -28.9289 382.123 110.401C346.449 66.0426 255.667 80.3738 217.717 103.563Z" fill="#C8C6C6" fill-opacity="0.8"/>
    </g>
    <g class="dark-cloud-2" filter="url(#filter1_f_443_802)">
      <path d="M617.078 129.818C540.881 99.5129 460.262 141.474 460.262 165.465C442.95 106.999 391.342 115.295 373.364 143.02C373.364 112.654 313.434 144.341 343.398 154.903C321.888 147.321 298.451 224.878 346.395 211.675C317.429 236.76 352.388 282.97 382.411 259.969C393.081 272.053 497.929 301.306 600.797 269.923C634.404 287.881 784.386 306.593 809.142 291.49C809.142 297.901 817.486 301.304 823.58 301.308C823.58 301.308 837.21 301.317 837.778 301.308L1017.89 368.038C993.242 357.153 949.029 308.661 927.667 209.439C925.024 197.164 920.425 180.665 916.394 166.944C905.778 105.844 853.149 60.845 771.897 139.06C748.333 92.624 658.313 104.547 617.078 129.818Z" fill="#C4C4C4" fill-opacity="0.85"/>
    </g>
    <g class="bright-cloud-1" filter="url(#filter2_f_443_802)">
      <path d="M85.8292 271.615C71.4117 235.286 41.2182 255.376 37.8318 275.304C34.9173 292.454 64.7599 302.131 64.7599 302.131C50 318.796 90.6493 345.335 100.023 317.287C96.6006 345.335 172.823 329.496 182.794 317.287C192.421 329.12 290.908 362.68 383.205 331.949C389.198 376.734 513.333 388.676 521.92 369.036C676.851 386.801 575.789 121.661 473.056 258.114C462.956 208.868 399.258 190.74 362.305 215.486C335.962 156.679 221.907 159.537 204.093 240.934C169.086 232.769 97.0987 206.702 85.8292 271.615Z" fill="#E6E6E6" fill-opacity="0.8"/>
    </g>
    <g class="bright-cloud-2" filter="url(#filter3_f_443_802)">
      <path d="M326.61 275.234C330.689 254.927 364.46 251.405 371.857 275.234C380.158 214.875 488.135 219.283 503.63 243.848C510.311 171.037 662.133 188.23 679.852 217.816C694.096 197.488 806.964 190.875 802.972 261.423C852.44 201.328 900.363 217.949 925.535 254.671C960.555 309.675 1018.96 333.675 1089.08 368.423L884.737 375.629C876.459 376.387 867.209 376.196 856.927 374.891C846.917 414.389 710.077 415.711 703.221 360.25C606.199 421.001 487.338 380.002 477.048 336.952C449.382 370.744 393.448 350.906 387.476 321.954C362.484 344.293 333.066 316.909 348.282 306.45C348.282 306.45 323.553 290.456 326.61 275.234Z" fill="#E9E9E9" fill-opacity="0.9"/>
    </g>
  </g>
  <defs>
    <filter id="filter0_f_443_802" x="-61.8368" y="-2.16943" width="674.983" height="379.173" filterUnits="userSpaceOnUse" color-interpolation-filters="sRGB">
      <feFlood flood-opacity="0" result="BackgroundImageFix"/>
      <feBlend mode="normal" in="SourceGraphic" in2="BackgroundImageFix" result="shape"/>
      <feGaussianBlur stdDeviation="40" result="effect1_foregroundBlur_443_802"/>
    </filter>
    <filter id="filter1_f_443_802" x="268.314" y="47.3936" width="809.837" height="373.049" filterUnits="userSpaceOnUse" color-interpolation-filters="sRGB">
      <feFlood flood-opacity="0" result="BackgroundImageFix"/>
      <feBlend mode="normal" in="SourceGraphic" in2="BackgroundImageFix" result="shape"/>
      <feGaussianBlur stdDeviation="25" result="effect1_foregroundBlur_443_802"/>
    </filter>
    <filter id="filter2_f_443_802" x="-22.3687" y="115.096" width="684.009" height="323.063" filterUnits="userSpaceOnUse" color-interpolation-filters="sRGB">
      <feFlood flood-opacity="0" result="BackgroundImageFix"/>
      <feBlend mode="normal" in="SourceGraphic" in2="BackgroundImageFix" result="shape"/>
      <feGaussianBlur stdDeviation="30" result="effect1_foregroundBlur_443_802"/>
    </filter>
    <filter id="filter3_f_443_802" x="276.348" y="142.361" width="862.727" height="310.995" filterUnits="userSpaceOnUse" color-interpolation-filters="sRGB">
      <feFlood flood-opacity="0" result="BackgroundImageFix"/>
      <feBlend mode="normal" in="SourceGraphic" in2="BackgroundImageFix" result="shape"/>
      <feGaussianBlur stdDeviation="25" result="effect1_foregroundBlur_443_802"/>
    </filter>
  </defs>
</svg>
