<svg class="sky night" width="4500" height="606" viewBox="0 0 4500 606" fill="none" xmlns="http://www.w3.org/2000/svg">
  <mask id="mask0_451_743" style="mask-type:alpha" maskUnits="userSpaceOnUse" x="0" y="0" width="4500" height="606">
    <rect id="sky-mask" width="4500" height="605.109" fill="url(#paint0_linear_451_743)"/>
  </mask>
  <g mask="url(#mask0_451_743)">
    <path id="sky" d="M0 -2.25732H4500V646.327L920.658 605.252H0V-2.25732Z" fill="url(#paint1_radial_451_743)"/>
    <g id="stars" filter="url(#filter0_df_451_743)">
      <path d="M268.302 95.4945C268.302 97.1595 266.172 98.5093 263.544 98.5093C260.916 98.5093 258.786 97.1595 258.786 95.4945C258.786 93.8296 260.916 92.4798 263.544 92.4798C266.172 92.4798 268.302 93.8296 268.302 95.4945Z" fill="white"/>
      <path d="M412.299 196.375C412.299 198.04 410.168 199.39 407.541 199.39C404.913 199.39 402.782 198.04 402.782 196.375C402.782 194.71 404.913 193.361 407.541 193.361C410.168 193.361 412.299 194.71 412.299 196.375Z" fill="white"/>
      <path d="M561.37 108.356C561.37 110.021 559.24 111.371 556.612 111.371C553.984 111.371 551.854 110.021 551.854 108.356C551.854 106.691 553.984 105.341 556.612 105.341C559.24 105.341 561.37 106.691 561.37 108.356Z" fill="white"/>
      <path d="M468.756 74.9968C468.756 76.6618 466.625 78.0115 463.997 78.0115C461.37 78.0115 459.239 76.6618 459.239 74.9968C459.239 73.3318 461.37 71.982 463.997 71.982C466.625 71.982 468.756 73.3318 468.756 74.9968Z" fill="white"/>
      <path d="M561.37 188.337C561.37 190.002 559.24 191.352 556.612 191.352C553.984 191.352 551.854 190.002 551.854 188.337C551.854 186.672 553.984 185.322 556.612 185.322C559.24 185.322 561.37 186.672 561.37 188.337Z" fill="white"/>
      <path d="M738.743 130.065C738.743 131.73 736.612 133.08 733.984 133.08C731.357 133.08 729.226 131.73 729.226 130.065C729.226 128.4 731.357 127.05 733.984 127.05C736.612 127.05 738.743 128.4 738.743 130.065Z" fill="white"/>
      <path d="M765.883 26.7612C765.883 28.4262 763.753 29.7759 761.125 29.7759C758.497 29.7759 756.367 28.4262 756.367 26.7612C756.367 25.0962 758.497 23.7464 761.125 23.7464C763.753 23.7464 765.883 25.0962 765.883 26.7612Z" fill="white"/>
      <path d="M786.324 145.139C786.324 146.804 784.194 148.153 781.566 148.153C778.938 148.153 776.808 146.804 776.808 145.139C776.808 143.474 778.938 142.124 781.566 142.124C784.194 142.124 786.324 143.474 786.324 145.139Z" fill="white"/>
      <path d="M677.374 145.139C677.374 146.804 675.244 148.153 672.616 148.153C669.988 148.153 667.858 146.804 667.858 145.139C667.858 143.474 669.988 142.124 672.616 142.124C675.244 142.124 677.374 143.474 677.374 145.139Z" fill="white"/>
      <path d="M742.093 172.258C742.093 173.923 739.962 175.272 737.334 175.272C734.707 175.272 732.576 173.923 732.576 172.258C732.576 170.593 734.707 169.243 737.334 169.243C739.962 169.243 742.093 170.593 742.093 172.258Z" fill="white"/>
      <path d="M733.875 82.8239C733.875 84.4888 731.745 85.8386 729.117 85.8386C726.489 85.8386 724.359 84.4888 724.359 82.8239C724.359 81.1589 726.489 79.8091 729.117 79.8091C731.745 79.8091 733.875 81.1589 733.875 82.8239Z" fill="white"/>
      <path d="M874.57 132.324C874.57 133.989 872.44 135.339 869.812 135.339C867.184 135.339 865.054 133.989 865.054 132.324C865.054 130.659 867.184 129.31 869.812 129.31C872.44 129.31 874.57 130.659 874.57 132.324Z" fill="white"/>
      <path d="M898.361 26.7612C898.361 28.4262 896.231 29.7759 893.603 29.7759C890.975 29.7759 888.845 28.4262 888.845 26.7612C888.845 25.0962 890.975 23.7464 893.603 23.7464C896.231 23.7464 898.361 25.0962 898.361 26.7612Z" fill="white"/>
      <path d="M653.583 39.0173C653.583 40.6823 651.453 42.032 648.825 42.032C646.197 42.032 644.067 40.6823 644.067 39.0173C644.067 37.3523 646.197 36.0026 648.825 36.0026C651.453 36.0026 653.583 37.3523 653.583 39.0173Z" fill="white"/>
      <path d="M303.217 105.947C303.217 107.612 301.087 108.962 298.459 108.962C295.831 108.962 293.701 107.612 293.701 105.947C293.701 104.282 295.831 102.932 298.459 102.932C301.087 102.932 303.217 104.282 303.217 105.947Z" fill="white"/>
      <path d="M93.9332 160.212C93.9332 161.877 91.8029 163.227 89.175 163.227C86.5472 163.227 84.4169 161.877 84.4169 160.212C84.4169 158.547 86.5472 157.197 89.175 157.197C91.8029 157.197 93.9332 158.547 93.9332 160.212Z" fill="white"/>
      <path d="M199.454 249.35C199.454 251.015 197.324 252.364 194.696 252.364C192.068 252.364 189.938 251.015 189.938 249.35C189.938 247.685 192.068 246.335 194.696 246.335C197.324 246.335 199.454 247.685 199.454 249.35Z" fill="white"/>
      <path d="M199.454 324.718C199.454 326.383 197.324 327.733 194.696 327.733C192.068 327.733 189.938 326.383 189.938 324.718C189.938 323.053 192.068 321.703 194.696 321.703C197.324 321.703 199.454 323.053 199.454 324.718Z" fill="white"/>
      <path d="M9.51631 337.553C9.51631 339.218 7.38601 340.568 4.75816 340.568C2.1303 340.568 0 339.218 0 337.553C0 335.888 2.1303 334.539 4.75816 334.539C7.38601 334.539 9.51631 335.888 9.51631 337.553Z" fill="white"/>
      <path d="M440.207 292.333C440.207 293.998 438.076 295.347 435.448 295.347C432.821 295.347 430.69 293.998 430.69 292.333C430.69 290.668 432.821 289.318 435.448 289.318C438.076 289.318 440.207 290.668 440.207 292.333Z" fill="white"/>
      <path d="M303.217 242.909C303.217 244.574 301.087 245.924 298.459 245.924C295.831 245.924 293.701 244.574 293.701 242.909C293.701 241.244 295.831 239.895 298.459 239.895C301.087 239.895 303.217 241.244 303.217 242.909Z" fill="white"/>
      <path d="M513.788 212.762C513.788 214.427 511.658 215.777 509.03 215.777C506.402 215.777 504.272 214.427 504.272 212.762C504.272 211.097 506.402 209.747 509.03 209.747C511.658 209.747 513.788 211.097 513.788 212.762Z" fill="white"/>
      <path d="M686.294 337.553C686.294 339.218 684.164 340.568 681.536 340.568C678.908 340.568 676.778 339.218 676.778 337.553C676.778 335.888 678.908 334.539 681.536 334.539C684.164 334.539 686.294 335.888 686.294 337.553Z" fill="white"/>
      <path d="M303.217 538.125C303.217 539.79 301.087 541.14 298.459 541.14C295.831 541.14 293.701 539.79 293.701 538.125C293.701 536.46 295.831 535.11 298.459 535.11C301.087 535.11 303.217 536.46 303.217 538.125Z" fill="white"/>
      <path d="M1147.39 498.653C1147.39 500.318 1145.25 501.667 1142.63 501.667C1140 501.667 1137.87 500.318 1137.87 498.653C1137.87 496.988 1140 495.638 1142.63 495.638C1145.25 495.638 1147.39 496.988 1147.39 498.653Z" fill="white"/>
      <path d="M638.712 568.272C638.712 569.937 636.582 571.287 633.954 571.287C631.326 571.287 629.196 569.937 629.196 568.272C629.196 566.607 631.326 565.258 633.954 565.258C636.582 565.258 638.712 566.607 638.712 568.272Z" fill="white"/>
      <path d="M945.942 354.865C945.942 356.53 943.812 357.88 941.184 357.88C938.556 357.88 936.426 356.53 936.426 354.865C936.426 353.2 938.556 351.85 941.184 351.85C943.812 351.85 945.942 353.2 945.942 354.865Z" fill="white"/>
      <path d="M840.96 309.644C840.96 311.309 838.829 312.659 836.202 312.659C833.574 312.659 831.443 311.309 831.443 309.644C831.443 307.979 833.574 306.629 836.202 306.629C838.829 306.629 840.96 307.979 840.96 309.644Z" fill="white"/>
      <path d="M1194.97 180.56C1194.97 182.225 1192.84 183.575 1190.21 183.575C1187.58 183.575 1185.45 182.225 1185.45 180.56C1185.45 178.895 1187.58 177.545 1190.21 177.545C1192.84 177.545 1194.97 178.895 1194.97 180.56Z" fill="white"/>
      <path d="M1121.25 55.6913C1121.25 57.3563 1119.12 58.7061 1116.5 58.7061C1113.87 58.7061 1111.74 57.3563 1111.74 55.6913C1111.74 54.0264 1113.87 52.6766 1116.5 52.6766C1119.12 52.6766 1121.25 54.0264 1121.25 55.6913Z" fill="white"/>
      <path d="M1615.46 118.006C1615.46 119.671 1613.33 121.021 1610.7 121.021C1608.07 121.021 1605.94 119.671 1605.94 118.006C1605.94 116.341 1608.07 114.991 1610.7 114.991C1613.33 114.991 1615.46 116.341 1615.46 118.006Z" fill="white"/>
      <path d="M1516.97 406.892C1516.97 408.557 1514.84 409.907 1512.21 409.907C1509.59 409.907 1507.46 408.557 1507.46 406.892C1507.46 405.227 1509.59 403.877 1512.21 403.877C1514.84 403.877 1516.97 405.227 1516.97 406.892Z" fill="white"/>
      <path d="M2218.36 397.848C2218.36 399.513 2216.23 400.863 2213.6 400.863C2210.98 400.863 2208.85 399.513 2208.85 397.848C2208.85 396.183 2210.98 394.833 2213.6 394.833C2216.23 394.833 2218.36 396.183 2218.36 397.848Z" fill="white"/>
      <path d="M2788.17 464.129C2788.17 465.794 2786.04 467.144 2783.42 467.144C2780.79 467.144 2778.66 465.794 2778.66 464.129C2778.66 462.464 2780.79 461.115 2783.42 461.115C2786.04 461.115 2788.17 462.464 2788.17 464.129Z" fill="white"/>
      <path d="M2703.76 152.103C2703.76 153.768 2701.63 155.118 2699 155.118C2696.37 155.118 2694.24 153.768 2694.24 152.103C2694.24 150.438 2696.37 149.088 2699 149.088C2701.63 149.088 2703.76 150.438 2703.76 152.103Z" fill="white"/>
      <path d="M3350.95 227.836C3350.95 229.501 3348.82 230.85 3346.2 230.85C3343.57 230.85 3341.44 229.501 3341.44 227.836C3341.44 226.171 3343.57 224.821 3346.2 224.821C3348.82 224.821 3350.95 226.171 3350.95 227.836Z" fill="white"/>
      <path d="M3576.04 464.129C3576.04 465.794 3573.91 467.144 3571.29 467.144C3568.66 467.144 3566.53 465.794 3566.53 464.129C3566.53 462.464 3568.66 461.115 3571.29 461.115C3573.91 461.115 3576.04 462.464 3576.04 464.129Z" fill="white"/>
      <path d="M4082.34 583.346C4082.34 585.011 4080.21 586.361 4077.58 586.361C4074.95 586.361 4072.82 585.011 4072.82 583.346C4072.82 581.681 4074.95 580.331 4077.58 580.331C4080.21 580.331 4082.34 581.681 4082.34 583.346Z" fill="white"/>
      <path d="M3730.6 74.9968C3730.6 76.6618 3728.47 78.0115 3725.84 78.0115C3723.22 78.0115 3721.09 76.6618 3721.09 74.9968C3721.09 73.3318 3723.22 71.982 3725.84 71.982C3728.47 71.982 3730.6 73.3318 3730.6 74.9968Z" fill="white"/>
      <path d="M3167.82 31.5141C3167.82 33.1791 3165.69 34.5288 3163.07 34.5288C3160.44 34.5288 3158.31 33.1791 3158.31 31.5141C3158.31 29.8491 3160.44 28.4993 3163.07 28.4993C3165.69 28.4993 3167.82 29.8491 3167.82 31.5141Z" fill="white"/>
      <path d="M2494.15 62.9379C2494.15 64.6029 2492.02 65.9526 2489.39 65.9526C2486.77 65.9526 2484.63 64.6029 2484.63 62.9379C2484.63 61.2729 2486.77 59.9231 2489.39 59.9231C2492.02 59.9231 2494.15 61.2729 2494.15 62.9379Z" fill="white"/>
      <path d="M4175.45 0.7574C4175.45 2.42239 4173.32 3.77212 4170.69 3.77212C4168.07 3.77212 4165.94 2.42239 4165.94 0.7574C4165.94 -0.907586 4168.07 -2.25732 4170.69 -2.25732C4173.32 -2.25732 4175.45 -0.907586 4175.45 0.7574Z" fill="white"/>
      <path d="M4499.05 446.041C4499.05 447.706 4496.92 449.056 4494.29 449.056C4491.66 449.056 4489.53 447.706 4489.53 446.041C4489.53 444.376 4491.66 443.026 4494.29 443.026C4496.92 443.026 4499.05 444.376 4499.05 446.041Z" fill="white"/>
      <path d="M4386.49 613.493C4386.49 615.158 4384.36 616.508 4381.74 616.508C4379.11 616.508 4376.98 615.158 4376.98 613.493C4376.98 611.828 4379.11 610.478 4381.74 610.478C4384.36 610.478 4386.49 611.828 4386.49 613.493Z" fill="white"/>
      <path d="M776.699 242.909C776.699 244.574 774.569 245.924 771.941 245.924C769.313 245.924 767.183 244.574 767.183 242.909C767.183 241.244 769.313 239.895 771.941 239.895C774.569 239.895 776.699 241.244 776.699 242.909Z" fill="white"/>
      <path d="M831.443 106.942C831.443 108.607 829.313 109.956 826.685 109.956C824.057 109.956 821.927 108.607 821.927 106.942C821.927 105.277 824.057 103.927 826.685 103.927C829.313 103.927 831.443 105.277 831.443 106.942Z" fill="white"/>
      <path d="M846.772 231.81C846.772 233.475 844.642 234.825 842.014 234.825C839.386 234.825 837.256 233.475 837.256 231.81C837.256 230.145 839.386 228.795 842.014 228.795C844.642 228.795 846.772 230.145 846.772 231.81Z" fill="white"/>
      <path d="M583.268 261.409C583.268 263.074 581.138 264.423 578.51 264.423C575.882 264.423 573.752 263.074 573.752 261.409C573.752 259.744 575.882 258.394 578.51 258.394C581.138 258.394 583.268 259.744 583.268 261.409Z" fill="white"/>
      <path d="M1891.73 275.707C1891.73 277.372 1889.6 278.722 1886.97 278.722C1884.34 278.722 1882.21 277.372 1882.21 275.707C1882.21 274.042 1884.34 272.692 1886.97 272.692C1889.6 272.692 1891.73 274.042 1891.73 275.707Z" fill="white"/>
      <path d="M1279.71 48.0615C1279.71 49.7265 1277.58 51.0762 1274.95 51.0762C1272.32 51.0762 1270.19 49.7265 1270.19 48.0615C1270.19 46.3965 1272.32 45.0468 1274.95 45.0468C1277.58 45.0468 1279.71 46.3965 1279.71 48.0615Z" fill="white"/>
      <path d="M1327.29 361.671C1327.29 363.336 1325.16 364.686 1322.53 364.686C1319.9 364.686 1317.77 363.336 1317.77 361.671C1317.77 360.006 1319.9 358.656 1322.53 358.656C1325.16 358.656 1327.29 360.006 1327.29 361.671Z" fill="white"/>
      <path d="M89.175 291.556C89.175 293.221 87.0447 294.571 84.4169 294.571C81.789 294.571 79.6587 293.221 79.6587 291.556C79.6587 289.891 81.789 288.541 84.4169 288.541C87.0447 288.541 89.175 289.891 89.175 291.556Z" fill="white"/>
      <path d="M808.707 461.115C808.707 462.78 806.576 464.129 803.949 464.129C801.321 464.129 799.19 462.78 799.19 461.115C799.19 459.45 801.321 458.1 803.949 458.1C806.576 458.1 808.707 459.45 808.707 461.115Z" fill="white"/>
      <path d="M2356.35 114.385C2356.35 116.05 2354.22 117.4 2351.59 117.4C2348.96 117.4 2346.83 116.05 2346.83 114.385C2346.83 112.72 2348.96 111.371 2351.59 111.371C2354.22 111.371 2356.35 112.72 2356.35 114.385Z" fill="white"/>
      <path d="M3158.31 133.08C3158.31 134.745 3156.18 136.094 3153.55 136.094C3150.92 136.094 3148.79 134.745 3148.79 133.08C3148.79 131.415 3150.92 130.065 3153.55 130.065C3156.18 130.065 3158.31 131.415 3158.31 133.08Z" fill="white"/>
      <path d="M2532.22 351.85C2532.22 353.515 2530.09 354.865 2527.46 354.865C2524.83 354.865 2522.7 353.515 2522.7 351.85C2522.7 350.185 2524.83 348.836 2527.46 348.836C2530.09 348.836 2532.22 350.185 2532.22 351.85Z" fill="white"/>
      <path d="M3552.25 361.671C3552.25 363.336 3550.12 364.686 3547.49 364.686C3544.87 364.686 3542.74 363.336 3542.74 361.671C3542.74 360.006 3544.87 358.656 3547.49 358.656C3550.12 358.656 3552.25 360.006 3552.25 361.671Z" fill="white"/>
      <path d="M3599.83 28.4993C3599.83 30.1643 3597.7 31.5141 3595.08 31.5141C3592.45 31.5141 3590.32 30.1643 3590.32 28.4993C3590.32 26.8344 3592.45 25.4846 3595.08 25.4846C3597.7 25.4846 3599.83 26.8344 3599.83 28.4993Z" fill="white"/>
      <path d="M1844.15 14.7023C1844.15 16.3673 1842.02 17.717 1839.39 17.717C1836.76 17.717 1834.63 16.3673 1834.63 14.7023C1834.63 13.0373 1836.76 11.6875 1839.39 11.6875C1842.02 11.6875 1844.15 13.0373 1844.15 14.7023Z" fill="white"/>
      <path d="M89.175 72.7852C89.175 74.4502 87.0447 75.7999 84.4169 75.7999C81.789 75.7999 79.6587 74.4502 79.6587 72.7852C79.6587 71.1202 81.789 69.7705 84.4169 69.7705C87.0447 69.7705 89.175 71.1202 89.175 72.7852Z" fill="white"/>
      <path d="M1374.87 177.545C1374.87 179.21 1372.74 180.56 1370.11 180.56C1367.48 180.56 1365.35 179.21 1365.35 177.545C1365.35 175.88 1367.48 174.53 1370.11 174.53C1372.74 174.53 1374.87 175.88 1374.87 177.545Z" fill="white"/>
      <path d="M1844.15 147.398C1844.15 149.063 1842.02 150.413 1839.39 150.413C1836.76 150.413 1834.63 149.063 1834.63 147.398C1834.63 145.733 1836.76 144.383 1839.39 144.383C1842.02 144.383 1844.15 145.733 1844.15 147.398Z" fill="white"/>
      <path d="M2261.18 20.7317C2261.18 22.3967 2259.05 23.7464 2256.43 23.7464C2253.8 23.7464 2251.67 22.3967 2251.67 20.7317C2251.67 19.0667 2253.8 17.717 2256.43 17.717C2259.05 17.717 2261.18 19.0667 2261.18 20.7317Z" fill="white"/>
      <path d="M2213.6 109.956C2213.6 111.621 2211.47 112.971 2208.85 112.971C2206.22 112.971 2204.09 111.621 2204.09 109.956C2204.09 108.291 2206.22 106.942 2208.85 106.942C2211.47 106.942 2213.6 108.291 2213.6 109.956Z" fill="white"/>
      <path d="M2457.89 194.366C2457.89 196.031 2455.76 197.381 2453.13 197.381C2450.51 197.381 2448.38 196.031 2448.38 194.366C2448.38 192.701 2450.51 191.352 2453.13 191.352C2455.76 191.352 2457.89 192.701 2457.89 194.366Z" fill="white"/>
      <path d="M2950.32 82.8239C2950.32 84.4888 2948.19 85.8386 2945.56 85.8386C2942.94 85.8386 2940.81 84.4888 2940.81 82.8239C2940.81 81.1589 2942.94 79.8091 2945.56 79.8091C2948.19 79.8091 2950.32 81.1589 2950.32 82.8239Z" fill="white"/>
      <path d="M3158.31 291.556C3158.31 293.221 3156.18 294.571 3153.55 294.571C3150.92 294.571 3148.79 293.221 3148.79 291.556C3148.79 289.891 3150.92 288.541 3153.55 288.541C3156.18 288.541 3158.31 289.891 3158.31 291.556Z" fill="white"/>
      <path d="M4072.82 400.82C4072.82 402.485 4070.69 403.835 4068.06 403.835C4065.44 403.835 4063.31 402.485 4063.31 400.82C4063.31 399.155 4065.44 397.805 4068.06 397.805C4070.69 397.805 4072.82 399.155 4072.82 400.82Z" fill="white"/>
      <path d="M3647.42 261.409C3647.42 263.074 3645.29 264.423 3642.66 264.423C3640.03 264.423 3637.9 263.074 3637.9 261.409C3637.9 259.744 3640.03 258.394 3642.66 258.394C3645.29 258.394 3647.42 259.744 3647.42 261.409Z" fill="white"/>
      <path d="M3110.73 510.712C3110.73 512.377 3108.6 513.726 3105.97 513.726C3103.34 513.726 3101.21 512.377 3101.21 510.712C3101.21 509.047 3103.34 507.697 3105.97 507.697C3108.6 507.697 3110.73 509.047 3110.73 510.712Z" fill="white"/>
      <path d="M2048.48 480.564C2048.48 482.229 2046.35 483.579 2043.72 483.579C2041.1 483.579 2038.97 482.229 2038.97 480.564C2038.97 478.899 2041.1 477.55 2043.72 477.55C2046.35 477.55 2048.48 478.899 2048.48 480.564Z" fill="white"/>
      <path d="M2166.02 275.707C2166.02 277.372 2163.89 278.722 2161.26 278.722C2158.64 278.722 2156.51 277.372 2156.51 275.707C2156.51 274.042 2158.64 272.692 2161.26 272.692C2163.89 272.692 2166.02 274.042 2166.02 275.707Z" fill="white"/>
      <path d="M1422.45 480.564C1422.45 482.229 1420.32 483.579 1417.69 483.579C1415.07 483.579 1412.93 482.229 1412.93 480.564C1412.93 478.899 1415.07 477.55 1417.69 477.55C1420.32 477.55 1422.45 478.899 1422.45 480.564Z" fill="white"/>
      <path d="M1035.54 301.377C1035.54 303.042 1033.41 304.391 1030.78 304.391C1028.15 304.391 1026.02 303.042 1026.02 301.377C1026.02 299.712 1028.15 298.362 1030.78 298.362C1033.41 298.362 1035.54 299.712 1035.54 301.377Z" fill="white"/>
      <path d="M89.175 421.966C89.175 423.631 87.0447 424.98 84.4169 424.98C81.789 424.98 79.6587 423.631 79.6587 421.966C79.6587 420.301 81.789 418.951 84.4169 418.951C87.0447 418.951 89.175 420.301 89.175 421.966Z" fill="white"/>
      <path d="M430.69 400.82C430.69 402.485 428.56 403.835 425.932 403.835C423.304 403.835 421.174 402.485 421.174 400.82C421.174 399.155 423.304 397.805 425.932 397.805C428.56 397.805 430.69 399.155 430.69 400.82Z" fill="white"/>
      <path d="M4249.07 491.262C4249.07 492.927 4246.94 494.277 4244.31 494.277C4241.69 494.277 4239.56 492.927 4239.56 491.262C4239.56 489.597 4241.69 488.247 4244.31 488.247C4246.94 488.247 4249.07 489.597 4249.07 491.262Z" fill="white"/>
      <path d="M3979.42 76.7944C3979.42 78.4594 3977.29 79.8091 3974.66 79.8091C3972.03 79.8091 3969.9 78.4594 3969.9 76.7944C3969.9 75.1294 3972.03 73.7797 3974.66 73.7797C3977.29 73.7797 3979.42 75.1294 3979.42 76.7944Z" fill="white"/>
    </g>
    <g id="moon" filter="url(#filter1_df_451_743)">
      <circle cx="4118.81" cy="273.04" r="150" fill="#8665C0"/>
    </g>
  </g>
  <defs>
    <filter id="filter0_df_451_743" x="-5" y="-7.25732" width="4509.05" height="628.765" filterUnits="userSpaceOnUse" color-interpolation-filters="sRGB">
      <feFlood flood-opacity="0" result="BackgroundImageFix"/>
      <feColorMatrix in="SourceAlpha" type="matrix" values="0 0 0 0 0 0 0 0 0 0 0 0 0 0 0 0 0 0 127 0" result="hardAlpha"/>
      <feOffset/>
      <feGaussianBlur stdDeviation="2.5"/>
      <feComposite in2="hardAlpha" operator="out"/>
      <feColorMatrix type="matrix" values="0 0 0 0 1 0 0 0 0 1 0 0 0 0 1 0 0 0 1 0"/>
      <feBlend mode="normal" in2="BackgroundImageFix" result="effect1_dropShadow_451_743"/>
      <feBlend mode="normal" in="SourceGraphic" in2="effect1_dropShadow_451_743" result="shape"/>
      <feGaussianBlur stdDeviation="1" result="effect2_foregroundBlur_451_743"/>
    </filter>
    <filter id="filter1_df_451_743" x="3858.81" y="13.04" width="520" height="520" filterUnits="userSpaceOnUse" color-interpolation-filters="sRGB">
      <feFlood flood-opacity="0" result="BackgroundImageFix"/>
      <feColorMatrix in="SourceAlpha" type="matrix" values="0 0 0 0 0 0 0 0 0 0 0 0 0 0 0 0 0 0 127 0" result="hardAlpha"/>
      <feMorphology radius="60" operator="dilate" in="SourceAlpha" result="effect1_dropShadow_451_743"/>
      <feOffset/>
      <feGaussianBlur stdDeviation="25"/>
      <feComposite in2="hardAlpha" operator="out"/>
      <feColorMatrix type="matrix" values="0 0 0 0 1 0 0 0 0 1 0 0 0 0 1 0 0 0 0.2 0"/>
      <feBlend mode="normal" in2="BackgroundImageFix" result="effect1_dropShadow_451_743"/>
      <feBlend mode="normal" in="SourceGraphic" in2="effect1_dropShadow_451_743" result="shape"/>
      <feGaussianBlur stdDeviation="2" result="effect2_foregroundBlur_451_743"/>
    </filter>
    <linearGradient id="paint0_linear_451_743" x1="2250" y1="0" x2="2250" y2="605.109" gradientUnits="userSpaceOnUse">
      <stop stop-color="#C4C4C4" stop-opacity="0"/>
      <stop offset="0.139448" stop-color="#C4C4C4"/>
    </linearGradient>
    <radialGradient id="paint1_radial_451_743" cx="0" cy="0" r="1" gradientUnits="userSpaceOnUse" gradientTransform="translate(4417.27 -2.25783) rotate(173.761) scale(2684.16 3835.47)">
      <stop offset="0.00955419" stop-color="#30017C"/>
      <stop offset="0.979517" stop-color="#0F0039"/>
    </radialGradient>
  </defs>
</svg>
