<svg id="sky-moon" width="2595" height="606" viewBox="0 0 2595 606" fill="none" xmlns="http://www.w3.org/2000/svg">
  <mask id="mask0_421_949" style="mask-type:alpha" maskUnits="userSpaceOnUse" x="0" y="0" width="2595" height="606">
    <rect id="sky-mask" width="2595" height="605.109" fill="url(#paint0_linear_421_949)"/>
  </mask>
  <g mask="url(#mask0_421_949)">
    <path id="sky" d="M0 -2.25732H2595V646.327L530.913 605.252H0V-2.25732Z" fill="url(#paint1_radial_421_949)"/>
    <g id="stars" filter="url(#filter0_df_421_949)">
      <path d="M175.739 78.254C175.739 79.6253 174.574 80.737 173.137 80.737C171.7 80.737 170.535 79.6253 170.535 78.254C170.535 76.8826 171.7 75.7709 173.137 75.7709C174.574 75.7709 175.739 76.8826 175.739 78.254Z" fill="white"/>
      <path d="M254.495 161.342C254.495 162.714 253.33 163.825 251.892 163.825C250.455 163.825 249.29 162.714 249.29 161.342C249.29 159.971 250.455 158.859 251.892 158.859C253.33 158.859 254.495 159.971 254.495 161.342Z" fill="white"/>
      <path d="M336.026 88.847C336.026 90.2184 334.861 91.33 333.423 91.33C331.986 91.33 330.821 90.2184 330.821 88.847C330.821 87.4757 331.986 86.364 333.423 86.364C334.861 86.364 336.026 87.4757 336.026 88.847Z" fill="white"/>
      <path d="M285.372 61.3714C285.372 62.7427 284.207 63.8544 282.77 63.8544C281.333 63.8544 280.168 62.7427 280.168 61.3714C280.168 60.0001 281.333 58.8884 282.77 58.8884C284.207 58.8884 285.372 60.0001 285.372 61.3714Z" fill="white"/>
      <path d="M336.026 154.722C336.026 156.093 334.861 157.205 333.423 157.205C331.986 157.205 330.821 156.093 330.821 154.722C330.821 153.35 331.986 152.239 333.423 152.239C334.861 152.239 336.026 153.35 336.026 154.722Z" fill="white"/>
      <path d="M433.035 106.727C433.035 108.098 431.87 109.21 430.433 109.21C428.996 109.21 427.831 108.098 427.831 106.727C427.831 105.356 428.996 104.244 430.433 104.244C431.87 104.244 433.035 105.356 433.035 106.727Z" fill="white"/>
      <path d="M447.879 21.6432C447.879 23.0145 446.714 24.1262 445.277 24.1262C443.84 24.1262 442.675 23.0145 442.675 21.6432C442.675 20.2718 443.84 19.1601 445.277 19.1601C446.714 19.1601 447.879 20.2718 447.879 21.6432Z" fill="white"/>
      <path d="M459.059 119.142C459.059 120.514 457.894 121.625 456.456 121.625C455.019 121.625 453.854 120.514 453.854 119.142C453.854 117.771 455.019 116.659 456.456 116.659C457.894 116.659 459.059 117.771 459.059 119.142Z" fill="white"/>
      <path d="M399.471 119.142C399.471 120.514 398.306 121.625 396.869 121.625C395.432 121.625 394.267 120.514 394.267 119.142C394.267 117.771 395.432 116.659 396.869 116.659C398.306 116.659 399.471 117.771 399.471 119.142Z" fill="white"/>
      <path d="M434.867 141.478C434.867 142.85 433.702 143.961 432.265 143.961C430.828 143.961 429.663 142.85 429.663 141.478C429.663 140.107 430.828 138.995 432.265 138.995C433.702 138.995 434.867 140.107 434.867 141.478Z" fill="white"/>
      <path d="M430.373 67.818C430.373 69.1894 429.208 70.301 427.771 70.301C426.334 70.301 425.169 69.1894 425.169 67.818C425.169 66.4467 426.334 65.335 427.771 65.335C429.208 65.335 430.373 66.4467 430.373 67.818Z" fill="white"/>
      <path d="M507.323 108.588C507.323 109.959 506.158 111.071 504.72 111.071C503.283 111.071 502.118 109.959 502.118 108.588C502.118 107.217 503.283 106.105 504.72 106.105C506.158 106.105 507.323 107.217 507.323 108.588Z" fill="white"/>
      <path d="M520.335 21.6432C520.335 23.0145 519.169 24.1262 517.732 24.1262C516.295 24.1262 515.13 23.0145 515.13 21.6432C515.13 20.2718 516.295 19.1601 517.732 19.1601C519.169 19.1601 520.335 20.2718 520.335 21.6432Z" fill="white"/>
      <path d="M386.46 31.7377C386.46 33.109 385.294 34.2207 383.857 34.2207C382.42 34.2207 381.255 33.109 381.255 31.7377C381.255 30.3663 382.42 29.2547 383.857 29.2547C385.294 29.2547 386.46 30.3663 386.46 31.7377Z" fill="white"/>
      <path d="M194.835 86.863C194.835 88.2344 193.67 89.3461 192.233 89.3461C190.796 89.3461 189.631 88.2344 189.631 86.863C189.631 85.4917 190.796 84.38 192.233 84.38C193.67 84.38 194.835 85.4917 194.835 86.863Z" fill="white"/>
      <path d="M80.3725 131.557C80.3725 132.929 79.2074 134.04 77.7701 134.04C76.3329 134.04 75.1678 132.929 75.1678 131.557C75.1678 130.186 76.3329 129.074 77.7701 129.074C79.2074 129.074 80.3725 130.186 80.3725 131.557Z" fill="white"/>
      <path d="M138.085 204.974C138.085 206.345 136.919 207.457 135.482 207.457C134.045 207.457 132.88 206.345 132.88 204.974C132.88 203.602 134.045 202.491 135.482 202.491C136.919 202.491 138.085 203.602 138.085 204.974Z" fill="white"/>
      <path d="M138.085 267.049C138.085 268.42 136.919 269.532 135.482 269.532C134.045 269.532 132.88 268.42 132.88 267.049C132.88 265.678 134.045 264.566 135.482 264.566C136.919 264.566 138.085 265.678 138.085 267.049Z" fill="white"/>
      <path d="M34.2028 277.621C34.2028 278.992 33.0376 280.104 31.6004 280.104C30.1632 280.104 28.998 278.992 28.998 277.621C28.998 276.249 30.1632 275.138 31.6004 275.138C33.0376 275.138 34.2028 276.249 34.2028 277.621Z" fill="white"/>
      <path d="M269.758 240.375C269.758 241.747 268.593 242.858 267.156 242.858C265.719 242.858 264.554 241.747 264.554 240.375C264.554 239.004 265.719 237.892 267.156 237.892C268.593 237.892 269.758 239.004 269.758 240.375Z" fill="white"/>
      <path d="M194.835 199.669C194.835 201.04 193.67 202.152 192.233 202.152C190.796 202.152 189.631 201.04 189.631 199.669C189.631 198.298 190.796 197.186 192.233 197.186C193.67 197.186 194.835 198.298 194.835 199.669Z" fill="white"/>
      <path d="M310.002 174.839C310.002 176.21 308.837 177.322 307.4 177.322C305.962 177.322 304.797 176.21 304.797 174.839C304.797 173.468 305.962 172.356 307.4 172.356C308.837 172.356 310.002 173.468 310.002 174.839Z" fill="white"/>
      <path d="M404.35 277.621C404.35 278.992 403.185 280.104 401.747 280.104C400.31 280.104 399.145 278.992 399.145 277.621C399.145 276.249 400.31 275.138 401.747 275.138C403.185 275.138 404.35 276.249 404.35 277.621Z" fill="white"/>
      <path d="M194.835 442.817C194.835 444.189 193.67 445.3 192.233 445.3C190.796 445.3 189.631 444.189 189.631 442.817C189.631 441.446 190.796 440.334 192.233 440.334C193.67 440.334 194.835 441.446 194.835 442.817Z" fill="white"/>
      <path d="M656.532 410.307C656.532 411.678 655.367 412.79 653.93 412.79C652.493 412.79 651.328 411.678 651.328 410.307C651.328 408.936 652.493 407.824 653.93 407.824C655.367 407.824 656.532 408.936 656.532 410.307Z" fill="white"/>
      <path d="M378.326 467.648C378.326 469.019 377.161 470.131 375.724 470.131C374.287 470.131 373.121 469.019 373.121 467.648C373.121 466.276 374.287 465.164 375.724 465.164C377.161 465.164 378.326 466.276 378.326 467.648Z" fill="white"/>
      <path d="M546.358 291.879C546.358 293.25 545.193 294.362 543.756 294.362C542.319 294.362 541.153 293.25 541.153 291.879C541.153 290.508 542.319 289.396 543.756 289.396C545.193 289.396 546.358 290.508 546.358 291.879Z" fill="white"/>
      <path d="M488.94 254.634C488.94 256.005 487.775 257.117 486.338 257.117C484.901 257.117 483.736 256.005 483.736 254.634C483.736 253.263 484.901 252.151 486.338 252.151C487.775 252.151 488.94 253.263 488.94 254.634Z" fill="white"/>
      <path d="M682.556 148.316C682.556 149.688 681.391 150.799 679.954 150.799C678.516 150.799 677.351 149.688 677.351 148.316C677.351 146.945 678.516 145.833 679.954 145.833C681.391 145.833 682.556 146.945 682.556 148.316Z" fill="white"/>
      <path d="M642.24 45.4709C642.24 46.8422 641.075 47.9539 639.638 47.9539C638.201 47.9539 637.036 46.8422 637.036 45.4709C637.036 44.0996 638.201 42.9879 639.638 42.9879C641.075 42.9879 642.24 44.0996 642.24 45.4709Z" fill="white"/>
      <path d="M912.534 96.7951C912.534 98.1664 911.369 99.2781 909.931 99.2781C908.494 99.2781 907.329 98.1664 907.329 96.7951C907.329 95.4238 908.494 94.3121 909.931 94.3121C911.369 94.3121 912.534 95.4238 912.534 96.7951Z" fill="white"/>
      <path d="M858.669 334.73C858.669 336.101 857.504 337.213 856.067 337.213C854.63 337.213 853.464 336.101 853.464 334.73C853.464 333.359 854.63 332.247 856.067 332.247C857.504 332.247 858.669 333.359 858.669 334.73Z" fill="white"/>
      <path d="M1242.28 327.281C1242.28 328.652 1241.11 329.764 1239.67 329.764C1238.24 329.764 1237.07 328.652 1237.07 327.281C1237.07 325.91 1238.24 324.798 1239.67 324.798C1241.11 324.798 1242.28 325.91 1242.28 327.281Z" fill="white"/>
      <path d="M1553.92 381.872C1553.92 383.244 1552.76 384.355 1551.32 384.355C1549.88 384.355 1548.72 383.244 1548.72 381.872C1548.72 380.501 1549.88 379.389 1551.32 379.389C1552.76 379.389 1553.92 380.501 1553.92 381.872Z" fill="white"/>
      <path d="M1507.75 124.878C1507.75 126.25 1506.59 127.361 1505.15 127.361C1503.71 127.361 1502.55 126.25 1502.55 124.878C1502.55 123.507 1503.71 122.395 1505.15 122.395C1506.59 122.395 1507.75 123.507 1507.75 124.878Z" fill="white"/>
      <path d="M1861.72 187.254C1861.72 188.625 1860.55 189.737 1859.12 189.737C1857.68 189.737 1856.52 188.625 1856.52 187.254C1856.52 185.883 1857.68 184.771 1859.12 184.771C1860.55 184.771 1861.72 185.883 1861.72 187.254Z" fill="white"/>
      <path d="M1984.83 381.872C1984.83 383.244 1983.66 384.355 1982.23 384.355C1980.79 384.355 1979.62 383.244 1979.62 381.872C1979.62 380.501 1980.79 379.389 1982.23 379.389C1983.66 379.389 1984.83 380.501 1984.83 381.872Z" fill="white"/>
      <path d="M2261.73 480.063C2261.73 481.434 2260.57 482.546 2259.13 482.546C2257.69 482.546 2256.53 481.434 2256.53 480.063C2256.53 478.691 2257.69 477.58 2259.13 477.58C2260.57 477.58 2261.73 478.691 2261.73 480.063Z" fill="white"/>
      <path d="M2069.36 61.3714C2069.36 62.7427 2068.19 63.8544 2066.76 63.8544C2065.32 63.8544 2064.16 62.7427 2064.16 61.3714C2064.16 60.0001 2065.32 58.8884 2066.76 58.8884C2068.19 58.8884 2069.36 60.0001 2069.36 61.3714Z" fill="white"/>
      <path d="M1761.56 25.5578C1761.56 26.9291 1760.4 28.0408 1758.96 28.0408C1757.52 28.0408 1756.36 26.9291 1756.36 25.5578C1756.36 24.1865 1757.52 23.0748 1758.96 23.0748C1760.4 23.0748 1761.56 24.1865 1761.56 25.5578Z" fill="white"/>
      <path d="M1393.11 51.4393C1393.11 52.8107 1391.95 53.9224 1390.51 53.9224C1389.07 53.9224 1387.91 52.8107 1387.91 51.4393C1387.91 50.068 1389.07 48.9563 1390.51 48.9563C1391.95 48.9563 1393.11 50.068 1393.11 51.4393Z" fill="white"/>
      <path d="M2312.66 0.22569C2312.66 1.59702 2311.49 2.70871 2310.06 2.70871C2308.62 2.70871 2307.45 1.59702 2307.45 0.22569C2307.45 -1.14564 2308.62 -2.25732 2310.06 -2.25732C2311.49 -2.25732 2312.66 -1.14564 2312.66 0.22569Z" fill="white"/>
      <path d="M2489.64 366.974C2489.64 368.346 2488.48 369.457 2487.04 369.457C2485.6 369.457 2484.44 368.346 2484.44 366.974C2484.44 365.603 2485.6 364.491 2487.04 364.491C2488.48 364.491 2489.64 365.603 2489.64 366.974Z" fill="white"/>
      <path d="M2428.08 504.893C2428.08 506.264 2426.92 507.376 2425.48 507.376C2424.04 507.376 2422.88 506.264 2422.88 504.893C2422.88 503.521 2424.04 502.41 2425.48 502.41C2426.92 502.41 2428.08 503.521 2428.08 504.893Z" fill="white"/>
      <path d="M453.794 199.669C453.794 201.04 452.629 202.152 451.192 202.152C449.755 202.152 448.59 201.04 448.59 199.669C448.59 198.298 449.755 197.186 451.192 197.186C452.629 197.186 453.794 198.298 453.794 199.669Z" fill="white"/>
      <path d="M483.736 87.6821C483.736 89.0535 482.571 90.1652 481.133 90.1652C479.696 90.1652 478.531 89.0535 478.531 87.6821C478.531 86.3108 479.696 85.1991 481.133 85.1991C482.571 85.1991 483.736 86.3108 483.736 87.6821Z" fill="white"/>
      <path d="M492.119 190.527C492.119 191.899 490.954 193.01 489.517 193.01C488.08 193.01 486.915 191.899 486.915 190.527C486.915 189.156 488.08 188.044 489.517 188.044C490.954 188.044 492.119 189.156 492.119 190.527Z" fill="white"/>
      <path d="M348.002 214.906C348.002 216.277 346.837 217.389 345.4 217.389C343.963 217.389 342.797 216.277 342.797 214.906C342.797 213.534 343.963 212.423 345.4 212.423C346.837 212.423 348.002 213.534 348.002 214.906Z" fill="white"/>
      <path d="M1063.63 226.682C1063.63 228.053 1062.47 229.165 1061.03 229.165C1059.59 229.165 1058.43 228.053 1058.43 226.682C1058.43 225.311 1059.59 224.199 1061.03 224.199C1062.47 224.199 1063.63 225.311 1063.63 226.682Z" fill="white"/>
      <path d="M728.902 39.1867C728.902 40.5581 727.737 41.6697 726.3 41.6697C724.863 41.6697 723.698 40.5581 723.698 39.1867C723.698 37.8154 724.863 36.7037 726.3 36.7037C727.737 36.7037 728.902 37.8154 728.902 39.1867Z" fill="white"/>
      <path d="M754.926 297.485C754.926 298.856 753.761 299.968 752.323 299.968C750.886 299.968 749.721 298.856 749.721 297.485C749.721 296.113 750.886 295.002 752.323 295.002C753.761 295.002 754.926 296.113 754.926 297.485Z" fill="white"/>
      <path d="M77.7701 239.736C77.7701 241.107 76.605 242.219 75.1678 242.219C73.7305 242.219 72.5654 241.107 72.5654 239.736C72.5654 238.364 73.7305 237.253 75.1678 237.253C76.605 237.253 77.7701 238.364 77.7701 239.736Z" fill="white"/>
      <path d="M471.3 379.389C471.3 380.761 470.135 381.872 468.698 381.872C467.261 381.872 466.096 380.761 466.096 379.389C466.096 378.018 467.261 376.906 468.698 376.906C470.135 376.906 471.3 378.018 471.3 379.389Z" fill="white"/>
      <path d="M1317.74 93.8131C1317.74 95.1844 1316.58 96.2961 1315.14 96.2961C1313.71 96.2961 1312.54 95.1844 1312.54 93.8131C1312.54 92.4417 1313.71 91.33 1315.14 91.33C1316.58 91.33 1317.74 92.4417 1317.74 93.8131Z" fill="white"/>
      <path d="M1756.36 109.21C1756.36 110.582 1755.19 111.693 1753.75 111.693C1752.32 111.693 1751.15 110.582 1751.15 109.21C1751.15 107.839 1752.32 106.727 1753.75 106.727C1755.19 106.727 1756.36 107.839 1756.36 109.21Z" fill="white"/>
      <path d="M1413.93 289.396C1413.93 290.767 1412.77 291.879 1411.33 291.879C1409.89 291.879 1408.73 290.767 1408.73 289.396C1408.73 288.025 1409.89 286.913 1411.33 286.913C1412.77 286.913 1413.93 288.025 1413.93 289.396Z" fill="white"/>
      <path d="M1971.82 297.485C1971.82 298.856 1970.65 299.968 1969.21 299.968C1967.78 299.968 1966.61 298.856 1966.61 297.485C1966.61 296.113 1967.78 295.002 1969.21 295.002C1970.65 295.002 1971.82 296.113 1971.82 297.485Z" fill="white"/>
      <path d="M1997.84 23.0748C1997.84 24.4461 1996.67 25.5578 1995.24 25.5578C1993.8 25.5578 1992.63 24.4461 1992.63 23.0748C1992.63 21.7034 1993.8 20.5918 1995.24 20.5918C1996.67 20.5918 1997.84 21.7034 1997.84 23.0748Z" fill="white"/>
      <path d="M1037.61 11.7111C1037.61 13.0824 1036.44 14.1941 1035.01 14.1941C1033.57 14.1941 1032.4 13.0824 1032.4 11.7111C1032.4 10.3398 1033.57 9.22808 1035.01 9.22808C1036.44 9.22808 1037.61 10.3398 1037.61 11.7111Z" fill="white"/>
      <path d="M77.7701 59.5499C77.7701 60.9212 76.605 62.0329 75.1678 62.0329C73.7305 62.0329 72.5654 60.9212 72.5654 59.5499C72.5654 58.1785 73.7305 57.0669 75.1678 57.0669C76.605 57.0669 77.7701 58.1785 77.7701 59.5499Z" fill="white"/>
      <path d="M780.949 145.833C780.949 147.205 779.784 148.316 778.347 148.316C776.91 148.316 775.745 147.205 775.745 145.833C775.745 144.462 776.91 143.35 778.347 143.35C779.784 143.35 780.949 144.462 780.949 145.833Z" fill="white"/>
      <path d="M1037.61 121.003C1037.61 122.374 1036.44 123.486 1035.01 123.486C1033.57 123.486 1032.4 122.374 1032.4 121.003C1032.4 119.632 1033.57 118.52 1035.01 118.52C1036.44 118.52 1037.61 119.632 1037.61 121.003Z" fill="white"/>
      <path d="M1265.7 16.6771C1265.7 18.0485 1264.53 19.1601 1263.1 19.1601C1261.66 19.1601 1260.49 18.0485 1260.49 16.6771C1260.49 15.3058 1261.66 14.1941 1263.1 14.1941C1264.53 14.1941 1265.7 15.3058 1265.7 16.6771Z" fill="white"/>
      <path d="M1239.67 90.1652C1239.67 91.5365 1238.51 92.6482 1237.07 92.6482C1235.63 92.6482 1234.47 91.5365 1234.47 90.1652C1234.47 88.7938 1235.63 87.6821 1237.07 87.6821C1238.51 87.6821 1239.67 88.7938 1239.67 90.1652Z" fill="white"/>
      <path d="M1373.28 159.688C1373.28 161.059 1372.12 162.171 1370.68 162.171C1369.24 162.171 1368.08 161.059 1368.08 159.688C1368.08 158.316 1369.24 157.205 1370.68 157.205C1372.12 157.205 1373.28 158.316 1373.28 159.688Z" fill="white"/>
      <path d="M1642.61 67.818C1642.61 69.1894 1641.44 70.301 1640 70.301C1638.57 70.301 1637.4 69.1894 1637.4 67.818C1637.4 66.4467 1638.57 65.335 1640 65.335C1641.44 65.335 1642.61 66.4467 1642.61 67.818Z" fill="white"/>
      <path d="M1756.36 239.736C1756.36 241.107 1755.19 242.219 1753.75 242.219C1752.32 242.219 1751.15 241.107 1751.15 239.736C1751.15 238.364 1752.32 237.253 1753.75 237.253C1755.19 237.253 1756.36 238.364 1756.36 239.736Z" fill="white"/>
      <path d="M2256.53 329.729C2256.53 331.1 2255.36 332.212 2253.93 332.212C2252.49 332.212 2251.32 331.1 2251.32 329.729C2251.32 328.358 2252.49 327.246 2253.93 327.246C2255.36 327.246 2256.53 328.358 2256.53 329.729Z" fill="white"/>
      <path d="M2023.86 214.906C2023.86 216.277 2022.7 217.389 2021.26 217.389C2019.82 217.389 2018.66 216.277 2018.66 214.906C2018.66 213.534 2019.82 212.423 2021.26 212.423C2022.7 212.423 2023.86 213.534 2023.86 214.906Z" fill="white"/>
      <path d="M1730.33 420.239C1730.33 421.61 1729.17 422.722 1727.73 422.722C1726.29 422.722 1725.13 421.61 1725.13 420.239C1725.13 418.868 1726.29 417.756 1727.73 417.756C1729.17 417.756 1730.33 418.868 1730.33 420.239Z" fill="white"/>
      <path d="M1149.36 395.409C1149.36 396.78 1148.2 397.892 1146.76 397.892C1145.33 397.892 1144.16 396.78 1144.16 395.409C1144.16 394.037 1145.33 392.926 1146.76 392.926C1148.2 392.926 1149.36 394.037 1149.36 395.409Z" fill="white"/>
      <path d="M1213.65 226.682C1213.65 228.053 1212.49 229.165 1211.05 229.165C1209.61 229.165 1208.45 228.053 1208.45 226.682C1208.45 225.311 1209.61 224.199 1211.05 224.199C1212.49 224.199 1213.65 225.311 1213.65 226.682Z" fill="white"/>
      <path d="M806.973 395.409C806.973 396.78 805.808 397.892 804.371 397.892C802.933 397.892 801.768 396.78 801.768 395.409C801.768 394.037 802.933 392.926 804.371 392.926C805.808 392.926 806.973 394.037 806.973 395.409Z" fill="white"/>
      <path d="M595.362 247.825C595.362 249.196 594.197 250.308 592.759 250.308C591.322 250.308 590.157 249.196 590.157 247.825C590.157 246.453 591.322 245.341 592.759 245.341C594.197 245.341 595.362 246.453 595.362 247.825Z" fill="white"/>
      <path d="M77.7701 347.145C77.7701 348.516 76.605 349.628 75.1678 349.628C73.7305 349.628 72.5654 348.516 72.5654 347.145C72.5654 345.774 73.7305 344.662 75.1678 344.662C76.605 344.662 77.7701 345.774 77.7701 347.145Z" fill="white"/>
      <path d="M264.554 329.729C264.554 331.1 263.388 332.212 261.951 332.212C260.514 332.212 259.349 331.1 259.349 329.729C259.349 328.358 260.514 327.246 261.951 327.246C263.388 327.246 264.554 328.358 264.554 329.729Z" fill="white"/>
      <path d="M2352.92 404.22C2352.92 405.591 2351.76 406.703 2350.32 406.703C2348.88 406.703 2347.72 405.591 2347.72 404.22C2347.72 402.848 2348.88 401.737 2350.32 401.737C2351.76 401.737 2352.92 402.848 2352.92 404.22Z" fill="white"/>
      <path d="M2205.44 62.852C2205.44 64.2233 2204.28 65.335 2202.84 65.335C2201.4 65.335 2200.24 64.2233 2200.24 62.852C2200.24 61.4807 2201.4 60.369 2202.84 60.369C2204.28 60.369 2205.44 61.4807 2205.44 62.852Z" fill="white"/>
    </g>
    <g id="moon" filter="url(#filter1_df_421_949)">
      <ellipse cx="2367.6" cy="178.728" rx="88.4758" ry="90" fill="#A086D0"/>
    </g>
  </g>
  <defs>
    <filter id="filter0_df_421_949" x="23.998" y="-7.25732" width="2470.65" height="519.633" filterUnits="userSpaceOnUse" color-interpolation-filters="sRGB">
      <feFlood flood-opacity="0" result="BackgroundImageFix"/>
      <feColorMatrix in="SourceAlpha" type="matrix" values="0 0 0 0 0 0 0 0 0 0 0 0 0 0 0 0 0 0 127 0" result="hardAlpha"/>
      <feOffset/>
      <feGaussianBlur stdDeviation="2.5"/>
      <feComposite in2="hardAlpha" operator="out"/>
      <feColorMatrix type="matrix" values="0 0 0 0 1 0 0 0 0 1 0 0 0 0 1 0 0 0 1 0"/>
      <feBlend mode="normal" in2="BackgroundImageFix" result="effect1_dropShadow_421_949"/>
      <feBlend mode="normal" in="SourceGraphic" in2="effect1_dropShadow_421_949" result="shape"/>
      <feGaussianBlur stdDeviation="1" result="effect2_foregroundBlur_421_949"/>
    </filter>
    <filter id="filter1_df_421_949" x="2179.12" y="-11.272" width="376.952" height="380" filterUnits="userSpaceOnUse" color-interpolation-filters="sRGB">
      <feFlood flood-opacity="0" result="BackgroundImageFix"/>
      <feColorMatrix in="SourceAlpha" type="matrix" values="0 0 0 0 0 0 0 0 0 0 0 0 0 0 0 0 0 0 127 0" result="hardAlpha"/>
      <feMorphology radius="50" operator="dilate" in="SourceAlpha" result="effect1_dropShadow_421_949"/>
      <feOffset/>
      <feGaussianBlur stdDeviation="25"/>
      <feComposite in2="hardAlpha" operator="out"/>
      <feColorMatrix type="matrix" values="0 0 0 0 1 0 0 0 0 1 0 0 0 0 1 0 0 0 0.25 0"/>
      <feBlend mode="normal" in2="BackgroundImageFix" result="effect1_dropShadow_421_949"/>
      <feBlend mode="normal" in="SourceGraphic" in2="effect1_dropShadow_421_949" result="shape"/>
      <feGaussianBlur stdDeviation="2" result="effect2_foregroundBlur_421_949"/>
    </filter>
    <linearGradient id="paint0_linear_421_949" x1="1297.5" y1="0" x2="1297.5" y2="605.109" gradientUnits="userSpaceOnUse">
      <stop stop-color="#C4C4C4" stop-opacity="0"/>
      <stop offset="0.139448" stop-color="#C4C4C4"/>
    </linearGradient>
    <radialGradient id="paint1_radial_421_949" cx="0" cy="0" r="1" gradientUnits="userSpaceOnUse" gradientTransform="translate(2547.29 -2.25783) rotate(169.265) scale(1566.11 3790.81)">
      <stop offset="0.00955419" stop-color="#30017C"/>
      <stop offset="0.979517" stop-color="#0F0039"/>
    </radialGradient>
  </defs>
</svg>
