<svg width="90" height="70" viewBox="0 0 90 70" fill="none" xmlns="http://www.w3.org/2000/svg">
<path d="M81.4286 0H8.57143C3.83756 0 0 4.17867 0 9.33333V60.6667C0 65.8215 3.83756 70 8.57143 70H81.4286C86.1626 70 90 65.8215 90 60.6667V9.33333C90 4.17867 86.1626 0 81.4286 0Z" fill="#CD0B20"/>
<path fill-rule="evenodd" clip-rule="evenodd" d="M0 18.6667H90V51.3334H0V18.6667Z" fill="#FFCB00"/>
<path fill-rule="evenodd" clip-rule="evenodd" d="M38.5714 29.036V40.796C38.5714 44.0626 35.6914 46.676 32.1428 46.676H23.5714C20.0314 46.6666 17.1428 44.0393 17.1428 40.7867V29.0266C17.1428 26.3573 19.0628 24.1267 21.7028 23.4033C22.5 20.9767 24.9514 23.1513 27.8571 23.1513C30.78 23.1513 33.2143 20.9906 34.0114 23.408C36.6428 24.15 38.5714 26.3853 38.5714 29.036Z" fill="#C8B47C"/>
<path fill-rule="evenodd" clip-rule="evenodd" d="M38.5715 32.6667H42.8572V46.6667H38.5715V32.6667ZM12.8572 32.6667H17.1429V46.6667H12.8572V32.6667Z" fill="#B5B5B5"/>
<path fill-rule="evenodd" clip-rule="evenodd" d="M38.5715 42H42.8572V46.6667H38.5715V42ZM12.8572 42H17.1429V46.6667H12.8572V42Z" fill="#165C96"/>
<path fill-rule="evenodd" clip-rule="evenodd" d="M38.5715 28H42.8572V32.6667H38.5715V28ZM12.8572 28H17.1429V32.6667H12.8572V28Z" fill="#A0790A"/>
<path fill-rule="evenodd" clip-rule="evenodd" d="M21.4286 28H25.7143V35H21.4286V28ZM30 37.3333H34.2857V44.3333H30V37.3333Z" fill="#D20636"/>
<path fill-rule="evenodd" clip-rule="evenodd" d="M30 28H34.2857V35H30V28Z" fill="#A18793"/>
<path fill-rule="evenodd" clip-rule="evenodd" d="M21.4286 37.3333H25.7143V44.3332H21.4286V37.3333Z" fill="#FFE100"/>
<path fill-rule="evenodd" clip-rule="evenodd" d="M25.7143 27.9999L21.4286 23.3333H34.2857L30 27.9999H25.7143Z" fill="#B6161A"/>
<path fill-rule="evenodd" clip-rule="evenodd" d="M25.7142 18.6667H29.9999V23.3334H25.7142V18.6667Z" fill="#AC9300"/>
<path d="M81.4285 2.33325H8.57139C5.02098 2.33325 2.14282 5.46725 2.14282 9.33325V60.6666C2.14282 64.5324 5.02098 67.6666 8.57139 67.6666H81.4285C84.9788 67.6666 87.8571 64.5324 87.8571 60.6666V9.33325C87.8571 5.46725 84.9788 2.33325 81.4285 2.33325Z" stroke="black" stroke-opacity="0.1"/>
</svg>
