<svg width="90" height="70" viewBox="0 0 90 70" fill="none" xmlns="http://www.w3.org/2000/svg">
<path d="M81.4286 0H8.57143C3.83756 0 0 4.17867 0 9.33333V60.6667C0 65.8215 3.83756 70 8.57143 70H81.4286C86.1626 70 90 65.8215 90 60.6667V9.33333C90 4.17867 86.1626 0 81.4286 0Z" fill="#22438B"/>
<path fill-rule="evenodd" clip-rule="evenodd" d="M12.8572 4.66675L4.17432 4.78808L4.28574 14.0001L77.0657 65.4641L85.7957 65.2914L85.6329 56.1354L12.8572 4.66675Z" fill="white"/>
<path fill-rule="evenodd" clip-rule="evenodd" d="M8.57148 4.66675L4.28577 9.33342L81.4286 65.3334L85.7143 60.6668L8.57148 4.66675Z" fill="#C7152A"/>
<path fill-rule="evenodd" clip-rule="evenodd" d="M77.1429 4.66675H85.7143V14.0001C85.7143 14.0001 35.3572 48.5147 12.9343 65.4641C12.6643 65.6694 4.37144 65.4781 4.37144 65.4781L3.70715 56.6067L77.1429 4.66675Z" fill="white"/>
<path fill-rule="evenodd" clip-rule="evenodd" d="M81.6129 4.53564L85.7143 9.33298L8.57148 65.333L4.28577 60.6663L81.6129 4.53564Z" fill="#C7152A"/>
<path fill-rule="evenodd" clip-rule="evenodd" d="M34.2858 4.66675H55.7143V23.3334H85.7143V46.6668H55.7143V65.3334H34.2858V46.6668H4.28577V23.3334H34.2858V4.66675Z" fill="white"/>
<path fill-rule="evenodd" clip-rule="evenodd" d="M38.5715 4.66675H51.4286V28.0001H85.7143V42.0001H51.4286V65.3334H38.5715V42.0001H4.28577V28.0001H38.5715V4.66675Z" fill="#C7152A"/>
<path d="M81.4285 2.33325H8.57139C5.02098 2.33325 2.14282 5.46725 2.14282 9.33325V60.6666C2.14282 64.5325 5.02098 67.6666 8.57139 67.6666H81.4285C84.9788 67.6666 87.8571 64.5325 87.8571 60.6666V9.33325C87.8571 5.46725 84.9788 2.33325 81.4285 2.33325Z" stroke="black" stroke-opacity="0.1"/>
</svg>
