<svg width="1240" height="716" viewBox="0 0 1240 716" fill="none" xmlns="http://www.w3.org/2000/svg" style="width: 150px; height: auto; margin: auto; display: block;">
  <path d="M260.702 0.198975C117.108 0.198975 0.702148 116.605 0.702148 260.199C0.702148 360.393 57.376 447.349 140.415 490.761L157.551 456.462C87.0768 419.346 39.0278 345.384 39.0278 260.199C39.0278 137.772 138.275 38.5246 260.702 38.5246C294.365 38.5246 326.276 46.0282 354.852 59.454L372.007 25.1607C338.266 9.15412 300.53 0.198975 260.702 0.198975Z" fill="#A2A2A2"/>
  <path fill-rule="evenodd" clip-rule="evenodd" d="M229.204 217.993C228.28 219.019 228.16 220.584 229 221.751C229.967 223.096 231.841 223.403 233.187 222.435C233.224 222.409 233.26 222.381 233.296 222.353C232.782 222.766 232.129 223.013 231.419 223.013C229.763 223.013 228.42 221.671 228.42 220.015C228.42 219.236 228.717 218.526 229.204 217.993Z" fill="#E8E8E8"/>
  <path fill-rule="evenodd" clip-rule="evenodd" d="M218.001 236.052C216.8 235.373 215.445 234.935 214.001 234.804C214.721 234.871 215.446 235.017 216.163 235.249C216.813 235.459 217.428 235.729 218.001 236.052ZM213.087 254.779C218.215 254.779 222.441 250.918 223.021 245.943C222.945 246.575 222.808 247.21 222.605 247.839C220.907 253.094 215.27 255.978 210.015 254.28C204.759 252.582 201.875 246.946 203.573 241.69C203.827 240.905 204.169 240.172 204.584 239.5C203.634 241.031 203.086 242.837 203.086 244.771C203.086 250.298 207.564 254.779 213.087 254.779ZM212.079 234.813C210.046 235.02 208.127 235.849 206.587 237.165C208.095 235.873 209.993 235.022 212.079 234.813Z" fill="#E8E8E8"/>
  <path fill-rule="evenodd" clip-rule="evenodd" d="M213.413 278.611C215.069 278.611 216.411 277.268 216.411 275.612C216.411 274.969 216.209 274.373 215.864 273.885C216.027 274.119 216.16 274.38 216.254 274.665L216.266 274.704C216.763 276.285 215.885 277.969 214.305 278.466C213.359 278.763 212.377 278.569 211.634 278.026C212.131 278.394 212.747 278.611 213.413 278.611Z" fill="#E8E8E8"/>
  <path fill-rule="evenodd" clip-rule="evenodd" d="M252.684 216.241C254.072 218.071 256.077 219.408 258.389 219.942C256.077 219.407 254.073 218.07 252.684 216.241Z" fill="#E8E8E8"/>
  <path d="M69.9748 150.475C51.3547 182.772 40.7021 220.241 40.7021 260.199C40.7021 300.318 51.4409 337.929 70.2008 370.314C90.9568 406.145 121.532 435.579 158.245 454.935L167.086 437.147C137.558 421.461 112.424 398.586 94.0117 370.852C91.7964 367.734 89.8929 364.714 87.3748 360.446C84.918 356.115 83.2437 352.95 81.6387 349.456C68.2397 322.577 60.7021 292.258 60.7021 260.177C60.7021 228.303 68.1424 198.169 81.379 171.42C83.0011 167.859 84.6839 164.661 87.1714 160.259C89.6477 156.047 91.5282 153.048 93.6993 149.974C129.482 95.7419 190.918 59.9639 260.702 59.9639C290.904 59.9639 319.542 66.6654 345.214 78.6642L354.027 60.9165C325.695 47.6258 294.066 40.199 260.702 40.199C179.157 40.199 107.974 84.5647 69.9748 150.475Z" fill="#E8E8E8"/>
  <path fill-rule="evenodd" clip-rule="evenodd" d="M240.702 260.199C240.702 258.977 240.812 257.78 241.022 256.618C242.71 247.281 250.879 240.199 260.702 240.199C262.085 240.199 263.435 240.339 264.739 240.607L311.784 145.952C302.795 129.711 298.436 107.09 293.981 83.9706C293.216 79.9981 292.447 76.0108 291.652 72.0387C288.421 71.5101 285.163 71.0629 281.88 70.6992C284.524 91.703 290.702 142.176 290.702 155.199C290.702 171.768 277.271 185.199 260.702 185.199C244.134 185.199 230.702 171.768 230.702 155.199C230.702 142.176 236.88 91.703 239.525 70.6992C236.241 71.0629 232.983 71.5101 229.752 72.0387C228.957 76.0081 228.19 79.9925 227.425 83.9622L227.423 83.9683L227.423 83.9694L227.423 83.9706C222.547 109.277 217.786 133.986 206.941 150.385C203.721 155.254 198.403 158.323 192.577 158.679C172.869 159.882 148.95 151.614 124.488 143.158L124.487 143.157L124.484 143.157L124.483 143.156C120.793 141.881 117.091 140.601 113.389 139.349C111.255 141.953 109.188 144.615 107.192 147.332C126.8 155.57 173.399 175.337 184.652 181.824C199.006 190.099 203.935 208.443 195.661 222.797C187.386 237.152 169.042 242.08 154.687 233.806C143.439 227.322 103.007 196.927 86.0388 184.078C84.7213 187.105 83.48 190.172 82.3173 193.277C85.333 195.921 88.3743 198.549 91.4045 201.168C110.904 218.02 129.943 234.474 138.744 252.053C141.358 257.273 141.364 263.413 138.766 268.64C129.976 286.32 110.877 302.925 91.3443 319.906L91.3388 319.911C88.3977 322.468 85.4464 325.034 82.5194 327.613C83.67 330.658 84.8963 333.666 86.196 336.635C103.138 323.763 143.533 293.295 154.773 286.791C169.115 278.494 187.467 283.393 195.764 297.735C204.062 312.076 199.162 330.428 184.821 338.725C173.579 345.229 127.025 365.066 107.425 373.337C109.372 375.977 111.386 378.564 113.464 381.096C117.162 379.844 120.861 378.565 124.548 377.289L124.557 377.286L124.564 377.284L124.57 377.282C149.03 368.82 172.947 360.546 192.655 361.744C196.344 361.969 199.83 363.281 202.708 365.449L230.07 310.389C228.552 310.183 227.06 309.624 225.721 308.693C225.657 308.649 225.593 308.604 225.53 308.558C221.068 305.303 220.09 299.047 223.345 294.585C226.6 290.124 232.855 289.145 237.317 292.4C237.744 292.711 238.139 293.051 238.502 293.413L247.531 275.25C243.345 271.584 240.702 266.2 240.702 260.199ZM213.087 254.779C207.564 254.779 203.086 250.298 203.086 244.771C203.086 242.837 203.634 241.031 204.584 239.5C205.134 238.61 205.812 237.826 206.587 237.165C208.095 235.873 209.993 235.022 212.079 234.813C212.706 234.749 213.343 234.744 213.984 234.802L214.001 234.804C215.445 234.935 216.8 235.373 218.001 236.052C219.529 236.911 220.77 238.141 221.643 239.586C222.155 240.431 222.54 241.35 222.785 242.311L222.786 242.315C223.079 243.473 223.168 244.693 223.024 245.92L223.021 245.943C222.441 250.918 218.215 254.779 213.087 254.779ZM216.411 275.612C216.411 277.268 215.069 278.611 213.413 278.611C212.747 278.611 212.131 278.394 211.634 278.026C211.134 277.662 210.743 277.14 210.543 276.505C210.046 274.924 210.924 273.24 212.504 272.743C213.709 272.364 214.973 272.784 215.726 273.705C215.774 273.763 215.82 273.823 215.864 273.885C216.209 274.373 216.411 274.969 216.411 275.612ZM231.419 223.013C229.763 223.013 228.42 221.671 228.42 220.015C228.42 219.236 228.717 218.526 229.204 217.993C229.345 217.836 229.505 217.692 229.684 217.564C231.018 216.605 232.873 216.898 233.847 218.215L233.871 218.248C234.811 219.556 234.548 221.365 233.296 222.353C232.782 222.766 232.129 223.013 231.419 223.013ZM270.653 210.199C270.653 215.722 266.176 220.199 260.653 220.199C259.96 220.199 259.284 220.128 258.631 219.994C258.55 219.978 258.469 219.96 258.389 219.942C256.077 219.408 254.072 218.071 252.684 216.241C251.409 214.562 250.653 212.469 250.653 210.199C250.653 204.676 255.13 200.199 260.653 200.199C266.176 200.199 270.653 204.676 270.653 210.199Z" fill="#E8E8E8"/>
  <path d="M161.004 87.4624C141.036 98.9214 123.088 114.337 107.011 132.895C105.618 134.503 106.336 136.999 108.356 137.666C110.033 138.219 111.711 138.781 113.389 139.349C142.114 104.293 183.082 79.6744 229.752 72.0387C230.091 70.3453 230.435 68.6547 230.785 66.9692C231.219 64.8861 229.416 63.0166 227.327 63.4186C203.216 68.0576 180.913 75.9028 161.004 87.4624Z" fill="#E8E8E8"/>
  <path d="M294.078 63.4186C291.988 63.0166 290.186 64.8861 290.619 66.9692C290.969 68.6547 291.313 70.3453 291.652 72.0387C308.981 74.8738 325.523 80.05 340.944 87.2324L344.905 79.424C329.138 72.153 312.114 66.8887 294.078 63.4186Z" fill="#E8E8E8"/>
  <path d="M260.702 59.9755C253.243 60.039 248.928 60.3123 242.208 61.2357C241.318 61.3579 240.628 62.0172 240.514 62.9079C240.316 64.4528 239.97 67.1569 239.525 70.6992C246.478 69.9291 253.544 69.5337 260.702 69.5337C267.86 69.5337 274.927 69.9291 281.88 70.6992C281.434 67.1569 281.088 64.4528 280.89 62.9079C280.776 62.0172 280.086 61.3579 279.197 61.2357C272.476 60.3123 268.161 60.039 260.702 59.9755Z" fill="#E8E8E8"/>
  <path d="M107.096 387.549C123.177 406.103 141.129 421.514 161.099 432.968C163.164 434.167 165.255 435.325 167.371 436.444L171.415 428.61C149.082 416.722 129.394 400.513 113.464 381.096C111.789 381.663 110.113 382.225 108.439 382.778C106.419 383.445 105.702 385.941 107.096 387.549Z" fill="#E8E8E8"/>
  <path fill-rule="evenodd" clip-rule="evenodd" d="M81.6387 349.456C85.3299 356.861 89.4659 364.004 94.0117 370.852C95.1309 372.426 96.3296 374.026 97.7274 375.823C98.2787 376.531 99.1948 376.798 100.023 376.451C101.483 375.839 104.056 374.759 107.425 373.337C99.0577 361.999 91.9162 349.7 86.196 336.635C83.282 338.848 81.0618 340.542 79.8029 341.503C79.0892 342.048 78.8639 342.975 79.2036 343.806C80.0569 345.894 80.8392 347.716 81.6387 349.456ZM82.5194 327.613C81.1858 328.788 79.8573 329.966 78.5368 331.147C76.951 332.566 74.4299 331.942 73.7312 329.932C65.6679 306.741 61.2626 283.495 61.2936 260.473C61.2085 237.451 65.5361 214.209 73.5448 190.998C74.2388 188.987 76.7584 188.357 78.3476 189.772C79.6638 190.944 80.988 192.112 82.3173 193.277C74.5238 214.093 70.2618 236.637 70.2618 260.177C70.2618 283.919 74.5975 306.648 82.5194 327.613ZM218.001 236.052C219.497 236.898 220.753 238.118 221.643 239.586C220.77 238.141 219.529 236.911 218.001 236.052ZM222.786 242.315L222.785 242.311L223.024 245.92C223.168 244.693 223.079 243.473 222.786 242.315ZM270.653 210.199C270.653 215.722 266.176 220.199 260.653 220.199C259.96 220.199 259.284 220.128 258.631 219.994C259.281 220.127 259.954 220.197 260.644 220.197C266.16 220.197 270.632 215.722 270.632 210.201C270.632 204.681 266.16 200.205 260.644 200.205C255.127 200.205 250.655 204.681 250.655 210.201C250.655 212.47 251.411 214.563 252.684 216.241C251.409 214.562 250.653 212.469 250.653 210.199C250.653 204.676 255.13 200.199 260.653 200.199C266.176 200.199 270.653 204.676 270.653 210.199ZM231.419 217.016C230.542 217.016 229.752 217.393 229.204 217.993C229.345 217.836 229.505 217.692 229.684 217.564C231.018 216.605 232.873 216.898 233.847 218.215L233.871 218.248C234.811 219.556 234.548 221.365 233.296 222.353C233.979 221.804 234.417 220.96 234.417 220.015C234.417 218.359 233.075 217.016 231.419 217.016ZM211.634 278.026C211.134 277.662 210.743 277.14 210.543 276.505C210.046 274.924 210.924 273.24 212.504 272.743C213.709 272.364 214.973 272.784 215.726 273.705C215.176 273.038 214.344 272.614 213.413 272.614C211.757 272.614 210.414 273.956 210.414 275.612C210.414 276.602 210.894 277.48 211.634 278.026Z" fill="#E8E8E8"/>
  <path d="M99.794 144.234C98.9653 143.888 98.0497 144.156 97.4995 144.866C96.066 146.715 94.8424 148.355 93.6993 149.974C89.1698 156.838 85.0513 163.999 81.379 171.42C80.6079 173.113 79.8505 174.887 79.0269 176.912C78.6885 177.744 78.9153 178.67 79.6298 179.214C80.8914 180.174 83.1173 181.866 86.0388 184.078C91.7324 171.001 98.8486 158.687 107.192 147.332C103.825 145.917 101.254 144.843 99.794 144.234Z" fill="#E8E8E8"/>
  <path d="M797.169 199.639H726.961L495.624 671.448H763.863L782.892 629.42H591.751L797.169 199.639Z" fill="#A2A2A2"/>
  <path d="M899.926 525.836C912.338 525.836 921.67 529.674 927.925 537.35C934.433 544.867 932.405 559.66 921.84 581.73L914.95 596.123H859.365L865.681 582.929H881.905L889.254 567.576C894.153 557.341 896.621 550.704 896.657 547.666C896.947 544.467 895.434 542.628 892.118 542.148L899.926 525.836ZM882.313 542.628C880.009 542.628 877.218 543.827 873.942 546.226C870.843 548.625 867.954 552.623 865.275 558.221L824.854 642.662C822.251 648.099 821.35 652.017 822.153 654.416C823.132 656.815 824.774 658.015 827.079 658.015L818.811 675.287C804.981 675.287 794.939 671.448 788.685 663.772C782.684 655.936 782.134 646.9 787.033 636.664L821.827 563.978C826.727 553.743 835.89 544.787 849.316 537.11C862.92 529.434 876.637 525.596 890.467 525.596L882.313 542.628ZM836.007 658.254C841.277 657.615 845.718 655.376 849.328 651.538C852.939 647.699 856.811 641.462 860.945 632.826L867.031 620.112H900.542C890.436 641.222 879.43 655.696 867.523 663.532C855.692 671.209 842.507 675.047 827.968 675.047L836.007 658.254ZM948.169 666.651C944.441 667.77 941.715 668.65 939.991 669.289C938.266 669.929 936.326 670.649 934.17 671.448C932.091 672.088 929.645 672.568 926.832 672.888C924.019 673.208 921.283 673.368 918.624 673.368C911.354 673.368 905.509 671.688 901.088 668.33C896.696 664.172 897.677 655.456 904.031 642.182L909.887 629.948C914.634 620.032 919.191 613.475 923.559 610.277C928.104 607.078 936.502 603.24 948.752 598.762C961.179 594.284 973.769 590.206 986.523 586.528L981.011 598.042C973.601 602.04 967.623 605.639 963.077 608.837C959.548 611.396 956.88 613.635 955.075 615.554C951.106 620.512 947.437 626.509 944.069 633.546C940.165 641.702 938.168 647.539 938.08 651.058C937.995 653.457 938.711 655.296 940.226 656.575C941.918 657.855 944.006 658.494 946.488 658.494L952.418 657.775L948.169 666.651ZM1016.95 524.636C1030.78 524.636 1040.73 528.474 1046.81 536.151C1053.06 543.827 1053.74 552.783 1048.84 563.018L996.936 671.448H956.244L1010.9 557.261C1013.58 551.664 1014.43 547.666 1013.45 545.267C1012.65 542.868 1011.1 541.668 1008.79 541.668L1016.95 524.636ZM999.22 541.668C997.092 541.668 994.479 542.868 991.38 545.267C988.459 547.666 985.659 551.664 982.979 557.261L973.907 576.212H937.737L944.053 563.018C948.953 552.783 957.495 543.827 969.68 536.151C982.043 528.474 994.607 524.636 1007.37 524.636L999.22 541.668ZM1118.9 671.448H1079.81L1164.9 493.691H1203.99L1118.9 671.448ZM1137.45 531.593C1126.57 527.275 1117.94 525.116 1111.56 525.116C1103.58 525.116 1095.45 527.275 1087.18 531.593C1079.08 535.911 1072.28 543.827 1066.77 555.342L1024.4 643.861C1018.88 655.376 1018.11 663.292 1022.07 667.61C1026.21 671.928 1032.27 674.087 1040.25 674.087C1046.63 674.087 1057.33 671.928 1072.34 667.61L1077.04 657.775C1071.01 658.894 1066.54 658.414 1063.64 656.335C1060.73 654.256 1061.54 648.499 1066.05 639.063L1103.83 560.14C1108.35 550.704 1113.06 544.947 1117.95 542.868C1122.85 540.789 1127.78 540.309 1132.74 541.428L1137.45 531.593Z" fill="#A2A2A2"/>
  <path d="M475.756 24.3698H405.548L174.21 496.179H442.449L461.479 454.151H270.337L475.756 24.3698Z" fill="#E8E8E8"/>
  <path d="M507.269 491.382C503.542 492.501 500.816 493.381 499.091 494.021C497.367 494.66 495.426 495.38 493.271 496.18C491.191 496.819 488.745 497.299 485.933 497.619C483.12 497.939 480.384 498.099 477.724 498.099C470.455 498.099 464.61 496.419 460.189 493.061C455.796 488.903 456.777 480.187 463.131 466.913L468.988 454.679C473.734 444.763 478.291 438.206 482.659 435.008C487.205 431.809 495.602 427.971 507.852 423.493C520.279 419.015 532.87 414.937 545.623 411.259L540.111 422.774C532.701 426.772 526.723 430.37 522.178 433.569C518.648 436.127 515.981 438.366 514.176 440.285C510.207 445.243 506.538 451.24 503.169 458.277C499.265 466.433 497.269 472.271 497.18 475.789C497.096 478.188 497.811 480.027 499.326 481.306C501.019 482.586 503.106 483.226 505.589 483.226L511.518 482.506L507.269 491.382ZM576.048 349.367C589.878 349.367 599.831 353.206 605.909 360.882C612.163 368.559 612.84 377.514 607.941 387.75L556.037 496.18H515.345L570.005 381.992C572.685 376.395 573.535 372.397 572.556 369.998C571.754 367.599 570.2 366.4 567.895 366.4L576.048 349.367ZM558.321 366.4C556.193 366.4 553.58 367.599 550.481 369.998C547.56 372.397 544.759 376.395 542.08 381.992L533.008 400.944H496.838L503.154 387.75C508.053 377.514 516.596 368.559 528.781 360.882C541.143 353.206 553.708 349.367 566.474 349.367L558.321 366.4ZM610.982 496.18H571.886L640.556 352.726H679.652L610.982 496.18ZM687.504 356.324C702.514 352.006 713.211 349.847 719.594 349.847C727.573 349.847 733.543 352.006 737.504 356.324C741.643 360.642 740.956 368.559 735.444 380.073L679.865 496.18H640.503L693.786 384.871C698.302 375.435 699.108 369.678 696.203 367.599C693.297 365.52 688.828 365.04 682.796 366.16L687.504 356.324ZM753.727 356.324C768.738 352.006 779.434 349.847 785.817 349.847C793.796 349.847 799.766 352.006 803.727 356.324C807.866 360.642 807.179 368.559 801.667 380.073L746.088 496.18H706.727L760.009 384.871C764.526 375.435 765.332 369.678 762.426 367.599C759.521 365.52 755.052 365.04 749.019 366.16L753.727 356.324ZM850.321 318.422H889.416L804.325 496.18H765.23L850.321 318.422ZM880.581 356.324C895.591 352.006 906.288 349.847 912.671 349.847C920.65 349.847 926.62 352.006 930.581 356.324C934.72 360.642 934.033 368.559 928.521 380.073L886.148 468.592C880.636 480.107 873.744 488.023 865.471 492.341C857.376 496.659 849.339 498.818 841.36 498.818C834.977 498.818 826.347 496.659 815.471 492.341L820.179 482.506C825.14 483.625 830.068 483.146 834.964 481.067C839.86 478.988 844.566 473.23 849.083 463.795L886.863 384.871C891.38 375.435 892.185 369.678 889.28 367.599C886.374 365.52 881.905 365.04 875.873 366.16L880.581 356.324ZM1000.24 367.359C997.938 367.359 995.148 368.559 991.872 370.957C988.773 373.356 985.884 377.354 983.205 382.952L942.784 467.393C940.181 472.83 939.28 476.749 940.082 479.147C941.062 481.546 942.704 482.746 945.009 482.746L936.741 500.018C922.911 500.018 912.869 496.18 906.614 488.503C900.614 480.667 900.063 471.631 904.963 461.396L939.757 388.709C944.657 378.474 953.82 369.518 967.246 361.842C980.85 354.165 994.567 350.327 1008.4 350.327L1000.24 367.359ZM1009.82 367.359C1012.12 367.359 1013.68 368.559 1014.48 370.957C1015.46 373.356 1014.61 377.354 1011.93 382.952L971.507 467.393C968.904 472.83 965.965 476.749 962.689 479.147C959.59 481.546 956.888 482.746 954.583 482.746L946.315 500.018C960.145 500.018 973.773 496.18 987.2 488.503C1000.88 480.667 1010.17 471.631 1015.07 461.396L1049.86 388.709C1054.76 378.474 1054.09 369.518 1047.83 361.842C1041.75 354.165 1031.8 350.327 1017.97 350.327L1009.82 367.359Z" fill="#E8E8E8"/>
</svg>
