<svg width="1203" height="287" viewBox="0 0 1203 287" fill="none" xmlns="http://www.w3.org/2000/svg" id="mobile-logos-skillset">
  <g id="logos-mobile">
    <g clip-path="url(#clip0_192:49)">
      <g id="mysql">
        <path id="Vector" d="M177.596 81.4567C170.422 83.8486 165.155 86.5152 161.205 90.0522C160.055 91.043 157.921 91.8121 158.325 93.4928C159.282 93.9178 159.769 94.9921 160.729 95.7039C162.409 97.021 165.103 98.6473 167.222 99.2306C169.579 99.9197 171.937 100.609 174.321 101.096C178.525 101.89 182.866 101.672 186.98 102.498C189.366 102.984 191.873 103.813 194.288 104.385C195.512 104.713 196.532 105.596 197.93 105.573L197.839 105.317C196.94 104.775 196.364 103.733 195.436 103.106C194.241 102.575 193.075 102.129 191.879 101.599C188.106 99.2084 183.863 97.4673 179.537 96.3333C176.018 95.4854 168.875 95.1738 166.585 92.441C166.585 92.441 166.465 92.3883 166.346 92.3353C168.241 91.4605 170.307 89.9473 171.991 88.7638C174.738 86.9088 177.556 86.0866 180.392 84.2002C181.692 83.3473 182.961 82.4093 184.23 81.4716L183.955 80.7059C181.803 79.7497 179.912 78.1239 177.701 77.2855C171.818 75.1731 165.521 73.3074 159.261 72.101C155.892 71.3916 151.937 71.5656 148.482 71.1759C147.231 71.0485 145.361 71.4344 144.432 70.8074C142.157 69.5115 140.38 67.3639 138.427 65.567C134.164 61.814 129.804 57.5202 125.804 53.3846C123.009 50.6414 120.836 47.6744 117.776 45.3153C103.409 34.1454 90.2944 28.9659 71.9062 25.8775C67.9728 25.2753 63.7851 25.9179 59.2691 26.487C57.016 27.2019 54.7315 27.8328 52.4779 28.5479C50.841 28.4643 48.8359 27.3601 47.315 27.0423C41.1447 25.803 25.6838 23.8726 25.1056 33.9834C24.6966 40.3799 32.615 43.6809 35.6712 45.7534C37.8882 47.1662 40.6405 48.6744 42.5044 50.5032C43.6475 51.7249 44.3768 53.1939 45.5508 54.5015C48.3218 57.7328 51.1567 61.4237 54.2807 64.2408C55.9026 65.6755 57.6433 67.1638 59.4704 68.3321C60.5186 69.012 61.9164 68.9899 62.7351 70.4254C62.1036 72.5757 62.9336 75.1611 62.9879 77.5451C63.2499 88.3146 68.785 99.7811 75.8627 105.212C78.051 106.827 83.1159 110.292 87.0067 106.871C90.4562 103.898 87.8204 99.3674 87.444 94.6959C87.3432 93.5777 86.9204 92.9616 87.2085 92.0888C87.2396 92.1735 87.2698 92.2591 87.2698 92.2591C89.3728 94.1936 91.4447 96.0434 93.4584 98.01C97.7165 101.187 104.08 103.799 109.123 105.252C111.809 106.014 114.449 108.045 117.453 108.02L117.361 107.765L117.183 107.829C116.373 107.255 115.451 107.203 114.525 106.863C112.373 105.908 109.92 104.676 108.063 103.422C102.613 100 97.4229 95.9092 92.5277 91.5189C90.1554 89.393 87.8684 86.9476 85.7628 84.7257C84.861 83.896 84.3097 82.3648 83.2368 82.1746C82.5771 84.5268 81.2037 86.8483 81.0528 89.4987C80.6819 93.7662 82.1275 98.341 83.1903 103.246C82.8658 103.459 83.0124 103.31 82.8958 103.544C79.8057 103.888 77.8163 101.432 75.8911 99.4331C71.0481 94.3514 67.1101 84.8092 66.9096 76.9983C66.8885 74.9865 67.5335 68.4091 65.8535 67.0913C64.738 65.6661 62.6222 65.3707 61.1847 64.4463C59.4466 63.2453 57.4663 61.6514 56.0228 60.152C52.1727 56.1548 49.2057 51.2624 45.178 47.3286C43.3141 45.4998 40.62 43.8747 38.373 42.3769C35.8566 40.6872 33.4067 39.7425 31.0924 37.4993C30.3114 36.7233 29.1368 35.4159 29.4802 34.1383C29.4131 33.3935 29.6765 33.0104 30.3269 32.5837C31.1455 31.231 34.8645 31.2379 36.204 31.3321C39.9533 31.4233 43.1387 31.623 46.5388 32.4172C48.0897 32.8201 50.0057 33.957 51.7592 33.8062L53.6267 33.1337C56.6864 32.7043 59.7341 31.1266 62.6771 30.9316C67.9108 30.6807 72.9442 31.2722 77.5954 32.1931C91.7867 35.0619 105.005 41.6469 115.817 51.3089C117.588 52.8815 118.676 54.5096 120.39 56.1995C123.759 59.6974 127.603 63.1202 130.94 66.5329C134.247 69.8601 137.497 73.3052 141.359 75.6639C143.337 76.9699 149.008 75.9853 151.746 76.0572C153.8 76.1824 156.802 75.8709 158.739 76.2306C162.405 76.9284 166.164 77.883 169.714 78.8156C171.505 79.324 176.716 79.8513 177.596 81.4567L177.596 81.4567Z" fill="#0080A4"/>
        <path id="Vector_2" d="M60.2745 40.1601C58.7629 40.7045 57.7579 41.2595 56.7827 41.899C56.7825 41.8985 56.8134 41.9844 56.844 42.0693L57.022 42.0052C58.2239 43.1104 59.805 43.5989 61.123 44.4699C62.325 45.575 63.4373 46.7131 64.6395 47.8188C64.6974 47.7014 64.7555 47.5846 64.7555 47.5846C65.6945 46.2844 65.8262 44.6989 65.0909 42.6567C64.3426 42.2531 64.0393 41.6892 63.3802 41.2534C62.5403 40.5939 61.231 40.5853 60.2745 40.1601Z" fill="#0080A4"/>
      </g>
      <g id="vue">
        <path id="Vector_3" d="M262.936 31.4861H295.359L214.302 175.529L133.245 31.4861H165.262H195.253L214.302 64.8873L232.945 31.4861H262.936Z" fill="#41B883"/>
        <path id="Vector_4" d="M133.245 31.4861L214.302 175.529L295.359 31.4861H262.936L214.302 117.912L165.262 31.4861H133.245Z" fill="#41B883"/>
        <path id="Vector_5" d="M165.262 31.486L214.302 118.329L262.937 31.486H232.945L214.302 64.8871L195.254 31.486H165.262Z" fill="#35495E"/>
      </g>
      <g id="react">
        <path id="Vector_6" d="M364.055 99.2967C362.166 98.6294 360.208 97.998 358.192 97.4009C358.523 96.0134 358.827 94.6438 359.098 93.2976C363.536 71.1916 360.634 53.3828 350.725 47.5194C341.223 41.8972 325.684 47.7593 309.99 61.7734C308.481 63.121 306.968 64.5478 305.455 66.0431C304.447 65.0537 303.441 64.0977 302.437 63.1832C285.989 48.1984 269.503 41.8836 259.603 47.7639C250.111 53.4024 247.3 70.1444 251.295 91.0944C251.68 93.1179 252.131 95.1844 252.641 97.2855C250.308 97.9651 248.056 98.6896 245.9 99.4604C226.617 106.359 214.302 117.17 214.302 128.384C214.302 139.966 227.522 151.583 247.607 158.627C249.192 159.183 250.837 159.709 252.532 160.208C251.982 162.48 251.503 164.707 251.101 166.879C247.292 187.465 250.267 203.812 259.734 209.415C269.513 215.201 285.925 209.253 301.906 194.92C303.169 193.787 304.436 192.585 305.706 191.326C307.352 192.952 308.996 194.491 310.63 195.935C326.11 209.603 341.398 215.122 350.857 209.503C360.626 203.701 363.801 186.141 359.679 164.776C359.364 163.144 358.998 161.477 358.586 159.781C359.739 159.431 360.87 159.07 361.973 158.695C382.854 151.597 396.439 140.121 396.439 128.384C396.439 117.129 383.727 106.245 364.055 99.2967ZM359.526 151.117C358.53 151.455 357.509 151.782 356.467 152.099C354.162 144.611 351.051 136.649 347.244 128.423C350.877 120.393 353.868 112.532 356.108 105.093C357.972 105.646 359.78 106.23 361.522 106.846C378.377 112.799 388.658 121.602 388.658 128.384C388.658 135.609 377.555 144.987 359.526 151.117ZM352.046 166.327C353.868 175.774 354.129 184.315 352.921 190.992C351.837 196.992 349.655 200.992 346.958 202.594C341.218 206.003 328.943 201.572 315.705 189.883C314.187 188.543 312.659 187.112 311.125 185.598C316.257 179.839 321.386 173.143 326.392 165.708C335.197 164.906 343.516 163.595 351.06 161.806C351.431 163.344 351.761 164.852 352.046 166.327ZM276.397 202.005C270.789 204.037 266.322 204.095 263.622 202.498C257.877 199.098 255.489 185.973 258.746 168.368C259.12 166.352 259.564 164.28 260.076 162.163C267.537 163.856 275.795 165.074 284.621 165.809C289.66 173.085 294.938 179.773 300.256 185.629C299.094 186.78 297.937 187.876 296.786 188.908C289.719 195.246 282.637 199.743 276.397 202.005ZM250.124 151.073C241.242 147.958 233.908 143.91 228.881 139.493C224.363 135.523 222.083 131.582 222.083 128.384C222.083 121.579 231.97 112.899 248.461 106.999C250.462 106.283 252.557 105.609 254.731 104.975C257.01 112.582 260 120.536 263.608 128.578C259.953 136.74 256.921 144.821 254.619 152.517C253.07 152.06 251.568 151.579 250.124 151.073ZM258.931 89.5612C255.508 71.6117 257.781 58.0713 263.501 54.6735C269.595 51.0539 283.069 56.2147 297.27 69.1534C298.178 69.9804 299.089 70.8459 300.003 71.7415C294.711 77.5719 289.482 84.2097 284.487 91.443C275.921 92.2577 267.722 93.5664 260.183 95.3188C259.709 93.3624 259.289 91.4404 258.931 89.5612ZM337.496 109.467C335.694 106.273 333.844 103.154 331.958 100.121C337.769 100.874 343.337 101.875 348.565 103.1C346.996 108.262 345.039 113.659 342.736 119.192C341.084 115.974 339.336 112.729 337.496 109.467ZM305.457 77.4472C309.046 81.4367 312.64 85.891 316.175 90.7238C312.613 90.5512 309.007 90.4614 305.37 90.4614C301.769 90.4614 298.189 90.5492 294.648 90.7188C298.187 85.9309 301.812 81.4826 305.457 77.4472ZM273.213 109.522C271.413 112.725 269.698 115.953 268.072 119.186C265.806 113.672 263.868 108.25 262.284 103.015C267.481 101.822 273.022 100.846 278.797 100.107C276.884 103.168 275.018 106.31 273.213 109.522V109.522ZM278.963 157.231C272.997 156.548 267.372 155.623 262.177 154.462C263.786 149.134 265.767 143.596 268.081 137.963C269.711 141.194 271.433 144.423 273.244 147.633H273.244C275.089 150.904 277.001 154.107 278.963 157.231ZM305.673 179.884C301.985 175.801 298.306 171.285 294.714 166.427C298.201 166.568 301.757 166.64 305.37 166.64C309.083 166.64 312.753 166.554 316.365 166.389C312.818 171.334 309.237 175.857 305.673 179.884ZM342.81 137.676C345.245 143.37 347.297 148.878 348.926 154.116C343.645 155.353 337.944 156.348 331.936 157.088C333.827 154.014 335.693 150.841 337.527 147.578C339.383 144.277 341.144 140.971 342.81 137.676ZM330.788 143.59C327.94 148.655 325.017 153.491 322.05 158.055C316.645 158.452 311.062 158.656 305.37 158.656C299.702 158.656 294.189 158.475 288.88 158.122C285.793 153.497 282.806 148.648 279.977 143.633H279.978C277.157 138.633 274.56 133.59 272.207 128.576C274.559 123.55 277.149 118.501 279.954 113.51L279.954 113.511C282.767 108.506 285.727 103.68 288.785 99.0845C294.202 98.6643 299.757 98.4451 305.37 98.4451H305.37C311.009 98.4451 316.571 98.666 321.986 99.0898C324.998 103.652 327.938 108.462 330.762 113.468C333.618 118.529 336.241 123.544 338.614 128.462C336.248 133.465 333.631 138.531 330.788 143.59ZM346.838 54.436C352.938 58.045 355.309 72.6 351.477 91.6862C351.233 92.904 350.958 94.1445 350.659 95.4016C343.102 93.6126 334.897 92.2813 326.306 91.4543C321.301 84.1415 316.115 77.4934 310.909 71.7378C312.309 70.3563 313.706 69.039 315.098 67.7958C328.545 55.7886 341.112 51.0479 346.838 54.436ZM305.37 111.696C314.353 111.696 321.635 119.167 321.635 128.384C321.635 137.601 314.353 145.073 305.37 145.073C296.388 145.073 289.106 137.601 289.106 128.384C289.106 119.167 296.388 111.696 305.37 111.696Z" fill="#00D8FF"/>
      </g>
      <g id="html5">
        <path id="Vector_7" d="M512.344 74.6667L500.879 243.27L435.92 263.147L370.459 245.594L352.884 77.4752L512.344 74.6667Z" fill="#E44D26"/>
        <path id="Vector_8" d="M435.802 248.853L488.255 232.789L498.046 88.6892L432.912 89.8369L435.802 248.853Z" fill="#F16529"/>
        <path id="Vector_9" d="M405.375 131.621L433.614 131.124L433.239 110.473L383.184 111.354L383.762 116.886L389.704 173.707L434.375 172.921L433.999 152.27L407.584 152.735L405.375 131.621Z" fill="#EBEBEB"/>
        <path id="Vector_10" d="M410.786 183.683L390.745 184.036L394.132 216.409L435.241 227.432L435.333 227.404L434.942 205.92L434.855 205.945L412.507 200.127L410.786 183.683Z" fill="#EBEBEB"/>
        <path id="Vector_11" d="M434.318 172.948L458.893 172.515L457.064 199.34L434.918 205.949L435.309 227.435L476.009 214.98L476.246 211.486L479.947 157.034L480.333 151.48L433.942 152.297L434.318 172.948Z" fill="white"/>
        <path id="Vector_12" d="M433.581 131.08L433.582 131.13L481.823 130.281L482.139 125.635L482.859 115.155L483.236 109.609L433.206 110.489L433.581 131.08Z" fill="white"/>
      </g>
      <g id="mongodb">
        <path id="Vector_13" d="M329.757 252.826C353.763 252.826 373.223 234.14 373.223 211.089C373.223 188.038 353.763 169.351 329.757 169.351C305.751 169.351 286.29 188.038 286.29 211.089C286.29 234.14 305.751 252.826 329.757 252.826Z" fill="#13AA52"/>
        <path id="Vector_14" d="M341.376 205.989C338.63 194.354 332.141 190.528 331.443 189.067C330.679 188.035 329.904 186.201 329.904 186.201C329.892 186.17 329.871 186.116 329.848 186.063C329.769 187.094 329.728 187.492 328.713 188.532C327.14 189.712 319.074 196.212 318.417 209.431C317.805 221.759 327.692 229.106 329.029 230.043L329.181 230.146V230.137C329.19 230.199 329.606 233.072 329.898 236.116H330.945C331.191 233.964 331.56 231.827 332.049 229.714L332.134 229.661C332.732 229.249 333.302 228.801 333.841 228.32L333.902 228.267C336.745 225.746 341.854 219.914 341.804 210.616C341.794 209.065 341.65 207.517 341.376 205.989ZM329.786 223.082C329.786 223.082 329.786 205.79 330.381 205.793C330.844 205.793 331.445 228.098 331.445 228.098C330.619 228.002 329.786 224.427 329.786 223.082Z" fill="white"/>
      </g>
      <g id="sass">
        <path id="Vector_15" d="M1148.7 95.7564C1142.64 95.7812 1137.38 96.9234 1132.97 98.612C1131.36 96.104 1129.74 93.8691 1129.46 92.2302C1129.14 90.3182 1128.76 89.1511 1129.14 86.8666C1129.52 84.5821 1131.23 81.3291 1131.2 81.0808C1131.17 80.8325 1130.82 79.6654 1127.33 79.6406C1123.85 79.6157 1120.83 80.162 1120.49 80.8822C1120.14 81.6023 1119.47 83.2412 1119.03 84.9297C1118.43 87.4129 1112.05 96.2778 1108.41 100.921C1107.24 99.1086 1106.22 97.5194 1106 96.253C1105.68 94.3409 1105.3 93.1739 1105.68 90.8893C1106.06 88.6048 1107.77 85.3519 1107.74 85.1035C1107.71 84.8552 1107.36 83.6881 1103.88 83.6633C1100.39 83.6385 1097.38 84.1848 1097.03 84.9049C1096.68 85.625 1096.3 87.3136 1095.57 88.9525C1094.84 90.5914 1086.38 105.391 1084.16 109.215C1083.02 111.177 1082.04 112.741 1081.34 113.809C1081.34 113.809 1081.31 113.883 1081.21 114.008C1080.61 114.926 1080.26 115.423 1080.26 115.423C1080.26 115.423 1080.26 115.423 1080.26 115.448C1079.78 116.118 1079.28 116.739 1079.02 116.739C1078.83 116.739 1078.49 114.951 1079.09 112.518C1080.36 107.378 1083.37 99.3818 1083.34 99.1086C1083.34 98.9596 1083.91 97.5691 1081.37 96.8489C1078.9 96.1288 1078.01 97.3207 1077.79 97.3207C1077.57 97.3207 1077.41 97.7429 1077.41 97.7429C1077.41 97.7429 1080.17 88.7538 1072.15 88.7538C1067.14 88.7538 1060.23 93.0497 1056.8 96.9234C1054.65 97.8422 1050.05 99.8039 1045.14 101.915C1043.27 102.734 1041.33 103.554 1039.53 104.323C1039.4 104.224 1039.27 104.1 1039.15 104C1029.45 95.8805 1011.51 90.1444 1012.27 79.2433C1012.55 75.2702 1014.3 64.8409 1046.72 52.1767C1073.41 41.8715 1094.65 44.7272 1098.33 51.0593C1103.59 60.098 1086.95 76.8843 1059.37 79.3178C1048.85 80.2365 1043.33 77.0581 1041.94 75.8662C1040.48 74.6246 1040.26 74.5501 1039.72 74.7984C1038.83 75.1709 1039.4 76.2883 1039.72 76.9339C1040.54 78.6225 1043.93 81.6023 1049.67 83.0673C1054.74 84.3586 1067.07 85.0787 1082 80.5593C1098.71 75.4937 1111.77 61.4141 1107.93 49.619C1104.1 37.6502 1078.74 33.7019 1054.74 40.3816C1040.48 44.3547 1025.01 50.6123 1013.88 58.7571C1000.67 68.4415 998.573 76.8594 999.429 80.3855C1002.5 92.9007 1024.53 101.046 1033.35 107.08C1032.9 107.278 1032.49 107.452 1032.14 107.601C1027.74 109.314 1010.94 116.193 1006.75 123.469C1002 131.713 1007.51 137.623 1011.16 138.417C1022.47 140.876 1034.11 136.456 1040.35 129.155C1046.6 121.854 1045.84 112.369 1042.95 108.023C1042.92 107.974 1042.89 107.924 1042.82 107.874C1043.97 107.353 1045.14 106.806 1046.28 106.285C1048.53 105.242 1050.75 104.274 1052.65 103.479C1051.57 105.788 1050.78 108.545 1050.4 112.518C1049.92 117.186 1052.37 123.245 1055.57 125.629C1056.99 126.672 1058.67 126.697 1059.75 126.697C1063.49 126.697 1065.17 124.263 1067.04 121.383C1069.32 117.857 1071.38 113.759 1071.38 113.759C1071.38 113.759 1068.82 124.834 1075.79 124.834C1078.33 124.834 1080.89 122.252 1082.04 120.936V120.961C1082.04 120.961 1082.1 120.886 1082.23 120.712C1082.48 120.389 1082.64 120.191 1082.64 120.191V120.141C1083.65 118.751 1085.93 115.597 1089.33 110.357C1093.7 103.603 1097.92 95.1604 1097.92 95.1604C1097.92 95.1604 1098.3 97.2214 1099.6 100.648C1100.36 102.66 1101.94 104.87 1103.21 107.005C1102.2 108.123 1101.56 108.743 1101.56 108.743C1101.56 108.743 1101.56 108.743 1101.59 108.768C1100.77 109.612 1099.88 110.531 1098.9 111.425C1095.44 114.653 1091.32 118.353 1090.75 119.421C1090.09 120.687 1090.25 121.606 1091.51 122.351C1092.43 122.897 1094.08 122.972 1095.76 122.897C1098.87 122.724 1101.05 122.128 1102.13 121.755C1103.81 121.283 1105.78 120.563 1107.62 119.495C1111.01 117.534 1113.07 114.728 1112.88 111.028C1112.78 108.992 1111.93 106.955 1110.88 105.043C1111.2 104.696 1111.48 104.348 1111.8 104C1117.16 97.867 1121.31 91.1377 1121.31 91.1377C1121.31 91.1377 1121.69 93.1987 1122.99 96.6255C1123.62 98.3637 1124.92 100.251 1126.06 102.088C1121.02 105.292 1117.92 109.016 1116.81 111.45C1114.81 115.969 1116.36 118.006 1119.31 118.477C1120.64 118.701 1122.55 118.204 1123.94 117.732C1125.72 117.285 1127.81 116.516 1129.81 115.373C1133.2 113.412 1136.46 110.68 1136.27 106.98C1136.18 105.292 1135.61 103.628 1134.81 102.014C1139.09 100.623 1144.61 99.8536 1151.65 100.499C1166.73 101.89 1169.71 109.265 1169.14 112.369C1168.57 115.473 1165.4 117.161 1164.36 117.683C1163.31 118.204 1162.96 118.378 1163.06 118.75C1163.18 119.297 1163.69 119.272 1164.58 119.173C1165.81 118.999 1172.5 116.665 1172.79 110.953C1173.26 103.653 1164.39 95.6819 1148.7 95.7564ZM1032.3 126.498C1027.29 130.769 1020.32 132.383 1017.31 131.017C1014.07 129.552 1015.34 123.245 1021.49 118.726C1025.23 115.969 1030.05 113.412 1033.25 111.847C1033.98 111.5 1035.06 111.003 1036.36 110.382C1036.58 110.283 1036.71 110.233 1036.71 110.233C1036.96 110.109 1037.21 109.985 1037.47 109.861C1039.72 116.317 1037.56 122.003 1032.3 126.498ZM1068.75 107.08C1067.01 110.407 1063.37 118.924 1061.15 118.453C1059.24 118.055 1058.07 111.599 1060.77 105.217C1062.13 102.014 1065.01 98.1899 1066.69 96.7C1069.42 94.3161 1072.43 93.5215 1073.16 94.4899C1074.08 95.7563 1069.83 104.994 1068.75 107.08ZM1098.84 118.353C1098.11 118.651 1097.41 118.85 1097.09 118.701C1096.87 118.602 1097.41 118.204 1097.41 118.204C1097.41 118.204 1101.18 115.026 1102.67 113.586C1103.53 112.741 1104.54 111.748 1105.62 110.631V110.953C1105.62 114.753 1100.93 117.31 1098.84 118.353ZM1122.04 114.206C1121.5 113.908 1121.6 112.915 1123.4 109.811C1124.1 108.594 1125.75 106.558 1128.57 104.596C1128.89 105.391 1129.11 106.161 1129.08 106.881C1129.04 111.673 1124.67 113.461 1122.04 114.206Z" fill="#CD6799"/>
      </g>
      <g id="figma">
        <path id="Vector_16" d="M936.76 186.063C951.641 186.063 963.719 174.396 963.719 160.022V133.981H936.76C921.879 133.981 909.802 145.647 909.802 160.022C909.802 174.396 921.879 186.063 936.76 186.063Z" fill="#0ACF83"/>
        <path id="Vector_17" d="M909.802 107.94C909.802 93.5649 921.879 81.8986 936.76 81.8986H963.718V133.981H936.76C921.879 133.981 909.802 122.314 909.802 107.94Z" fill="#A259FF"/>
        <path id="Vector_18" d="M909.803 55.8577C909.803 41.483 921.88 29.8167 936.761 29.8167L963.719 29.8167V81.8987H936.761C921.88 81.8987 909.803 70.2323 909.803 55.8577Z" fill="#F24E1E"/>
        <path id="Vector_19" d="M963.718 29.8165H990.677C1005.56 29.8165 1017.63 41.4829 1017.63 55.8575C1017.63 70.2322 1005.56 81.8986 990.677 81.8986H963.718V29.8165Z" fill="#FF7262"/>
        <path id="Vector_20" d="M1017.63 107.94C1017.63 122.314 1005.56 133.981 990.677 133.981C975.796 133.981 963.718 122.314 963.718 107.94C963.718 93.5649 975.796 81.8986 990.677 81.8986C1005.56 81.8986 1017.63 93.5649 1017.63 107.94Z" fill="#1ABCFE"/>
      </g>
      <g id="nodejs">
        <path id="Vector_21" d="M842.975 46.1565C847.254 43.7348 852.851 43.684 857.162 46.0551C878.849 57.7652 900.542 69.4567 922.226 81.174C926.304 83.3692 929.053 87.7442 929.045 92.2942L929.572 163.675C929.638 168.413 926.685 172.933 922.416 175.138C900.975 187.091 879.545 199.058 858.107 211.01C853.74 213.479 848.029 213.332 843.761 210.725C837.28 207.134 830.788 203.561 824.306 199.974C822.981 199.219 821.49 198.621 820.55 197.384C821.365 196.3 822.836 196.155 824.029 195.675C826.717 194.823 829.181 193.469 831.647 192.154C832.269 191.733 833.035 191.887 833.637 192.255C839.179 195.292 844.673 198.419 850.233 201.426C851.419 202.08 852.609 201.192 853.615 200.637C874.655 188.879 895.721 177.165 916.758 165.404C917.538 165.032 917.964 164.222 917.894 163.389C917.735 139.842 917.551 116.291 917.38 92.7436C917.463 91.7973 916.894 90.932 916.011 90.5512C894.471 78.9595 872.942 67.3497 851.405 55.7549C851.032 55.5092 850.59 55.3791 850.139 55.3817C849.688 55.3843 849.249 55.5194 848.878 55.7694C827.515 67.6742 806.163 79.601 784.8 91.4986C783.926 91.8925 783.345 92.7517 783.456 93.7001C783.633 117.247 783.803 140.798 783.977 164.349C783.943 164.756 784.038 165.163 784.249 165.516C784.46 165.869 784.778 166.15 785.158 166.322C790.906 169.437 796.66 172.529 802.411 175.633C805.65 177.298 809.62 178.273 813.165 176.954C816.294 175.838 818.471 172.71 818.387 169.472C818.244 146.062 818.026 122.649 817.891 99.2432C817.805 98.2046 818.812 97.3388 819.852 97.4291C822.603 97.3915 825.357 97.3538 828.107 97.3774C829.255 97.344 830.053 98.4573 829.919 99.5054C830.082 123.063 830.296 146.621 830.422 170.179C830.476 176.458 827.873 183.308 821.922 186.423C814.589 190.181 805.487 189.46 798.19 185.959C791.873 182.95 785.84 179.388 779.633 176.161C775.321 174.03 772.317 169.533 772.312 164.799L771.785 93.4174C771.706 88.7738 774.498 84.2794 778.67 82.0577C800.108 70.0954 821.541 58.1241 842.975 46.1565Z" fill="#8CC84B"/>
        <path id="Vector_22" d="M862.122 95.4709C871.506 94.8165 881.558 94.9841 890.039 99.4195C896.605 102.818 900.285 110.023 900.452 117.086C900.276 118.04 899.256 118.573 898.32 118.514C895.596 118.53 892.872 118.589 890.147 118.554C888.992 118.606 888.313 117.575 888.161 116.583C887.353 113.209 885.432 109.875 882.148 108.268C877.106 105.859 871.283 106.024 865.805 106.114C861.808 106.349 857.51 106.716 854.139 109.026C851.551 110.776 850.787 114.277 851.736 117.086C852.626 119.101 855.031 119.736 856.999 120.323C868.334 123.119 880.321 122.747 891.446 126.453C896.052 127.964 900.569 130.931 902.176 135.597C904.28 141.849 903.433 149.347 898.883 154.412C895.194 158.579 889.793 160.871 884.398 162.134C877.221 163.743 869.761 163.836 862.455 163.196C855.585 162.485 848.428 160.783 843.095 156.274C838.535 152.481 836.278 146.537 836.455 140.783C836.501 139.812 837.491 139.127 838.448 139.2C841.191 139.159 843.934 139.132 846.677 139.145C847.772 139.061 848.591 139.975 848.655 140.979C849.185 144.195 850.455 147.566 853.357 149.455C858.958 152.911 865.951 152.622 872.335 152.674C877.622 152.408 883.557 152.297 887.848 148.868C890.111 146.914 890.761 143.667 890.125 140.882C889.441 138.532 886.899 137.452 884.717 136.75C873.523 133.396 861.41 134.729 850.321 130.924C845.819 129.413 841.455 126.528 839.697 122.056C837.243 115.726 838.288 107.868 843.32 102.97C848.226 98.0987 855.345 96.1854 862.122 95.4703L862.122 95.4709Z" fill="#8CC84B"/>
      </g>
      <g id="css3">
        <path id="Vector_23" d="M726.353 257.531L659.338 239.251L644.404 74.6669H808.503L793.553 239.225L726.353 257.531Z" fill="#264DE4"/>
        <path id="Vector_24" d="M780.754 228.747L793.53 88.124H726.453V243.539L780.754 228.747Z" fill="#2965F1"/>
        <path id="Vector_25" d="M678.64 149.166L680.481 169.351H726.453V149.166H678.64Z" fill="#EBEBEB"/>
        <path id="Vector_26" d="M674.94 108.31L676.808 128.496H726.454V108.31H674.94Z" fill="#EBEBEB"/>
        <path id="Vector_27" d="M726.453 201.59L726.363 201.614L703.484 195.543L702.021 179.444H681.399L684.277 211.139L726.359 222.617L726.453 222.591V201.59Z" fill="#EBEBEB"/>
        <path id="Vector_28" d="M774.135 149.166L777.844 108.31H726.382V128.496H755.33L753.461 149.166H726.382V169.351H751.679L749.295 195.53L726.382 201.607V222.607L768.497 211.139L768.806 207.728L773.634 154.586L774.135 149.166Z" fill="white"/>
      </g>
      <g id="git">
        <rect id="Rectangle 12" width="58.2201" height="56.0149" rx="4" transform="matrix(0.718221 0.695815 -0.72885 0.684673 834.244 157.599)" fill="#D9D9D9"/>
        <path id="Vector_29" d="M885.868 201.448L840.683 159.421C840.065 158.843 839.331 158.385 838.522 158.073C837.714 157.76 836.847 157.599 835.971 157.599C835.095 157.599 834.228 157.76 833.42 158.073C832.611 158.385 831.877 158.843 831.259 159.421L821.888 168.167L833.79 179.219C835.194 178.776 836.703 178.71 838.145 179.026C839.588 179.342 840.906 180.029 841.95 181.008C842.993 181.988 843.721 183.22 844.049 184.565C844.377 185.91 844.294 187.314 843.807 188.617L855.251 199.267C856.963 198.718 858.824 198.731 860.527 199.305C862.229 199.878 863.669 200.977 864.606 202.418C865.543 203.86 865.921 205.557 865.677 207.226C865.433 208.895 864.581 210.437 863.264 211.593C861.947 212.749 860.245 213.45 858.44 213.579C856.635 213.708 854.837 213.258 853.345 212.303C851.854 211.348 850.759 209.946 850.244 208.331C849.728 206.716 849.823 204.985 850.512 203.427L839.822 193.478V219.667C841.442 220.417 842.737 221.662 843.492 223.193C844.246 224.724 844.414 226.45 843.967 228.082C843.52 229.714 842.486 231.155 841.036 232.164C839.587 233.173 837.81 233.689 836.001 233.626C834.192 233.564 832.461 232.926 831.096 231.82C829.731 230.714 828.815 229.205 828.5 227.547C828.184 225.888 828.489 224.179 829.364 222.704C830.238 221.229 831.629 220.078 833.305 219.441V193.027C832.336 192.659 831.456 192.116 830.714 191.43C829.972 190.743 829.384 189.926 828.983 189.027C828.582 188.127 828.377 187.163 828.38 186.189C828.382 185.215 828.592 184.252 828.997 183.354L817.283 172.452L786.317 201.272C785.072 202.433 784.373 204.006 784.373 205.645C784.373 207.285 785.072 208.858 786.317 210.018L831.528 252.045C832.146 252.623 832.88 253.081 833.689 253.393C834.498 253.706 835.365 253.867 836.24 253.867C837.116 253.867 837.983 253.706 838.792 253.393C839.6 253.081 840.335 252.623 840.953 252.045L885.895 210.194C887.14 209.033 887.839 207.461 887.839 205.821C887.839 204.181 887.14 202.608 885.895 201.448" fill="#F05133"/>
      </g>
      <g id="javascript">
        <path id="Vector_30" d="M497.738 98.4059L678.743 98.4059V282.879H497.738V98.4059Z" fill="#F7DF1E"/>
        <path id="Vector_31" d="M545.331 252.565L559.182 244.022C561.855 248.85 564.285 252.936 570.116 252.936C575.706 252.936 579.23 250.708 579.23 242.041V183.097H596.24V242.286C596.24 260.241 585.913 268.414 570.845 268.414C557.238 268.414 549.34 261.232 545.33 252.564L545.331 252.565ZM605.479 250.707L619.328 242.535C622.975 248.603 627.713 253.061 636.096 253.061C643.145 253.061 647.639 249.469 647.639 244.516C647.639 238.572 643.022 236.467 635.246 233.001L630.994 231.142C618.722 225.818 610.582 219.131 610.582 205.015C610.582 192.012 620.301 182.105 635.49 182.105C646.303 182.105 654.079 185.945 659.668 195.975L646.423 204.644C643.507 199.319 640.349 197.214 635.489 197.214C630.507 197.214 627.348 200.434 627.348 204.644C627.348 209.844 630.507 211.951 637.797 215.17L642.049 217.027C656.508 223.343 664.648 229.782 664.648 244.269C664.648 259.873 652.62 268.416 636.46 268.416C620.666 268.416 610.459 260.739 605.478 250.708" fill="black"/>
      </g>
    </g>
  </g>
  <defs>
    <clipPath id="clip0_192:49">
      <path d="M0 0H1203V287H15C6.71571 287 0 280.284 0 272V0Z" fill="white"/>
    </clipPath>
  </defs>
</svg>          