<svg width="601" height="515" viewBox="0 0 601 515" xmlns="http://www.w3.org/2000/svg" id="scrolling-logo">
  <path d="M326.795 502.189L586.597 315.099C604.83 301.734 604.985 281.504 586.958 267.898C568.931 254.291 541.735 254.111 523.502 267.477L300.141 431.207L79.3073 264.527C70.2937 257.724 61.2543 254.292 47.6565 254.202C20.4609 254.021 2.22741 267.387 2.07268 287.616C1.99531 297.73 6.47629 304.504 15.4899 311.307L272.378 505.2C281.366 515.375 308.561 515.555 326.795 502.189Z"/>
  <path d="M326.795 249.011L586.597 61.9209C604.83 48.5552 604.985 28.326 586.958 14.7195C568.931 1.11297 541.735 0.932375 523.502 14.2981L300.141 178.028L79.3073 11.3484C70.2937 4.54511 61.2543 1.11338 47.6565 1.02308C20.4609 0.842483 2.22741 14.2082 2.07268 34.4374C1.99531 44.552 6.47629 51.3251 15.4899 58.1284L272.378 252.021C281.366 262.196 308.561 262.377 326.795 249.011Z"/>
</svg>
