<svg width="580" height="243" viewBox="0 0 580 243" fill="none" xmlns="http://www.w3.org/2000/svg" id="tutdl-logo">
  <g id="condensed-logo">
    <path id="Rectangle 5" d="M403.352 175.528H579V199.654H403.352C400.296 199.654 397.818 197.211 397.818 194.197V180.985C397.818 177.971 400.296 175.528 403.352 175.528Z" fill="url(#paint0_linear_152:3)" stroke="url(#paint1_linear_152:3)"/>
    <g id="Rectangle 2">
      <path d="M579 151.402V127.276H425.625L405.354 151.402H579Z" fill="url(#paint2_linear_152:3)"/>
      <path d="M403.352 127.276C400.296 127.276 397.818 129.719 397.818 132.733V141.348L399.063 142.144L413.926 127.276H403.352Z" fill="url(#paint3_linear_152:3)"/>
      <path d="M579 151.402V127.276H425.625L405.354 151.402H579Z" stroke="url(#paint4_linear_152:3)"/>
      <path d="M403.352 127.276C400.296 127.276 397.818 129.719 397.818 132.733V141.348L399.063 142.144L413.926 127.276H403.352Z" stroke="url(#paint5_linear_152:3)"/>
    </g>
    <g id="Rectangle 4">
      <path fill-rule="evenodd" clip-rule="evenodd" d="M403.352 79.0236H416.173L401.904 92.838L397.818 90.0006V84.4807C397.818 81.4666 400.296 79.0236 403.352 79.0236Z" fill="url(#paint6_linear_152:3)"/>
      <path d="M579 103.15V79.0236H430.921L409.938 103.15H440.043L460.762 86.0563C462.002 85.0328 463.904 85.8245 463.816 87.4304C463.69 89.7298 463.037 91.4298 461.371 93.0031L449.979 103.15H579Z" fill="url(#paint7_linear_152:3)"/>
      <path fill-rule="evenodd" clip-rule="evenodd" d="M403.352 79.0236H416.173L401.904 92.838L397.818 90.0006V84.4807C397.818 81.4666 400.296 79.0236 403.352 79.0236Z" stroke="url(#paint8_linear_152:3)"/>
      <path d="M579 103.15V79.0236H430.921L409.938 103.15H440.043L460.762 86.0563C462.002 85.0328 463.904 85.8245 463.816 87.4304C463.69 89.7298 463.037 91.4298 461.371 93.0031L449.979 103.15H579Z" stroke="url(#paint9_linear_152:3)"/>
    </g>
    <path id="Vector" d="M395.458 154.642C390.064 148.222 387.752 145.992 381.212 138.015C379.345 135.289 382.379 132.79 384.713 134.38L398.249 143.922C424.276 117.934 437.362 105.835 459.381 87.7486C459.571 87.5923 459.863 87.7222 459.863 87.9657V89.712C459.863 91.387 459.118 92.9793 457.834 94.0765C435.937 112.796 422.757 127.159 400.967 154.578C399.578 156.325 396.894 156.352 395.458 154.642Z" fill="black"/>
    <path id="Vector_2" d="M398.246 107.638C391.657 99.8174 389.05 97.3709 381.301 87.9864C379.146 84.8611 382.648 81.9963 385.343 83.8194L400.969 94.7578C427.559 68.5396 443.013 54.2573 471.611 30.3156C471.801 30.1572 472.097 30.2853 472.097 30.53V33.0639C472.097 34.7022 471.38 36.2668 470.144 37.3612C443.901 60.5883 428.688 77.5865 403.686 107.635C402.283 109.321 399.659 109.315 398.246 107.638Z" fill="black"/>
  </g>
  <path id="Vector_3" d="M324.814 0.168579V243" stroke="black" stroke-width="5"/>
  <g id="Vector_4">
    <path d="M204.684 42.9705H192.435V77.1716H187.435V42.9705H175.212V38.8074H204.684V42.9705Z" fill="black"/>
    <path d="M239.626 77.1716H234.574V59.4387H215.363V77.1716H210.338V38.8074H215.363V55.3019H234.574V38.8074H239.626V77.1716Z" fill="black"/>
    <path d="M270.092 59.4387H253.577V73.0348H272.762V77.1716H248.551V38.8074H272.5V42.9705H253.577V55.3019H270.092V59.4387Z" fill="black"/>
    <path d="M61.5924 102.139V128.224C61.5749 131.843 60.4407 134.803 58.1897 137.104C55.9562 139.405 52.9202 140.696 49.0815 140.977L47.7467 141.03C43.576 141.03 40.2522 139.897 37.7741 137.631C35.2965 135.365 34.0402 132.247 34.0053 128.277V102.139H38.9783V128.119C38.9783 130.894 39.7374 133.055 41.2554 134.601C42.7734 136.129 44.9373 136.893 47.7467 136.893C50.5906 136.893 52.7631 136.129 54.2636 134.601C55.782 133.073 56.541 130.921 56.541 128.145V102.139H61.5924Z" fill="black"/>
    <path d="M74.5746 136.366H92.6346V140.503H69.5232V102.139H74.5746V136.366Z" fill="black"/>
    <path d="M117.473 106.302H105.224V140.503H100.225V106.302H88.0016V102.139H117.473V106.302Z" fill="black"/>
    <path d="M128.519 140.503H123.493V102.139H128.519V140.503Z" fill="black"/>
    <path d="M144.223 102.139L156.681 133.441L169.14 102.139H175.658V140.503H170.632V125.563L171.103 109.438L158.592 140.503H154.745L142.26 109.516L142.757 125.563V140.503H137.732V102.139H144.223Z" fill="black"/>
    <path d="M206.045 130.49H190.079L186.493 140.503H181.311L195.864 102.139H200.261L214.84 140.503H209.683L206.045 130.49ZM191.597 126.327H204.553L198.062 108.383L191.597 126.327Z" fill="black"/>
    <path d="M242.898 106.302H230.648V140.503H225.649V106.302H213.426V102.139H242.898V106.302Z" fill="black"/>
    <path d="M270.092 122.77H253.577V136.366H272.762V140.503H248.551V102.139H272.5V106.302H253.577V118.633H270.092V122.77Z" fill="black"/>
    <path d="M29.8437 169.633H17.5944V203.834H12.5952V169.633H0.37207V165.47H29.8437V169.633Z" fill="black"/>
    <path d="M64.0791 185.891C64.0791 189.65 63.4507 192.935 62.1944 195.745C60.938 198.538 59.1583 200.672 56.8548 202.148C54.5517 203.624 51.8645 204.361 48.7934 204.361C45.7923 204.361 43.1311 203.624 40.8105 202.148C38.4896 200.655 36.6837 198.538 35.3925 195.798C34.1187 193.04 33.4644 189.852 33.4295 186.233V183.466C33.4295 179.778 34.0664 176.519 35.3401 173.691C36.6139 170.863 38.411 168.702 40.732 167.209C43.0701 165.698 45.7399 164.943 48.7409 164.943C51.7949 164.943 54.4817 165.69 56.8027 167.183C59.1408 168.658 60.938 170.81 62.1944 173.638C63.4507 176.449 64.0791 179.725 64.0791 183.466V185.891ZM59.0798 183.414C59.0798 178.864 58.1722 175.377 56.3575 172.953C54.5428 170.512 52.0041 169.291 48.7409 169.291C45.5653 169.291 43.0615 170.512 41.2293 172.953C39.4146 175.377 38.481 178.75 38.4285 183.071V185.891C38.4285 190.3 39.3446 193.769 41.1768 196.299C43.0265 198.811 45.5653 200.066 48.7934 200.066C52.039 200.066 54.5517 198.881 56.3314 196.509C58.1112 194.12 59.0273 190.704 59.0798 186.26V183.414Z" fill="black"/>
    <path d="M80.9348 189.527H68.1619V185.548H80.9348V189.527Z" fill="black"/>
    <path d="M86.4311 203.834V165.47H97.1887C100.504 165.47 103.435 166.208 105.983 167.683C108.531 169.159 110.494 171.258 111.872 173.981C113.268 176.704 113.975 179.83 113.992 183.361V185.811C113.992 189.43 113.294 192.601 111.898 195.324C110.52 198.046 108.539 200.137 105.957 201.594C103.392 203.053 100.399 203.799 96.9791 203.834H86.4311ZM91.4564 169.633V199.698H96.7438C100.617 199.698 103.627 198.486 105.773 196.061C107.937 193.637 109.019 190.185 109.019 185.706V183.466C109.019 179.11 107.998 175.729 105.957 173.322C103.933 170.898 101.054 169.668 97.3193 169.633H91.4564Z" fill="black"/>
    <path d="M150.923 185.891C150.923 189.65 150.295 192.935 149.039 195.745C147.782 198.538 146.003 200.672 143.699 202.148C141.396 203.624 138.709 204.361 135.638 204.361C132.636 204.361 129.976 203.624 127.655 202.148C125.334 200.655 123.528 198.538 122.237 195.798C120.963 193.04 120.309 189.852 120.274 186.233V183.466C120.274 179.778 120.911 176.519 122.184 173.691C123.458 170.863 125.255 168.702 127.576 167.209C129.915 165.698 132.584 164.943 135.585 164.943C138.639 164.943 141.326 165.69 143.647 167.183C145.985 168.658 147.782 170.81 149.039 173.638C150.295 176.449 150.923 179.725 150.923 183.466V185.891ZM145.924 183.414C145.924 178.864 145.017 175.377 143.202 172.953C141.387 170.512 138.848 169.291 135.585 169.291C132.41 169.291 129.906 170.512 128.074 172.953C126.259 175.377 125.325 178.75 125.273 183.071V185.891C125.273 190.3 126.189 193.769 128.021 196.299C129.871 198.811 132.41 200.066 135.638 200.066C138.883 200.066 141.396 198.881 143.176 196.509C144.956 194.12 145.872 190.704 145.924 186.26V183.414Z" fill="black"/>
    <path d="M176.809 199.698H194.869V203.834H171.757V165.47H176.809V199.698Z" fill="black"/>
    <path d="M205.993 203.834H200.967V165.47H205.993V203.834Z" fill="black"/>
    <path d="M226.434 186.734C222.125 185.487 218.984 183.958 217.012 182.149C215.057 180.322 214.081 178.074 214.081 175.404C214.081 172.382 215.276 169.888 217.666 167.921C220.074 165.936 223.198 164.943 227.036 164.943C229.654 164.943 231.983 165.452 234.025 166.471C236.084 167.49 237.672 168.896 238.788 170.687C239.922 172.479 240.49 174.438 240.49 176.563H235.438C235.438 174.244 234.705 172.426 233.24 171.109C231.774 169.774 229.706 169.106 227.036 169.106C224.559 169.106 222.622 169.66 221.226 170.766C219.848 171.855 219.158 173.375 219.158 175.325C219.158 176.888 219.813 178.214 221.121 179.303C222.447 180.375 224.69 181.358 227.848 182.254C231.024 183.15 233.501 184.143 235.281 185.232C237.079 186.304 238.404 187.559 239.26 189C240.132 190.44 240.568 192.135 240.568 194.085C240.568 197.194 239.364 199.689 236.956 201.568C234.548 203.43 231.329 204.361 227.298 204.361C224.681 204.361 222.238 203.861 219.97 202.859C217.701 201.841 215.947 200.453 214.709 198.696C213.487 196.94 212.876 194.946 212.876 192.715H217.928C217.928 195.034 218.774 196.869 220.467 198.222C222.177 199.557 224.454 200.224 227.298 200.224C229.95 200.224 231.983 199.68 233.397 198.591C234.81 197.502 235.517 196.018 235.517 194.138C235.517 192.258 234.863 190.809 233.554 189.79C232.245 188.754 229.872 187.735 226.434 186.734Z" fill="black"/>
    <path d="M273.364 169.633H261.115V203.834H256.115V169.633H243.892V165.47H273.364V169.633Z" fill="black"/>
  </g>
  <defs>
    <linearGradient id="paint0_linear_152:3" x1="464.162" y1="187.591" x2="576.547" y2="187.591" gradientUnits="userSpaceOnUse">
      <stop/>
      <stop offset="1" stop-opacity="0"/>
    </linearGradient>
    <linearGradient id="paint1_linear_152:3" x1="397.527" y1="139.626" x2="579.292" y2="139.626" gradientUnits="userSpaceOnUse">
      <stop/>
      <stop offset="0.578125" stop-opacity="0.38"/>
      <stop offset="1" stop-opacity="0"/>
    </linearGradient>
    <linearGradient id="paint2_linear_152:3" x1="464.162" y1="139.339" x2="576.547" y2="139.339" gradientUnits="userSpaceOnUse">
      <stop/>
      <stop offset="1" stop-opacity="0"/>
    </linearGradient>
    <linearGradient id="paint3_linear_152:3" x1="464.162" y1="139.339" x2="576.547" y2="139.339" gradientUnits="userSpaceOnUse">
      <stop/>
      <stop offset="1" stop-opacity="0"/>
    </linearGradient>
    <linearGradient id="paint4_linear_152:3" x1="397.527" y1="91.3738" x2="579.292" y2="91.3738" gradientUnits="userSpaceOnUse">
      <stop/>
      <stop offset="0.578125" stop-opacity="0.38"/>
      <stop offset="1" stop-opacity="0"/>
    </linearGradient>
    <linearGradient id="paint5_linear_152:3" x1="397.527" y1="91.3738" x2="579.292" y2="91.3738" gradientUnits="userSpaceOnUse">
      <stop/>
      <stop offset="0.578125" stop-opacity="0.38"/>
      <stop offset="1" stop-opacity="0"/>
    </linearGradient>
    <linearGradient id="paint6_linear_152:3" x1="464.162" y1="91.0866" x2="576.547" y2="91.0866" gradientUnits="userSpaceOnUse">
      <stop/>
      <stop offset="1" stop-opacity="0"/>
    </linearGradient>
    <linearGradient id="paint7_linear_152:3" x1="464.162" y1="91.0866" x2="576.547" y2="91.0866" gradientUnits="userSpaceOnUse">
      <stop/>
      <stop offset="1" stop-opacity="0"/>
    </linearGradient>
    <linearGradient id="paint8_linear_152:3" x1="397.527" y1="43.1216" x2="579.292" y2="43.1216" gradientUnits="userSpaceOnUse">
      <stop/>
      <stop offset="0.578125" stop-opacity="0.38"/>
      <stop offset="1" stop-opacity="0"/>
    </linearGradient>
    <linearGradient id="paint9_linear_152:3" x1="397.527" y1="43.1216" x2="579.292" y2="43.1216" gradientUnits="userSpaceOnUse">
      <stop/>
      <stop offset="0.578125" stop-opacity="0.38"/>
      <stop offset="1" stop-opacity="0"/>
    </linearGradient>
  </defs>
</svg>
