<svg xmlns="http://www.w3.org/2000/svg" xmlns:xlink="http://www.w3.org/1999/xlink" viewBox="0 0 443.979 443.979">
  <path d="M310.664,77.644c-0.001,0-0.002,0-0.003,0H310.664l-116.907-0.001V25.146C193.757,11.281,182.476,0,168.611,0h-47.645c-14.839,0-26.911,12.072-26.911,26.911s12.072,26.911,26.911,26.911h12.352c5.595,0,10.146,4.552,10.146,10.146v13.674H133.32c-57.168,0-103.678,46.509-103.678,103.677v96.166v33.356c0,4.142,3.358,7.5,7.5,7.5h140.739v118.136c0,4.142,3.358,7.5,7.5,7.5h36.432c4.142,0,7.5-3.358,7.5-7.5V318.342h177.524c4.142,0,7.5-3.358,7.5-7.5V277.49v-0.003v-96.169C414.337,124.151,367.829,77.644,310.664,77.644z M399.337,181.317v88.669H366.46V148.496c0-4.142-3.358-7.5-7.5-7.5H231.7c14.704-28.68,44.58-48.352,78.964-48.352C359.558,92.644,399.337,132.422,399.337,181.317z M221.991,181.317c0-8.796,1.294-17.294,3.69-25.321h115.325l-84.797,85.82l-33.687-34.084l-0.531-0.539V181.317z M305.779,212.989l45.681-46.232v92.464L305.779,212.989z M295.235,223.66l45.774,46.326H221.991v-41.458l28.884,29.23c1.409,1.426,3.331,2.228,5.335,2.228s3.926-0.803,5.334-2.229L295.235,223.66z M133.318,38.822h-12.352c-6.568,0-11.911-5.343-11.911-11.911S114.398,15,120.966,15h47.645c5.595,0,10.146,4.552,10.146,10.146v158.818c0,5.595-4.552,10.146-10.146,10.146s-10.146-4.551-10.146-10.146V63.969C158.464,50.103,147.183,38.822,133.318,38.822z M44.642,181.32c0-48.897,39.781-88.677,88.678-88.677h10.145v91.321c0,13.866,11.281,25.146,25.146,25.146s25.146-11.28,25.146-25.146V92.643h63.242c-29.955,18.196-50.008,51.137-50.008,88.674v88.669H44.642V181.32z M214.313,428.979h-21.432V318.342h21.432V428.979z M44.642,303.342v-18.356l354.695,0.003v18.353H44.642z"/>
</svg>