<svg width="562" height="484" viewBox="0 0 562 484" fill="none" xmlns="http://www.w3.org/2000/svg" id="me">
  <path d="M372.323 314.344L377.356 303.2C383.274 303.785 385.125 306.206 387.687 311.577C392.905 307.001 398.713 296.864 398.713 296.864M372.323 314.344C372.323 314.344 372.323 322.808 373.127 330.761C373.486 334.308 374.004 337.753 374.754 340.301C376.957 344.584 378.66 347.687 380.788 350.499C383.036 353.469 385.757 356.114 390.041 359.48M372.323 314.344L374.754 278.571M390.041 359.48C428.515 361.574 450.741 368.079 487.664 386.861C487.664 386.861 510.119 397.286 523.715 409.105C547.349 429.649 559.362 482.768 559.362 482.768M390.041 359.48C378.964 391.044 368.961 403.048 344.754 413.767C310.006 432.023 281.833 438.774 258.456 430.085C252.336 427.724 247.291 424.057 241.115 418.438C220.714 399.877 211.074 374.202 207.606 349.006M3.24951 482.768C3.24951 482.768 21.1865 387.826 74.1246 373.077C127.063 358.328 154.99 355.619 207.606 349.006M207.606 349.006C221.165 346.781 226.774 342.695 235.299 333.314L238.037 314.344M238.037 314.344L229.201 296.364C218.35 300.73 214.37 303.853 208.913 309.945C208.217 304.092 206.857 301.075 201.945 296.364C190.324 296.837 185.834 299.83 179.376 307.246C178.183 299.06 178.683 294.413 181.897 286.041C174.263 291.85 171.491 292.389 167.504 293.164C165.73 293.509 163.715 293.9 160.924 294.824C162.428 292.307 163.641 290.511 164.602 289.087C167.928 284.162 168.242 283.698 167.129 273.318C164.408 278.727 161.81 280.312 158.421 282.379C156.632 283.471 154.622 284.697 152.257 286.692M238.037 314.344L236.451 273.318M398.713 296.286C400.005 302.236 412.71 304.017 415.234 309.231C415.234 309.231 418.357 292.66 424.824 286.355C425.979 286.773 427.061 287.129 428.075 287.463L428.077 287.464L428.078 287.464L428.08 287.465C434.055 289.433 436.138 293.024 438.498 301.345C439.362 296.607 439.909 291.476 439.09 289.215C438.146 286.611 437.881 283.551 440.488 279.86C443.208 280.941 445.284 282.157 447.636 282.281C451.303 282.475 454.545 282.646 457.429 286.355C455.37 279.599 451.698 274.357 451.698 274.357C451.698 274.357 458.337 270.637 465.537 277.13C465.537 277.13 455.63 269.812 453.544 263.822C450.01 253.673 449.45 249.184 448.532 241.828C448.189 239.081 447.796 235.933 447.18 231.942C445.586 221.615 445.672 214.51 445.758 207.451C445.849 199.922 445.94 192.443 443.99 181.159C441.443 166.419 438.927 154.05 435.381 141.951C435.381 141.951 442.138 153.604 446.821 166.538C448.944 180.093 449.036 196.207 449.036 196.207C449.036 196.207 450.088 186.932 449.478 174.999C450.222 177.87 450.773 180.694 451.035 183.359C452.388 197.142 447.18 218.606 447.18 218.606C447.18 218.606 455.519 195.42 454.285 180.18C453.651 172.358 450.252 163.613 446.344 155.858C438.448 128.864 417.145 96.9363 417.145 96.9363M392.385 233.243C394.106 235.998 406.129 233.077 409.907 225.509C411.745 221.827 413.33 218.999 414.801 216.375L414.803 216.373M392.385 233.243L394.791 223.759L398.74 202.156L400.902 185.797M392.385 233.243C388.013 253.279 382.421 267.516 374.754 278.571M415.376 171.088C407.642 172.127 400.902 185.797 400.902 185.797M415.376 171.088L415.425 171.081M415.376 171.088C415.392 171.086 415.409 171.084 415.425 171.081M400.902 185.797C400.902 185.797 397.074 149.196 397.074 144.787C397.074 133.63 386.005 118.864 386.005 118.864C386.005 118.864 386.187 103.842 384.181 94.5796C381.68 83.0317 372.827 66.8128 372.827 66.8128C347.562 51.161 331.72 45.7309 300.502 41.8885M223.424 244.783C216.106 245.42 212.199 244.212 205.784 237.703C204.817 236.722 203.897 235.742 203.017 234.753C203.017 234.753 186.636 215.813 183.346 200.443C181.977 194.047 179.751 189.842 181.897 183.703C183.516 179.072 185.376 176.272 189.438 174.011C195.325 170.734 206.263 176.185 206.263 176.185M223.424 244.783C226.989 257.987 229.944 262.888 236.451 273.318M223.424 244.783L220.526 234.753L212.38 207.766L207.254 192.466C206.708 187.362 206.401 181.795 206.263 176.185M236.451 273.318L244.283 285.06C252.899 296.812 267.433 313.3 281.765 314.344C301.621 315.789 309.947 318.876 329.658 312.686C349.991 302.803 364.301 293.644 374.754 278.571M300.502 41.8885C302.678 46.661 304.968 51.5312 307.698 56.182C314.45 67.6796 352.806 74.6026 353.111 73.9927C352.699 77.1009 307.698 64.4793 307.698 64.4793C300.21 63.7141 281.911 49.3386 278.984 41.9212C258.568 47.8978 248.797 51.7725 229.672 61.4769C219.785 73.364 216.552 81.4254 212.645 96.9363C212.796 100.038 213.07 105.702 214.395 111.071C215.592 115.927 213.928 119.327 211.933 123.402C210.572 126.182 209.057 129.277 208.192 133.362C207.686 132.613 205.736 154.716 206.263 176.185M300.502 41.8885C295.982 14.3652 287.86 11.82 272.417 9.48482M152.257 286.692C154.977 283.972 160.061 277.797 163.334 267.129C165.36 260.527 165.786 256.145 166.225 251.622C166.836 245.32 167.475 238.745 172.504 225.509C181.143 202.772 172.106 172.624 171.177 170.388C170.248 168.152 155.795 175.343 149.786 192.546L157.179 170.842C153.774 173.547 150.317 176.259 147.507 178.385C151.649 173.897 155.731 169.333 159.351 164.466L166.054 144.787C162.298 145.788 158.625 147.113 154.98 148.428C146.253 151.576 137.689 154.666 128.534 153.105C128.534 153.105 158.168 149.976 167.715 135.531C169.335 133.081 170.605 130.712 171.638 128.394C173.083 125.149 174.063 122.001 174.884 118.864C175.301 117.269 175.68 115.686 176.059 114.1L176.06 114.098L176.06 114.094L176.061 114.092C177.69 107.28 179.333 100.411 184.102 92.2887C186.595 88.0424 187.523 84.5481 188.382 81.3123C189.461 77.2521 190.431 73.5989 194.249 69.3778C200.165 62.8382 203.258 56.7477 206.165 51.0209C210.091 43.2897 213.68 36.2214 223.424 29.6061C222.265 28.0221 239.786 18.8909 257.305 12.4841C260.899 11.1695 264.494 9.96951 267.927 8.97304C269.51 9.04221 271.004 9.21549 272.417 9.48482M152.257 286.692C151.114 287.835 150.388 288.367 150.388 288.367C151.035 287.753 151.658 287.198 152.257 286.692ZM415.425 171.081C419.707 170.506 420.711 170.371 423.955 173.459C429.417 178.66 426.482 188.865 423.955 196.207C420.957 204.915 418.586 209.566 415.951 214.317M272.417 9.48482C272.417 9.48482 328.901 -7.61009 360.681 15.9231C389.2 37.0412 400.072 60.3438 416.396 95.3298M417.145 96.9363L416.396 95.3298M417.145 96.9363C416.894 96.3981 416.644 95.8626 416.396 95.3298M414.803 216.373L414.804 216.371M414.803 216.373C414.807 216.365 414.811 216.358 414.815 216.35M414.804 216.371L414.815 216.35M414.804 216.371C415.193 215.676 415.575 214.996 415.951 214.317M414.804 216.371C414.808 216.364 414.811 216.357 414.815 216.35M415.951 214.317C415.578 214.989 415.201 215.663 414.815 216.35"/>
</svg>