<svg width="5337" height="1094" viewBox="0 0 5337 1094" fill="none" xmlns="http://www.w3.org/2000/svg">
<path d="M0.266724 1.32397C0.266724 1.32397 946.156 45.9402 1474.23 194.289C1775.43 278.904 2137.77 655.728 2512.01 655.728C2771.65 655.728 3044.63 598.722 3033.11 454.034C3021.3 305.834 2717.76 234.061 2451.85 236.238C2165.1 238.586 1983.78 329.58 1850.24 471.153C1573.61 764.406 2318.39 1024.97 2903.07 1083.61C3556.42 1149.13 3978.58 857.576 4361.98 597C4528.01 484.163 4581.59 336.916 4843.28 336.916C5104.97 336.916 5401.71 457.511 5324.57 597C5103.12 997.417 3081.84 996.205 1599.2 1036.58C959.304 1054 0.266724 974.788 0.266724 974.788" stroke="black"/>
</svg>
