<svg width="1401" height="352" viewBox="0 0 1401 352" fill="none" xmlns="http://www.w3.org/2000/svg">
<g id="grouped-smoke-clouds">
<g id="smoke-clouds-1">
<path id="bright-trace" d="M529.715 326.449L541.662 328.056C538.291 328.196 534.264 327.671 529.715 326.449L217.538 284.46C301.335 262.412 340.286 219.315 351.718 156.142C354.358 141.553 356.538 81.6455 356.538 59.5317C356.538 59.5317 377.777 110.049 386.193 139.621C420.411 259.86 492.523 316.455 529.715 326.449Z" fill="#D7D7D7"/>
<path id="bright-cloud" d="M202.81 235.663C470.804 267.424 399.323 -119.327 148.058 63.6584C24.7561 7.06078 -63.3252 201.862 61.0143 253.061C113.816 269.989 144.608 268.526 202.81 235.663Z" fill="#D7D7D7"/>
<path id="dark-cloud" d="M236.397 332.531C495.574 357.371 330.697 36.8409 152.917 199.946C-0.57515 190.677 -34.069 320.716 101.242 332.531C146.603 358.595 176.402 357.874 236.397 332.531Z" fill="#A1A1A1"/>
<path id="dark-trace" d="M545.048 328.843H300.752C300.752 328.843 362.456 324.091 367.849 271.468C371.973 231.226 345.346 195.754 342.684 192.322C342.613 192.231 342.542 192.14 342.471 192.05C342.471 192.05 342.545 192.142 342.684 192.322C409.626 277.635 468.716 318.889 545.048 328.843Z" fill="#A1A1A1"/>
</g>
<g id="smoke-clouds-2">
<path id="bright-cloud_2" d="M979.129 325.041L991.076 326.648C987.705 326.789 983.678 326.263 979.129 325.041L666.952 283.052C750.749 261.004 789.7 217.907 801.132 154.734C803.772 140.146 805.952 80.2378 805.952 58.124C805.952 58.124 827.191 108.642 835.607 138.213C869.825 258.452 941.937 315.047 979.129 325.041Z" fill="#D7D7D7"/>
<path id="bright-cloud_3" d="M593.967 54.553C576.873 -4.31202 362.744 21.0994 353.944 54.553C227.815 36.9537 216.082 167.761 329.87 209.011C381.869 230.031 613.921 251.934 652.224 234.256C920.218 266.017 845.233 -128.433 593.967 54.553Z" fill="#D7D7D7"/>
<path id="dark-cloud_2" d="M602.331 198.538C585.237 139.673 475.638 118.005 411.839 147.584C216.082 103.23 232.215 324.689 337.35 314.016C345.144 339.355 424.342 331.124 447.995 314.016C499.993 335.036 647.508 348.802 685.811 331.124C944.987 355.964 780.111 35.4336 602.331 198.538Z" fill="#A1A1A1"/>
<path id="dark-trace_2" d="M994.462 327.436H750.166C750.166 327.436 811.871 322.684 817.263 270.06C821.387 229.819 794.76 194.347 792.098 190.914C792.027 190.824 791.956 190.733 791.885 190.643C791.885 190.643 791.959 190.734 792.098 190.914C859.04 276.227 918.131 317.482 994.462 327.436Z" fill="#A1A1A1"/>
</g>
<g id="smoke-clouds-3">
<path id="bright-trace_2" d="M1384.72 325.041L1396.67 326.648C1393.3 326.789 1389.27 326.263 1384.72 325.041L1072.54 283.052C1156.34 261.004 1195.29 217.907 1206.72 154.734C1209.36 140.146 1211.54 80.2378 1211.54 58.124C1211.54 58.124 1232.78 108.642 1241.2 138.213C1275.42 258.452 1347.53 315.047 1384.72 325.041Z" fill="#D7D7D7"/>
<path id="bright-cloud_4" d="M764.589 16.7644C646.697 -18.7078 549.048 7.47357 509.115 54.5532C284.943 12.8806 213.093 216.779 397.573 197.36C414.081 211.505 576.304 245.745 735.461 209.011C787.459 230.031 1019.51 251.934 1057.81 234.256C1325.81 266.017 1250.82 -128.433 999.558 54.5531C982.464 -4.31195 828.388 -12.8148 764.589 16.7644Z" fill="#D7D7D7"/>
<path id="dark-cloud_3" d="M340.897 214.676C304.421 198.538 245.112 209.343 251.987 232.914C257.317 251.19 304.421 251.152 304.421 251.152C301.175 257.421 344.331 280.691 365.063 269.268C370.14 282.807 486.401 301.387 503.649 286.793C520.157 300.938 694.429 350.75 853.586 314.016C905.584 335.036 1053.1 348.802 1091.4 331.124C1350.58 355.964 1185.7 35.4336 1007.92 198.538C990.828 139.673 881.229 118.005 817.43 147.584C699.537 112.112 584.709 130.923 544.776 178.002C484.533 168.243 352.295 187.319 340.897 214.676Z" fill="#A1A1A1"/>
<path id="dark-trace_3" d="M1400.05 327.436H1155.76C1155.76 327.436 1217.46 322.684 1222.85 270.06C1226.98 229.819 1200.35 194.347 1197.69 190.914C1197.62 190.824 1197.55 190.733 1197.48 190.643C1197.48 190.643 1197.55 190.734 1197.69 190.914C1264.63 276.227 1323.72 317.482 1400.05 327.436Z" fill="#A1A1A1"/>
</g>
</g>
</svg>
