<svg id="loader-logo" width="2507" height="723" viewBox="0 0 2507 723" fill="none" xmlns="http://www.w3.org/2000/svg">
  <g id="grouped-smoke-clouds">
    <g id="smoke-clouds-1">
      <path id="bright-trace" d="M529.715 497.452L541.662 499.059C538.291 499.2 534.264 498.675 529.715 497.452L217.538 455.463C301.335 433.415 340.286 390.318 351.718 327.145C354.358 312.557 356.538 252.649 356.538 230.535C356.538 230.535 377.777 281.053 386.193 310.624C420.411 430.863 492.523 487.458 529.715 497.452Z" fill="#D7D7D7"/>
      <path id="bright-cloud" d="M202.81 406.666C470.804 438.428 399.323 51.6761 148.058 234.662C24.7561 178.064 -63.3252 372.866 61.0143 424.064C113.816 440.992 144.608 439.529 202.81 406.666Z" fill="#D7D7D7"/>
      <path id="dark-cloud" d="M236.397 503.535C495.574 528.375 330.697 207.844 152.917 370.949C-0.57515 361.681 -34.069 491.72 101.242 503.535C146.603 529.599 176.402 528.878 236.397 503.535Z" fill="#A1A1A1"/>
      <path id="dark-trace" d="M545.048 499.846H300.752C300.752 499.846 362.456 495.095 367.849 442.471C371.973 402.229 345.346 366.758 342.684 363.325C342.613 363.234 342.542 363.144 342.471 363.053C342.471 363.053 342.545 363.145 342.684 363.325C409.626 448.638 468.716 489.892 545.048 499.846Z" fill="#A1A1A1"/>
    </g>
    <g id="smoke-clouds-2">
      <path id="bright-cloud_2" d="M979.129 496.044L991.076 497.651C987.705 497.792 983.678 497.267 979.129 496.044L666.952 454.056C750.749 432.007 789.7 388.91 801.132 325.737C803.772 311.149 805.952 251.241 805.952 229.127C805.952 229.127 827.191 279.645 835.607 309.217C869.825 429.456 941.937 486.051 979.129 496.044Z" fill="#D7D7D7"/>
      <path id="bright-cloud_3" d="M593.967 225.556C576.873 166.691 362.744 192.103 353.944 225.556C227.815 207.957 216.082 338.764 329.87 380.014C381.869 401.034 613.921 422.937 652.224 405.259C920.218 437.02 845.233 42.5707 593.967 225.556Z" fill="#D7D7D7"/>
      <path id="dark-cloud_2" d="M602.331 369.542C585.237 310.677 475.638 289.008 411.839 318.587C216.082 274.233 232.215 495.692 337.35 485.02C345.144 510.359 424.342 502.127 447.995 485.02C499.993 506.04 647.508 519.805 685.811 502.127C944.987 526.967 780.111 206.437 602.331 369.542Z" fill="#A1A1A1"/>
      <path id="dark-trace_2" d="M994.462 498.439H750.166C750.166 498.439 811.871 493.688 817.263 441.064C821.387 400.822 794.76 365.35 792.098 361.918C792.027 361.827 791.956 361.737 791.885 361.646C791.885 361.646 791.959 361.738 792.098 361.918C859.04 447.231 918.131 488.485 994.462 498.439Z" fill="#A1A1A1"/>
    </g>
    <g id="smoke-clouds-3">
      <path id="bright-trace_2" d="M1384.72 496.045L1396.67 497.652C1393.3 497.793 1389.27 497.267 1384.72 496.045L1072.54 454.056C1156.34 432.008 1195.29 388.911 1206.72 325.738C1209.36 311.149 1211.54 251.242 1211.54 229.128C1211.54 229.128 1232.78 279.645 1241.2 309.217C1275.42 429.456 1347.53 486.051 1384.72 496.045Z" fill="#D7D7D7"/>
      <path id="bright-cloud_4" d="M764.589 187.768C646.697 152.296 549.048 178.477 509.115 225.557C284.943 183.884 213.093 387.782 397.573 368.363C414.081 382.508 576.304 416.748 735.461 380.014C787.459 401.034 1019.51 422.937 1057.81 405.259C1325.81 437.02 1250.82 42.5708 999.558 225.557C982.464 166.691 828.388 158.189 764.589 187.768Z" fill="#D7D7D7"/>
      <path id="dark-cloud_3" d="M340.897 385.68C304.421 369.542 245.112 380.347 251.987 403.918C257.317 422.194 304.421 422.155 304.421 422.155C301.175 428.424 344.331 451.695 365.063 440.271C370.14 453.81 486.401 472.391 503.649 457.797C520.157 471.942 694.429 521.754 853.586 485.02C905.584 506.04 1053.1 519.805 1091.4 502.127C1350.58 526.967 1185.7 206.437 1007.92 369.542C990.828 310.677 881.229 289.008 817.43 318.587C699.537 283.115 584.709 301.926 544.776 349.006C484.533 339.246 352.295 358.323 340.897 385.68Z" fill="#A1A1A1"/>
      <path id="dark-trace_3" d="M1400.05 498.439H1155.76C1155.76 498.439 1217.46 493.688 1222.85 441.064C1226.98 400.822 1200.35 365.35 1197.69 361.918C1197.62 361.827 1197.55 361.737 1197.48 361.646C1197.48 361.646 1197.55 361.738 1197.69 361.918C1264.63 447.231 1323.72 488.485 1400.05 498.439Z" fill="#A1A1A1"/>
    </g>
  </g>
  <g id="dark-logo">
    <g id="text">
      <path id="dark-L" d="M2063.91 206.727H1993.7L1762.37 678.537H2030.6L2049.63 636.508H1858.49L2063.91 206.727Z" fill="#4E4E4E"/>
      <path id="ead" d="M2166.67 532.924C2179.08 532.924 2188.41 536.762 2194.67 544.439C2201.17 551.955 2199.15 566.748 2188.58 588.818L2181.69 603.212H2126.11L2132.42 590.018H2148.65L2156 574.665C2160.9 564.429 2163.36 557.793 2163.4 554.754C2163.69 551.555 2162.18 549.716 2158.86 549.237L2166.67 532.924ZM2149.06 549.716C2146.75 549.716 2143.96 550.916 2140.68 553.315C2137.59 555.714 2134.7 559.712 2132.02 565.309L2091.6 649.75C2088.99 655.188 2088.09 659.106 2088.89 661.505C2089.87 663.904 2091.52 665.103 2093.82 665.103L2085.55 682.375C2071.72 682.375 2061.68 678.537 2055.43 670.86C2049.43 663.024 2048.88 653.988 2053.77 643.753L2088.57 571.066C2093.47 560.831 2102.63 551.875 2116.06 544.199C2129.66 536.522 2143.38 532.684 2157.21 532.684L2149.06 549.716ZM2102.75 665.343C2108.02 664.703 2112.46 662.464 2116.07 658.626C2119.68 654.788 2123.55 648.551 2127.69 639.915L2133.77 627.2H2167.28C2157.18 648.311 2146.17 662.784 2134.26 670.62C2122.43 678.297 2109.25 682.135 2094.71 682.135L2102.75 665.343ZM2214.91 673.739C2211.18 674.858 2208.46 675.738 2206.73 676.378C2205.01 677.017 2203.07 677.737 2200.91 678.537C2198.83 679.176 2196.39 679.656 2193.57 679.976C2190.76 680.296 2188.02 680.456 2185.37 680.456C2178.1 680.456 2172.25 678.777 2167.83 675.418C2163.44 671.26 2164.42 662.544 2170.77 649.27L2176.63 637.036C2181.38 627.121 2185.93 620.564 2190.3 617.365C2194.85 614.167 2203.24 610.328 2215.49 605.85C2227.92 601.372 2240.51 597.294 2253.26 593.616L2247.75 605.131C2240.34 609.129 2234.36 612.727 2229.82 615.926C2226.29 618.485 2223.62 620.723 2221.82 622.643C2217.85 627.6 2214.18 633.598 2210.81 640.634C2206.91 648.791 2204.91 654.628 2204.82 658.146C2204.74 660.545 2205.45 662.384 2206.97 663.664C2208.66 664.943 2210.75 665.583 2213.23 665.583L2219.16 664.863L2214.91 673.739ZM2283.69 531.725C2297.52 531.725 2307.47 535.563 2313.55 543.239C2319.8 550.916 2320.48 559.872 2315.58 570.107L2263.68 678.537H2222.99L2277.65 564.35C2280.33 558.752 2281.18 554.754 2280.2 552.355C2279.39 549.956 2277.84 548.757 2275.54 548.757L2283.69 531.725ZM2265.96 548.757C2263.83 548.757 2261.22 549.956 2258.12 552.355C2255.2 554.754 2252.4 558.752 2249.72 564.35L2240.65 583.301H2204.48L2210.79 570.107C2215.69 559.872 2224.24 550.916 2236.42 543.239C2248.78 535.563 2261.35 531.725 2274.11 531.725L2265.96 548.757ZM2385.64 678.537H2346.55L2431.64 500.779H2470.74L2385.64 678.537ZM2404.19 538.681C2393.31 534.363 2384.68 532.204 2378.3 532.204C2370.32 532.204 2362.19 534.363 2353.92 538.681C2345.83 542.999 2339.02 550.916 2333.51 562.43L2291.14 650.95C2285.63 662.464 2284.85 670.381 2288.81 674.699C2292.95 679.017 2299.01 681.176 2306.99 681.176C2313.37 681.176 2324.07 679.017 2339.08 674.699L2343.79 664.863C2337.75 665.983 2333.28 665.503 2330.38 663.424C2327.47 661.345 2328.28 655.587 2332.8 646.152L2370.58 567.228C2375.09 557.793 2379.8 552.035 2384.69 549.956C2389.59 547.877 2394.52 547.397 2399.48 548.517L2404.19 538.681Z" fill="#4E4E4E"/>
      <path id="bright-L" d="M1742.5 31.458H1672.29L1440.95 503.268H1709.19L1728.22 461.239H1537.08L1742.5 31.458Z" fill="#A1A1A1"/>
      <path id="ambo" d="M1774.01 498.47C1770.28 499.589 1767.56 500.469 1765.83 501.109C1764.11 501.748 1762.17 502.468 1760.01 503.268C1757.93 503.907 1755.49 504.387 1752.67 504.707C1749.86 505.027 1747.13 505.187 1744.47 505.187C1737.2 505.187 1731.35 503.508 1726.93 500.149C1722.54 495.991 1723.52 487.275 1729.87 474.001L1735.73 461.767C1740.48 451.851 1745.03 445.295 1749.4 442.096C1753.95 438.897 1762.34 435.059 1774.59 430.581C1787.02 426.103 1799.61 422.025 1812.37 418.347L1806.85 429.862C1799.44 433.86 1793.47 437.458 1788.92 440.657C1785.39 443.215 1782.72 445.454 1780.92 447.374C1776.95 452.331 1773.28 458.328 1769.91 465.365C1766.01 473.521 1764.01 479.359 1763.92 482.877C1763.84 485.276 1764.55 487.115 1766.07 488.395C1767.76 489.674 1769.85 490.314 1772.33 490.314L1778.26 489.594L1774.01 498.47ZM1842.79 356.456C1856.62 356.456 1866.57 360.294 1872.65 367.97C1878.9 375.647 1879.58 384.603 1874.68 394.838L1822.78 503.268H1782.09L1836.75 389.08C1839.43 383.483 1840.28 379.485 1839.3 377.086C1838.5 374.687 1836.94 373.488 1834.64 373.488L1842.79 356.456ZM1825.06 373.488C1822.93 373.488 1820.32 374.687 1817.22 377.086C1814.3 379.485 1811.5 383.483 1808.82 389.08L1799.75 408.032H1763.58L1769.9 394.838C1774.79 384.603 1783.34 375.647 1795.52 367.97C1807.89 360.294 1820.45 356.456 1833.22 356.456L1825.06 373.488ZM1877.72 503.268H1838.63L1907.3 359.814H1946.39L1877.72 503.268ZM1954.25 363.412C1969.26 359.094 1979.95 356.935 1986.34 356.935C1994.31 356.935 2000.28 359.094 2004.25 363.412C2008.38 367.73 2007.7 375.647 2002.19 387.161L1946.61 503.268H1907.25L1960.53 391.959C1965.04 382.524 1965.85 376.766 1962.94 374.687C1960.04 372.608 1955.57 372.128 1949.54 373.248L1954.25 363.412ZM2020.47 363.412C2035.48 359.094 2046.18 356.935 2052.56 356.935C2060.54 356.935 2066.51 359.094 2070.47 363.412C2074.61 367.73 2073.92 375.647 2068.41 387.161L2012.83 503.268H1973.47L2026.75 391.959C2031.27 382.524 2032.07 376.766 2029.17 374.687C2026.26 372.608 2021.79 372.128 2015.76 373.248L2020.47 363.412ZM2117.06 325.51H2156.16L2071.07 503.268H2031.97L2117.06 325.51ZM2147.32 363.412C2162.33 359.094 2173.03 356.935 2179.41 356.935C2187.39 356.935 2193.36 359.094 2197.32 363.412C2201.46 367.73 2200.77 375.647 2195.26 387.161L2152.89 475.68C2147.38 487.195 2140.49 495.112 2132.21 499.43C2124.12 503.748 2116.08 505.907 2108.1 505.907C2101.72 505.907 2093.09 503.748 2082.21 499.43L2086.92 489.594C2091.88 490.714 2096.81 490.234 2101.71 488.155C2106.6 486.076 2111.31 480.318 2115.82 470.883L2153.6 391.959C2158.12 382.524 2158.93 376.766 2156.02 374.687C2153.12 372.608 2148.65 372.128 2142.61 373.248L2147.32 363.412ZM2266.98 374.447C2264.68 374.447 2261.89 375.647 2258.61 378.046C2255.51 380.444 2252.63 384.443 2249.95 390.04L2209.53 474.481C2206.92 479.919 2206.02 483.837 2206.82 486.236C2207.8 488.634 2209.45 489.834 2211.75 489.834L2203.48 507.106C2189.65 507.106 2179.61 503.268 2173.36 495.591C2167.36 487.755 2166.81 478.719 2171.7 468.484L2206.5 395.797C2211.4 385.562 2220.56 376.606 2233.99 368.93C2247.59 361.253 2261.31 357.415 2275.14 357.415L2266.98 374.447ZM2276.56 374.447C2278.86 374.447 2280.42 375.647 2281.22 378.046C2282.2 380.444 2281.35 384.443 2278.67 390.04L2238.25 474.481C2235.65 479.919 2232.71 483.837 2229.43 486.236C2226.33 488.634 2223.63 489.834 2221.32 489.834L2213.06 507.106C2226.89 507.106 2240.51 503.268 2253.94 495.591C2267.62 487.755 2276.91 478.719 2281.81 468.484L2316.61 395.797C2321.5 385.562 2320.83 376.606 2314.57 368.93C2308.5 361.253 2298.54 357.415 2284.71 357.415L2276.56 374.447Z" fill="#A1A1A1"/>
    </g>
    <g id="full-tyre-mask-group">
      <mask id="mask0_352_958" style="mask-type:alpha" maskUnits="userSpaceOnUse" x="1241" y="0" width="412" height="510">
        <g id="back-rectangle">
          <path d="M1400.48 509.045H1241.24V0.402069L1652.01 0.402069L1400.48 509.045Z" fill="#000747"/>
        </g>
      </mask>
      <g mask="url(#mask0_352_958)">
        <g id="full-tyre">
          <path id="tyre" d="M1784.31 267.363C1784.31 410.957 1667.91 527.363 1524.31 527.363C1380.72 527.363 1264.31 410.957 1264.31 267.363C1264.31 123.769 1380.72 7.36279 1524.31 7.36279C1667.91 7.36279 1784.31 123.769 1784.31 267.363ZM1302.64 267.363C1302.64 389.79 1401.89 489.037 1524.31 489.037C1646.74 489.037 1745.99 389.79 1745.99 267.363C1745.99 144.935 1646.74 45.6885 1524.31 45.6885C1401.89 45.6885 1302.64 144.935 1302.64 267.363Z" fill="#4E4E4E"/>
          <g id="rim">
            <path fill-rule="evenodd" clip-rule="evenodd" d="M1744.31 267.363C1744.31 307.482 1733.58 345.093 1714.82 377.478C1676.76 443.172 1605.7 487.363 1524.31 487.363C1442.93 487.363 1371.87 443.172 1333.81 377.478C1315.05 345.093 1304.31 307.482 1304.31 267.363C1304.31 227.405 1314.97 189.935 1333.59 157.639C1371.59 91.7285 1442.77 47.3628 1524.31 47.3628C1605.86 47.3628 1677.04 91.7285 1715.04 157.639C1733.66 189.935 1744.31 227.405 1744.31 267.363ZM1388.1 150.322L1388.1 150.321L1388.1 150.32L1388.1 150.32C1384.41 149.044 1380.7 147.765 1377 146.513C1405.73 111.457 1446.69 86.8383 1493.36 79.2025C1492.57 83.1719 1491.8 87.1563 1491.04 91.1261L1491.04 91.1322L1491.04 91.1332L1491.04 91.1344C1486.16 116.441 1481.4 141.15 1470.55 157.549C1467.33 162.418 1462.02 165.487 1456.19 165.843C1436.48 167.046 1412.56 158.778 1388.1 150.322ZM1503.14 77.863C1499.85 78.2267 1496.6 78.6739 1493.36 79.2025C1493.7 77.5092 1494.05 75.8185 1494.4 74.133C1494.83 72.0499 1493.03 70.1804 1490.94 70.5824C1466.83 75.2214 1444.53 83.0667 1424.62 94.6262C1404.65 106.085 1386.7 121.5 1370.62 140.059C1369.23 141.667 1369.95 144.163 1371.97 144.83C1373.65 145.383 1375.32 145.945 1377 146.513C1374.87 149.117 1372.8 151.779 1370.8 154.496C1367.44 153.081 1364.87 152.007 1363.41 151.397C1362.58 151.052 1361.66 151.32 1361.11 152.03C1359.68 153.879 1358.46 155.519 1357.31 157.137C1393.09 102.906 1454.53 67.1277 1524.31 67.1277C1594.1 67.1277 1655.54 102.906 1691.32 157.138C1690.17 155.519 1688.95 153.879 1687.52 152.03C1686.97 151.32 1686.05 151.052 1685.22 151.398C1683.76 152.007 1681.19 153.081 1677.83 154.496C1675.83 151.779 1673.76 149.117 1671.63 146.513C1673.31 145.945 1674.98 145.383 1676.66 144.83C1678.68 144.163 1679.4 141.667 1678.01 140.059C1661.93 121.5 1643.98 106.085 1624.01 94.6263C1604.1 83.0667 1581.8 75.2214 1557.69 70.5824C1555.6 70.1804 1553.8 72.0499 1554.23 74.133C1554.58 75.8186 1554.93 77.5092 1555.27 79.2025C1552.03 78.6739 1548.78 78.2267 1545.49 77.863C1545.05 74.3207 1544.7 71.6166 1544.5 70.0717C1544.39 69.1811 1543.7 68.5218 1542.81 68.3995C1536.09 67.4762 1531.77 67.2028 1524.31 67.1393C1516.86 67.2028 1512.54 67.4761 1505.82 68.3995C1504.93 68.5218 1504.24 69.181 1504.13 70.0717C1503.93 71.6166 1503.58 74.3207 1503.14 77.863ZM1503.14 77.863C1510.09 77.0929 1517.16 76.6976 1524.31 76.6976C1531.47 76.6976 1538.54 77.0929 1545.49 77.863C1548.14 98.8668 1554.31 149.34 1554.31 162.363C1554.31 178.931 1540.88 192.363 1524.31 192.363C1507.75 192.363 1494.31 178.931 1494.31 162.363C1494.31 149.34 1500.49 98.8668 1503.14 77.863ZM1555.27 79.2025C1601.94 86.8382 1642.9 111.457 1671.63 146.513C1667.93 147.765 1664.23 149.044 1660.54 150.32L1660.53 150.322C1636.07 158.778 1612.15 167.046 1592.44 165.843C1586.61 165.487 1581.3 162.418 1578.08 157.549C1567.23 141.15 1562.47 116.441 1557.59 91.1344C1556.83 87.1619 1556.06 83.1747 1555.27 79.2025ZM1698.98 191.242C1682.01 204.09 1641.58 234.485 1630.33 240.97C1615.98 249.244 1597.63 244.316 1589.36 229.961C1581.08 215.607 1586.01 197.262 1600.37 188.988C1611.62 182.501 1658.22 162.734 1677.83 154.496C1686.17 165.851 1693.28 178.165 1698.98 191.242ZM1703.64 178.584C1716.87 205.333 1724.31 235.467 1724.31 267.34C1724.31 299.422 1716.78 329.741 1703.38 356.62C1704.18 354.879 1704.96 353.058 1705.81 350.97C1706.15 350.139 1705.93 349.212 1705.21 348.667C1703.96 347.705 1701.74 346.012 1698.82 343.798C1700.12 340.83 1701.35 337.822 1702.5 334.777C1703.83 335.952 1705.16 337.13 1706.48 338.311C1708.07 339.729 1710.59 339.106 1711.29 337.096C1719.35 313.904 1723.75 290.659 1723.72 267.637C1723.81 244.615 1719.48 221.372 1711.47 198.162C1710.78 196.151 1708.26 195.521 1706.67 196.936C1705.35 198.107 1704.03 199.276 1702.7 200.441C1701.54 197.336 1700.3 194.268 1698.98 191.242C1701.9 189.03 1704.13 187.338 1705.39 186.378C1706.1 185.834 1706.33 184.907 1705.99 184.076C1705.17 182.051 1704.41 180.277 1703.64 178.584ZM1677.59 380.501C1685.96 369.163 1693.1 356.863 1698.82 343.798C1681.88 330.927 1641.48 300.459 1630.24 293.955C1615.9 285.658 1597.55 290.557 1589.25 304.898C1580.96 319.24 1585.86 337.592 1600.2 345.889C1611.44 352.393 1657.99 372.23 1677.59 380.501ZM1691 378.016C1695.55 371.169 1699.69 364.025 1703.38 356.62C1701.77 360.113 1700.1 363.279 1697.64 367.609C1695.12 371.878 1693.22 374.899 1691 378.016ZM1529.84 467.478C1597.13 465.653 1656.13 430.551 1691 378.016C1689.89 379.591 1688.69 381.19 1687.29 382.987C1686.74 383.695 1685.82 383.962 1684.99 383.615C1683.53 383.003 1680.96 381.923 1677.59 380.501C1675.64 383.141 1673.63 385.728 1671.55 388.26C1667.85 387.007 1664.15 385.727 1660.46 384.451L1660.46 384.45L1660.46 384.449L1660.45 384.448L1660.45 384.447L1660.45 384.447L1660.45 384.446L1660.45 384.445C1635.99 375.983 1612.07 367.71 1592.36 368.908C1586.54 369.262 1581.22 372.33 1578 377.198C1567.15 393.594 1562.38 418.302 1557.5 443.608L1557.5 443.613C1556.73 447.568 1555.97 451.538 1555.18 455.493C1551.98 456.015 1548.75 456.457 1545.5 456.817C1548.15 435.786 1554.31 385.377 1554.31 372.363C1554.31 355.794 1540.88 342.363 1524.31 342.363C1507.75 342.363 1494.31 355.794 1494.31 372.363C1494.31 385.377 1500.48 435.786 1503.13 456.817C1499.88 456.457 1496.65 456.015 1493.45 455.493C1492.66 451.536 1491.9 447.565 1491.13 443.608C1486.25 418.302 1481.48 393.594 1470.63 377.198C1467.41 372.33 1462.09 369.262 1456.27 368.908C1436.56 367.71 1412.64 375.984 1388.18 384.446L1388.18 384.448L1388.17 384.45L1388.16 384.453C1384.47 385.729 1380.78 387.008 1377.08 388.26C1375 385.728 1372.98 383.14 1371.04 380.501C1390.64 372.23 1437.19 352.393 1448.43 345.889C1462.77 337.592 1467.67 319.24 1459.38 304.898C1451.08 290.557 1432.73 285.658 1418.39 293.955C1407.15 300.459 1366.75 330.927 1349.81 343.798C1348.51 340.83 1347.28 337.822 1346.13 334.777C1349.06 332.198 1352.01 329.632 1354.95 327.075L1354.96 327.07C1374.49 310.088 1393.59 293.484 1402.38 275.804C1404.98 270.577 1404.97 264.437 1402.36 259.217C1393.56 241.637 1374.52 225.184 1355.02 208.332C1351.99 205.713 1348.95 203.085 1345.93 200.441C1347.09 197.336 1348.33 194.268 1349.65 191.242C1366.62 204.09 1407.05 234.485 1418.3 240.97C1432.65 249.244 1451 244.316 1459.27 229.961C1467.55 215.607 1462.62 197.262 1448.26 188.988C1437.01 182.501 1390.41 162.734 1370.8 154.496C1362.46 165.851 1355.35 178.165 1349.65 191.242C1346.73 189.03 1344.5 187.338 1343.24 186.378C1342.53 185.834 1342.3 184.907 1342.64 184.076C1343.46 182.051 1344.22 180.277 1344.99 178.584C1348.66 171.163 1352.78 164.002 1357.31 157.137C1355.14 160.212 1353.26 163.211 1350.78 167.423C1348.3 171.825 1346.61 175.023 1344.99 178.584C1331.76 205.333 1324.31 235.467 1324.31 267.34C1324.31 299.422 1331.85 329.741 1345.25 356.62C1346.86 360.113 1348.53 363.279 1350.99 367.609C1353.51 371.878 1355.41 374.898 1357.62 378.015C1392.5 430.551 1451.5 465.653 1518.79 467.478C1520.48 467.536 1522.28 467.569 1524.31 467.586C1526.35 467.569 1528.15 467.536 1529.84 467.478ZM1529.84 467.478C1534.31 467.325 1537.92 466.997 1542.81 466.326C1543.7 466.204 1544.39 465.545 1544.5 464.654C1544.7 463.102 1545.05 460.382 1545.5 456.817C1538.54 457.588 1531.48 457.983 1524.31 457.983C1517.15 457.983 1510.09 457.588 1503.13 456.817C1503.58 460.382 1503.93 463.102 1504.13 464.654C1504.24 465.545 1504.93 466.204 1505.82 466.326C1510.71 466.997 1514.32 467.325 1518.79 467.478C1520.63 467.528 1522.47 467.553 1524.31 467.553C1526.16 467.553 1528 467.528 1529.84 467.478ZM1357.62 378.015C1353.08 371.168 1348.94 364.024 1345.25 356.62C1344.45 354.88 1343.67 353.058 1342.82 350.97C1342.48 350.139 1342.7 349.212 1343.42 348.667C1344.67 347.705 1346.89 346.012 1349.81 343.798C1355.53 356.863 1362.67 369.163 1371.04 380.501C1367.67 381.923 1365.1 383.003 1363.64 383.615C1362.81 383.962 1361.89 383.695 1361.34 382.987C1359.94 381.189 1358.74 379.59 1357.62 378.015ZM1377.08 388.26C1405.82 423.29 1446.79 447.881 1493.45 455.493C1493.8 457.202 1494.14 458.908 1494.5 460.608C1494.93 462.691 1493.13 464.561 1491.04 464.16C1466.93 459.527 1444.62 451.687 1424.71 440.132C1404.74 428.678 1386.79 413.267 1370.71 394.713C1369.32 393.105 1370.03 390.609 1372.05 389.941C1373.73 389.389 1375.4 388.827 1377.08 388.26ZM1555.18 455.493C1554.83 457.202 1554.49 458.908 1554.13 460.608C1553.7 462.691 1555.5 464.561 1557.59 464.16C1581.7 459.527 1604.01 451.687 1623.92 440.132C1643.89 428.678 1661.84 413.267 1677.92 394.713C1679.31 393.105 1678.6 390.609 1676.58 389.941C1674.9 389.389 1673.23 388.827 1671.55 388.26C1642.81 423.29 1601.84 447.881 1555.18 455.493ZM1702.7 200.441C1699.69 203.078 1696.66 205.7 1693.63 208.313L1693.63 208.318L1693.62 208.323L1693.62 208.33L1693.61 208.332C1674.11 225.184 1655.07 241.637 1646.27 259.217C1643.66 264.437 1643.65 270.577 1646.25 275.804C1655.04 293.484 1674.14 310.088 1693.67 327.07C1696.62 329.629 1699.57 332.196 1702.5 334.777C1710.42 313.812 1714.76 291.083 1714.76 267.34C1714.76 243.8 1710.49 221.257 1702.7 200.441ZM1703.64 178.584C1699.97 171.163 1695.85 164.002 1691.32 157.138C1693.49 160.212 1695.37 163.211 1697.85 167.423C1700.33 171.825 1702.02 175.023 1703.64 178.584ZM1342.15 338.311C1343.47 337.13 1344.8 335.952 1346.13 334.777C1338.21 313.812 1333.87 291.083 1333.87 267.34C1333.87 243.8 1338.14 221.257 1345.93 200.441C1344.6 199.276 1343.28 198.107 1341.96 196.936C1340.37 195.521 1337.85 196.151 1337.16 198.162C1329.15 221.372 1324.82 244.615 1324.91 267.637C1324.88 290.659 1329.28 313.904 1337.34 337.096C1338.04 339.106 1340.56 339.729 1342.15 338.311ZM1479.78 242.413C1480.43 242.623 1481.04 242.893 1481.61 243.216C1485.11 245.184 1487.11 249.094 1486.64 253.084C1486.64 253.092 1486.63 253.099 1486.63 253.107C1486.56 253.739 1486.42 254.373 1486.22 255.002C1484.52 260.258 1478.88 263.142 1473.63 261.444C1468.37 259.746 1465.49 254.11 1467.19 248.854C1467.44 248.069 1467.78 247.336 1468.2 246.664C1468.75 245.774 1469.43 244.99 1470.2 244.329C1471.74 243.013 1473.66 242.184 1475.69 241.977C1476.32 241.913 1476.96 241.908 1477.6 241.966C1477.6 241.967 1477.61 241.967 1477.61 241.968C1478.33 242.034 1479.06 242.181 1479.78 242.413ZM1524.27 227.363C1529.79 227.363 1534.27 222.886 1534.27 217.363C1534.27 211.84 1529.79 207.363 1524.27 207.363C1518.74 207.363 1514.27 211.84 1514.27 217.363C1514.27 219.633 1515.02 221.726 1516.3 223.404C1517.69 225.234 1519.69 226.57 1522 227.105C1522.08 227.124 1522.16 227.141 1522.24 227.158C1522.9 227.292 1523.57 227.363 1524.27 227.363ZM1496.8 229.599C1495.45 230.566 1493.58 230.26 1492.61 228.915C1491.77 227.748 1491.89 226.183 1492.82 225.157C1492.96 225 1493.12 224.856 1493.3 224.728C1494.63 223.769 1496.49 224.062 1497.46 225.379L1497.48 225.412C1498.42 226.72 1498.16 228.529 1496.91 229.517C1496.87 229.545 1496.84 229.572 1496.8 229.599ZM1474.16 283.668C1474.36 284.304 1474.75 284.825 1475.25 285.19C1475.99 285.733 1476.97 285.927 1477.92 285.63C1479.5 285.133 1480.38 283.449 1479.88 281.868L1479.87 281.829C1479.77 281.544 1479.64 281.283 1479.48 281.049C1479.43 280.987 1479.39 280.927 1479.34 280.869C1478.59 279.948 1477.32 279.528 1476.12 279.906C1474.54 280.404 1473.66 282.088 1474.16 283.668ZM1486.96 301.749C1490.21 297.287 1496.47 296.309 1500.93 299.564C1505.39 302.818 1506.37 309.074 1503.12 313.536C1502.13 314.891 1500.86 315.925 1499.45 316.617C1496.29 318.169 1492.41 317.996 1489.33 315.857C1489.27 315.813 1489.21 315.767 1489.14 315.721C1484.68 312.467 1483.7 306.211 1486.96 301.749ZM1524.31 320.115C1525.82 320.115 1527.06 319.009 1527.28 317.566C1527.3 317.419 1527.31 317.268 1527.31 317.115C1527.31 316.79 1527.26 316.477 1527.17 316.184C1526.78 314.983 1525.65 314.115 1524.31 314.115L1524.27 314.115C1522.96 314.132 1521.84 315 1521.46 316.195C1521.46 316.203 1521.45 316.211 1521.45 316.218C1521.36 316.501 1521.31 316.802 1521.31 317.115C1521.31 317.264 1521.33 317.411 1521.35 317.554C1521.56 319.003 1522.81 320.115 1524.31 320.115ZM1574.49 283.751C1574.24 284.515 1573.71 285.11 1573.05 285.461C1573.05 285.465 1573.04 285.468 1573.04 285.471C1572.34 285.836 1571.51 285.931 1570.7 285.668C1569.13 285.152 1568.27 283.457 1568.79 281.882C1569.3 280.321 1570.97 279.464 1572.53 279.954L1572.57 279.966C1574.14 280.481 1575 282.17 1574.49 283.742C1574.49 283.745 1574.49 283.748 1574.49 283.751ZM1562.41 255.048C1563.63 258.815 1566.88 261.36 1570.55 261.87C1570.58 261.874 1570.61 261.878 1570.64 261.882C1571.39 261.978 1572.15 261.991 1572.91 261.914C1573.61 261.843 1574.31 261.698 1575 261.473C1580.26 259.768 1583.13 254.128 1581.43 248.874C1579.72 243.621 1574.08 240.745 1568.83 242.45C1563.58 244.154 1560.7 249.795 1562.41 255.048ZM1556.01 228.891C1555.33 229.834 1554.19 230.261 1553.12 230.093C1552.66 230.023 1552.22 229.846 1551.82 229.557C1551.29 229.169 1550.92 228.639 1550.73 228.056C1550.44 227.175 1550.57 226.174 1551.15 225.367C1552.12 224.037 1553.97 223.733 1555.31 224.677L1555.34 224.701C1556.68 225.674 1556.98 227.55 1556.01 228.891ZM1547.71 299.584C1543.24 302.83 1542.25 309.084 1545.5 313.552C1548.74 318.02 1555 319.01 1559.46 315.764C1563.93 312.518 1564.92 306.264 1561.68 301.796C1558.43 297.328 1552.18 296.338 1547.71 299.584ZM1544.31 267.363C1544.31 278.408 1535.36 287.363 1524.31 287.363C1513.27 287.363 1504.31 278.408 1504.31 267.363C1504.31 256.317 1513.27 247.363 1524.31 247.363C1535.36 247.363 1544.31 256.317 1544.31 267.363Z" fill="#A1A1A1"/>
            <path fill-rule="evenodd" clip-rule="evenodd" d="M1492.82 225.157C1491.89 226.183 1491.77 227.748 1492.61 228.915C1493.58 230.26 1495.45 230.566 1496.8 229.599C1496.84 229.572 1496.87 229.545 1496.91 229.517C1496.39 229.93 1495.74 230.177 1495.03 230.177C1493.38 230.177 1492.03 228.835 1492.03 227.179C1492.03 226.4 1492.33 225.69 1492.82 225.157Z" fill="#A1A1A1"/>
            <path fill-rule="evenodd" clip-rule="evenodd" d="M1481.61 243.216C1480.41 242.537 1479.06 242.099 1477.61 241.968C1478.33 242.034 1479.06 242.181 1479.78 242.413C1480.43 242.623 1481.04 242.893 1481.61 243.216ZM1476.7 261.943C1481.83 261.943 1486.05 258.082 1486.63 253.107C1486.56 253.739 1486.42 254.373 1486.22 255.002C1484.52 260.258 1478.88 263.142 1473.63 261.444C1468.37 259.746 1465.49 254.11 1467.19 248.854C1467.44 248.069 1467.78 247.336 1468.2 246.664C1467.25 248.195 1466.7 250.001 1466.7 251.935C1466.7 257.462 1471.18 261.943 1476.7 261.943ZM1475.69 241.977C1473.66 242.184 1471.74 243.013 1470.2 244.329C1471.71 243.037 1473.61 242.186 1475.69 241.977Z" fill="#A1A1A1"/>
            <path fill-rule="evenodd" clip-rule="evenodd" d="M1477.03 285.774C1478.68 285.774 1480.02 284.432 1480.02 282.776C1480.02 282.133 1479.82 281.537 1479.48 281.049C1479.64 281.283 1479.77 281.544 1479.87 281.829L1479.88 281.868C1480.38 283.449 1479.5 285.133 1477.92 285.63C1476.97 285.927 1475.99 285.733 1475.25 285.19C1475.74 285.557 1476.36 285.774 1477.03 285.774Z" fill="#A1A1A1"/>
            <path fill-rule="evenodd" clip-rule="evenodd" d="M1524.31 320.153C1525.82 320.153 1527.07 319.03 1527.28 317.566C1527.06 319.009 1525.82 320.115 1524.31 320.115C1522.81 320.115 1521.56 319.003 1521.35 317.554C1521.56 319.023 1522.8 320.153 1524.31 320.153ZM1524.31 314.087C1522.98 314.087 1521.85 314.973 1521.46 316.195C1521.84 315 1522.96 314.132 1524.27 314.115L1524.31 314.115C1525.65 314.115 1526.78 314.983 1527.17 316.184C1526.78 314.967 1525.65 314.087 1524.31 314.087Z" fill="#A1A1A1"/>
            <path fill-rule="evenodd" clip-rule="evenodd" d="M1489.33 315.857C1490.95 316.989 1492.91 317.653 1495.03 317.653C1496.62 317.653 1498.12 317.28 1499.45 316.617C1496.29 318.169 1492.41 317.996 1489.33 315.857Z" fill="#A1A1A1"/>
            <path fill-rule="evenodd" clip-rule="evenodd" d="M1574.49 283.742C1574.59 283.444 1574.64 283.126 1574.64 282.796C1574.64 281.122 1573.28 279.765 1571.61 279.765C1569.93 279.765 1568.57 281.122 1568.57 282.796C1568.57 284.47 1569.93 285.827 1571.61 285.827C1572.12 285.827 1572.61 285.698 1573.04 285.471C1572.34 285.836 1571.51 285.931 1570.7 285.668C1569.13 285.152 1568.27 283.457 1568.79 281.882C1569.3 280.321 1570.97 279.464 1572.53 279.954L1572.57 279.966C1574.14 280.481 1575 282.17 1574.49 283.742Z" fill="#A1A1A1"/>
            <path fill-rule="evenodd" clip-rule="evenodd" d="M1572.91 261.914C1577.98 261.415 1581.93 257.148 1581.93 251.957C1581.93 246.431 1577.45 241.951 1571.92 241.951C1566.39 241.951 1561.91 246.431 1561.91 251.957C1561.91 257.019 1565.67 261.203 1570.55 261.87C1566.88 261.36 1563.63 258.815 1562.41 255.048C1560.7 249.795 1563.58 244.154 1568.83 242.45C1574.08 240.745 1579.72 243.621 1581.43 248.874C1583.13 254.128 1580.26 259.768 1575 261.473C1574.31 261.698 1573.61 261.843 1572.91 261.914Z" fill="#A1A1A1"/>
            <path fill-rule="evenodd" clip-rule="evenodd" d="M1553.61 230.133C1555.29 230.133 1556.65 228.763 1556.65 227.073C1556.65 225.384 1555.29 224.014 1553.61 224.014C1551.93 224.014 1550.57 225.384 1550.57 227.073C1550.57 227.417 1550.62 227.747 1550.73 228.056C1550.44 227.175 1550.57 226.174 1551.15 225.367C1552.12 224.037 1553.97 223.733 1555.31 224.677L1555.34 224.701C1556.68 225.674 1556.98 227.55 1556.01 228.891C1555.33 229.834 1554.19 230.261 1553.12 230.093C1553.28 230.119 1553.44 230.133 1553.61 230.133Z" fill="#A1A1A1"/>
            <path fill-rule="evenodd" clip-rule="evenodd" d="M1516.3 223.404C1517.69 225.235 1519.69 226.572 1522 227.105C1519.69 226.57 1517.69 225.234 1516.3 223.404Z" fill="#A1A1A1"/>
          </g>
        </g>
      </g>
    </g>
  </g>
</svg>
