<svg width="601" height="515" viewBox="0 0 601 515" fill="none"
  xmlns="http://www.w3.org/2000/svg" class="scroll-up">
  <path id="downer" d="M274.205 12.651L14.4031 199.741C-3.83045 213.107 -3.98519 233.336 14.042 246.943C32.0693 260.549 59.2648 260.73 77.4984 247.364L300.859 83.6338L521.693 250.314C530.706 257.117 539.746 260.549 553.343 260.639C580.539 260.82 598.773 247.454 598.927 227.225C599.005 217.11 594.524 210.337 585.51 203.534L328.622 9.64069C319.634 -0.534102 292.439 -0.714685 274.205 12.651Z" fill="#C6E3FF"/>
  <path id="upper" d="M274.205 265.829L14.4031 452.92C-3.83045 466.285 -3.98519 486.514 14.042 500.121C32.0693 513.727 59.2648 513.908 77.4984 500.542L300.859 336.812L521.693 503.492C530.706 510.295 539.746 513.727 553.343 513.817C580.539 513.998 598.773 500.632 598.927 480.403C599.005 470.288 594.524 463.515 585.51 456.712L328.622 262.819C319.634 252.644 292.439 252.464 274.205 265.829Z" fill="#C6E3FF"/>
</svg>
