<svg width="601" height="515" viewBox="0 0 601 515" fill="none" xmlns="http://www.w3.org/2000/svg" class="scroll-down">
  <path id="downer" d="M326.795 501.999L586.597 314.909C604.83 301.543 604.985 281.314 586.958 267.707C568.931 254.101 541.735 253.92 523.502 267.286L300.141 431.016L79.3073 264.336C70.2937 257.533 61.2543 254.101 47.6565 254.011C20.4609 253.83 2.22741 267.196 2.07268 287.425C1.99531 297.54 6.47629 304.313 15.4899 311.116L272.378 505.009C281.366 515.184 308.561 515.365 326.795 501.999Z"/>
  <path id="upper" d="M326.795 248.82L586.597 61.7304C604.83 48.3646 604.985 28.1355 586.958 14.5289C568.931 0.922419 541.735 0.741823 523.502 14.1076L300.141 177.838L79.3073 11.1578C70.2937 4.35456 61.2543 0.922824 47.6565 0.832527C20.4609 0.651931 2.22741 14.0177 2.07268 34.2468C1.99531 44.3614 6.47629 51.1346 15.4899 57.9379L272.378 251.831C281.366 262.006 308.561 262.186 326.795 248.82Z"/>
</svg>        