<svg width="744" height="334" viewBox="0 0 744 334" fill="none" xmlns="http://www.w3.org/2000/svg">
  <g id="smoke-clouds-2">
    <path id="bright-cloud" d="M728.503 319.628L740.45 321.235C737.079 321.376 733.052 320.851 728.503 319.628L416.326 277.639C500.123 255.591 539.074 212.494 550.506 149.321C553.146 134.733 555.326 74.825 555.326 52.7112C555.326 52.7112 576.565 103.229 584.981 132.8C619.199 253.039 691.311 309.634 728.503 319.628Z" fill="#D7D7D7"/>
    <path id="bright-cloud_2" d="M343.341 49.1399C326.247 -9.72511 112.118 15.6863 103.318 49.1399C-22.8109 31.5407 -34.5436 162.348 79.2445 203.598C131.243 224.618 363.295 246.521 401.598 228.842C669.592 260.604 594.607 -133.846 343.341 49.1399Z" fill="#D7D7D7"/>
    <path id="dark-cloud" d="M351.705 193.125C334.611 134.26 225.012 112.592 161.213 142.171C-34.5437 97.8168 -18.4111 319.276 86.7242 308.603C94.5184 333.942 173.716 325.711 197.369 308.603C249.367 329.623 396.882 343.389 435.185 325.711C694.361 350.551 529.485 30.0205 351.705 193.125Z" fill="#A1A1A1"/>
    <path id="dark-trace" d="M743.836 322.023H499.54C499.54 322.023 561.245 317.271 566.637 264.647C570.761 224.405 544.134 188.934 541.472 185.501C541.401 185.411 541.33 185.32 541.259 185.229C541.259 185.229 541.333 185.321 541.472 185.501C608.414 270.814 667.505 312.069 743.836 322.023Z" fill="#A1A1A1"/>
  </g>
</svg>
