<svg width="1149" height="340" viewBox="0 0 1149 340" fill="none" xmlns="http://www.w3.org/2000/svg">
  <g id="smoke-clouds-3">
    <path id="bright-trace" d="M1133.62 325.628L1145.56 327.235C1142.19 327.376 1138.17 326.851 1133.62 325.628L821.439 283.639C905.237 261.591 944.188 218.494 955.62 155.321C958.259 140.733 960.44 80.825 960.44 58.7112C960.44 58.7112 981.679 109.229 990.094 138.8C1024.31 259.039 1096.42 315.634 1133.62 325.628Z" fill="#D7D7D7"/>
    <path id="bright-cloud" d="M513.487 17.3513C395.595 -18.1209 297.946 8.06048 258.013 55.1401C33.8413 13.4675 -38.0086 217.366 146.471 197.947C162.979 212.092 325.202 246.332 484.359 209.598C536.357 230.618 768.41 252.521 806.712 234.842C1074.71 266.604 999.721 -127.846 748.456 55.14C731.362 -3.72504 577.286 -12.2279 513.487 17.3513Z" fill="#D7D7D7"/>
    <path id="dark-cloud" d="M89.7947 215.263C53.3187 199.125 -5.98981 209.93 0.884745 233.501C6.2151 251.777 53.3188 251.739 53.3188 251.739C50.0734 258.008 93.2293 281.278 113.961 269.854C119.038 283.394 235.299 301.974 252.546 287.38C269.055 301.525 443.327 351.337 602.483 314.603C654.482 335.623 801.997 349.389 840.299 331.711C1099.48 356.551 934.599 36.0206 756.82 199.125C739.726 140.26 630.127 118.592 566.327 148.171C448.435 112.699 333.607 131.51 293.674 178.589C233.431 168.83 101.193 187.906 89.7947 215.263Z" fill="#A1A1A1"/>
    <path id="dark-trace" d="M1148.95 328.023H904.654C904.654 328.023 966.359 323.271 971.751 270.647C975.875 230.405 949.248 194.934 946.586 191.501C946.515 191.411 946.444 191.32 946.373 191.229C946.373 191.229 946.447 191.321 946.586 191.501C1013.53 276.814 1072.62 318.069 1148.95 328.023Z" fill="#A1A1A1"/>
  </g>
</svg>
