<svg width="546" height="338" viewBox="0 0 546 338" fill="none" xmlns="http://www.w3.org/2000/svg">
  <g id="smoke-clouds-1">
    <path id="bright-trace" d="M529.739 312.53L541.686 314.137C538.315 314.277 534.288 313.752 529.739 312.53L217.562 270.541C301.359 248.493 340.31 205.396 351.742 142.223C354.382 127.634 356.562 67.7266 356.562 45.6128C356.562 45.6128 377.801 96.1303 386.216 125.702C420.435 245.941 492.547 302.536 529.739 312.53Z" fill="#D7D7D7"/>
    <path id="bright-cloud" d="M202.834 221.744C470.828 253.505 399.347 -133.246 148.082 49.7394C24.78 -6.85816 -63.3013 187.943 61.0382 239.142C113.84 256.07 144.632 254.607 202.834 221.744Z" fill="#D7D7D7"/>
    <path id="dark-cloud" d="M236.421 318.612C495.598 343.452 330.721 22.922 152.941 186.027C-0.551224 176.758 -34.0451 306.797 101.266 318.612C146.627 344.676 176.426 343.955 236.421 318.612Z" fill="#A1A1A1"/>
    <path id="dark-trace" d="M545.072 314.924H300.776C300.776 314.924 362.48 310.173 367.873 257.549C371.996 217.307 345.37 181.835 342.708 178.403C342.637 178.312 342.566 178.222 342.495 178.131C342.495 178.131 342.568 178.223 342.708 178.403C409.65 263.716 468.74 304.97 545.072 314.924Z" fill="#A1A1A1"/>
  </g>
</svg>
