<svg width="1008" height="743" viewBox="0 0 1008 743" fill="none" xmlns="http://www.w3.org/2000/svg" id="logos-skillset">
  <g clip-path="url(#clip0_17:8)">
    <g id="mongodb">
      <path id="Vector" d="M386.666 627.881C418.837 640.472 455.217 624.364 467.923 591.902C480.629 559.44 464.849 522.916 432.678 510.325C400.506 497.733 364.126 513.841 351.421 546.303C338.715 578.765 354.495 615.289 386.666 627.881Z" fill="#13AA52"/>
      <path id="Vector_2" d="M428.054 568.015C430.788 550.189 424.201 541.398 424.07 538.974C423.615 537.121 423.588 534.131 423.588 534.131C423.588 534.081 423.591 533.994 423.588 533.906C422.914 535.317 422.64 535.856 420.706 536.788C417.948 537.626 403.555 542.548 395.389 560.82C387.773 577.861 396.974 593.393 398.249 595.413L398.396 595.639L398.401 595.626C398.378 595.718 397.352 599.982 396.066 604.422L397.47 604.971C398.985 602.07 400.657 599.254 402.477 596.535L402.62 596.505C403.649 596.238 404.66 595.907 405.648 595.512L405.759 595.469C410.958 593.409 421.02 587.877 426.078 574.756C426.919 572.566 427.579 570.312 428.054 568.015ZM403.101 586.008C403.101 586.008 412.632 561.656 413.427 561.972C414.048 562.216 402.558 593.941 402.558 593.941C401.505 593.374 402.36 587.902 403.101 586.008Z" fill="white"/>
    </g>
    <g id="figma">
      <path id="Vector_3" d="M324.3 563.003C337.162 565.47 349.527 557.426 351.9 545.049L356.2 522.627L332.9 518.158C320.039 515.692 307.674 523.735 305.3 536.113C302.927 548.49 311.439 560.537 324.3 563.003Z" fill="#0ACF83"/>
      <path id="Vector_4" d="M313.9 491.268C316.273 478.89 328.638 470.847 341.5 473.313L364.8 477.782L356.2 522.627L332.9 518.158C320.038 515.692 311.526 503.645 313.9 491.268Z" fill="#A259FF"/>
      <path id="Vector_5" d="M322.501 446.423C324.874 434.045 337.239 426.002 350.101 428.468L373.401 432.937L364.801 477.782L341.501 473.313C328.639 470.847 320.127 458.8 322.501 446.423Z" fill="#F24E1E"/>
      <path id="Vector_6" d="M373.4 432.936L396.7 437.405C409.562 439.871 418.074 451.918 415.7 464.295C413.327 476.673 400.962 484.716 388.1 482.25L364.8 477.782L373.4 432.936Z" fill="#FF7262"/>
      <path id="Vector_7" d="M407.1 509.14C404.727 521.518 392.362 529.561 379.5 527.095C366.639 524.628 358.127 512.581 360.5 500.204C362.874 487.827 375.238 479.783 388.1 482.25C400.962 484.716 409.474 496.763 407.1 509.14Z" fill="#1ABCFE"/>
    </g>
    <g id="mysql">
      <path id="Vector_8" d="M157.723 300.217C147.598 296.691 139.398 295.049 131.957 295.416C129.824 295.482 126.763 294.493 125.807 296.579C126.532 297.822 126.18 299.347 126.667 300.89C127.46 303.667 129.139 307.614 131.045 309.995C133.132 312.687 135.219 315.378 137.507 317.883C141.593 322.23 146.687 325.641 150.645 329.946C152.935 332.45 155.073 335.412 157.325 338.03C158.433 339.396 158.845 341.169 160.445 342.316L160.556 341.974C159.995 340.658 160.22 339.092 159.697 337.663C158.792 336.11 157.849 334.67 156.943 333.116C154.684 327.471 151.35 322.106 147.411 317.304C144.144 313.474 136.326 307.165 136.034 302.406C136.034 302.406 135.943 302.251 135.852 302.096C138.731 302.774 142.34 302.933 145.24 303.114C149.907 303.488 153.785 304.994 158.579 305.41C160.766 305.613 162.991 305.702 165.214 305.791L165.546 304.764C163.917 301.968 163.144 298.693 161.349 295.97C156.472 288.845 150.918 281.631 144.852 275.132C141.638 271.571 137.018 268.438 133.439 265.139C132.131 263.958 129.691 262.792 129.168 261.363C127.685 258.11 127.48 254.388 126.782 250.885C125.116 243.413 123.795 235.298 122.748 227.648C121.894 222.456 121.93 217.551 120.453 212.536C113.595 188.89 103.117 172.519 84.9162 153.903C80.9739 149.981 75.6971 147.14 70.1109 143.948C66.9616 142.803 63.8472 141.544 60.697 140.399C58.9159 138.941 57.5766 136.113 56.1236 134.509C50.1869 128.051 34.3232 113.091 25.168 123.113C19.3272 129.418 25.5076 139.483 27.2218 144.198C28.5414 147.524 30.3862 151.397 30.9566 154.859C31.2224 157.087 30.8121 159.224 31.0405 161.567C31.4576 167.247 31.5607 173.458 32.7254 179.003C33.3534 181.853 34.0708 184.858 35.155 187.603C35.7689 189.188 37.3685 190.336 37.0875 192.514C34.5652 194.219 33.3302 197.602 31.3872 200.125C22.6285 211.536 19.2477 228.09 22.6866 239.664C23.8039 243.176 26.6191 251.021 33.8956 250.726C40.2967 250.527 41.1251 243.609 44.6272 238.439C45.4534 237.193 45.4932 236.198 46.5529 235.533C46.5168 235.647 46.4791 235.761 46.4791 235.761C47.2311 239.533 48.0191 243.192 48.6431 246.923C50.7878 253.792 55.7896 261.839 60.2718 267.574C62.6687 270.617 63.9465 274.938 67.365 277.43L67.4759 277.088L67.2208 277.005C66.7876 275.73 65.7881 274.903 65.0267 273.775C63.3963 270.979 61.6576 267.643 60.6112 264.784C57.3239 256.662 54.8935 248.061 53.0482 239.397C52.1526 235.2 51.6221 230.743 51.1087 226.669C50.7864 225.052 51.4503 222.998 50.3967 221.902C47.6728 223.793 44.1676 225.055 41.7684 227.683C37.7608 231.807 35.5493 237.773 32.6273 243.761C32.0808 243.711 32.3721 243.678 32.0431 243.824C28.2596 241.592 28.0741 237.373 27.5775 233.682C26.3726 224.344 29.9418 211.128 36.2825 202.842C37.9501 200.734 44.2099 194.439 43.4179 191.662C43.3545 189.246 41.2097 187.166 40.3612 185.001C39.4052 182.297 38.5055 178.981 38.1336 176.213C37.1399 168.833 37.8977 161.263 36.6498 153.8C36.0794 150.338 34.3986 146.392 33.1166 142.953C31.6911 139.088 29.7146 136.054 28.9831 131.783C28.7523 130.323 28.523 127.98 29.9856 126.94C30.5359 126.11 31.156 125.932 32.2504 126.034C34.3136 125.314 38.5141 128.437 39.9499 129.657C44.1138 132.893 47.5487 135.77 50.7264 139.444C52.1418 141.162 53.3529 143.949 55.463 145.262L58.1407 146.128C61.9623 148.245 66.7358 149.159 70.2284 151.422C76.3588 155.547 81.5545 160.379 86.0408 165.233C99.6794 180.105 109.093 198.023 113.197 217.123C113.879 220.242 113.74 222.845 114.258 226.037C115.127 232.495 116.597 239.273 117.502 245.616C118.445 251.844 119.224 258.147 121.609 263.835C122.748 266.849 129.99 270.578 133.026 272.946C135.244 274.798 138.901 276.989 140.79 278.986C144.349 282.783 147.798 286.924 151.03 290.868C152.627 292.897 158.078 297.811 157.723 300.217L157.723 300.217Z" fill="#0080A4"/>
      <path id="Vector_9" d="M59.7509 159C57.5835 158.299 55.9802 158.034 54.3396 157.882C54.3398 157.881 54.3025 157.996 54.2657 158.11L54.5209 158.192C54.9511 160.348 56.3286 162.18 57.087 164.19C57.5173 166.346 57.8185 168.46 58.2485 170.617C58.4127 170.543 58.5767 170.47 58.5767 170.47C60.7319 169.906 62.2139 168.369 63.0993 165.63C62.5923 164.584 62.7234 163.744 62.3444 162.739C61.949 161.349 60.4753 160.243 59.7509 159Z" fill="#0080A4"/>
    </g>
    <g id="sass">
      <path id="Vector_10" d="M748.524 687.133C740.352 687.785 733.378 690.067 727.622 693.098C725.151 689.424 722.711 686.169 722.137 683.69C721.489 680.796 720.842 679.049 721.092 675.514C721.343 671.98 723.281 666.828 723.209 666.451C723.138 666.075 722.533 664.324 717.822 664.64C713.111 664.956 709.107 666.097 708.719 667.235C708.331 668.372 707.621 670.947 707.216 673.576C706.688 677.437 699.104 691.649 694.716 699.125C692.923 696.47 691.371 694.141 690.926 692.226C690.278 689.332 689.63 687.585 689.881 684.05C690.132 680.516 692.069 675.364 691.998 674.987C691.926 674.611 691.321 672.86 686.61 673.176C681.899 673.492 677.895 674.633 677.507 675.771C677.119 676.908 676.8 679.53 676.004 682.112C675.208 684.694 665.481 708.2 662.925 714.277C661.61 717.395 660.463 719.888 659.644 721.593C659.644 721.593 659.61 721.71 659.495 721.91C658.788 723.377 658.374 724.172 658.374 724.172C658.374 724.172 658.374 724.172 658.377 724.21C657.812 725.285 657.199 726.286 656.856 726.312C656.599 726.331 655.923 723.631 656.456 719.846C657.577 711.851 660.724 699.31 660.65 698.895C660.633 698.667 661.243 696.482 657.736 695.637C654.315 694.786 653.253 696.7 652.954 696.722C652.654 696.745 652.489 697.407 652.489 697.407C652.489 697.407 655.179 683.372 644.35 684.185C637.587 684.694 628.75 691.969 624.573 698.244C621.768 699.868 615.787 703.337 609.395 707.065C606.964 708.509 604.447 709.959 602.096 711.32C601.913 711.181 601.728 711.004 601.545 710.865C587.514 699.424 562.628 692.467 562.401 675.708C562.33 669.599 563.484 653.463 605.816 630.793C640.671 612.315 669.677 614.53 675.37 623.847C683.515 637.144 662.974 664.52 626.015 671.042C611.91 673.516 604.097 669.212 602.076 667.529C599.965 665.778 599.657 665.686 598.957 666.121C597.802 666.781 598.701 668.433 599.203 669.389C600.51 671.889 605.433 676.105 613.349 677.764C620.345 679.226 637.079 679.076 656.719 670.646C678.694 661.199 694.71 638.328 688.174 620.668C681.619 602.742 646.922 599.274 615.288 611.93C596.484 619.457 576.316 630.603 562.228 644.195C545.493 660.356 543.636 673.45 545.197 678.759C550.788 697.598 581.473 707.826 594.066 716.165C593.49 716.514 592.953 716.822 592.5 717.086C586.747 720.155 564.853 732.385 560.039 743.943C554.567 757.041 562.694 765.525 567.708 766.371C583.271 768.985 598.472 761.04 606.064 749.235C613.657 737.43 611.539 722.992 607.144 716.635C607.096 716.562 607.047 716.489 606.956 716.42C608.437 715.506 609.958 714.551 611.438 713.637C614.358 711.813 617.242 710.106 619.719 708.697C618.529 712.34 617.776 716.638 617.72 722.757C617.614 729.949 621.607 738.973 626.204 742.296C628.25 743.747 630.522 743.614 631.977 743.505C637.028 743.125 639.016 739.231 641.211 734.633C643.887 729.006 646.198 722.527 646.198 722.527C646.198 722.527 644.004 739.735 653.421 739.027C656.845 738.77 660.015 734.558 661.405 732.428L661.408 732.466C661.408 732.466 661.485 732.346 661.636 732.067C661.941 731.547 662.133 731.227 662.133 731.227L662.127 731.151C663.337 728.92 666.056 723.863 670.033 715.501C675.163 704.721 679.885 691.374 679.885 691.374C679.885 691.374 680.636 694.489 682.785 699.601C684.043 702.602 686.438 705.823 688.395 708.962C687.154 710.775 686.37 711.789 686.37 711.789C686.37 711.789 686.37 711.789 686.415 711.824C685.399 713.2 684.307 714.696 683.083 716.163C678.788 721.454 673.649 727.534 673.002 729.226C672.248 731.231 672.568 732.621 674.366 733.632C675.67 734.375 677.904 734.322 680.164 734.037C684.339 733.456 687.224 732.322 688.636 731.643C690.851 730.75 693.422 729.449 695.781 727.628C700.136 724.282 702.595 719.779 701.913 714.137C701.55 711.031 700.161 708.002 698.528 705.182C698.916 704.618 699.261 704.057 699.65 703.493C706.178 693.563 711.011 682.844 711.011 682.844C711.011 682.844 711.762 685.96 713.911 691.072C714.967 693.667 716.939 696.423 718.691 699.119C712.254 704.533 708.487 710.548 707.269 714.384C705.092 721.502 707.424 724.461 711.459 724.883C713.282 725.09 715.793 724.137 717.622 723.274C719.968 722.41 722.704 721.02 725.269 719.069C729.624 715.723 733.718 711.212 733.036 705.569C732.714 702.995 731.752 700.507 730.496 698.118C736.115 695.555 743.474 693.818 753.05 694.092C773.584 694.689 778.456 705.672 778.042 710.479C777.629 715.287 773.543 718.193 772.19 719.097C770.838 720.001 770.387 720.302 770.558 720.863C770.792 721.686 771.474 721.596 772.661 721.354C774.311 720.963 783.074 716.712 782.802 707.944C782.605 696.724 769.703 685.427 748.524 687.133ZM594.887 745.986C588.615 753.03 579.384 756.208 575.161 754.424C570.626 752.51 571.613 742.729 579.397 735.19C584.131 730.592 590.343 726.19 594.486 723.471C595.431 722.865 596.829 721.995 598.512 720.914C598.801 720.739 598.966 720.65 598.966 720.65C599.294 720.434 599.622 720.219 599.95 720.003C603.732 729.654 601.475 738.575 594.887 745.986ZM641.877 712.572C639.906 717.841 635.963 731.245 632.912 730.748C630.298 730.333 627.972 720.572 630.877 710.533C632.349 705.493 635.804 699.349 637.901 696.898C641.308 692.974 645.283 691.452 646.379 692.86C647.766 694.705 643.093 709.271 641.877 712.572ZM683.794 726.771C682.843 727.301 681.925 727.676 681.479 727.48C681.168 727.351 681.85 726.688 681.85 726.688C681.85 726.688 686.578 721.442 688.425 719.086C689.483 717.708 690.739 716.085 692.065 714.265L692.102 714.759C692.539 720.573 686.499 724.963 683.794 726.771ZM714.648 718.071C713.887 717.67 713.901 716.14 715.984 711.207C716.785 709.274 718.777 705.991 722.361 702.703C722.88 703.887 723.268 705.042 723.308 706.147C723.817 713.484 718.115 716.664 714.648 718.071Z" fill="#CD6799"/>
    </g>
    <g id="vue">
      <path id="Vector_11" d="M574.523 589.049L611 590L515.193 764.547L428.614 585.244L464.635 586.183L498.377 587.063L518.737 628.648L540.781 588.169L574.523 589.049Z" fill="#41B883"/>
      <path id="Vector_12" d="M428.614 585.244L515.193 764.547L611 590L574.523 589.049L517.039 693.777L464.635 586.183L428.614 585.244Z" fill="#41B883"/>
      <path id="Vector_13" d="M464.635 586.183L517.025 694.29L574.523 589.049L540.782 588.169L518.737 628.648L498.377 587.063L464.635 586.183Z" fill="#35495E"/>
    </g>
    <g id="nodejs">
      <path id="Vector_14" d="M258.024 414.228C262.725 413.098 268.025 414.569 271.452 417.983C288.749 434.949 306.058 451.899 323.35 468.871C326.605 472.055 328.011 476.941 326.766 481.244L307.839 548.924C306.611 553.424 302.593 556.9 297.96 557.827C274.456 563.316 250.958 568.822 227.457 574.312C222.659 575.462 217.306 573.773 213.983 570.148C208.839 564.991 203.68 559.848 198.534 554.694C197.488 553.62 196.242 552.65 195.69 551.225C196.755 550.42 198.184 550.682 199.441 550.552C202.212 550.476 204.908 549.863 207.595 549.288C208.298 549.059 208.979 549.413 209.448 549.925C213.856 554.302 218.194 558.752 222.627 563.106C223.57 564.047 224.935 563.529 226.036 563.278C249.109 557.864 272.194 552.499 295.264 547.081C296.102 546.941 296.726 546.29 296.887 545.483C303.144 523.161 309.378 500.828 315.625 478.503C315.961 477.63 315.658 476.657 314.929 476.057C297.737 459.242 280.562 442.414 263.375 425.598C263.089 425.264 262.707 425.021 262.281 424.901C261.854 424.781 261.402 424.79 260.984 424.925C237.566 430.39 214.153 435.879 190.737 441.337C189.805 441.473 189.022 442.128 188.869 443.055C182.629 465.382 176.381 487.712 170.136 510.041C169.993 510.417 169.972 510.828 170.075 511.219C170.179 511.61 170.402 511.963 170.715 512.229C175.296 516.736 179.89 521.223 184.477 525.721C187.083 528.176 190.567 530.176 194.275 529.89C197.534 529.683 200.441 527.315 201.243 524.229C207.478 502.041 213.644 479.83 219.885 457.647C220.086 456.641 221.274 456.095 222.232 456.463C224.84 457.174 227.451 457.886 230.043 458.655C231.136 458.935 231.587 460.205 231.175 461.16C224.918 483.493 218.71 505.841 212.418 528.165C210.76 534.119 206.438 539.895 199.969 541.226C192.021 542.792 183.619 539.639 177.68 534.345C172.532 529.784 167.803 524.776 162.819 520.038C159.325 516.851 157.712 511.782 158.996 507.3L177.922 439.62C179.111 435.205 182.971 431.711 187.517 430.741C211.02 425.242 234.523 419.733 258.024 414.228Z" fill="#8CC84B"/>
      <path id="Vector_15" d="M262.686 466.08C271.727 468.008 281.176 470.895 287.98 477.394C293.257 482.391 294.771 490.207 293.008 496.935C292.582 497.79 291.473 498.017 290.605 497.708C288.028 496.983 285.439 496.3 282.875 495.528C281.77 495.263 281.409 494.103 281.535 493.123C281.69 489.711 280.783 486.036 278.118 483.624C274.012 479.976 268.467 478.551 263.268 477.15C259.429 476.287 255.27 475.468 251.457 476.739C248.536 477.692 246.862 480.797 246.994 483.712C247.286 485.86 249.385 487.114 251.084 488.204C261.03 493.926 272.453 496.827 281.952 503.354C285.892 506.033 289.35 510.067 289.599 514.917C289.884 521.404 287.044 528.269 281.369 531.826C276.75 534.767 271.024 535.47 265.585 535.2C258.368 534.775 251.297 532.838 244.571 530.249C238.275 527.711 231.979 524.158 228.169 518.444C224.894 513.618 224.379 507.382 226.112 501.986C226.42 501.079 227.541 500.7 228.426 501.029C231.028 501.734 233.626 502.453 236.213 503.21C237.27 503.428 237.795 504.516 237.582 505.482C237.207 508.669 237.489 512.203 239.717 514.778C244.066 519.569 250.75 521.193 256.766 522.975C261.831 524.159 267.468 525.665 272.454 523.585C275.123 522.35 276.621 519.455 276.778 516.647C276.772 514.238 274.664 512.526 272.794 511.27C263.134 505.058 251.33 503.031 241.892 496.421C238.051 493.77 234.714 489.855 234.271 485.146C233.675 478.492 236.801 471.34 242.886 468.072C248.846 464.794 256.091 464.917 262.686 466.08L262.686 466.08Z" fill="#8CC84B"/>
    </g>
    <g id="react">
      <path id="Vector_16" d="M286.997 353.643C285.233 352.676 283.396 351.732 281.496 350.812C282.053 349.515 282.58 348.23 283.07 346.962C291.113 326.148 291.17 308.294 282.311 300.916C273.816 293.842 257.443 296.956 239.574 307.993C237.855 309.055 236.12 310.193 234.373 311.397C233.537 310.264 232.697 309.163 231.852 308.103C218.013 290.734 202.708 281.814 191.923 285.891C181.583 289.799 176.037 305.655 176.546 326.755C176.595 328.793 176.702 330.884 176.861 333.018C174.436 333.29 172.083 333.619 169.819 334.01C149.563 337.507 135.572 345.987 133.724 356.924C131.816 368.219 143.01 381.762 161.763 391.996C163.243 392.804 164.787 393.592 166.385 394.362C165.466 396.486 164.624 398.578 163.868 400.628C156.699 420.066 156.956 436.506 165.419 443.556C174.162 450.837 191.414 447.786 209.62 436.485C211.059 435.591 212.514 434.632 213.981 433.617C215.345 435.478 216.721 437.255 218.104 438.936C231.199 454.858 245.448 462.802 255.752 458.907C266.394 454.884 272.436 438.292 271.869 416.766C271.826 415.122 271.737 413.435 271.609 411.712C272.809 411.564 273.99 411.402 275.146 411.22C297.018 407.796 312.379 398.88 314.313 387.434C316.167 376.459 305.356 363.715 286.997 353.643ZM273.968 403.42C272.925 403.583 271.858 403.731 270.773 403.866C269.722 396.177 267.949 387.892 265.529 379.231C270.455 372.009 274.715 364.844 278.162 357.965C279.919 358.816 281.615 359.688 283.242 360.581C298.972 369.21 307.715 379.517 306.598 386.131C305.408 393.177 292.853 400.463 273.968 403.42ZM264.045 417C264.296 426.518 263.147 434.891 260.85 441.2C258.785 446.87 255.963 450.405 253.025 451.516C246.772 453.879 235.332 447.501 224.132 433.884C222.848 432.324 221.568 430.672 220.297 428.939C226.335 424.182 232.523 418.512 238.712 412.099C247.574 412.792 256.038 412.907 263.813 412.426C263.928 413.988 264.006 415.514 264.045 417ZM183.161 439.121C177.266 440.164 172.827 439.472 170.414 437.462C165.277 433.184 165.072 419.984 171.203 403.361C171.905 401.457 172.687 399.512 173.543 397.533C180.662 400.434 188.649 403.005 197.279 405.2C201.077 413.14 205.207 420.546 209.515 427.148C208.174 428.076 206.846 428.95 205.534 429.765C197.483 434.762 189.721 437.961 183.161 439.121ZM165.503 385.05C157.21 380.525 150.605 375.349 146.349 370.199C142.524 365.571 140.912 361.346 141.438 358.227C142.56 351.591 153.794 344.782 171.117 341.791C173.218 341.428 175.406 341.121 177.666 340.867C178.673 348.668 180.326 356.925 182.579 365.373C177.61 372.72 173.272 380.092 169.722 387.212C168.261 386.507 166.852 385.786 165.503 385.05ZM184.37 326.539C183.933 308.461 188.418 295.637 194.65 293.282C201.288 290.773 213.797 298.063 225.746 313.06C226.51 314.018 227.271 315.015 228.029 316.041C221.822 320.841 215.544 326.438 209.399 332.655C200.772 332.015 192.426 331.918 184.663 332.364C184.515 330.376 184.415 328.432 184.37 326.539ZM258.988 359.112C257.727 355.695 256.407 352.344 255.036 349.07C260.674 350.779 266.03 352.687 271.012 354.757C268.605 359.528 265.776 364.464 262.581 369.474C261.473 366.059 260.275 362.601 258.988 359.112ZM232.497 322.519C235.398 327.011 238.228 331.957 240.936 337.262C237.433 336.497 233.872 335.805 230.267 335.196C226.695 334.593 223.131 334.079 219.593 333.651C223.891 329.575 228.218 325.844 232.497 322.519ZM195.242 348.398C192.93 351.22 190.697 354.08 188.552 356.961C187.214 351.204 186.185 345.592 185.478 340.221C190.827 339.928 196.482 339.905 202.33 340.151C199.929 342.816 197.561 345.567 195.242 348.397L195.242 348.398ZM193.082 395.887C187.28 394.222 181.855 392.377 176.895 390.375C179.368 385.448 182.245 380.379 185.467 375.274C186.551 378.698 187.726 382.135 188.993 385.569L188.994 385.569C190.284 389.068 191.652 392.512 193.082 395.887ZM215.833 422.453C212.849 417.854 209.946 412.833 207.184 407.494C210.619 408.215 214.132 408.881 217.715 409.486C221.396 410.108 225.049 410.639 228.658 411.083C224.326 415.312 220.03 419.123 215.833 422.453ZM259.609 387.512C261.084 393.473 262.212 399.189 262.964 404.57C257.524 404.891 251.707 404.906 245.629 404.622C248.01 401.94 250.383 399.159 252.739 396.284C255.123 393.376 257.414 390.446 259.609 387.512ZM246.714 391.266C243.056 395.728 239.362 399.954 235.667 403.908C230.243 403.39 224.673 402.654 219.031 401.7C213.411 400.751 207.974 399.651 202.768 398.417C200.469 393.39 198.307 388.16 196.329 382.797L196.329 382.797C194.356 377.447 192.612 372.095 191.105 366.81C194.265 362.303 197.665 357.814 201.269 353.416L201.268 353.417C204.882 349.007 208.612 344.796 212.402 340.827C217.842 341.325 223.385 342.042 228.951 342.982L228.951 342.982C234.542 343.927 240.02 345.074 245.319 346.394C247.554 351.347 249.677 356.531 251.652 361.886C253.649 367.3 255.424 372.63 256.966 377.824C253.797 382.307 250.367 386.808 246.714 391.266ZM277.318 307.011C282.77 311.552 282.724 326.143 275.78 344.114C275.337 345.261 274.859 346.425 274.356 347.601C267.158 344.59 259.242 341.917 250.86 339.672C247.103 331.702 243.056 324.35 238.843 317.865C240.458 316.752 242.061 315.701 243.646 314.722C258.957 305.265 272.199 302.747 277.318 307.011ZM226.768 355.904C235.674 357.409 241.663 365.915 240.144 374.904C238.626 383.892 230.175 389.958 221.269 388.454C212.363 386.949 206.374 378.443 207.892 369.455C209.411 360.466 217.862 354.4 226.768 355.904Z" fill="#00D8FF"/>
    </g>
    <g id="html5">
      <path id="Vector_17" d="M189 307L189.583 543.441L95.6411 578.575L-2.93264 561.567L-46.3848 329.117L189 307Z" fill="#E44D26"/>
      <path id="Vector_18" d="M93.9121 558.629L169.822 530.238L169.324 328.189L73.1088 337.229L93.9121 558.629Z" fill="#F16529"/>
      <path id="Vector_19" d="M36.8263 398.659L78.5129 394.742L75.8109 365.986L1.9198 372.929L3.35008 380.577L18.0386 459.14L83.9817 452.944L81.2797 424.188L42.2862 427.852L36.8263 398.659Z" fill="#EBEBEB"/>
      <path id="Vector_20" d="M50.2871 470.615L20.7062 473.395L29.0771 518.157L90.976 528.838L91.1082 528.788L88.297 498.87L88.171 498.916L54.54 493.352L50.2871 470.615Z" fill="#EBEBEB"/>
      <path id="Vector_21" d="M83.8798 452.953L120.166 449.544L120.25 487.159L88.1974 498.904L91.0085 528.821L149.884 506.806L149.87 501.906L149.682 425.551L149.675 417.762L81.1779 424.198L83.8798 452.953Z" fill="white"/>
      <path id="Vector_22" d="M78.4041 394.681L78.4107 394.751L149.589 388.063L149.573 381.544L149.546 366.84L149.526 359.059L75.7087 365.995L78.4041 394.681Z" fill="white"/>
    </g>
    <g id="git">
      <rect id="Rectangle 12" width="129.598" height="124.615" transform="matrix(0.642019 0.766689 -0.799092 0.601209 427 603)" fill="#D9D9D9"/>
      <path id="Vector_23" d="M522.159 692.579L446.413 603.091C445.378 601.862 444.097 600.833 442.643 600.063C441.19 599.292 439.593 598.796 437.944 598.601C436.294 598.407 434.625 598.519 433.033 598.931C431.44 599.342 429.955 600.046 428.662 601.001L409.065 615.459L429.021 638.996C431.763 638.471 434.62 638.68 437.267 639.598C439.913 640.516 442.243 642.107 443.991 644.19C445.739 646.273 446.835 648.765 447.154 651.381C447.472 653.997 447.002 656.632 445.795 658.988L464.978 681.665C468.324 681.006 471.828 681.444 474.907 682.906C477.985 684.368 480.452 686.765 481.896 689.698C483.34 692.632 483.674 695.924 482.843 699.026C482.011 702.129 480.064 704.854 477.327 706.747C474.589 708.641 471.225 709.589 467.797 709.433C464.369 709.277 461.082 708.026 458.486 705.89C455.889 703.753 454.14 700.86 453.528 697.692C452.917 694.524 453.481 691.273 455.126 688.48L437.206 667.297L431.374 716.814C434.259 718.592 436.422 721.233 437.502 724.295C438.582 727.358 438.513 730.658 437.308 733.645C436.103 736.633 433.834 739.127 430.88 740.713C427.925 742.299 424.463 742.881 421.07 742.361C417.677 741.842 414.558 740.252 412.234 737.858C409.909 735.463 408.519 732.408 408.295 729.202C408.07 725.996 409.025 722.832 411.001 720.237C412.976 717.642 415.853 715.773 419.151 714.942L425.033 664.998C423.29 664.088 421.752 662.866 420.508 661.403C419.264 659.94 418.337 658.265 417.783 656.475C417.229 654.686 417.057 652.816 417.279 650.976C417.5 649.135 418.11 647.36 419.072 645.752L399.438 622.541L334.694 670.165C332.091 672.083 330.424 674.902 330.059 678.002C329.694 681.103 330.66 684.231 332.746 686.702L408.543 776.196C409.578 777.425 410.859 778.454 412.313 779.225C413.766 779.995 415.364 780.492 417.013 780.686C418.662 780.88 420.331 780.768 421.924 780.357C423.516 779.945 425.002 779.241 426.294 778.287L520.262 709.123C522.865 707.205 524.532 704.386 524.897 701.285C525.262 698.185 524.296 695.056 522.21 692.585" fill="#F05133"/>
    </g>
    <g id="css3">
      <path id="Vector_24" d="M283.884 763.322L206.291 741.098L189 541H379L361.691 741.067L283.884 763.322Z" fill="#264DE4"/>
      <path id="Vector_25" d="M346.872 728.327L361.664 557.361H284V746.311L346.872 728.327Z" fill="#2965F1"/>
      <path id="Vector_26" d="M228.64 631.574L230.772 656.115H284V631.574H228.64Z" fill="#EBEBEB"/>
      <path id="Vector_27" d="M224.356 581.902L226.518 606.444H284V581.902H224.356Z" fill="#EBEBEB"/>
      <path id="Vector_28" d="M284 695.311L283.896 695.339L257.405 687.959L255.712 668.386H231.834L235.167 706.92L283.891 720.875L284 720.844V695.311Z" fill="#EBEBEB"/>
      <path id="Vector_29" d="M339.208 631.574L343.502 581.902H283.918V606.444H317.435L315.27 631.574H283.918V656.115H313.208L310.447 687.944L283.918 695.331V720.863L332.68 706.92L333.038 702.773L338.628 638.164L339.208 631.574Z" fill="white"/>
    </g>
    <g id="javascript">
      <path id="Vector_30" d="M16.4285 470L254.376 564.429L159.948 802.377L-78.0001 707.948L16.4285 470Z" fill="#F7DF1E"/>
      <path id="Vector_31" d="M0.0825631 693.675L22.6644 689.881C23.7061 697.504 24.8102 704.042 32.4757 707.084C39.8232 710 45.5973 708.965 50.0339 697.785L80.2061 621.755L102.567 630.629L72.2691 706.975C63.0782 730.135 45.3185 735.289 25.5112 727.429C7.62327 720.33 0.916446 706.946 0.0823771 693.673L0.0825631 693.675ZM80.1038 722.658L102.494 719.342C104.181 729.071 108.129 737.293 119.149 741.666C128.415 745.343 136.161 743.055 138.696 736.666C141.739 729 136.747 723.875 128.299 715.347L123.661 710.731C110.253 697.463 102.975 684.591 110.201 666.382C116.857 649.61 134.706 641.903 154.672 649.826C168.887 655.468 177.144 664.477 179.357 680.33L157.508 684.602C156.4 676.212 153.326 671.85 146.937 669.314C140.388 666.715 134.587 669.22 132.432 674.65C129.77 681.358 132.845 685.723 140.779 693.679L145.419 698.293C161.194 713.983 168.599 726.535 161.183 745.221C153.196 765.348 133.011 770.093 111.767 761.663C91.0034 753.423 81.5162 738.195 80.1025 722.658" fill="black"/>
    </g>
  </g>
  <defs>
    <clipPath id="clip0_17:8">
      <path d="M0 0H1008V743H15C6.71573 743 0 736.284 0 728V0Z" fill="white"/>
    </clipPath>
  </defs>
</svg>
