<svg width="1008" height="438" viewBox="0 0 1008 438" fill="none" xmlns="http://www.w3.org/2000/svg" id="mobile-logos-skillset">
  <g id="logos-mobile">
    <g id="mysql">
      <path id="Vector" d="M138.143 146.037C130.759 144.401 124.87 143.981 119.664 144.985C118.169 145.244 115.943 144.807 115.426 146.456C116.028 147.313 115.894 148.485 116.351 149.588C117.115 151.582 118.59 154.362 120.108 155.951C121.776 157.754 123.444 159.556 125.239 161.2C128.437 164.042 132.272 166.086 135.377 168.909C137.173 170.552 138.898 172.552 140.676 174.284C141.557 175.194 141.979 176.476 143.19 177.175L143.242 176.909C142.75 175.982 142.791 174.792 142.317 173.777C141.565 172.707 140.795 171.726 140.042 170.656C138.033 166.666 135.289 162.992 132.161 159.796C129.579 157.26 123.611 153.321 123.051 149.8C123.051 149.8 122.976 149.693 122.901 149.586C124.976 149.81 127.526 149.574 129.578 149.424C132.889 149.245 135.728 149.988 139.131 149.827C140.684 149.764 142.255 149.612 143.826 149.46L143.983 148.661C142.629 146.735 141.842 144.368 140.377 142.513C136.416 137.677 131.973 132.84 127.224 128.588C124.698 126.247 121.216 124.364 118.453 122.254C117.445 121.501 115.643 120.871 115.169 119.856C113.883 117.575 113.462 114.819 112.711 112.274C110.983 106.864 109.45 100.94 108.145 95.3361C107.157 91.5464 106.818 87.8842 105.406 84.2881C98.823 67.3219 90.2356 56.1382 76.0496 44.0375C72.9852 41.4992 69.0627 39.898 64.8963 38.0649C62.5962 37.5201 60.3123 36.8871 58.0116 36.3422C56.6504 35.4291 55.4981 33.4513 54.3568 32.397C49.7009 28.1624 37.4309 18.5597 31.738 26.9355C28.0994 32.2122 33.195 39.1137 34.7514 42.4624C35.927 44.8138 37.5127 47.5222 38.1715 50.049C38.5241 51.6844 38.3947 53.3194 38.7297 55.0445C39.4457 59.2406 39.9804 63.8637 41.2122 67.886C41.8659 69.9502 42.5941 72.1216 43.5609 74.0629C44.1106 75.1848 45.321 75.8844 45.2855 77.5366C43.6385 79.0565 43.0216 81.7008 41.8429 83.7737C36.5321 93.1464 35.3864 105.827 38.6663 114.124C39.7133 116.634 42.277 122.209 47.3726 121.275C51.8596 120.498 51.9275 115.256 54.0057 111.056C54.494 110.045 54.448 109.299 55.1437 108.698C55.1268 108.787 55.1088 108.876 55.1088 108.876C55.9184 111.616 56.7449 114.268 57.4614 116.99C59.4809 121.904 63.5975 127.415 67.1765 131.254C69.0887 133.288 70.3089 136.386 72.8986 137.91L72.9511 137.643L72.7655 137.607C72.366 136.698 71.6016 136.18 70.9821 135.412C69.6273 133.487 68.1563 131.169 67.2076 129.139C64.2912 123.403 61.9419 117.226 59.9994 110.944C59.0572 107.901 58.3524 104.628 57.6882 101.639C57.3411 100.464 57.6552 98.8673 56.8327 98.1526C55.0577 99.8313 52.6865 101.117 51.1947 103.313C48.6831 106.783 47.5717 111.45 45.9623 116.204C45.5742 116.22 45.7767 116.167 45.5562 116.308C42.7291 115.014 42.2847 111.886 41.6608 109.181C40.1185 102.333 41.6451 92.1236 45.4879 85.3204C46.5038 83.5838 50.4378 78.2733 49.6741 76.2794C49.4498 74.4835 47.7866 73.1426 47.0287 71.6108C46.1551 69.6872 45.2756 67.3022 44.8081 65.274C43.5601 59.8663 43.5296 54.1446 42.0967 48.7C41.4378 46.1733 39.9621 43.3945 38.8045 40.9547C37.5144 38.2119 35.8985 36.1424 35.0663 33.0286C34.7952 31.9615 34.4597 30.2363 35.4109 29.3169C35.7361 28.6435 36.159 28.4502 36.9363 28.4186C38.3337 27.6789 41.5203 29.5964 42.6209 30.3657C45.7902 32.3711 48.42 34.1797 50.9283 36.6086C52.0515 37.7513 53.1107 39.7114 54.6924 40.4833L56.64 40.8663C59.4853 42.0706 62.9105 42.2838 65.5353 43.6292C70.1536 46.1041 74.1672 49.1985 77.6837 52.3792C88.3823 62.1343 96.3361 74.5768 100.644 88.4221C101.356 90.6816 101.452 92.6373 102.053 94.9677C103.145 99.6999 104.683 104.612 105.792 109.255C106.919 113.808 107.935 118.434 110.036 122.442C111.061 124.579 116.432 126.65 118.744 128.119C120.441 129.282 123.177 130.557 124.653 131.862C127.439 134.345 130.173 137.095 132.739 139.72C134.014 141.077 138.213 144.208 138.143 146.037L138.143 146.037Z" fill="#0080A4"/>
      <path id="Vector_2" d="M58.7309 50.3105C57.1544 50.0005 56.0071 49.9599 54.8419 50.0073C54.842 50.0068 54.8244 50.0964 54.807 50.1849L54.9926 50.2214C55.4555 51.7872 56.5607 53.0189 57.2436 54.4435C57.7066 56.0093 58.0758 57.5572 58.5387 59.1236C58.6487 59.0527 58.7586 58.9823 58.7586 58.9823C60.2323 58.3497 61.1603 57.0574 61.5792 54.9276C61.1447 54.1968 61.1745 53.5572 60.8331 52.8446C60.4516 51.8471 59.3329 51.1668 58.7309 50.3105Z" fill="#0080A4"/>
    </g>
    <g id="css3">
      <path id="Vector_3" d="M620.353 411.531L553.338 393.251L538.404 228.667H702.503L687.553 393.225L620.353 411.531Z" fill="#264DE4"/>
      <path id="Vector_4" d="M674.754 382.747L687.53 242.124H620.453V397.539L674.754 382.747Z" fill="#2965F1"/>
      <path id="Vector_5" d="M572.64 303.166L574.481 323.351H620.453V303.166H572.64Z" fill="#EBEBEB"/>
      <path id="Vector_6" d="M568.94 262.31L570.808 282.496H620.454V262.31H568.94Z" fill="#EBEBEB"/>
      <path id="Vector_7" d="M620.453 355.59L620.363 355.614L597.484 349.543L596.021 333.444H575.399L578.277 365.139L620.359 376.617L620.453 376.591V355.59Z" fill="#EBEBEB"/>
      <path id="Vector_8" d="M668.135 303.166L671.844 262.31H620.382V282.496H649.33L647.461 303.166H620.382V323.351H645.679L643.295 349.53L620.382 355.607V376.607L662.497 365.139L662.806 361.728L667.634 308.586L668.135 303.166Z" fill="white"/>
    </g>
    <g id="nodejs">
      <path id="Vector_9" d="M736.975 257.988C741.254 255.566 746.851 255.516 751.162 257.887C772.849 269.597 794.542 281.288 816.226 293.006C820.304 295.201 823.053 299.576 823.045 304.126L823.572 375.506C823.638 380.244 820.685 384.765 816.416 386.97C794.975 398.922 773.545 410.889 752.107 422.842C747.74 425.311 742.029 425.164 737.761 422.557C731.28 418.966 724.788 415.393 718.306 411.805C716.981 411.05 715.49 410.452 714.55 409.216C715.365 408.131 716.836 407.986 718.029 407.507C720.717 406.655 723.181 405.3 725.647 403.985C726.269 403.565 727.035 403.719 727.637 404.087C733.179 407.124 738.673 410.25 744.233 413.258C745.419 413.912 746.609 413.023 747.615 412.469C768.655 400.711 789.721 388.997 810.758 377.235C811.538 376.864 811.964 376.053 811.894 375.22C811.735 351.673 811.551 328.122 811.38 304.575C811.463 303.629 810.894 302.764 810.011 302.383C788.471 290.791 766.942 279.181 745.405 267.587C745.032 267.341 744.59 267.211 744.139 267.213C743.688 267.216 743.249 267.351 742.878 267.601C721.515 279.506 700.163 291.433 678.8 303.33C677.926 303.724 677.345 304.583 677.456 305.532C677.633 329.079 677.803 352.63 677.977 376.18C677.943 376.587 678.038 376.995 678.249 377.347C678.46 377.7 678.778 377.982 679.158 378.154C684.906 381.268 690.66 384.361 696.411 387.464C699.65 389.13 703.62 390.104 707.165 388.785C710.294 387.669 712.471 384.541 712.387 381.304C712.244 357.894 712.026 334.481 711.891 311.075C711.805 310.036 712.812 309.17 713.852 309.261C716.603 309.223 719.357 309.185 722.107 309.209C723.255 309.176 724.053 310.289 723.919 311.337C724.082 334.895 724.296 358.453 724.422 382.011C724.476 388.289 721.873 395.14 715.922 398.254C708.589 402.013 699.487 401.292 692.19 397.79C685.873 394.781 679.84 391.22 673.633 387.992C669.321 385.861 666.317 381.365 666.312 376.63L665.785 305.249C665.706 300.605 668.498 296.111 672.67 293.889C694.108 281.927 715.541 269.956 736.975 257.988Z" fill="#8CC84B"/>
      <path id="Vector_10" d="M756.122 307.303C765.506 306.648 775.558 306.816 784.039 311.251C790.605 314.65 794.285 321.854 794.452 328.917C794.276 329.871 793.256 330.404 792.32 330.346C789.596 330.361 786.872 330.42 784.147 330.386C782.992 330.437 782.313 329.407 782.161 328.415C781.353 325.04 779.432 321.707 776.148 320.1C771.106 317.691 765.283 317.855 759.805 317.945C755.808 318.18 751.51 318.548 748.139 320.858C745.551 322.608 744.787 326.109 745.736 328.918C746.626 330.933 749.031 331.568 750.999 332.155C762.334 334.951 774.321 334.579 785.446 338.285C790.052 339.795 794.569 342.763 796.176 347.428C798.28 353.681 797.433 361.179 792.883 366.243C789.194 370.411 783.793 372.703 778.398 373.965C771.221 375.575 763.761 375.668 756.455 375.028C749.585 374.316 742.428 372.614 737.095 368.105C732.535 364.313 730.278 358.369 730.455 352.615C730.501 351.643 731.491 350.959 732.448 351.032C735.191 350.991 737.934 350.964 740.677 350.977C741.772 350.893 742.591 351.807 742.655 352.811C743.185 356.027 744.455 359.398 747.357 361.287C752.958 364.743 759.951 364.454 766.335 364.506C771.622 364.24 777.557 364.129 781.848 360.7C784.111 358.746 784.761 355.499 784.125 352.714C783.441 350.363 780.899 349.284 778.717 348.582C767.523 345.227 755.41 346.56 744.321 342.755C739.819 341.245 735.455 338.359 733.697 333.887C731.243 327.558 732.288 319.7 737.32 314.802C742.226 309.93 749.345 308.017 756.122 307.302L756.122 307.303Z" fill="#8CC84B"/>
    </g>
    <g id="figma">
      <path id="Vector_11" d="M816.549 401.474C831.43 401.474 843.507 389.808 843.507 375.433V349.392H816.549C801.668 349.392 789.591 361.059 789.591 375.433C789.591 389.808 801.668 401.474 816.549 401.474Z" fill="#0ACF83"/>
      <path id="Vector_12" d="M789.591 323.351C789.591 308.977 801.668 297.31 816.549 297.31H843.507V349.392H816.549C801.668 349.392 789.591 337.726 789.591 323.351Z" fill="#A259FF"/>
      <path id="Vector_13" d="M789.592 271.269C789.592 256.895 801.669 245.228 816.55 245.228H843.508V297.31H816.55C801.669 297.31 789.592 285.644 789.592 271.269Z" fill="#F24E1E"/>
      <path id="Vector_14" d="M843.507 245.228H870.466C885.346 245.228 897.424 256.895 897.424 271.269C897.424 285.644 885.346 297.31 870.466 297.31H843.507V245.228Z" fill="#FF7262"/>
      <path id="Vector_15" d="M897.424 323.351C897.424 337.726 885.346 349.392 870.466 349.392C855.585 349.392 843.507 337.726 843.507 323.351C843.507 308.977 855.585 297.31 870.466 297.31C885.346 297.31 897.424 308.977 897.424 323.351Z" fill="#1ABCFE"/>
    </g>
    <g id="sass">
      <path id="Vector_16" d="M973.366 386.412C967.312 386.437 962.05 387.579 957.643 389.267C956.027 386.759 954.41 384.524 954.125 382.886C953.808 380.974 953.428 379.806 953.808 377.522C954.188 375.237 955.9 371.984 955.868 371.736C955.837 371.488 955.488 370.321 952.001 370.296C948.514 370.271 945.503 370.817 945.154 371.537C944.806 372.258 944.14 373.897 943.696 375.585C943.094 378.068 936.723 386.933 933.077 391.577C931.904 389.764 930.89 388.175 930.668 386.908C930.351 384.996 929.971 383.829 930.351 381.545C930.732 379.26 932.443 376.007 932.412 375.759C932.38 375.511 932.031 374.343 928.544 374.319C925.057 374.294 922.046 374.84 921.697 375.56C921.349 376.28 920.968 377.969 920.239 379.608C919.51 381.247 911.047 396.046 908.828 399.87C907.687 401.832 906.704 403.397 906.007 404.464C906.007 404.464 905.975 404.539 905.88 404.663C905.278 405.582 904.929 406.078 904.929 406.078C904.929 406.078 904.929 406.078 904.929 406.103C904.453 406.774 903.946 407.394 903.693 407.394C903.503 407.394 903.154 405.607 903.756 403.173C905.024 398.033 908.035 390.037 908.004 389.764C908.004 389.615 908.574 388.224 906.038 387.504C903.566 386.784 902.678 387.976 902.456 387.976C902.235 387.976 902.076 388.398 902.076 388.398C902.076 388.398 904.834 379.409 896.814 379.409C891.806 379.409 884.896 383.705 881.472 387.579C879.317 388.498 874.72 390.459 869.807 392.57C867.937 393.389 866.003 394.209 864.196 394.979C864.07 394.879 863.943 394.755 863.816 394.656C854.116 386.536 836.175 380.8 836.936 369.899C837.221 365.926 838.964 355.496 871.392 342.832C898.082 332.527 919.32 335.383 922.997 341.715C928.259 350.753 911.617 367.54 884.04 369.973C873.516 370.892 868 367.713 866.606 366.521C865.147 365.28 864.926 365.205 864.387 365.454C863.499 365.826 864.07 366.944 864.387 367.589C865.211 369.278 868.603 372.258 874.34 373.723C879.412 375.014 891.742 375.734 906.672 371.215C923.377 366.149 936.437 352.069 932.602 340.274C928.766 328.305 903.407 324.357 879.412 331.037C865.147 335.01 849.679 341.268 838.552 349.412C825.334 359.097 823.242 367.515 824.098 371.041C827.173 383.556 849.203 391.701 858.015 397.735C857.571 397.934 857.159 398.107 856.811 398.256C852.405 399.97 835.604 406.848 831.42 414.124C826.665 422.368 832.181 428.278 835.826 429.073C847.143 431.531 858.776 427.111 865.021 419.81C871.265 412.51 870.504 403.024 867.62 398.679C867.588 398.629 867.556 398.579 867.493 398.53C868.634 398.008 869.807 397.462 870.948 396.94C873.199 395.897 875.418 394.929 877.32 394.134C876.242 396.444 875.449 399.2 875.069 403.173C874.594 407.841 877.034 413.9 880.236 416.284C881.662 417.327 883.342 417.352 884.42 417.352C888.16 417.352 889.84 414.918 891.711 412.038C893.993 408.512 896.053 404.415 896.053 404.415C896.053 404.415 893.486 415.49 900.459 415.49C902.995 415.49 905.563 412.907 906.704 411.591V411.616C906.704 411.616 906.767 411.541 906.894 411.368C907.148 411.045 907.306 410.846 907.306 410.846V410.796C908.321 409.406 910.603 406.252 913.995 401.013C918.369 394.258 922.585 385.816 922.585 385.816C922.585 385.816 922.965 387.877 924.265 391.304C925.026 393.315 926.611 395.525 927.879 397.66C926.864 398.778 926.23 399.399 926.23 399.399C926.23 399.399 926.23 399.399 926.262 399.423C925.438 400.268 924.55 401.187 923.568 402.08C920.113 405.309 915.992 409.009 915.421 410.076C914.755 411.343 914.914 412.261 916.182 413.006C917.101 413.553 918.749 413.627 920.43 413.553C923.536 413.379 925.723 412.783 926.801 412.41C928.481 411.939 930.446 411.219 932.285 410.151C935.676 408.189 937.737 405.383 937.547 401.683C937.452 399.647 936.596 397.611 935.55 395.699C935.867 395.351 936.152 395.003 936.469 394.656C941.826 388.522 945.978 381.793 945.978 381.793C945.978 381.793 946.359 383.854 947.658 387.281C948.292 389.019 949.592 390.906 950.733 392.744C945.693 395.947 942.587 399.672 941.477 402.105C939.48 406.625 941.033 408.661 943.981 409.133C945.313 409.356 947.215 408.86 948.609 408.388C950.385 407.941 952.477 407.171 954.474 406.029C957.865 404.067 961.13 401.336 960.94 397.636C960.845 395.947 960.274 394.283 959.482 392.669C963.761 391.279 969.277 390.509 976.314 391.155C991.402 392.545 994.382 399.92 993.811 403.024C993.241 406.128 990.071 407.817 989.025 408.338C987.979 408.86 987.63 409.033 987.725 409.406C987.852 409.952 988.359 409.927 989.247 409.828C990.483 409.654 997.171 407.32 997.457 401.609C997.932 394.308 989.057 386.337 973.366 386.412ZM856.969 417.153C851.961 421.424 844.987 423.038 841.976 421.673C838.743 420.208 840.011 413.9 846.16 409.381C849.9 406.625 854.719 404.067 857.92 402.503C858.649 402.155 859.727 401.658 861.027 401.038C861.248 400.938 861.375 400.889 861.375 400.889C861.629 400.764 861.882 400.64 862.136 400.516C864.387 406.972 862.231 412.659 856.969 417.153ZM893.422 397.735C891.679 401.062 888.034 409.58 885.815 409.108C883.913 408.711 882.74 402.254 885.434 395.873C886.797 392.669 889.682 388.845 891.362 387.355C894.088 384.971 897.099 384.177 897.829 385.145C898.748 386.412 894.5 395.649 893.422 397.735ZM923.504 409.009C922.775 409.307 922.078 409.505 921.761 409.356C921.539 409.257 922.078 408.86 922.078 408.86C922.078 408.86 925.85 405.681 927.34 404.241C928.196 403.397 929.21 402.403 930.288 401.286V401.609C930.288 405.408 925.596 407.966 923.504 409.009ZM946.708 404.862C946.169 404.564 946.264 403.57 948.071 400.466C948.768 399.25 950.416 397.213 953.237 395.252C953.554 396.046 953.776 396.816 953.745 397.536C953.713 402.329 949.339 404.117 946.708 404.862Z" fill="#CD6799"/>
    </g>
    <g id="html5">
      <path id="Vector_17" d="M406.344 228.667L394.879 397.27L329.92 417.147L264.459 399.594L246.884 231.475L406.344 228.667Z" fill="#E44D26"/>
      <path id="Vector_18" d="M329.802 402.853L382.255 386.789L392.046 242.689L326.912 243.837L329.802 402.853Z" fill="#F16529"/>
      <path id="Vector_19" d="M299.375 285.621L327.614 285.124L327.239 264.473L277.184 265.354L277.762 270.886L283.704 327.707L328.375 326.921L327.999 306.27L301.584 306.735L299.375 285.621Z" fill="#EBEBEB"/>
      <path id="Vector_20" d="M304.786 337.683L284.745 338.036L288.132 370.409L329.241 381.432L329.333 381.404L328.942 359.92L328.855 359.945L306.507 354.127L304.786 337.683Z" fill="#EBEBEB"/>
      <path id="Vector_21" d="M328.318 326.949L352.893 326.516L351.064 353.34L328.918 359.949L329.309 381.435L370.009 368.98L370.246 365.486L373.947 311.034L374.333 305.48L327.942 306.297L328.318 326.949Z" fill="white"/>
      <path id="Vector_22" d="M327.581 285.08L327.582 285.13L375.823 284.282L376.139 279.635L376.859 269.155L377.236 263.609L327.206 264.489L327.581 285.08Z" fill="white"/>
    </g>
    <g id="react">
      <path id="Vector_23" d="M258.056 231.074C256.166 230.407 254.208 229.776 252.192 229.178C252.524 227.791 252.828 226.421 253.098 225.075C257.536 202.969 254.635 185.16 244.725 179.297C235.224 173.675 219.684 179.537 203.99 193.551C202.481 194.899 200.968 196.325 199.455 197.821C198.447 196.831 197.441 195.875 196.437 194.961C179.989 179.976 163.503 173.661 153.604 179.542C144.111 185.18 141.3 201.922 145.295 222.872C145.681 224.896 146.132 226.962 146.642 229.063C144.308 229.743 142.056 230.467 139.901 231.238C120.617 238.136 108.302 248.948 108.302 260.162C108.302 271.744 121.523 283.361 141.608 290.405C143.193 290.961 144.837 291.486 146.532 291.985C145.982 294.258 145.504 296.484 145.102 298.656C141.292 319.243 144.267 335.589 153.735 341.192C163.514 346.978 179.925 341.031 195.906 326.697C197.169 325.564 198.437 324.363 199.707 323.103C201.353 324.73 202.996 326.269 204.631 327.713C220.11 341.38 235.398 346.9 244.857 341.281C254.626 335.478 257.801 317.918 253.679 296.554C253.364 294.922 252.998 293.255 252.587 291.559C253.739 291.209 254.871 290.848 255.974 290.473C276.854 283.374 290.439 271.899 290.439 260.162C290.439 248.907 277.727 238.023 258.056 231.074ZM253.527 282.894C252.531 283.233 251.509 283.56 250.468 283.877C248.163 276.389 245.051 268.427 241.244 260.201C244.877 252.17 247.868 244.31 250.109 236.871C251.972 237.424 253.78 238.008 255.523 238.623C272.377 244.577 282.659 253.379 282.659 260.162C282.659 267.386 271.555 276.765 253.527 282.894ZM246.046 298.104C247.869 307.551 248.129 316.093 246.922 322.77C245.837 328.769 243.655 332.77 240.958 334.372C235.218 337.781 222.943 333.349 209.705 321.661C208.188 320.321 206.659 318.89 205.125 317.376C210.258 311.616 215.387 304.921 220.393 297.485C229.198 296.683 237.516 295.373 245.06 293.583C245.432 295.121 245.762 296.63 246.046 298.104ZM170.397 333.783C164.789 335.815 160.322 335.873 157.622 334.276C151.877 330.875 149.489 317.751 152.747 300.145C153.12 298.129 153.564 296.058 154.076 293.941C161.537 295.634 169.795 296.852 178.621 297.586C183.661 304.862 188.938 311.55 194.256 317.407C193.094 318.558 191.937 319.653 190.786 320.686C183.719 327.024 176.638 331.521 170.397 333.783ZM144.124 282.85C135.243 279.736 127.908 275.687 122.881 271.27C118.364 267.301 116.083 263.36 116.083 260.162C116.083 253.357 125.971 244.677 142.462 238.777C144.463 238.061 146.557 237.386 148.731 236.753C151.01 244.36 154 252.313 157.608 260.356C153.953 268.518 150.921 276.598 148.62 284.295C147.07 283.838 145.569 283.357 144.124 282.85ZM152.931 221.339C149.508 203.389 151.781 189.849 157.502 186.451C163.595 182.831 177.069 187.992 191.271 200.931C192.178 201.758 193.09 202.624 194.004 203.519C188.712 209.35 183.483 215.987 178.488 223.221C169.922 224.035 161.722 225.344 154.183 227.096C153.709 225.14 153.289 223.218 152.931 221.339ZM231.497 241.245C229.694 238.05 227.844 234.932 225.958 231.898C231.769 232.652 237.337 233.653 242.566 234.877C240.996 240.039 239.039 245.437 236.736 250.97C235.084 247.751 233.337 244.506 231.497 241.245ZM199.458 209.225C203.047 213.214 206.641 217.669 210.176 222.501C206.614 222.329 203.007 222.239 199.371 222.239C195.769 222.239 192.189 222.327 188.649 222.496C192.188 217.708 195.813 213.26 199.458 209.225ZM167.214 241.3C165.413 244.503 163.698 247.73 162.072 250.964C159.806 245.45 157.868 240.028 156.284 234.793C161.481 233.599 167.023 232.624 172.797 231.884C170.884 234.946 169.019 238.087 167.214 241.299V241.3ZM172.963 289.009C166.997 288.326 161.373 287.4 156.177 286.24C157.786 280.911 159.767 275.373 162.081 269.741C163.711 272.972 165.433 276.201 167.244 279.411H167.245C169.09 282.681 171.001 285.885 172.963 289.009ZM199.673 311.662C195.985 307.579 192.307 303.063 188.714 298.205C192.202 298.345 195.757 298.417 199.371 298.417C203.083 298.417 206.753 298.331 210.365 298.166C206.819 303.112 203.238 307.635 199.673 311.662ZM236.811 269.454C239.245 275.147 241.297 280.656 242.927 285.894C237.646 287.13 231.944 288.126 225.937 288.866C227.827 285.791 229.694 282.619 231.528 279.356C233.383 276.055 235.145 272.748 236.811 269.454ZM224.788 275.367C221.941 280.433 219.018 285.268 216.05 289.833C210.646 290.229 205.062 290.433 199.371 290.433C193.703 290.433 188.189 290.253 182.88 289.899C179.793 285.275 176.807 280.425 173.978 275.411H173.978C171.157 270.411 168.56 265.368 166.207 260.353C168.559 255.327 171.149 250.279 173.955 245.287L173.954 245.288C176.767 240.284 179.727 235.457 182.786 230.862C188.202 230.442 193.757 230.223 199.371 230.223H199.371C205.01 230.223 210.571 230.444 215.986 230.867C218.998 235.429 221.939 240.24 224.762 245.245C227.618 250.307 230.242 255.322 232.614 260.24C230.249 265.243 227.631 270.308 224.788 275.367ZM240.839 186.214C246.938 189.823 249.31 204.378 245.478 223.464C245.233 224.682 244.958 225.922 244.659 227.179C237.103 225.39 228.897 224.059 220.306 223.232C215.301 215.919 210.115 209.271 204.91 203.515C206.309 202.134 207.707 200.817 209.099 199.573C222.545 187.566 235.113 182.825 240.839 186.214ZM199.371 243.473C208.353 243.473 215.635 250.945 215.635 260.162C215.635 269.378 208.353 276.85 199.371 276.85C190.389 276.85 183.107 269.378 183.107 260.162C183.107 250.945 190.389 243.473 199.371 243.473Z" fill="#00D8FF"/>
    </g>
    <g id="vue">
      <path id="Vector_24" d="M150.956 161.437H183.379L102.322 305.48L21.2644 161.437H53.2821H83.2734L102.322 194.838L120.965 161.437H150.956Z" fill="#41B883"/>
      <path id="Vector_25" d="M21.2644 161.437L102.322 305.48L183.379 161.437H150.956L102.322 247.863L53.2821 161.437H21.2644Z" fill="#41B883"/>
      <path id="Vector_26" d="M53.2823 161.437L102.322 248.28L150.957 161.437H120.965L102.322 194.838L83.2736 161.437H53.2823Z" fill="#35495E"/>
    </g>
    <g id="mongodb">
      <path id="Vector_27" d="M215.501 429.756C249.568 429.756 277.184 400.863 277.184 365.222C277.184 329.58 249.568 300.687 215.501 300.687C181.435 300.687 153.819 329.58 153.819 365.222C153.819 400.863 181.435 429.756 215.501 429.756Z" fill="#13AA52"/>
      <path id="Vector_28" d="M231.989 357.336C228.093 339.346 218.885 333.431 217.894 331.171C216.81 329.576 215.711 326.74 215.711 326.74C215.693 326.693 215.664 326.608 215.63 326.526C215.518 328.121 215.46 328.736 214.019 330.344C211.788 332.169 200.341 342.219 199.41 362.658C198.541 381.721 212.571 393.08 214.469 394.528L214.684 394.688V394.675C214.697 394.77 215.287 399.212 215.701 403.919H217.188C217.537 400.592 218.06 397.287 218.754 394.02L218.875 393.938C219.723 393.302 220.533 392.609 221.297 391.865L221.384 391.783C225.418 387.885 232.669 378.867 232.598 364.491C232.583 362.093 232.379 359.7 231.989 357.336ZM215.543 383.765C215.543 383.765 215.543 357.029 216.387 357.034C217.045 357.034 217.896 391.521 217.896 391.521C216.725 391.373 215.543 385.845 215.543 383.765Z" fill="white"/>
    </g>
    <g id="git">
      <rect id="Rectangle 12" width="96.8323" height="93.0915" rx="4" transform="matrix(0.70025 0.713897 -0.711172 0.703019 87.7223 251.307)" fill="#D9D9D9"/>
      <path id="Vector_29" d="M171.435 326.132L98.1642 254.416C97.1622 253.43 95.9713 252.648 94.66 252.115C93.3487 251.582 91.9427 251.307 90.5228 251.307C89.1028 251.307 87.6968 251.582 86.3855 252.115C85.0742 252.648 83.8833 253.43 82.8813 254.416L67.6856 269.34L86.9858 288.2C89.2621 287.445 91.7091 287.331 94.0483 287.871C96.3875 288.41 98.525 289.583 100.218 291.254C101.91 292.924 103.09 295.027 103.622 297.322C104.155 299.618 104.019 302.013 103.229 304.236L121.787 322.411C124.562 321.474 127.582 321.496 130.342 322.475C133.102 323.453 135.437 325.328 136.957 327.788C138.476 330.248 139.089 333.143 138.694 335.992C138.298 338.841 136.917 341.471 134.782 343.443C132.646 345.416 129.885 346.612 126.958 346.833C124.031 347.053 121.115 346.285 118.697 344.655C116.278 343.026 114.503 340.634 113.667 337.878C112.831 335.122 112.985 332.169 114.102 329.51L96.7669 312.533V357.222C99.3947 358.502 101.495 360.625 102.718 363.238C103.942 365.851 104.214 368.796 103.489 371.582C102.765 374.367 101.087 376.825 98.7369 378.547C96.3864 380.268 93.5046 381.149 90.5715 381.042C87.6385 380.935 84.8314 379.847 82.618 377.96C80.4045 376.072 78.9184 373.499 78.4072 370.668C77.8959 367.837 78.3905 364.921 79.8085 362.404C81.2265 359.887 83.4822 357.922 86.1999 356.837V311.763C84.629 311.135 83.2008 310.208 81.9978 309.037C80.7948 307.865 79.8409 306.471 79.1912 304.936C78.5415 303.401 78.209 301.755 78.2128 300.094C78.2166 298.432 78.5567 296.788 79.2134 295.256L60.2188 276.653L10.0033 325.832C7.98476 327.813 6.85107 330.497 6.85107 333.295C6.85107 336.093 7.98476 338.777 10.0033 340.757L83.3179 412.473C84.32 413.459 85.5109 414.24 86.8222 414.774C88.1335 415.307 89.5395 415.582 90.9594 415.582C92.3794 415.582 93.7853 415.307 95.0967 414.774C96.408 414.24 97.5988 413.459 98.6009 412.473L171.479 341.057C173.497 339.076 174.631 336.392 174.631 333.594C174.631 330.796 173.497 328.112 171.479 326.132" fill="#F05133"/>
    </g>
    <g id="javascript">
      <path id="Vector_30" d="M391.738 252.406H572.743V436.879H391.738V252.406Z" fill="#F7DF1E"/>
      <path id="Vector_31" d="M439.331 406.565L453.182 398.022C455.855 402.85 458.285 406.936 464.116 406.936C469.706 406.936 473.23 404.708 473.23 396.041V337.097H490.24V396.286C490.24 414.241 479.913 422.414 464.845 422.414C451.238 422.414 443.34 415.232 439.33 406.564L439.331 406.565ZM499.479 404.707L513.328 396.535C516.975 402.603 521.713 407.061 530.096 407.061C537.145 407.061 541.639 403.469 541.639 398.516C541.639 392.572 537.022 390.467 529.246 387.001L524.994 385.142C512.722 379.818 504.582 373.131 504.582 359.015C504.582 346.012 514.301 336.105 529.49 336.105C540.303 336.105 548.079 339.945 553.668 349.975L540.423 358.644C537.507 353.319 534.349 351.214 529.489 351.214C524.507 351.214 521.348 354.434 521.348 358.644C521.348 363.844 524.507 365.951 531.797 369.17L536.049 371.027C550.508 377.343 558.648 383.782 558.648 398.269C558.648 413.873 546.62 422.416 530.46 422.416C514.666 422.416 504.459 414.739 499.478 404.708" fill="black"/>
    </g>
  </g>
</svg>
