<svg width="1266" height="724" viewBox="0 0 1266 724" fill="none" xmlns="http://www.w3.org/2000/svg" id="main-logo">
  <g id="text">
    <path id="dark-L" d="M822.958 207.212H752.75L521.412 679.022H789.652L808.681 636.993H617.54L822.958 207.212Z" fill="#A2A2A2"/>
    <path id="ead" d="M925.715 533.41C938.126 533.41 947.459 537.248 953.713 544.924C960.222 552.441 958.193 567.234 947.629 589.304L940.739 603.697H885.154L891.47 590.503H907.693L915.042 575.15C919.942 564.915 922.41 558.278 922.446 555.24C922.736 552.041 921.222 550.202 917.906 549.722L925.715 533.41ZM908.102 550.202C905.797 550.202 903.006 551.401 899.731 553.8C896.632 556.199 893.743 560.197 891.063 565.795L850.642 650.236C848.039 655.673 847.139 659.591 847.941 661.99C848.92 664.389 850.562 665.589 852.867 665.589L844.599 682.861C830.77 682.861 820.728 679.022 814.473 671.346C808.473 663.51 807.922 654.474 812.822 644.238L847.616 571.552C852.515 561.317 861.678 552.361 875.105 544.684C888.709 537.008 902.425 533.17 916.255 533.17L908.102 550.202ZM861.795 665.828C867.066 665.189 871.506 662.95 875.117 659.112C878.727 655.273 882.599 649.036 886.733 640.4L892.819 627.686H926.33C916.225 648.796 905.219 663.27 893.311 671.106C881.481 678.782 868.296 682.621 853.757 682.621L861.795 665.828ZM973.957 674.225C970.23 675.344 967.504 676.224 965.779 676.863C964.054 677.503 962.114 678.223 959.958 679.022C957.879 679.662 955.433 680.142 952.62 680.462C949.808 680.782 947.072 680.941 944.412 680.941C937.143 680.941 931.297 679.262 926.877 675.904C922.484 671.746 923.465 663.03 929.819 649.756L935.676 637.522C940.422 627.606 944.979 621.049 949.347 617.851C953.892 614.652 962.29 610.814 974.54 606.336C986.967 601.858 999.558 597.78 1012.31 594.102L1006.8 605.616C999.389 609.614 993.411 613.213 988.866 616.411C985.336 618.97 982.669 621.209 980.863 623.128C976.894 628.086 973.226 634.083 969.857 641.12C965.953 649.276 963.957 655.113 963.868 658.632C963.784 661.031 964.499 662.87 966.014 664.149C967.707 665.429 969.794 666.068 972.276 666.068L978.206 665.349L973.957 674.225ZM1042.74 532.21C1056.57 532.21 1066.52 536.048 1072.6 543.725C1078.85 551.401 1079.53 560.357 1074.63 570.592L1022.72 679.022H982.033L1036.69 564.835C1039.37 559.238 1040.22 555.24 1039.24 552.841C1038.44 550.442 1036.89 549.242 1034.58 549.242L1042.74 532.21ZM1025.01 549.242C1022.88 549.242 1020.27 550.442 1017.17 552.841C1014.25 555.24 1011.45 559.238 1008.77 564.835L999.696 583.786H963.526L969.842 570.592C974.741 560.357 983.283 551.401 995.469 543.725C1007.83 536.048 1020.4 532.21 1033.16 532.21L1025.01 549.242ZM1144.69 679.022H1105.6L1190.69 501.264H1229.78L1144.69 679.022ZM1163.23 539.167C1152.36 534.849 1143.73 532.69 1137.35 532.69C1129.37 532.69 1121.24 534.849 1112.97 539.167C1104.87 543.485 1098.07 551.401 1092.56 562.916L1050.18 651.435C1044.67 662.95 1043.9 670.866 1047.86 675.184C1052 679.502 1058.06 681.661 1066.03 681.661C1072.42 681.661 1083.11 679.502 1098.12 675.184L1102.83 665.349C1096.8 666.468 1092.33 665.988 1089.43 663.909C1086.52 661.83 1087.33 656.073 1091.84 646.637L1129.62 567.714C1134.14 558.278 1138.85 552.521 1143.74 550.442C1148.64 548.363 1153.57 547.883 1158.53 549.002L1163.23 539.167Z" fill="#A2A2A2"/>
    <path id="bright-L" d="M501.544 31.9436H431.336L199.999 503.753H468.238L487.267 461.724H296.126L501.544 31.9436Z" fill="#E8E8E8"/>
    <path id="ambo" d="M533.058 498.956C529.331 500.075 526.605 500.955 524.88 501.595C523.155 502.234 521.215 502.954 519.059 503.754C516.98 504.393 514.534 504.873 511.721 505.193C508.909 505.513 506.172 505.673 503.513 505.673C496.243 505.673 490.398 503.993 485.978 500.635C481.585 496.477 482.566 487.761 488.92 474.487L494.776 462.253C499.523 452.337 504.08 445.78 508.448 442.582C512.993 439.383 521.391 435.545 533.641 431.067C546.068 426.589 558.658 422.511 571.412 418.833L565.9 430.347C558.49 434.346 552.512 437.944 547.967 441.142C544.437 443.701 541.769 445.94 539.964 447.859C535.995 452.817 532.327 458.814 528.958 465.851C525.054 474.007 523.057 479.845 522.969 483.363C522.884 485.762 523.6 487.601 525.115 488.88C526.808 490.16 528.895 490.8 531.377 490.8L537.307 490.08L533.058 498.956ZM601.837 356.941C615.667 356.941 625.62 360.78 631.697 368.456C637.952 376.133 638.629 385.088 633.73 395.324L581.825 503.754H541.134L595.794 389.566C598.473 383.969 599.324 379.971 598.344 377.572C597.542 375.173 595.989 373.974 593.684 373.974L601.837 356.941ZM584.109 373.974C581.982 373.974 579.368 375.173 576.27 377.572C573.348 379.971 570.548 383.969 567.869 389.566L558.797 408.518H522.627L528.942 395.324C533.842 385.088 542.384 376.133 554.57 368.456C566.932 360.78 579.496 356.941 592.262 356.941L584.109 373.974ZM636.771 503.754H597.675L666.345 360.3H705.441L636.771 503.754ZM713.293 363.898C728.303 359.58 739 357.421 745.383 357.421C753.361 357.421 759.331 359.58 763.293 363.898C767.431 368.216 766.745 376.133 761.233 387.647L705.654 503.754H666.292L719.574 392.445C724.091 383.009 724.897 377.252 721.991 375.173C719.086 373.094 714.617 372.614 708.585 373.734L713.293 363.898ZM779.516 363.898C794.526 359.58 805.223 357.421 811.606 357.421C819.585 357.421 825.555 359.58 829.516 363.898C833.655 368.216 832.968 376.133 827.456 387.647L771.877 503.754H732.515L785.798 392.445C790.315 383.009 791.12 377.252 788.215 375.173C785.309 373.094 780.84 372.614 774.808 373.734L779.516 363.898ZM876.109 325.996H915.205L830.114 503.754H791.018L876.109 325.996ZM906.37 363.898C921.38 359.58 932.077 357.421 938.46 357.421C946.438 357.421 952.409 359.58 956.37 363.898C960.509 368.216 959.822 376.133 954.31 387.647L911.937 476.166C906.425 487.681 899.532 495.597 891.26 499.915C883.164 504.233 875.127 506.392 867.149 506.392C860.766 506.392 852.136 504.233 841.26 499.915L845.968 490.08C850.928 491.199 855.857 490.72 860.753 488.641C865.649 486.562 870.355 480.804 874.872 471.369L912.652 392.445C917.168 383.009 917.974 377.252 915.068 375.173C912.163 373.094 907.694 372.614 901.662 373.734L906.37 363.898ZM1026.03 374.933C1023.73 374.933 1020.94 376.133 1017.66 378.531C1014.56 380.93 1011.67 384.928 1008.99 390.526L968.572 474.967C965.969 480.404 965.069 484.323 965.871 486.721C966.85 489.12 968.492 490.32 970.797 490.32L962.529 507.592C948.7 507.592 938.658 503.754 932.403 496.077C926.403 488.241 925.852 479.205 930.752 468.97L965.546 396.283C970.445 386.048 979.608 377.092 993.035 369.416C1006.64 361.739 1020.36 357.901 1034.19 357.901L1026.03 374.933ZM1035.61 374.933C1037.91 374.933 1039.46 376.133 1040.27 378.531C1041.25 380.93 1040.4 384.928 1037.72 390.526L997.296 474.967C994.693 480.404 991.753 484.323 988.477 486.721C985.379 489.12 982.677 490.32 980.372 490.32L972.104 507.592C985.934 507.592 999.562 503.754 1012.99 496.077C1026.67 488.241 1035.96 479.205 1040.86 468.97L1075.65 396.283C1080.55 386.048 1079.87 377.092 1073.62 369.416C1067.54 361.739 1057.59 357.901 1043.76 357.901L1035.61 374.933Z" fill="#E8E8E8"/>
  </g>
  <g id="full-tyre-mask-group">
    <mask id="mask0_119:32" style="mask-type:alpha" maskUnits="userSpaceOnUse" x="0" y="0" width="412" height="510">
      <g id="back-rectangle">
        <path d="M159.53 509.531H0.290222L0.290222 0.887665L411.057 0.887665L159.53 509.531Z" fill="#000747"/>
      </g>
    </mask>
    <g mask="url(#mask0_119:32)">
      <g id="full-tyre">
        <path id="tyre" d="M543.362 267.849C543.362 411.443 426.956 527.849 283.362 527.849C139.768 527.849 23.3618 411.443 23.3618 267.849C23.3618 124.255 139.768 7.84863 283.362 7.84863C426.956 7.84863 543.362 124.255 543.362 267.849ZM61.6875 267.849C61.6875 390.276 160.934 489.523 283.362 489.523C405.789 489.523 505.036 390.276 505.036 267.849C505.036 145.421 405.789 46.1743 283.362 46.1743C160.934 46.1743 61.6875 145.421 61.6875 267.849Z" fill="#A2A2A2"/>
        <g id="rim">
          <path fill-rule="evenodd" clip-rule="evenodd" d="M503.362 267.849C503.362 307.968 492.623 345.579 473.863 377.964C435.808 443.658 364.745 487.849 283.362 487.849C201.978 487.849 130.916 443.658 92.8604 377.964C74.1006 345.579 63.3618 307.968 63.3618 267.849C63.3618 227.891 74.0144 190.421 92.6345 158.125C130.634 92.2143 201.817 47.8486 283.362 47.8486C364.907 47.8486 436.09 92.2143 474.089 158.125C492.709 190.421 503.362 227.891 503.362 267.849ZM147.147 150.807L147.146 150.807L147.144 150.806L147.143 150.806C143.453 149.53 139.75 148.251 136.048 146.998C164.774 111.943 205.741 87.3241 252.412 79.6884C251.617 83.6577 250.849 87.6422 250.084 91.6119L250.083 91.618L250.083 91.6191L250.083 91.6203C245.206 116.927 240.445 141.636 229.601 158.035C226.381 162.904 221.063 165.973 215.236 166.328C195.529 167.532 171.61 159.264 147.147 150.807ZM262.184 78.3489C258.901 78.7125 255.643 79.1597 252.412 79.6884C252.751 77.995 253.094 76.3044 253.445 74.6188C253.878 72.5357 252.076 70.6662 249.986 71.0682C225.875 75.7072 203.573 83.5525 183.663 95.1121C163.695 106.571 145.747 121.986 129.671 140.545C128.278 142.153 128.995 144.649 131.016 145.316C132.692 145.869 134.37 146.431 136.048 146.998C133.914 149.603 131.848 152.265 129.851 154.981C126.485 153.567 123.913 152.492 122.454 151.883C121.625 151.538 120.709 151.806 120.159 152.515C118.726 154.365 117.502 156.004 116.359 157.623C152.142 103.392 213.578 67.6135 283.362 67.6135C353.146 67.6135 414.582 103.392 450.365 157.623C449.222 156.005 447.998 154.365 446.564 152.516C446.014 151.806 445.099 151.538 444.27 151.883C442.81 152.492 440.239 153.567 436.872 154.982C434.876 152.265 432.809 149.603 430.675 146.998C432.353 146.431 434.031 145.869 435.708 145.316C437.728 144.649 438.446 142.153 437.052 140.545C420.976 121.986 403.028 106.571 383.06 95.1121C363.151 83.5525 340.848 75.7072 316.737 71.0682C314.648 70.6662 312.845 72.5357 313.279 74.6188C313.629 76.3044 313.973 77.995 314.312 79.6884C311.081 79.1597 307.823 78.7125 304.539 78.3489C304.094 74.8066 303.748 72.1025 303.55 70.5575C303.436 69.6669 302.746 69.0076 301.856 68.8854C295.136 67.962 290.821 67.6887 283.362 67.6252C275.903 67.6887 271.588 67.962 264.867 68.8854C263.978 69.0076 263.288 69.6669 263.174 70.5575C262.975 72.1024 262.63 74.8066 262.184 78.3489ZM262.184 78.3489C269.137 77.5788 276.203 77.1834 283.362 77.1834C290.52 77.1834 297.586 77.5788 304.539 78.3489C307.184 99.3526 313.362 149.825 313.362 162.849C313.362 179.417 299.93 192.849 283.362 192.849C266.793 192.849 253.362 179.417 253.362 162.849C253.362 149.825 259.54 99.3526 262.184 78.3489ZM314.312 79.6884C360.982 87.3241 401.95 111.943 430.675 146.998C426.974 148.25 423.272 149.53 419.582 150.805L419.576 150.807C395.114 159.264 371.195 167.532 351.487 166.328C345.661 165.973 340.343 162.904 337.123 158.035C326.278 141.636 321.517 116.927 316.641 91.6202C315.875 87.6477 315.107 83.6605 314.312 79.6884ZM458.025 191.728C441.057 204.576 400.625 234.971 389.376 241.456C375.022 249.73 356.678 244.801 348.403 230.447C340.129 216.093 345.057 197.748 359.412 189.474C370.665 182.987 417.264 163.219 436.872 154.982C445.215 166.336 452.332 178.651 458.025 191.728ZM462.685 179.07C475.922 205.819 483.362 235.953 483.362 267.826C483.362 299.908 475.824 330.227 462.425 357.105C463.225 355.365 464.007 353.544 464.86 351.456C465.2 350.625 464.975 349.698 464.261 349.153C463.002 348.191 460.782 346.498 457.868 344.284C459.168 341.316 460.394 338.308 461.545 335.263C462.878 336.438 464.207 337.616 465.527 338.797C467.113 340.215 469.634 339.592 470.333 337.582C478.396 314.39 482.801 291.145 482.77 268.123C482.855 245.101 478.528 221.858 470.519 198.648C469.825 196.636 467.306 196.007 465.716 197.422C464.4 198.593 463.076 199.762 461.747 200.927C460.584 197.821 459.343 194.754 458.025 191.728C460.947 189.516 463.173 187.824 464.434 186.864C465.149 186.32 465.375 185.393 465.037 184.562C464.213 182.537 463.456 180.762 462.685 179.07ZM436.639 380.987C445.006 369.649 452.148 357.349 457.868 344.284C440.926 331.413 400.531 300.944 389.291 294.441C374.949 286.144 356.597 291.043 348.3 305.384C340.002 319.726 344.902 338.078 359.243 346.375C370.484 352.879 417.039 372.716 436.639 380.987ZM450.052 378.502C454.598 371.655 458.734 364.51 462.425 357.105C460.82 360.599 459.146 363.764 456.689 368.095C454.171 372.364 452.267 375.385 450.052 378.502ZM288.883 467.964C356.177 466.138 415.175 431.037 450.052 378.502C448.933 380.077 447.734 381.676 446.337 383.472C445.785 384.181 444.869 384.448 444.041 384.101C442.581 383.489 440.008 382.409 436.639 380.987C434.692 383.626 432.678 386.213 430.6 388.746C426.899 387.493 423.198 386.213 419.509 384.937L419.507 384.936L419.504 384.935L419.502 384.934L419.499 384.933L419.497 384.932L419.495 384.932L419.493 384.931C395.033 376.469 371.117 368.196 351.409 369.394C345.582 369.748 340.264 372.816 337.043 377.684C326.194 394.08 321.427 418.788 316.544 444.094L316.543 444.099C315.78 448.054 315.014 452.024 314.222 455.979C311.022 456.501 307.796 456.943 304.545 457.303C307.192 436.272 313.362 385.862 313.362 372.849C313.362 356.28 299.93 342.849 283.362 342.849C266.793 342.849 253.362 356.28 253.362 372.849C253.362 385.862 259.531 436.272 262.178 457.303C258.927 456.943 255.701 456.501 252.502 455.979C251.709 452.022 250.943 448.051 250.179 444.094C245.297 418.788 240.529 394.08 229.681 377.684C226.46 372.816 221.141 369.748 215.315 369.394C195.606 368.195 171.69 376.469 147.229 384.932L147.224 384.933L147.217 384.936L147.207 384.939C143.521 386.214 139.822 387.494 136.124 388.746C134.046 386.213 132.032 383.626 130.084 380.987C149.684 372.716 196.239 352.879 207.481 346.375C221.822 338.078 226.721 319.725 218.424 305.384C210.126 291.043 191.774 286.144 177.433 294.441C166.193 300.944 125.798 331.413 108.856 344.284C107.556 341.316 106.33 338.308 105.179 335.263C108.106 332.684 111.057 330.118 113.998 327.561L114.004 327.556C133.537 310.574 152.636 293.97 161.425 276.29C164.024 271.063 164.017 264.923 161.404 259.703C152.602 242.123 133.564 225.669 114.064 208.818C111.034 206.199 107.993 203.571 104.977 200.927C106.14 197.821 107.381 194.754 108.698 191.728C125.666 204.576 166.098 234.971 177.347 241.456C191.702 249.73 210.046 244.801 218.32 230.447C226.595 216.093 221.666 197.748 207.312 189.474C196.058 182.987 149.46 163.219 129.851 154.981C121.508 166.336 114.392 178.651 108.698 191.728C105.777 189.516 103.551 187.824 102.289 186.864C101.575 186.32 101.348 185.393 101.687 184.561C102.51 182.537 103.268 180.762 104.039 179.07C107.711 171.649 111.829 164.488 116.359 157.623C114.188 160.698 112.307 163.697 109.831 167.909C107.344 172.311 105.661 175.509 104.039 179.07C90.802 205.819 83.3618 235.953 83.3618 267.826C83.3618 299.908 90.8994 330.227 104.298 357.106C105.903 360.599 107.578 363.764 110.034 368.095C112.553 372.363 114.456 375.384 116.671 378.501C151.548 431.036 210.547 466.138 277.841 467.964C279.522 468.022 281.325 468.055 283.362 468.072C285.399 468.055 287.202 468.022 288.883 467.964ZM288.883 467.964C293.357 467.811 296.971 467.483 301.856 466.812C302.746 466.69 303.436 466.03 303.55 465.14C303.749 463.588 304.096 460.868 304.545 457.303C297.59 458.073 290.522 458.469 283.362 458.469C276.202 458.469 269.134 458.073 262.178 457.303C262.627 460.868 262.975 463.588 263.174 465.14C263.288 466.03 263.978 466.69 264.867 466.812C269.752 467.483 273.366 467.811 277.841 467.964C279.675 468.014 281.516 468.039 283.362 468.039C285.208 468.039 287.049 468.014 288.883 467.964ZM116.671 378.501C112.126 371.654 107.99 364.51 104.298 357.106C103.499 355.365 102.717 353.544 101.863 351.456C101.524 350.625 101.749 349.698 102.463 349.153C103.721 348.191 105.942 346.498 108.856 344.284C114.576 357.349 121.717 369.649 130.084 380.987C126.715 382.409 124.143 383.489 122.683 384.101C121.854 384.448 120.938 384.181 120.387 383.472C118.989 381.675 117.791 380.076 116.671 378.501ZM136.124 388.746C164.864 423.775 205.835 448.367 252.502 455.979C252.844 457.687 253.191 459.393 253.546 461.094C253.979 463.177 252.177 465.047 250.088 464.646C225.975 460.012 203.671 452.173 183.759 440.618C163.788 429.164 145.836 413.753 129.756 395.198C128.362 393.591 129.079 391.094 131.099 390.427C132.773 389.874 134.448 389.313 136.124 388.746ZM314.222 455.979C313.88 457.688 313.532 459.393 313.178 461.094C312.744 463.177 314.546 465.047 316.636 464.646C340.748 460.013 363.052 452.173 382.965 440.618C402.935 429.164 420.887 413.753 436.968 395.198C438.362 393.591 437.645 391.094 435.625 390.427C433.951 389.874 432.275 389.313 430.6 388.746C401.859 423.775 360.889 448.367 314.222 455.979ZM461.747 200.927C458.738 203.564 455.704 206.186 452.681 208.799L452.675 208.804L452.67 208.809L452.662 208.815L452.659 208.818C433.16 225.67 414.121 242.123 405.32 259.703C402.706 264.923 402.7 271.063 405.298 276.29C414.088 293.97 433.187 310.574 452.72 327.556C455.663 330.115 458.616 332.682 461.545 335.263C469.467 314.298 473.802 291.569 473.802 267.826C473.802 244.286 469.54 221.743 461.747 200.927ZM462.685 179.07C459.013 171.649 454.894 164.488 450.365 157.623C452.536 160.698 454.416 163.697 456.893 167.909C459.38 172.311 461.063 175.509 462.685 179.07ZM101.196 338.797C102.517 337.616 103.845 336.438 105.179 335.263C97.2571 314.298 92.9215 291.569 92.9215 267.826C92.9215 244.286 97.1834 221.743 104.977 200.927C103.648 199.762 102.323 198.593 101.007 197.422C99.4181 196.007 96.8985 196.636 96.2045 198.648C88.1958 221.858 83.8682 245.101 83.9533 268.123C83.9223 291.145 88.3276 314.39 96.3909 337.582C97.0896 339.592 99.6106 340.215 101.196 338.797ZM238.823 242.898C239.473 243.108 240.087 243.379 240.661 243.702C244.161 245.67 246.152 249.579 245.683 253.57C245.682 253.577 245.682 253.585 245.681 253.592C245.605 254.225 245.467 254.859 245.264 255.488C243.566 260.744 237.93 263.628 232.674 261.93C227.419 260.232 224.535 254.595 226.233 249.34C226.486 248.554 226.828 247.822 227.244 247.15C227.793 246.26 228.472 245.476 229.246 244.815C230.787 243.499 232.706 242.67 234.739 242.463C235.365 242.399 236.003 242.394 236.643 242.452C236.649 242.453 236.655 242.453 236.661 242.454C237.381 242.52 238.105 242.667 238.823 242.898ZM283.313 227.849C288.835 227.849 293.313 223.371 293.313 217.849C293.313 212.326 288.835 207.849 283.313 207.849C277.79 207.849 273.313 212.326 273.313 217.849C273.313 220.119 274.069 222.212 275.343 223.89C276.732 225.72 278.737 227.056 281.049 227.591C281.129 227.61 281.209 227.627 281.29 227.644C281.943 227.778 282.62 227.849 283.313 227.849ZM255.846 230.085C254.501 231.052 252.627 230.746 251.659 229.401C250.82 228.234 250.939 226.669 251.864 225.643C252.005 225.486 252.165 225.342 252.343 225.214C253.677 224.254 255.532 224.548 256.506 225.865L256.53 225.898C257.471 227.206 257.207 229.015 255.955 230.003C255.92 230.031 255.883 230.058 255.846 230.085ZM233.202 284.154C233.402 284.789 233.794 285.311 234.293 285.676C235.037 286.219 236.019 286.413 236.964 286.116C238.545 285.619 239.423 283.934 238.926 282.354L238.913 282.315C238.82 282.03 238.687 281.769 238.523 281.535C238.48 281.473 238.434 281.413 238.386 281.355C237.632 280.434 236.368 280.013 235.164 280.392C233.584 280.889 232.705 282.574 233.202 284.154ZM246.004 302.235C249.259 297.773 255.515 296.795 259.977 300.049C264.438 303.304 265.417 309.56 262.162 314.022C261.174 315.377 259.908 316.411 258.5 317.102C255.338 318.655 251.458 318.481 248.38 316.343C248.316 316.298 248.253 316.253 248.19 316.207C243.728 312.953 242.75 306.697 246.004 302.235ZM283.362 320.6C284.865 320.6 286.11 319.495 286.328 318.052C286.35 317.905 286.362 317.754 286.362 317.6C286.362 317.275 286.31 316.962 286.215 316.669C285.823 315.468 284.694 314.6 283.362 314.6L283.321 314.601C282.003 314.618 280.889 315.486 280.505 316.681C280.503 316.689 280.501 316.696 280.498 316.704C280.41 316.987 280.362 317.288 280.362 317.6C280.362 317.75 280.373 317.897 280.394 318.04C280.607 319.488 281.854 320.6 283.362 320.6ZM333.536 284.237C333.286 285.001 332.758 285.596 332.101 285.947C332.096 285.95 332.09 285.953 332.084 285.956C331.39 286.322 330.555 286.417 329.751 286.153C328.176 285.637 327.318 283.943 327.835 282.368C328.346 280.807 330.017 279.95 331.581 280.439L331.62 280.452C333.191 280.967 334.049 282.656 333.539 284.228C333.538 284.231 333.537 284.234 333.536 284.237ZM321.453 255.534C322.675 259.301 325.922 261.846 329.598 262.356C329.629 262.36 329.66 262.364 329.691 262.368C330.434 262.464 331.195 262.477 331.959 262.4C332.657 262.329 333.357 262.184 334.051 261.959C339.304 260.254 342.181 254.613 340.476 249.36C338.771 244.107 333.131 241.231 327.878 242.935C322.624 244.64 319.748 250.281 321.453 255.534ZM315.056 229.377C314.372 230.319 313.242 230.747 312.165 230.579C311.71 230.508 311.265 230.332 310.866 230.043C310.332 229.655 309.964 229.125 309.775 228.542C309.49 227.66 309.615 226.66 310.2 225.853C311.166 224.523 313.019 224.218 314.357 225.163L314.391 225.187C315.731 226.16 316.03 228.036 315.056 229.377ZM306.755 300.07C302.287 303.316 301.296 309.57 304.542 314.038C307.789 318.506 314.042 319.496 318.51 316.25C322.979 313.004 323.969 306.75 320.723 302.282C317.476 297.814 311.223 296.823 306.755 300.07ZM303.362 267.849C303.362 278.894 294.408 287.849 283.362 287.849C272.316 287.849 263.362 278.894 263.362 267.849C263.362 256.803 272.316 247.849 283.362 247.849C294.408 247.849 303.362 256.803 303.362 267.849Z" fill="#E8E8E8"/>
          <path fill-rule="evenodd" clip-rule="evenodd" d="M251.864 225.643C250.939 226.669 250.82 228.234 251.659 229.401C252.627 230.746 254.501 231.052 255.846 230.085C255.883 230.058 255.92 230.031 255.955 230.003C255.442 230.416 254.789 230.663 254.078 230.663C252.422 230.663 251.08 229.321 251.08 227.664C251.08 226.885 251.377 226.176 251.864 225.643Z" fill="#E8E8E8"/>
          <path fill-rule="evenodd" clip-rule="evenodd" d="M240.661 243.702C239.46 243.022 238.105 242.584 236.661 242.454C237.381 242.52 238.105 242.667 238.823 242.898C239.473 243.108 240.087 243.379 240.661 243.702ZM235.747 262.429C240.875 262.429 245.101 258.568 245.681 253.592C245.605 254.225 245.467 254.859 245.264 255.488C243.566 260.744 237.93 263.628 232.674 261.93C227.419 260.232 224.535 254.595 226.233 249.34C226.486 248.554 226.828 247.822 227.244 247.15C226.294 248.68 225.746 250.486 225.746 252.421C225.746 257.948 230.224 262.429 235.747 262.429ZM234.739 242.463C232.706 242.67 230.787 243.499 229.246 244.815C230.755 243.522 232.652 242.672 234.739 242.463Z" fill="#E8E8E8"/>
          <path fill-rule="evenodd" clip-rule="evenodd" d="M236.072 286.26C237.728 286.26 239.071 284.918 239.071 283.262C239.071 282.619 238.868 282.023 238.523 281.535C238.687 281.769 238.82 282.03 238.913 282.315L238.926 282.354C239.423 283.934 238.545 285.619 236.964 286.116C236.019 286.413 235.037 286.219 234.293 285.676C234.791 286.043 235.406 286.26 236.072 286.26Z" fill="#E8E8E8"/>
          <path fill-rule="evenodd" clip-rule="evenodd" d="M283.362 320.639C284.868 320.639 286.115 319.515 286.328 318.052C286.11 319.495 284.865 320.6 283.362 320.6C281.854 320.6 280.607 319.488 280.394 318.04C280.602 319.509 281.852 320.639 283.362 320.639ZM283.362 314.573C282.025 314.573 280.892 315.459 280.505 316.681C280.889 315.486 282.003 314.618 283.321 314.601L283.362 314.6C284.694 314.6 285.823 315.468 286.215 316.669C285.824 315.453 284.695 314.573 283.362 314.573Z" fill="#E8E8E8"/>
          <path fill-rule="evenodd" clip-rule="evenodd" d="M248.38 316.343C249.995 317.475 251.959 318.139 254.078 318.139C255.667 318.139 257.168 317.766 258.5 317.102C255.338 318.655 251.458 318.481 248.38 316.343Z" fill="#E8E8E8"/>
          <path fill-rule="evenodd" clip-rule="evenodd" d="M333.539 284.228C333.637 283.93 333.69 283.612 333.69 283.282C333.69 281.608 332.331 280.251 330.655 280.251C328.978 280.251 327.619 281.608 327.619 283.282C327.619 284.956 328.978 286.313 330.655 286.313C331.172 286.313 331.658 286.184 332.084 285.956C331.39 286.322 330.555 286.417 329.751 286.153C328.176 285.637 327.318 283.943 327.835 282.368C328.346 280.807 330.017 279.95 331.581 280.439L331.62 280.452C333.191 280.967 334.049 282.656 333.539 284.228Z" fill="#E8E8E8"/>
          <path fill-rule="evenodd" clip-rule="evenodd" d="M331.959 262.4C337.023 261.901 340.978 257.633 340.978 252.443C340.978 246.917 336.495 242.437 330.966 242.437C325.436 242.437 320.954 246.917 320.954 252.443C320.954 257.505 324.716 261.689 329.598 262.356C325.922 261.846 322.675 259.301 321.453 255.534C319.748 250.281 322.624 244.64 327.878 242.935C333.131 241.231 338.771 244.107 340.476 249.36C342.181 254.613 339.304 260.254 334.051 261.959C333.357 262.184 332.657 262.329 331.959 262.4Z" fill="#E8E8E8"/>
          <path fill-rule="evenodd" clip-rule="evenodd" d="M312.654 230.619C314.333 230.619 315.693 229.249 315.693 227.559C315.693 225.87 314.333 224.5 312.654 224.5C310.976 224.5 309.615 225.87 309.615 227.559C309.615 227.903 309.671 228.233 309.775 228.542C309.49 227.66 309.615 226.66 310.2 225.853C311.166 224.523 313.019 224.218 314.357 225.163L314.391 225.187C315.731 226.16 316.03 228.036 315.056 229.377C314.372 230.319 313.242 230.747 312.165 230.579C312.324 230.605 312.488 230.619 312.654 230.619Z" fill="#E8E8E8"/>
          <path fill-rule="evenodd" clip-rule="evenodd" d="M275.343 223.89C276.732 225.721 278.737 227.057 281.049 227.591C278.737 227.056 276.732 225.72 275.343 223.89Z" fill="#E8E8E8"/>
        </g>
      </g>
    </g>
  </g>
</svg>
