<svg viewBox="0 0 1519 717" fill="none" xmlns="http://www.w3.org/2000/svg" id="main-logo">
  <g id="full-tyre">
    <path id="tyre" d="M520.362 260.849C520.362 404.443 403.956 520.849 260.362 520.849C116.768 520.849 0.361816 404.443 0.361816 260.849C0.361816 117.255 116.768 0.848633 260.362 0.848633C403.956 0.848633 520.362 117.255 520.362 260.849ZM38.6875 260.849C38.6875 383.276 137.934 482.523 260.362 482.523C382.789 482.523 482.036 383.276 482.036 260.849C482.036 138.421 382.789 39.1743 260.362 39.1743C137.934 39.1743 38.6875 138.421 38.6875 260.849Z" fill="#A2A2A2"/>
    <g id="rim">
      <path fill-rule="evenodd" clip-rule="evenodd" d="M480.362 260.849C480.362 300.968 469.623 338.579 450.863 370.964C412.808 436.658 341.745 480.849 260.362 480.849C178.978 480.849 107.916 436.658 69.8604 370.964C51.1006 338.579 40.3618 300.968 40.3618 260.849C40.3618 220.891 51.0144 183.421 69.6345 151.125C107.634 85.2143 178.817 40.8486 260.362 40.8486C341.907 40.8486 413.09 85.2143 451.089 151.125C469.709 183.421 480.362 220.891 480.362 260.849ZM124.147 143.807L124.146 143.807L124.144 143.806L124.143 143.806C120.453 142.53 116.75 141.251 113.048 139.998C141.774 104.943 182.741 80.3241 229.412 72.6884C228.617 76.6577 227.849 80.6422 227.084 84.6119L227.083 84.618L227.083 84.6191L227.083 84.6203C222.206 109.927 217.445 134.636 206.601 151.035C203.381 155.904 198.063 158.973 192.236 159.328C172.529 160.532 148.61 152.264 124.147 143.807ZM239.184 71.3489C235.901 71.7125 232.643 72.1597 229.412 72.6884C229.751 70.995 230.094 69.3044 230.445 67.6188C230.878 65.5357 229.076 63.6662 226.986 64.0682C202.875 68.7072 180.573 76.5525 160.663 88.1121C140.695 99.5711 122.747 114.986 106.671 133.545C105.278 135.153 105.995 137.649 108.016 138.316C109.692 138.869 111.37 139.431 113.048 139.998C110.914 142.603 108.848 145.265 106.851 147.981C103.485 146.567 100.913 145.492 99.4537 144.883C98.625 144.538 97.7094 144.806 97.1592 145.515C95.7257 147.365 94.5021 149.004 93.359 150.623C129.142 96.3915 190.578 60.6135 260.362 60.6135C330.146 60.6135 391.582 96.3916 427.365 150.623C426.222 149.005 424.998 147.365 423.564 145.516C423.014 144.806 422.099 144.538 421.27 144.883C419.81 145.492 417.239 146.567 413.872 147.982C411.876 145.265 409.809 142.603 407.675 139.998C409.353 139.431 411.031 138.869 412.708 138.316C414.728 137.649 415.446 135.153 414.052 133.545C397.976 114.986 380.028 99.5711 360.06 88.1121C340.151 76.5525 317.848 68.7072 293.737 64.0682C291.648 63.6662 289.845 65.5357 290.279 67.6188C290.629 69.3044 290.973 70.995 291.312 72.6884C288.081 72.1597 284.823 71.7125 281.539 71.3489C281.094 67.8066 280.748 65.1025 280.55 63.5575C280.436 62.6669 279.746 62.0076 278.856 61.8854C272.136 60.962 267.821 60.6887 260.362 60.6252C252.903 60.6887 248.588 60.962 241.867 61.8854C240.978 62.0076 240.288 62.6669 240.174 63.5575C239.975 65.1024 239.63 67.8066 239.184 71.3489ZM239.184 71.3489C246.137 70.5788 253.203 70.1834 260.362 70.1834C267.52 70.1834 274.586 70.5788 281.539 71.3489C284.184 92.3526 290.362 142.825 290.362 155.849C290.362 172.417 276.93 185.849 260.362 185.849C243.793 185.849 230.362 172.417 230.362 155.849C230.362 142.825 236.54 92.3526 239.184 71.3489ZM291.312 72.6884C337.982 80.3241 378.95 104.943 407.675 139.998C403.974 141.25 400.272 142.53 396.582 143.805L396.576 143.807C372.114 152.264 348.195 160.532 328.487 159.328C322.661 158.973 317.343 155.904 314.123 151.035C303.278 134.636 298.517 109.927 293.641 84.6202C292.875 80.6477 292.107 76.6605 291.312 72.6884ZM435.025 184.728C418.057 197.576 377.625 227.971 366.376 234.456C352.022 242.73 333.678 237.801 325.403 223.447C317.129 209.093 322.057 190.748 336.412 182.474C347.665 175.987 394.264 156.219 413.872 147.982C422.215 159.336 429.332 171.651 435.025 184.728ZM439.685 172.07C452.922 198.819 460.362 228.953 460.362 260.826C460.362 292.908 452.824 323.227 439.425 350.105C440.225 348.365 441.007 346.544 441.86 344.456C442.2 343.625 441.975 342.698 441.261 342.153C440.002 341.191 437.782 339.498 434.868 337.284C436.168 334.316 437.394 331.308 438.545 328.263C439.878 329.438 441.207 330.616 442.527 331.797C444.113 333.215 446.634 332.592 447.333 330.582C455.396 307.39 459.801 284.145 459.77 261.123C459.855 238.101 455.528 214.858 447.519 191.648C446.825 189.636 444.306 189.007 442.716 190.422C441.4 191.593 440.076 192.762 438.747 193.927C437.584 190.821 436.343 187.754 435.025 184.728C437.947 182.516 440.173 180.824 441.434 179.864C442.149 179.32 442.375 178.393 442.037 177.562C441.213 175.537 440.456 173.762 439.685 172.07ZM413.639 373.987C422.006 362.649 429.148 350.349 434.868 337.284C417.926 324.413 377.531 293.944 366.291 287.441C351.949 279.144 333.597 284.043 325.3 298.384C317.002 312.726 321.902 331.078 336.243 339.375C347.484 345.879 394.039 365.716 413.639 373.987ZM427.052 371.502C431.598 364.655 435.734 357.51 439.425 350.105C437.82 353.599 436.146 356.764 433.689 361.095C431.171 365.364 429.267 368.385 427.052 371.502ZM265.883 460.964C333.177 459.138 392.175 424.037 427.052 371.502C425.933 373.077 424.734 374.676 423.337 376.472C422.785 377.181 421.869 377.448 421.041 377.101C419.581 376.489 417.008 375.409 413.639 373.987C411.692 376.626 409.678 379.213 407.6 381.746C403.899 380.493 400.198 379.213 396.509 377.937L396.507 377.936L396.504 377.935L396.502 377.934L396.499 377.933L396.497 377.932L396.495 377.932L396.493 377.931C372.033 369.469 348.117 361.196 328.409 362.394C322.582 362.748 317.264 365.816 314.043 370.684C303.194 387.08 298.427 411.788 293.544 437.094L293.543 437.099C292.78 441.054 292.014 445.024 291.222 448.979C288.022 449.501 284.796 449.943 281.545 450.303C284.192 429.272 290.362 378.862 290.362 365.849C290.362 349.28 276.93 335.849 260.362 335.849C243.793 335.849 230.362 349.28 230.362 365.849C230.362 378.862 236.531 429.272 239.178 450.303C235.927 449.943 232.701 449.501 229.502 448.979C228.709 445.022 227.943 441.051 227.179 437.094C222.297 411.788 217.529 387.08 206.681 370.684C203.46 365.816 198.141 362.748 192.315 362.394C172.606 361.195 148.69 369.469 124.229 377.932L124.224 377.933L124.217 377.936L124.207 377.939C120.521 379.214 116.822 380.494 113.124 381.746C111.046 379.213 109.032 376.626 107.084 373.987C126.684 365.716 173.239 345.879 184.481 339.375C198.822 331.078 203.721 312.725 195.424 298.384C187.126 284.043 168.774 279.144 154.433 287.441C143.193 293.944 102.798 324.413 85.8556 337.284C84.556 334.316 83.3297 331.308 82.179 328.263C85.1061 325.684 88.0574 323.118 90.9985 320.561L91.004 320.556C110.537 303.574 129.636 286.97 138.425 269.29C141.024 264.063 141.017 257.923 138.404 252.703C129.602 235.123 110.564 218.669 91.0642 201.818C88.034 199.199 84.9927 196.571 81.977 193.927C83.1397 190.821 84.381 187.754 85.6985 184.728C102.666 197.576 143.098 227.971 154.347 234.456C168.702 242.73 187.046 237.801 195.32 223.447C203.595 209.093 198.666 190.748 184.312 182.474C173.058 175.987 126.46 156.219 106.851 147.981C98.5082 159.336 91.392 171.651 85.6985 184.728C82.7769 182.516 80.551 180.824 79.2895 179.864C78.5749 179.32 78.3482 178.393 78.6865 177.561C79.5102 175.537 80.2676 173.762 81.0387 172.07C84.711 164.649 88.8295 157.488 93.359 150.623C91.1879 153.698 89.3073 156.697 86.8311 160.909C84.3436 165.311 82.6608 168.509 81.0387 172.07C67.802 198.819 60.3618 228.953 60.3618 260.826C60.3618 292.908 67.8994 323.227 81.2983 350.106C82.9034 353.599 84.5777 356.764 87.0344 361.095C89.5526 365.363 91.456 368.384 93.6714 371.501C128.548 424.036 187.547 459.138 254.841 460.964C256.522 461.022 258.325 461.055 260.362 461.072C262.399 461.055 264.202 461.022 265.883 460.964ZM265.883 460.964C270.357 460.811 273.971 460.483 278.856 459.812C279.746 459.69 280.436 459.03 280.55 458.14C280.749 456.588 281.096 453.868 281.545 450.303C274.59 451.073 267.522 451.469 260.362 451.469C253.202 451.469 246.134 451.073 239.178 450.303C239.627 453.868 239.975 456.588 240.174 458.14C240.288 459.03 240.978 459.69 241.867 459.812C246.752 460.483 250.366 460.811 254.841 460.964C256.675 461.014 258.516 461.039 260.362 461.039C262.208 461.039 264.049 461.014 265.883 460.964ZM93.6714 371.501C89.1256 364.654 84.9895 357.51 81.2983 350.106C80.4989 348.365 79.7166 346.544 78.8633 344.456C78.5236 343.625 78.7489 342.698 79.4626 342.153C80.7214 341.191 82.9417 339.498 85.8556 337.284C91.5759 350.349 98.7174 362.649 107.084 373.987C103.715 375.409 101.143 376.489 99.6826 377.101C98.8544 377.448 97.9384 377.181 97.3871 376.472C95.9893 374.675 94.7905 373.076 93.6714 371.501ZM113.124 381.746C141.864 416.775 182.835 441.367 229.502 448.979C229.844 450.687 230.191 452.393 230.546 454.094C230.979 456.177 229.177 458.047 227.088 457.646C202.975 453.012 180.671 445.173 160.759 433.618C140.788 422.164 122.836 406.753 106.756 388.198C105.362 386.591 106.079 384.094 108.099 383.427C109.773 382.874 111.448 382.313 113.124 381.746ZM291.222 448.979C290.88 450.688 290.532 452.393 290.178 454.094C289.744 456.177 291.546 458.047 293.636 457.646C317.748 453.013 340.052 445.173 359.965 433.618C379.935 422.164 397.887 406.753 413.968 388.198C415.362 386.591 414.645 384.094 412.625 383.427C410.951 382.874 409.275 382.313 407.6 381.746C378.859 416.775 337.889 441.367 291.222 448.979ZM438.747 193.927C435.738 196.564 432.704 199.186 429.681 201.799L429.675 201.804L429.67 201.809L429.662 201.815L429.659 201.818C410.16 218.67 391.121 235.123 382.32 252.703C379.706 257.923 379.7 264.063 382.298 269.29C391.088 286.97 410.187 303.574 429.72 320.556C432.663 323.115 435.616 325.682 438.545 328.263C446.467 307.298 450.802 284.569 450.802 260.826C450.802 237.286 446.54 214.743 438.747 193.927ZM439.685 172.07C436.013 164.649 431.894 157.488 427.365 150.623C429.536 153.698 431.416 156.697 433.893 160.909C436.38 165.311 438.063 168.509 439.685 172.07ZM78.1965 331.797C79.5169 330.616 80.8455 329.438 82.179 328.263C74.2571 307.298 69.9215 284.569 69.9215 260.826C69.9215 237.286 74.1834 214.743 81.977 193.927C80.6477 192.762 79.3234 191.593 78.0072 190.422C76.4181 189.007 73.8985 189.636 73.2045 191.648C65.1958 214.858 60.8682 238.101 60.9533 261.123C60.9223 284.145 65.3276 307.39 73.3909 330.582C74.0896 332.592 76.6106 333.215 78.1965 331.797ZM215.823 235.898C216.473 236.108 217.087 236.379 217.661 236.702C221.161 238.67 223.152 242.579 222.683 246.57C222.682 246.577 222.682 246.585 222.681 246.592C222.605 247.225 222.467 247.859 222.264 248.488C220.566 253.744 214.93 256.628 209.674 254.93C204.419 253.232 201.535 247.595 203.233 242.34C203.486 241.554 203.828 240.822 204.244 240.15C204.793 239.26 205.472 238.476 206.246 237.815C207.787 236.499 209.706 235.67 211.739 235.463C212.365 235.399 213.003 235.394 213.643 235.452C213.649 235.453 213.655 235.453 213.661 235.454C214.381 235.52 215.105 235.667 215.823 235.898ZM260.313 220.849C265.835 220.849 270.313 216.371 270.313 210.849C270.313 205.326 265.835 200.849 260.313 200.849C254.79 200.849 250.313 205.326 250.313 210.849C250.313 213.119 251.069 215.212 252.343 216.89C253.732 218.72 255.737 220.056 258.049 220.591C258.129 220.61 258.209 220.627 258.29 220.644C258.943 220.778 259.62 220.849 260.313 220.849ZM232.846 223.085C231.501 224.052 229.627 223.746 228.659 222.401C227.82 221.234 227.939 219.669 228.864 218.643C229.005 218.486 229.165 218.342 229.343 218.214C230.677 217.254 232.532 217.548 233.506 218.865L233.53 218.898C234.471 220.206 234.207 222.015 232.955 223.003C232.92 223.031 232.883 223.058 232.846 223.085ZM210.202 277.154C210.402 277.789 210.794 278.311 211.293 278.676C212.037 279.219 213.019 279.413 213.964 279.116C215.545 278.619 216.423 276.934 215.926 275.354L215.913 275.315C215.82 275.03 215.687 274.769 215.523 274.535C215.48 274.473 215.434 274.413 215.386 274.355C214.632 273.434 213.368 273.013 212.164 273.392C210.584 273.889 209.705 275.574 210.202 277.154ZM223.004 295.235C226.259 290.773 232.515 289.795 236.977 293.049C241.438 296.304 242.417 302.56 239.162 307.022C238.174 308.377 236.908 309.411 235.5 310.102C232.338 311.655 228.458 311.481 225.38 309.343C225.316 309.298 225.253 309.253 225.19 309.207C220.728 305.953 219.75 299.697 223.004 295.235ZM260.362 313.6C261.865 313.6 263.11 312.495 263.328 311.052C263.35 310.905 263.362 310.754 263.362 310.6C263.362 310.275 263.31 309.962 263.215 309.669C262.823 308.468 261.694 307.6 260.362 307.6L260.321 307.601C259.003 307.618 257.889 308.486 257.505 309.681C257.503 309.689 257.501 309.696 257.498 309.704C257.41 309.987 257.362 310.288 257.362 310.6C257.362 310.75 257.373 310.897 257.394 311.04C257.607 312.488 258.854 313.6 260.362 313.6ZM310.536 277.237C310.286 278.001 309.758 278.596 309.101 278.947C309.096 278.95 309.09 278.953 309.084 278.956C308.39 279.322 307.555 279.417 306.751 279.153C305.176 278.637 304.318 276.943 304.835 275.368C305.346 273.807 307.017 272.95 308.581 273.439L308.62 273.452C310.191 273.967 311.049 275.656 310.539 277.228C310.538 277.231 310.537 277.234 310.536 277.237ZM298.453 248.534C299.675 252.301 302.922 254.846 306.598 255.356C306.629 255.36 306.66 255.364 306.691 255.368C307.434 255.464 308.195 255.477 308.959 255.4C309.657 255.329 310.357 255.184 311.051 254.959C316.304 253.254 319.181 247.613 317.476 242.36C315.771 237.107 310.131 234.231 304.878 235.935C299.624 237.64 296.748 243.281 298.453 248.534ZM292.056 222.377C291.372 223.319 290.242 223.747 289.165 223.579C288.71 223.508 288.265 223.332 287.866 223.043C287.332 222.655 286.964 222.125 286.775 221.542C286.49 220.66 286.615 219.66 287.2 218.853C288.166 217.523 290.019 217.218 291.357 218.163L291.391 218.187C292.731 219.16 293.03 221.036 292.056 222.377ZM283.755 293.07C279.287 296.316 278.296 302.57 281.542 307.038C284.789 311.506 291.042 312.496 295.51 309.25C299.979 306.004 300.969 299.75 297.723 295.282C294.476 290.814 288.223 289.823 283.755 293.07ZM280.362 260.849C280.362 271.894 271.408 280.849 260.362 280.849C249.316 280.849 240.362 271.894 240.362 260.849C240.362 249.803 249.316 240.849 260.362 240.849C271.408 240.849 280.362 249.803 280.362 260.849Z" fill="#E8E8E8"/>
      <path fill-rule="evenodd" clip-rule="evenodd" d="M228.864 218.643C227.939 219.669 227.82 221.234 228.659 222.401C229.627 223.746 231.501 224.052 232.846 223.085C232.883 223.058 232.92 223.031 232.955 223.003C232.442 223.416 231.789 223.663 231.078 223.663C229.422 223.663 228.08 222.321 228.08 220.664C228.08 219.885 228.377 219.176 228.864 218.643Z" fill="#E8E8E8"/>
      <path fill-rule="evenodd" clip-rule="evenodd" d="M217.661 236.702C216.46 236.022 215.105 235.584 213.661 235.454C214.381 235.52 215.105 235.667 215.823 235.898C216.473 236.108 217.087 236.379 217.661 236.702ZM212.747 255.429C217.875 255.429 222.101 251.568 222.681 246.592C222.605 247.225 222.467 247.859 222.264 248.488C220.566 253.744 214.93 256.628 209.674 254.93C204.419 253.232 201.535 247.595 203.233 242.34C203.486 241.554 203.828 240.822 204.244 240.15C203.294 241.68 202.746 243.486 202.746 245.421C202.746 250.948 207.224 255.429 212.747 255.429ZM211.739 235.463C209.706 235.67 207.787 236.499 206.246 237.815C207.755 236.522 209.652 235.672 211.739 235.463Z" fill="#E8E8E8"/>
      <path fill-rule="evenodd" clip-rule="evenodd" d="M213.072 279.26C214.728 279.26 216.071 277.918 216.071 276.262C216.071 275.619 215.868 275.023 215.523 274.535C215.687 274.769 215.82 275.03 215.913 275.315L215.926 275.354C216.423 276.934 215.545 278.619 213.964 279.116C213.019 279.413 212.037 279.219 211.293 278.676C211.791 279.043 212.406 279.26 213.072 279.26Z" fill="#E8E8E8"/>
      <path fill-rule="evenodd" clip-rule="evenodd" d="M260.362 313.639C261.868 313.639 263.115 312.515 263.328 311.052C263.11 312.495 261.865 313.6 260.362 313.6C258.854 313.6 257.607 312.488 257.394 311.04C257.602 312.509 258.852 313.639 260.362 313.639ZM260.362 307.573C259.025 307.573 257.892 308.459 257.505 309.681C257.889 308.486 259.003 307.618 260.321 307.601L260.362 307.6C261.694 307.6 262.823 308.468 263.215 309.669C262.824 308.453 261.695 307.573 260.362 307.573Z" fill="#E8E8E8"/>
      <path fill-rule="evenodd" clip-rule="evenodd" d="M225.38 309.343C226.995 310.475 228.959 311.139 231.078 311.139C232.667 311.139 234.168 310.766 235.5 310.102C232.338 311.655 228.458 311.481 225.38 309.343Z" fill="#E8E8E8"/>
      <path fill-rule="evenodd" clip-rule="evenodd" d="M310.539 277.228C310.637 276.93 310.69 276.612 310.69 276.282C310.69 274.608 309.331 273.251 307.655 273.251C305.978 273.251 304.619 274.608 304.619 276.282C304.619 277.956 305.978 279.313 307.655 279.313C308.172 279.313 308.658 279.184 309.084 278.956C308.39 279.322 307.555 279.417 306.751 279.153C305.176 278.637 304.318 276.943 304.835 275.368C305.346 273.807 307.017 272.95 308.581 273.439L308.62 273.452C310.191 273.967 311.049 275.656 310.539 277.228Z" fill="#E8E8E8"/>
      <path fill-rule="evenodd" clip-rule="evenodd" d="M308.959 255.4C314.023 254.901 317.978 250.633 317.978 245.443C317.978 239.917 313.495 235.437 307.966 235.437C302.436 235.437 297.954 239.917 297.954 245.443C297.954 250.505 301.716 254.689 306.598 255.356C302.922 254.846 299.675 252.301 298.453 248.534C296.748 243.281 299.624 237.64 304.878 235.935C310.131 234.231 315.771 237.107 317.476 242.36C319.181 247.613 316.304 253.254 311.051 254.959C310.357 255.184 309.657 255.329 308.959 255.4Z" fill="#E8E8E8"/>
      <path fill-rule="evenodd" clip-rule="evenodd" d="M289.654 223.619C291.333 223.619 292.693 222.249 292.693 220.559C292.693 218.87 291.333 217.5 289.654 217.5C287.976 217.5 286.615 218.87 286.615 220.559C286.615 220.903 286.671 221.233 286.775 221.542C286.49 220.66 286.615 219.66 287.2 218.853C288.166 217.523 290.019 217.218 291.357 218.163L291.391 218.187C292.731 219.16 293.03 221.036 292.056 222.377C291.372 223.319 290.242 223.747 289.165 223.579C289.324 223.605 289.488 223.619 289.654 223.619Z" fill="#E8E8E8"/>
      <path fill-rule="evenodd" clip-rule="evenodd" d="M252.343 216.89C253.732 218.721 255.737 220.057 258.049 220.591C255.737 220.056 253.732 218.72 252.343 216.89Z" fill="#E8E8E8"/>
    </g>
  </g>
  <g id="text">
    <path id="back-rectangle" d="M371.875 24.9438H832.428V549.387H111.298L371.875 24.9438Z" fill="#000747"/>
    <path id="dark-L" d="M799.958 200.213H729.75L498.412 672.022H766.652L785.681 629.993H594.54L799.958 200.213Z" fill="#A2A2A2"/>
    <path id="ead" d="M902.715 526.41C915.127 526.41 924.459 530.248 930.714 537.924C937.222 545.441 935.194 560.234 924.629 582.304L917.739 596.697H862.154L868.47 583.503H884.693L892.043 568.15C896.942 557.915 899.41 551.278 899.446 548.24C899.736 545.041 898.223 543.202 894.907 542.722L902.715 526.41ZM885.102 543.202C882.797 543.202 880.007 544.401 876.731 546.8C873.632 549.199 870.743 553.197 868.064 558.795L827.643 643.236C825.04 648.673 824.139 652.591 824.941 654.99C825.921 657.389 827.563 658.589 829.868 658.589L821.6 675.861C807.77 675.861 797.728 672.022 791.474 664.346C785.473 656.51 784.923 647.474 789.822 637.238L824.616 564.552C829.516 554.317 838.679 545.361 852.105 537.684C865.709 530.008 879.426 526.17 893.256 526.17L885.102 543.202ZM838.796 658.828C844.066 658.189 848.507 655.95 852.117 652.112C855.728 648.273 859.6 642.036 863.734 633.4L869.82 620.686H903.331C893.225 641.796 882.219 656.27 870.312 664.106C858.481 671.782 845.296 675.621 830.757 675.621L838.796 658.828ZM950.958 667.225C947.23 668.344 944.504 669.224 942.78 669.863C941.055 670.503 939.115 671.223 936.959 672.022C934.88 672.662 932.434 673.142 929.621 673.462C926.808 673.782 924.072 673.941 921.413 673.941C914.143 673.941 908.298 672.262 903.877 668.904C899.485 664.746 900.465 656.03 906.82 642.756L912.676 630.522C917.422 620.606 921.98 614.049 926.348 610.851C930.893 607.652 939.291 603.814 951.54 599.336C963.968 594.858 976.558 590.78 989.312 587.102L983.8 598.616C976.39 602.614 970.412 606.213 965.866 609.411C962.337 611.97 959.669 614.209 957.864 616.128C953.895 621.086 950.226 627.083 946.858 634.12C942.953 642.276 940.957 648.113 940.869 651.632C940.784 654.031 941.499 655.87 943.015 657.149C944.707 658.429 946.795 659.068 949.277 659.068L955.207 658.349L950.958 667.225ZM1019.74 525.21C1033.57 525.21 1043.52 529.048 1049.6 536.725C1055.85 544.401 1056.53 553.357 1051.63 563.592L999.725 672.022H959.033L1013.69 557.835C1016.37 552.238 1017.22 548.24 1016.24 545.841C1015.44 543.442 1013.89 542.242 1011.58 542.242L1019.74 525.21ZM1002.01 542.242C999.881 542.242 997.268 543.442 994.169 545.841C991.248 548.24 988.448 552.238 985.768 557.835L976.696 576.786H940.526L946.842 563.592C951.742 553.357 960.284 544.401 972.469 536.725C984.832 529.048 997.396 525.21 1010.16 525.21L1002.01 542.242ZM1121.69 672.022H1082.6L1167.69 494.264H1206.78L1121.69 672.022ZM1140.23 532.167C1129.36 527.849 1120.73 525.69 1114.35 525.69C1106.37 525.69 1098.24 527.849 1089.97 532.167C1081.87 536.485 1075.07 544.401 1069.56 555.916L1027.18 644.435C1021.67 655.95 1020.9 663.866 1024.86 668.184C1029 672.502 1035.06 674.661 1043.03 674.661C1049.42 674.661 1060.11 672.502 1075.12 668.184L1079.83 658.349C1073.8 659.468 1069.33 658.988 1066.43 656.909C1063.52 654.83 1064.33 649.073 1068.84 639.637L1106.62 560.714C1111.14 551.278 1115.85 545.521 1120.74 543.442C1125.64 541.363 1130.57 540.883 1135.53 542.002L1140.23 532.167Z" fill="#A2A2A2"/>
    <path id="bright-L" d="M478.544 24.9438H408.336L176.998 496.754H445.238L464.267 454.725H273.126L478.544 24.9438Z" fill="#E8E8E8"/>
    <path id="ambo" d="M510.058 491.956C506.331 493.075 503.605 493.955 501.88 494.595C500.155 495.234 498.215 495.954 496.059 496.754C493.98 497.393 491.534 497.873 488.721 498.193C485.909 498.513 483.172 498.673 480.513 498.673C473.243 498.673 467.398 496.993 462.978 493.635C458.585 489.477 459.566 480.761 465.92 467.487L471.776 455.253C476.523 445.337 481.08 438.78 485.448 435.582C489.993 432.383 498.391 428.545 510.641 424.067C523.068 419.589 535.658 415.511 548.412 411.833L542.9 423.347C535.49 427.346 529.512 430.944 524.967 434.142C521.437 436.701 518.769 438.94 516.964 440.859C512.995 445.817 509.327 451.814 505.958 458.851C502.054 467.007 500.057 472.845 499.969 476.363C499.884 478.762 500.6 480.601 502.115 481.88C503.808 483.16 505.895 483.8 508.377 483.8L514.307 483.08L510.058 491.956ZM578.837 349.941C592.667 349.941 602.62 353.78 608.697 361.456C614.952 369.133 615.629 378.088 610.73 388.324L558.825 496.754H518.134L572.794 382.566C575.473 376.969 576.323 372.971 575.344 370.572C574.542 368.173 572.989 366.974 570.684 366.974L578.837 349.941ZM561.109 366.974C558.982 366.974 556.368 368.173 553.27 370.572C550.348 372.971 547.548 376.969 544.868 382.566L535.797 401.518H499.626L505.942 388.324C510.842 378.088 519.384 369.133 531.57 361.456C543.932 353.78 556.496 349.941 569.262 349.941L561.109 366.974ZM613.771 496.754H574.675L643.345 353.3H682.441L613.771 496.754ZM690.293 356.898C705.303 352.58 716 350.421 722.382 350.421C730.361 350.421 736.331 352.58 740.293 356.898C744.431 361.216 743.745 369.133 738.233 380.647L682.654 496.754H643.292L696.574 385.445C701.091 376.009 701.897 370.252 698.991 368.173C696.086 366.094 691.617 365.614 685.584 366.734L690.293 356.898ZM756.516 356.898C771.526 352.58 782.223 350.421 788.606 350.421C796.585 350.421 802.555 352.58 806.516 356.898C810.655 361.216 809.968 369.133 804.456 380.647L748.877 496.754H709.515L762.798 385.445C767.315 376.009 768.12 370.252 765.215 368.173C762.309 366.094 757.84 365.614 751.808 366.734L756.516 356.898ZM853.109 318.996H892.205L807.114 496.754H768.018L853.109 318.996ZM883.37 356.898C898.38 352.58 909.077 350.421 915.46 350.421C923.438 350.421 929.408 352.58 933.37 356.898C937.509 361.216 936.822 369.133 931.31 380.647L888.937 469.166C883.425 480.681 876.532 488.597 868.26 492.915C860.164 497.233 852.127 499.392 844.149 499.392C837.766 499.392 829.136 497.233 818.26 492.915L822.968 483.08C827.928 484.199 832.857 483.72 837.753 481.641C842.649 479.562 847.355 473.804 851.872 464.369L889.652 385.445C894.168 376.009 894.974 370.252 892.068 368.173C889.163 366.094 884.694 365.614 878.662 366.734L883.37 356.898ZM1003.03 367.933C1000.73 367.933 997.936 369.133 994.66 371.531C991.562 373.93 988.673 377.928 985.993 383.526L945.572 467.967C942.969 473.404 942.069 477.323 942.871 479.721C943.85 482.12 945.492 483.32 947.797 483.32L939.529 500.592C925.7 500.592 915.657 496.754 909.403 489.077C903.402 481.241 902.852 472.205 907.751 461.97L942.546 389.283C947.445 379.048 956.608 370.092 970.035 362.416C983.638 354.739 997.355 350.901 1011.18 350.901L1003.03 367.933ZM1012.61 367.933C1014.91 367.933 1016.46 369.133 1017.27 371.531C1018.25 373.93 1017.4 377.928 1014.72 383.526L974.296 467.967C971.693 473.404 968.753 477.323 965.477 479.721C962.379 482.12 959.677 483.32 957.372 483.32L949.104 500.592C962.934 500.592 976.562 496.754 989.988 489.077C1003.67 481.241 1012.96 472.205 1017.86 461.97L1052.65 389.283C1057.55 379.048 1056.87 370.092 1050.62 362.416C1044.54 354.739 1034.59 350.901 1020.76 350.901L1012.61 367.933Z" fill="#E8E8E8"/>
  </g>
</svg>
